<?xml version="1.0" encoding="UTF-8"?>
<svg width="48px" height="48px" viewBox="0 0 48 48" version="1.1" xmlns="http://www.w3.org/2000/svg" xmlns:xlink="http://www.w3.org/1999/xlink">
    <!-- Generator: Sketch 51.3 (57544) - http://www.bohemiancoding.com/sketch -->
    <title>icon/sport/american-football</title>
    <desc>Created with Sketch.</desc>
    <defs>
        <path d="M20.1926681,26.4347774 L22.6167506,24.0106665 L20.4488688,21.8427593 C20.0629175,21.4568034 20.0629175,20.8310454 20.4488688,20.4450896 C20.8348201,20.0591337 21.4605708,20.0591337 21.8465221,20.4450896 L24.0144038,22.6129968 L26.4390284,20.1883437 L24.2711467,18.0204365 C23.8851954,17.6344807 23.8851954,17.0087226 24.2711467,16.6227668 C24.6570979,16.236811 25.2828486,16.236811 25.6687999,16.6227668 L27.8366817,18.790674 L29.048994,17.5783475 C29.4349452,17.1923917 30.0606959,17.1923917 30.4466472,17.5783475 C30.8325985,17.9643033 30.8325985,18.5900614 30.4466472,18.9760172 L29.2343349,20.1883437 L31.4022167,22.356251 C31.788168,22.7422068 31.788168,23.3679648 31.4022167,23.7539206 C31.0162654,24.1398765 30.3905147,24.1398765 30.0045634,23.7539206 L27.8366817,21.5860134 L25.4120571,24.0106665 L27.5799388,26.1785737 C27.9658901,26.5645295 27.9658901,27.1902876 27.5799388,27.5762434 C27.1939876,27.9621992 26.5682369,27.9621992 26.1822856,27.5762434 L24.0144038,25.4083362 L21.5906709,27.8320976 L23.7574862,29.997855 C24.143534,30.3837143 24.1436905,31.0094723 23.7578357,31.3955247 C23.371981,31.781577 22.7462303,31.7817335 22.3601825,31.3958742 L20.1930176,29.2297674 L18.9798137,30.4429855 C18.5938624,30.8289413 17.9681117,30.8289413 17.5821604,30.4429855 C17.1962091,30.0570297 17.1962091,29.4312716 17.5821604,29.0453158 L18.7950148,27.8324472 L16.6267657,25.6652568 C16.240718,25.2793975 16.2405615,24.6536394 16.6264162,24.2675871 C17.012271,23.8815348 17.6380217,23.8813783 18.0240695,24.2672376 L20.1926681,26.4347774 Z M27.2891006,7.01604369 C22.3677716,8.28764903 17.7522702,10.7421983 14.2712498,14.2232595 C10.7676479,17.7265518 8.30073283,22.3202939 7.0224478,27.1984264 L20.8015939,40.9777344 C25.7032507,39.6980425 30.3115694,37.2335909 33.796546,33.7485734 C37.2588204,30.2866112 39.7109211,25.6564406 40.9840289,20.711133 L27.2891006,7.01604369 Z M29.5816324,6.51326308 L41.4858115,18.4175821 C41.5046368,18.3134253 41.5229437,18.2091892 41.5407308,18.1048814 C42.3854566,13.1512133 41.8444429,8.75588491 40.5544288,7.46548937 C39.2596806,6.17109387 34.8792318,5.6167483 29.9461168,6.44954781 C29.824527,6.47007438 29.7030305,6.49131584 29.5816393,6.51326994 Z M6.51407418,29.4853862 C6.488577,29.6246102 6.46403993,29.7639604 6.44046637,29.9034189 C5.60941731,34.8198106 6.18202403,39.1730756 7.51447067,40.5055379 C8.84272161,41.8338045 13.2105087,42.3929953 18.1473158,41.5498745 C18.2695101,41.5290059 18.3916173,41.5074062 18.513625,41.485078 L6.51407418,29.4853862 Z M5.41799076,42.6020425 C0.477560893,37.6615545 3.29259257,21.0081475 12.1748224,12.1267025 C20.9690037,3.33241791 37.7757323,0.495136517 42.6509084,5.36898463 C47.5082486,10.2277607 44.6295038,27.1093878 35.8929725,35.8451314 C27.068896,44.6693115 10.3418845,47.5259941 5.41799076,42.6020425 Z" id="path-1"></path>
    </defs>
    <g id="icon/sport/american-football" stroke="none" stroke-width="1" fill="none" fill-rule="evenodd">
        <mask id="mask-2" fill="white">
            <use xlink:href="#path-1"></use>
        </mask>
        <use id="Combined-Shape" fill="#fff" fill-rule="nonzero" xlink:href="#path-1"></use>
        <g id="icon/color/black" mask="url(#mask-2)">
            <rect id="Colour---keep-transparent-for-export" x="0" y="0" width="48" height="48"></rect>
        </g>
    </g>
</svg>