<?xml version="1.0" encoding="UTF-8"?>
<svg width="48px" height="48px" viewBox="0 0 48 48" version="1.1" xmlns="http://www.w3.org/2000/svg" xmlns:xlink="http://www.w3.org/1999/xlink">
    <!-- Generator: Sketch 51.3 (57544) - http://www.bohemiancoding.com/sketch -->
    <title>icon/sport/baseball</title>
    <desc>Created with Sketch.</desc>
    <defs>
        <path d="M16.8141866,23 L18,23 C18.5522847,23 19,23.4477153 19,24 C19,24.5522847 18.5522847,25 18,25 L16.8142054,25 C16.6944097,27.5991473 16.1090554,30.1111723 15.1128256,32.4384883 L16.4474327,33.1057919 C16.9414111,33.3527811 17.1416355,33.9534542 16.8946462,34.4474327 C16.647657,34.9414111 16.046984,35.1416355 15.5530055,34.8946462 L14.2404946,34.2383908 C13.4730145,35.6496566 12.5457723,36.9761261 11.4727558,38.192836 C14.8105057,41.1411108 19.1962434,42.9302326 24,42.9302326 C28.8037566,42.9302326 33.1894943,41.1411108 36.5272442,38.192836 C35.4542714,36.9761755 34.5270609,35.6497646 33.7595991,34.238563 L32.4474327,34.8946462 C31.9534542,35.1416355 31.3527811,34.9414111 31.1057919,34.4474327 C30.8588026,33.9534542 31.059027,33.3527811 31.5530055,33.1057919 L32.8872516,32.4386688 C31.8909749,30.1113022 31.3055934,27.5992145 31.1857946,25 L30,25 C29.4477153,25 29,24.5522847 29,24 C29,23.4477153 29.4477153,23 30,23 L31.1858134,23 C31.3056513,20.4009996 31.890995,17.8890865 32.887196,15.5617415 L31.5530055,14.8946462 C31.059027,14.647657 30.8588026,14.046984 31.1057919,13.5530055 C31.3527811,13.059027 31.9534542,12.8588026 32.4474327,13.1057919 L33.7594834,13.7618172 C34.5269205,12.3505125 35.4541088,11.0239321 36.5270701,9.8070102 C33.1893418,6.85882702 28.8036731,5.06976744 24,5.06976744 C19.1963269,5.06976744 14.8106582,6.85882702 11.4729299,9.8070102 C12.5459348,11.0239816 13.473155,12.3506204 14.2406102,13.7619895 L15.5530055,13.1057919 C16.046984,12.8588026 16.647657,13.059027 16.8946462,13.5530055 C17.1416355,14.046984 16.9414111,14.647657 16.4474327,14.8946462 L15.1128812,15.5619219 C16.1090353,17.8892163 16.6943518,20.4010668 16.8141866,23 Z M14.765284,25 L14,25 C13.4477153,25 13,24.5522847 13,24 C13,23.4477153 13.4477153,23 14,23 L14.7652632,23 C14.6493007,20.7241666 14.1389782,18.5240137 13.2788338,16.4789457 L12.4474327,16.8946462 C11.9534542,17.1416355 11.3527811,16.9414111 11.1057919,16.4474327 C10.8588026,15.9534542 11.059027,15.3527811 11.5530055,15.1057919 L12.408944,14.6778226 C11.7389705,13.4563003 10.9362467,12.3053974 10.0118121,11.2447957 C6.94188535,14.6095805 5.06976744,19.086085 5.06976744,24 C5.06976744,28.9138359 6.94182506,33.3902753 10.0116638,36.7550418 C10.936097,35.6946966 11.7388335,34.543967 12.4088254,33.3225562 L11.5530055,32.8946462 C11.059027,32.647657 10.8588026,32.046984 11.1057919,31.5530055 C11.3527811,31.059027 11.9534542,30.8588026 12.4474327,31.1057919 L13.2787814,31.5214662 C14.1389976,29.4763744 14.649358,27.2760512 14.765284,25 Z M33.234716,25 C33.3506454,27.2761183 33.8610326,29.4765043 34.7212947,31.5216472 L35.5530055,31.1057919 C36.046984,30.8588026 36.647657,31.059027 36.8946462,31.5530055 C37.1416355,32.046984 36.9414111,32.647657 36.4474327,32.8946462 L35.5912689,33.3227281 C36.2612418,34.544075 37.0639463,35.6947464 37.9883362,36.7550418 C41.0581749,33.3902753 42.9302326,28.9138359 42.9302326,24 C42.9302326,19.086085 41.0581146,14.6095805 37.9881879,11.2447957 C37.0637966,12.3053476 36.2611048,13.4561923 35.5911503,14.6776507 L36.4474327,15.1057919 C36.9414111,15.3527811 37.1416355,15.9534542 36.8946462,16.4474327 C36.647657,16.9414111 36.046984,17.1416355 35.5530055,16.8946462 L34.7212423,16.4787647 C33.8610519,18.5238838 33.3507027,20.7240995 33.2347368,23 L34,23 C34.5522847,23 35,23.4477153 35,24 C35,24.5522847 34.5522847,25 34,25 L33.234716,25 Z M24,2 C36.1505766,2 46,11.8494234 46,24 C46,36.1505766 36.1505766,46 24,46 C11.8494234,46 2,36.1505766 2,24 C2,11.8494234 11.8494234,2 24,2 Z" id="path-1"></path>
    </defs>
    <g id="icon/sport/baseball" stroke="none" stroke-width="1" fill="none" fill-rule="evenodd">
        <mask id="mask-2" fill="white">
            <use xlink:href="#path-1"></use>
        </mask>
        <use id="Combined-Shape" fill="#fff" fill-rule="nonzero" xlink:href="#path-1"></use>
        <g id="icon/color/black" mask="url(#mask-2)">
            <rect id="Colour---keep-transparent-for-export" x="0" y="0" width="48" height="48"></rect>
        </g>
    </g>
</svg>