<?xml version="1.0" encoding="UTF-8"?>
<svg width="48px" height="48px" viewBox="0 0 48 48" version="1.1" xmlns="http://www.w3.org/2000/svg" xmlns:xlink="http://www.w3.org/1999/xlink">
    <!-- Generator: Sketch 51.3 (57544) - http://www.bohemiancoding.com/sketch -->
    <title>icon/sport/basketball</title>
    <desc>Created with Sketch.</desc>
    <defs>
        <path d="M16.8131018,22.9767442 L22.9767442,22.9767442 L22.9767442,5.09694939 C18.5748313,5.33139945 14.5721259,7.06952034 11.4729299,9.8070102 C14.6766145,13.4405372 16.5807032,18.051693 16.8131018,22.9767442 Z M16.813121,25.0232558 C16.5807996,29.9486363 14.6765644,34.5599878 11.4727558,38.192836 C14.571976,40.9304146 18.5747488,42.6685962 22.9767442,42.9030506 L22.9767442,25.0232558 L16.813121,25.0232558 Z M31.1868982,22.9767442 C31.4192968,18.051693 33.3233855,13.4405372 36.5270701,9.8070102 C33.4278741,7.06952034 29.4251687,5.33139945 25.0232558,5.09694939 L25.0232558,22.9767442 L31.1868982,22.9767442 Z M31.186879,25.0232558 L25.0232558,25.0232558 L25.0232558,42.9030506 C29.4252512,42.6685962 33.428024,40.9304146 36.5272442,38.192836 C33.3234356,34.5599878 31.4192004,29.9486363 31.186879,25.0232558 Z M5.09694939,22.9767442 L14.7640644,22.9767442 C14.535601,18.5955243 12.8455258,14.4959088 10.0118121,11.2447957 C7.15635712,14.3745093 5.33719408,18.4660343 5.09694939,22.9767442 Z M5.09694939,25.0232558 C5.33718992,29.5338876 7.15629412,33.625349 10.0116638,36.7550418 C12.8454736,33.5045998 14.5356963,29.4048134 14.7640857,25.0232558 L5.09694939,25.0232558 Z M42.9030506,22.9767442 C42.6628059,18.4660343 40.8436429,14.3745093 37.9881879,11.2447957 C35.1544742,14.4959088 33.464399,18.5955243 33.2359356,22.9767442 L42.9030506,22.9767442 Z M42.9030506,25.0232558 L33.2359143,25.0232558 C33.4643037,29.4048134 35.1545264,33.5045998 37.9883362,36.7550418 C40.8437059,33.625349 42.6628101,29.5338876 42.9030506,25.0232558 Z M24,2 C36.1505766,2 46,11.8494234 46,24 C46,36.1505766 36.1505766,46 24,46 C11.8494234,46 2,36.1505766 2,24 C2,11.8494234 11.8494234,2 24,2 Z" id="path-1"></path>
    </defs>
    <g id="icon/sport/basketball" stroke="none" stroke-width="1" fill="none" fill-rule="evenodd">
        <mask id="mask-2" fill="white">
            <use xlink:href="#path-1"></use>
        </mask>
        <use id="Combined-Shape" fill="#fff" xlink:href="#path-1"></use>
        <g id="icon/color/black" mask="url(#mask-2)">
            <rect id="Colour---keep-transparent-for-export" x="0" y="0" width="48" height="48"></rect>
        </g>
    </g>
</svg>