<?xml version="1.0" encoding="UTF-8"?>
<svg width="48px" height="48px" viewBox="0 0 48 48" version="1.1" xmlns="http://www.w3.org/2000/svg" xmlns:xlink="http://www.w3.org/1999/xlink">
    <!-- Generator: Sketch 50.2 (55047) - http://www.bohemiancoding.com/sketch -->
    <title>icon/sport/All_sports</title>
    <desc>Created with Sketch.</desc>
    <defs>
        <path d="M42.9840434,11.573787 C42.308164,7.78004323 38.9930351,4.9000001 35.0049992,4.9000001 C34.9454667,4.9000001 34.8860841,4.90064188 34.8268581,4.90191891 C34.5044951,5.54626387 34.2678016,6.22368172 34.1238887,6.92765342 C34.0487013,7.29565713 34.0087422,7.6725271 34.0021187,8.05495527 C37.306095,7.45362685 39.986096,8.37277206 42.9840434,11.573787 Z M43.1097157,12.9365495 C39.9525258,9.22737532 37.3684501,8.22565822 34.0367778,8.86721645 C34.1580796,10.0686229 34.5853105,11.3009646 35.2625388,12.4664879 C37.5547093,12.7505613 39.6165179,13.6605487 40.9881184,15.1615656 C41.4455014,15.6619493 41.8408611,16.2071869 42.1735364,16.7905329 C42.7714255,15.6606326 43.1099987,14.372369 43.1099987,13.0049996 C43.1099987,12.9821607 43.1099042,12.9593439 43.1097157,12.9365495 Z M29.6896628,6.88606752 C29.0948835,9.34225386 29.5576463,12.4807456 31.1981198,14.5619278 C32.3478871,14.2223139 33.4707374,13.597853 34.4862472,12.7559657 C33.3895875,10.8216642 32.9224747,8.7066669 33.3181735,6.76992591 C33.4445617,6.15167929 33.6360109,5.55249116 33.8882535,4.97629967 C32.2938733,5.19600671 30.847516,5.87942299 29.6896628,6.88606752 Z M28.6771821,7.93986021 C27.5651398,9.32734148 26.8999996,11.0884673 26.8999996,13.0049996 C26.8999996,13.5384103 26.951523,14.0597828 27.0498647,14.5644121 C27.7719841,14.7546022 28.5108148,14.8526557 29.2583065,14.8526557 C29.6144666,14.8526557 29.9723438,14.8219709 30.3295785,14.7625797 C28.9574559,12.8401297 28.4323407,10.2473719 28.6771821,7.93986021 Z M30.3743861,19.6578941 C31.687033,20.5732259 33.283309,21.1099992 35.0049992,21.1099992 C37.7739168,21.1099992 40.2184522,19.7216429 41.6804748,17.6030609 C41.3353271,16.9102689 40.9000569,16.2713636 40.3756896,15.697698 C40.1220195,15.4200931 39.8403761,15.1644117 39.5345154,14.9311464 C37.8108305,18.0671295 35.2455021,19.5491966 30.3743861,19.6578941 Z M29.3980264,18.8577092 C34.6578697,18.9316196 37.1668852,17.5966945 38.85359,14.4718419 C37.7913797,13.8389663 36.5162579,13.4307597 35.1446967,13.2624992 C33.3963795,14.7536422 31.322263,15.6568358 29.2583065,15.6568358 C28.5882671,15.6568358 27.9250457,15.585119 27.2738422,15.4454638 C27.6880108,16.7588394 28.427593,17.9277753 29.3980264,18.8577092 Z M35.4909044,26.9144889 C35.2431527,29.0777867 34.2815563,31.1140621 32.6977434,32.697875 C31.1138872,34.2817312 29.0775636,35.2433136 26.9144856,35.490849 C27.0284566,37.4002642 27.8149445,39.2770445 29.2739491,40.7360492 C30.7301363,42.1922363 32.6024871,42.9785016 34.5080878,43.094845 C34.7539227,40.9282926 35.7159916,38.88839 37.302125,37.3022566 C38.8882147,35.7161669 40.9280688,34.7540839 43.0948415,34.5080316 C42.9784861,32.6024503 42.192222,30.730122 40.7360492,29.2739491 C39.2770586,27.8149586 37.4003004,27.0284718 35.4909044,26.9144889 Z M34.5542117,26.9124685 C32.6327229,27.0188546 30.7418834,27.8060149 29.2739491,29.2739491 C27.8060266,30.7418716 27.0188673,32.6326925 26.9124711,34.5541654 C28.8309309,34.3117422 30.6323136,33.4477672 32.0399746,32.0401062 C33.4475891,30.6324917 34.3115849,28.8311508 34.5542117,26.9124685 Z M43.0981494,35.4444521 C41.1754956,35.6852298 39.3701046,36.5498147 37.9598938,37.9600254 C36.5496362,39.370283 35.6850722,41.1757164 35.4444993,43.0981469 C37.3698692,42.9942236 39.2652407,42.2068577 40.7360492,40.7360492 C42.2068697,39.2652286 42.9942365,37.3698382 43.0981494,35.4444521 Z M9.73322808,34.5348837 L12.5348837,34.5348837 L12.5348837,26.9134052 C10.6579357,27.0207399 8.95207419,27.766702 7.63122964,28.937361 C8.89070102,30.5234077 9.6357147,32.4683547 9.73322808,34.5348837 Z M9.73323683,35.4651163 C9.63563627,37.534318 8.88885939,39.4815875 7.62652723,41.0684664 C8.94802428,42.2415243 10.6557076,42.989131 12.5348837,43.0965932 L12.5348837,35.4651163 L9.73323683,35.4651163 Z M16.2667719,34.5348837 C16.3643918,32.466097 17.1109276,30.5191581 18.3729002,28.9321639 C17.0505261,27.7624182 15.3432248,27.0179368 13.4651163,26.9128395 L13.4651163,34.5348837 L16.2667719,34.5348837 Z M16.2667632,35.4651163 L13.4651163,35.4651163 L13.4651163,43.0971588 C15.3454556,42.9919367 17.0545816,42.2458107 18.3776106,41.0736644 C17.1127726,39.4858408 16.3644703,37.5365779 16.2667632,35.4651163 Z M4.91340561,34.5348837 L8.80184744,34.5348837 C8.70706644,32.7172778 8.05885364,31.0062999 6.96709703,29.5978635 C5.77934139,30.9232873 5.02164629,32.6420921 4.91340561,34.5348837 Z M4.91283998,35.4651163 C5.01885524,37.3596273 5.77547159,39.0803345 6.96290992,40.4074588 C8.05720538,38.9982315 8.70698736,37.2851541 8.80185713,35.4651163 L4.91283998,35.4651163 Z M21.0965937,34.5348837 C20.9881902,32.6392454 20.2283774,30.9181178 19.0375404,29.5918861 C17.942982,31.0014577 17.2930677,32.7147057 17.1981526,34.5348837 L21.0965937,34.5348837 Z M21.0971593,35.4651163 L17.1981429,35.4651163 C17.2931468,37.2877282 17.9446337,39.0030769 19.0417358,40.4134362 C20.2322533,39.0855032 20.9909848,37.3624729 21.0971593,35.4651163 Z M13,25 C18.5229894,25 23,29.4770106 23,35 C23,40.5229894 18.5229894,45 13,45 C7.47701064,45 3,40.5229894 3,35 C3,29.4770106 7.47701064,25 13,25 Z M13,3 C18.5227349,3 23,7.47726505 23,13 C23,18.5227349 18.5227349,23 13,23 C7.47726505,23 3,18.5227349 3,13 C3,7.47726505 7.47726505,3 13,3 Z M9.9227757,5.4000001 C8.66663426,5.90810317 7.56460424,6.71750243 6.70629211,7.73859142 L7.84818719,11.0929082 C7.90547354,11.2611869 7.84519661,11.4470993 7.70006869,11.5497507 L4.80000019,13.6010187 C4.89546522,14.9871846 5.33442124,16.278901 6.03236736,17.3916672 L9.58674532,17.3205797 C9.76657252,17.3169831 9.92681813,17.4335057 9.97883042,17.6056844 L11.0065532,21.007801 C11.6463307,21.1675111 12.3157668,21.2522967 13.0050001,21.2522967 C13.6942334,21.2522967 14.3636695,21.1675111 15.0034471,21.007801 L16.0311698,17.6056844 C16.0831821,17.4335057 16.2434277,17.3169831 16.4232549,17.3205797 L19.9776329,17.3916672 C20.675579,16.278901 21.114535,14.9871846 21.21,13.6010187 L18.3099315,11.5497507 C18.1648036,11.4470993 18.1045267,11.2611869 18.161813,11.0929082 L19.3037081,7.73859142 C18.445396,6.71750243 17.343366,5.90810317 16.0872245,5.4000001 L13.2457224,7.5311267 C13.1030722,7.63811438 12.9069281,7.63811438 12.7642778,7.5311267 L9.9227757,5.4000001 Z M14.7021277,15.9787234 L11.2978723,15.9787234 C11.1366927,15.9787234 10.9893467,15.8876586 10.917265,15.7434951 L9.21513737,12.3392398 C9.12316624,12.1552976 9.17590259,11.9319028 9.34042553,11.8085106 L12.7446809,9.25531915 C12.8959811,9.14184397 13.1040189,9.14184397 13.2553191,9.25531915 L16.6595745,11.8085106 C16.8240974,11.9319028 16.8768338,12.1552976 16.7848626,12.3392398 L15.082735,15.7434951 C15.0106533,15.8876586 14.8633073,15.9787234 14.7021277,15.9787234 Z M42.0710146,27.9289854 C45.9763285,31.8342992 45.9763285,38.1657008 42.0710146,42.0710146 C38.1657008,45.9763285 31.8342992,45.9763285 27.9289854,42.0710146 C24.0236715,38.1657008 24.0236715,31.8342992 27.9289854,27.9289854 C31.8342992,24.0236715 38.1657008,24.0236715 42.0710146,27.9289854 Z M35,3 C40.5229894,3 45,7.47701064 45,13 C45,18.5229894 40.5229894,23 35,23 C29.4770106,23 25,18.5229894 25,13 C25,7.47701064 29.4770106,3 35,3 Z" id="path-1"></path>
    </defs>
    <g id="icon/sport/All_sports" stroke="none" stroke-width="1" fill="none" fill-rule="evenodd">
        <mask id="mask-2" fill="white">
            <use xlink:href="#path-1"></use>
        </mask>
        <use id="Combined-Shape" fill="#fff" xlink:href="#path-1"></use>
        <g id="icon/color/black" mask="url(#mask-2)">
            <rect id="Colour---keep-transparent-for-export" x="0" y="0" width="48" height="48"></rect>
        </g>
    </g>
</svg>