<?xml version="1.0" encoding="UTF-8"?>
<svg width="125px" height="125px" viewBox="0 0 125 125" version="1.1" xmlns="http://www.w3.org/2000/svg" xmlns:xlink="http://www.w3.org/1999/xlink">
    <!-- Generator: Sketch 55.2 (78181) - https://sketchapp.com -->
    <title>COPA AMERICA</title>
    <desc>Created with Sketch.</desc>
    <g id="COPA-AMERICA" stroke="none" stroke-width="1" fill="none" fill-rule="evenodd">
        <g id="logo-sudamericana-color" transform="translate(-13.000000, 10.000000)" fill="#FFFFFF" fill-rule="nonzero">
            <g id="Group-3" transform="translate(69.700000, 63.400000)">
                <path d="M10.6,14.9 C7.56662085,10.4792715 5.73973202,5.34330099 5.3,4.26325641e-14 L5.3,4.26325641e-14 C4.86026798,5.34330099 3.03337915,10.4792715 7.10542736e-15,14.9 L10.6,14.9 Z" id="Path"></path>
                <path d="M5.3,4.26325641e-14 C5.6,4.9 6.3,10.2 9.4,14.9 L10.6,14.9 C7.56662085,10.4792715 5.73973202,5.34330099 5.3,4.26325641e-14 L5.3,4.26325641e-14 Z" id="Path"></path>
                <path d="M5.3,4.26325641e-14 C5,4.9 4.3,10.2 1.2,14.9 L3.55271368e-14,14.9 C3.03337915,10.4792715 4.86026798,5.34330099 5.3,4.26325641e-14 L5.3,4.26325641e-14 Z" id="Path"></path>
            </g>
            <path d="M78.3,60.6 C78.3,51.8 91.6,26 91.6,20.5 C91.6,11.3320732 84.1679268,3.9 75,3.9 C65.8320732,3.9 58.4,11.3320732 58.4,20.5 C58.4,26 71.7,51.7 71.7,60.6 C71.7705371,64.89991 68.0038704,70.79991 60.4,78.3 C65.7,72.7 67.8,67.4 67.8,60.6 C67.8,51.2 59.7,36.8 59.6,36.4 C57.2,31.8 54.5,26.5 54.5,20.5 C54.5,9.17816263 63.6781626,2.84217094e-14 75,2.84217094e-14 C86.3218374,2.84217094e-14 95.5,9.17816263 95.5,20.5 C95.5,26.5 92.8,31.8 90.4,36.4 C90.2,36.7 82.2,51.2 82.2,60.6 C82.2,67.4 84.3,72.7 89.6,78.3 C81.9961296,70.79991 78.2294629,64.89991 78.3,60.6 Z" id="Path"></path>
        </g>
        <g id="football-england-premier_league" transform="translate(47.000000, 17.000000)" fill="#FFFFFF" fill-rule="nonzero">
            <path d="M28.6370198,14.9268293 C28.1344202,15.6097561 27.4810406,16 27.4810406,16 C27.4810406,16 27.1794808,15.1219512 26.3753214,13.6585366 C25.8224618,12.5365854 24.9680424,11.8536585 24.9680424,11.8536585 C24.9680424,11.8536585 25.1690822,10.6341463 25.3198621,9.17073171 C25.470642,7.65853659 25.3198621,6.58536585 25.3198621,6.58536585 C25.3198621,6.58536585 25.9229817,6.63414634 26.877921,7.12195122 C27.4307807,7.41463415 27.7826004,7.70731707 27.9836403,7.95121951 C26.2748015,4.43902439 23.1586836,1.75609756 19.3389262,0.536585366 C19.4897061,0.731707317 19.640486,0.975609756 19.8415259,1.26829268 C20.1933456,1.70731707 20.5954254,2.63414634 20.5954254,2.63414634 C20.5954254,2.63414634 19.1378864,2.7804878 17.8311273,2.92682927 C16.1725484,3.12195122 15.267869,3.56097561 15.267869,3.56097561 C15.267869,3.56097561 13.91085,2.7804878 12.9559106,2.48780488 C12.0009713,2.19512195 10.6942122,2 10.6942122,2 C10.6942122,2 10.945512,1.31707317 11.6491515,0.731707317 C12.2522711,0.195121951 12.7046108,0.0487804878 12.9559106,0 C8.58329366,0.536585366 4.86405622,2.92682927 2.60235778,6.3902439 C3.0044375,5.90243902 3.45677719,5.46341463 3.90911688,5.26829268 C4.61275639,4.92682927 5.51743577,5.02439024 5.51743577,5.02439024 C5.51743577,5.02439024 4.86405622,6.68292683 4.76353629,7.6097561 C4.56249643,9.2195122 4.66301636,9.95121951 4.66301636,9.95121951 C4.66301636,9.95121951 3.75833698,10.6341463 2.80339764,11.9512195 C1.79819834,13.2682927 1.64741844,13.902439 1.64741844,13.902439 C1.64741844,13.902439 1.14481879,13.5609756 0.843258994,12.5853659 C0.692479098,12.1463415 0.692479098,11.3658537 0.692479098,10.8292683 C0.441179271,11.804878 0.340659341,12.8780488 0.340659341,13.9512195 C0.340659341,16.9756098 1.34585865,19.804878 3.0044375,22.097561 C2.95417754,21.804878 2.90391757,21.3658537 2.95417754,20.7804878 C3.0044375,20.195122 3.10495743,19.7073171 3.10495743,19.7073171 C3.10495743,19.7073171 3.80859695,20.4390244 5.01483612,21.0243902 C6.67341497,21.804878 7.42731445,22.0487805 7.42731445,22.0487805 C7.42731445,22.0487805 8.080694,23.4146341 8.63355362,24.097561 C9.18641324,24.7804878 10.4931723,25.9512195 10.4931723,25.9512195 C10.4931723,25.9512195 9.94031272,26.195122 9.3874531,26.2926829 C8.88485345,26.3902439 8.43251376,26.3902439 8.080694,26.3902439 C10.0910926,27.4146341 12.403051,28 14.8657893,28 C16.3233283,28 17.6803474,27.804878 18.9871065,27.4146341 C18.7860666,27.3170732 18.3839869,27.1707317 17.8311273,26.9756098 C17.2280077,26.7317073 16.6751481,26.5365854 16.6751481,26.5365854 C16.6751481,26.5365854 16.775668,26.5365854 18.233207,25.1707317 C19.690746,23.804878 20.0425658,22.9268293 20.0425658,22.9268293 C20.0425658,22.9268293 21.098025,22.9756098 22.4047841,22.5853659 C23.9125831,22.1463415 25.0685623,21.5609756 25.0685623,21.5609756 C25.0685623,21.5609756 25.2696021,21.9512195 25.3198621,22.5853659 C25.3198621,22.9268293 25.2696021,23.4634146 25.2193422,23.7560976 C27.7826004,21.2195122 29.3406593,17.7560976 29.3406593,13.902439 C29.3406593,13.8536585 29.3406593,13.7560976 29.3406593,13.7073171 C29.1898794,14 28.9385796,14.5365854 28.6370198,14.9268293 Z M18.6855467,16.2926829 C17.5798275,18.6341463 17.2280077,18.8292683 17.0772278,18.8292683 C17.1274878,18.8780488 16.9264479,19.0731707 13.86059,18.7804878 C10.3423924,18.4390244 10.5434323,18.2439024 10.5936923,18.2439024 C10.5434323,18.2439024 10.2418725,18.195122 9.63875293,15.4146341 C8.98537338,12.2926829 9.28693317,12 9.28693317,12 C9.28693317,12 10.4429124,11.1707317 11.6994115,10.4390244 C12.9559106,9.70731707 14.7652694,8.87804878 14.7652694,8.87804878 C14.7652694,8.87804878 15.4689089,8.87804878 17.8311273,10.8780488 C20.1933456,12.8780488 19.8415259,13.0243902 19.8415259,13.0243902 C19.8415259,13.0243902 20.0928257,13.3170732 18.6855467,16.2926829 Z" id="Shape"></path>
        </g>
        <path d="M26.4589844,103.158203 C26.3925778,104.076176 26.053714,104.798825 25.4423828,105.326172 C24.8310516,105.853518 24.0253956,106.117188 23.0253906,106.117188 C21.9316352,106.117188 21.0712922,105.749027 20.4443359,105.012695 C19.8173797,104.276364 19.5039062,103.265631 19.5039062,101.980469 L19.5039062,101.458984 C19.5039062,100.638668 19.6484361,99.9160188 19.9375,99.2910156 C20.2265639,98.6660125 20.6396458,98.1865251 21.1767578,97.8525391 C21.7138699,97.518553 22.3378871,97.3515625 23.0488281,97.3515625 C24.033208,97.3515625 24.8261689,97.6152317 25.4277344,98.1425781 C26.0292999,98.6699245 26.3769527,99.4101515 26.4707031,100.363281 L24.7128906,100.363281 C24.6699217,99.8124972 24.5166029,99.4130872 24.2529297,99.1650391 C23.9892565,98.9169909 23.5878933,98.7929688 23.0488281,98.7929688 C22.4628877,98.7929688 22.0244155,99.0029276 21.7333984,99.4228516 C21.4423814,99.8427755 21.2929688,100.494136 21.2851562,101.376953 L21.2851562,102.021484 C21.2851562,102.943364 21.4248033,103.617185 21.7041016,104.042969 C21.9833998,104.468752 22.4238251,104.681641 23.0253906,104.681641 C23.5683621,104.681641 23.9736315,104.557618 24.2412109,104.30957 C24.5087904,104.061522 24.6621092,103.677737 24.7011719,103.158203 L26.4589844,103.158203 Z M34.6210938,101.927734 C34.6210938,102.767582 34.4726577,103.503903 34.1757812,104.136719 C33.8789048,104.769534 33.4541043,105.257811 32.9013672,105.601562 C32.34863,105.945314 31.7148473,106.117188 31,106.117188 C30.2929652,106.117188 29.6621121,105.947267 29.1074219,105.607422 C28.5527316,105.267576 28.1230484,104.78223 27.8183594,104.151367 C27.5136704,103.520505 27.359375,102.794926 27.3554688,101.974609 L27.3554688,101.552734 C27.3554688,100.712886 27.5068344,99.973636 27.8095703,99.3349609 C28.1123062,98.6962859 28.5400363,98.2060564 29.0927734,97.8642578 C29.6455106,97.5224592 30.2773402,97.3515625 30.9882812,97.3515625 C31.6992223,97.3515625 32.3310519,97.5224592 32.8837891,97.8642578 C33.4365262,98.2060564 33.8642563,98.6962859 34.1669922,99.3349609 C34.4697281,99.973636 34.6210938,100.710933 34.6210938,101.546875 L34.6210938,101.927734 Z M32.8398438,101.541016 C32.8398438,100.64648 32.6796891,99.9667992 32.359375,99.5019531 C32.0390609,99.0371071 31.5820342,98.8046875 30.9882812,98.8046875 C30.3984346,98.8046875 29.943361,99.0341774 29.6230469,99.4931641 C29.3027328,99.9521507 29.140625,100.624996 29.1367188,101.511719 L29.1367188,101.927734 C29.1367188,102.798832 29.2968734,103.474607 29.6171875,103.955078 C29.9375016,104.435549 30.3984345,104.675781 31,104.675781 C31.5898467,104.675781 32.0429672,104.444338 32.359375,103.981445 C32.6757828,103.518552 32.8359375,102.843754 32.8398438,101.957031 L32.8398438,101.541016 Z M37.65625,102.994141 L37.65625,106 L35.8984375,106 L35.8984375,97.46875 L39.2265625,97.46875 C39.8671907,97.46875 40.4306616,97.5859363 40.9169922,97.8203125 C41.4033227,98.0546887 41.7773424,98.3876932 42.0390625,98.8193359 C42.3007826,99.2509787 42.4316406,99.7421847 42.4316406,100.292969 C42.4316406,101.12891 42.1455107,101.788084 41.5732422,102.270508 C41.0009737,102.752932 40.2089894,102.994141 39.1972656,102.994141 L37.65625,102.994141 Z M37.65625,101.570312 L39.2265625,101.570312 C39.6914086,101.570312 40.0458972,101.460939 40.2900391,101.242188 C40.5341809,101.023436 40.65625,100.71094 40.65625,100.304688 C40.65625,99.8867167 40.5332044,99.5488294 40.2871094,99.2910156 C40.0410144,99.0332018 39.701174,98.9003907 39.2675781,98.8925781 L37.65625,98.8925781 L37.65625,101.570312 Z M47.4121094,104.242188 L44.3300781,104.242188 L43.7441406,106 L41.875,106 L45.0507812,97.46875 L46.6796875,97.46875 L49.8730469,106 L48.0039062,106 L47.4121094,104.242188 Z M44.8046875,102.818359 L46.9375,102.818359 L45.8652344,99.625 L44.8046875,102.818359 Z M58.4746094,104.242188 L55.3925781,104.242188 L54.8066406,106 L52.9375,106 L56.1132812,97.46875 L57.7421875,97.46875 L60.9355469,106 L59.0664062,106 L58.4746094,104.242188 Z M55.8671875,102.818359 L58,102.818359 L56.9277344,99.625 L55.8671875,102.818359 Z M64.0292969,97.46875 L66.2207031,103.65625 L68.4003906,97.46875 L70.7089844,97.46875 L70.7089844,106 L68.9453125,106 L68.9453125,103.667969 L69.1210938,99.6425781 L66.8183594,106 L65.6113281,106 L63.3144531,99.6484375 L63.4902344,103.667969 L63.4902344,106 L61.7324219,106 L61.7324219,97.46875 L64.0292969,97.46875 Z M77.3769531,102.302734 L74.0019531,102.302734 L74.0019531,104.587891 L77.9628906,104.587891 L77.9628906,106 L72.2441406,106 L72.2441406,97.46875 L77.9511719,97.46875 L77.9511719,98.8925781 L74.0019531,98.8925781 L74.0019531,100.925781 L77.3769531,100.925781 L77.3769531,102.302734 Z M82.1523438,102.876953 L80.7519531,102.876953 L80.7519531,106 L78.9941406,106 L78.9941406,97.46875 L82.1640625,97.46875 C83.17188,97.46875 83.949216,97.6933571 84.4960938,98.1425781 C85.0429715,98.5917991 85.3164062,99.2265584 85.3164062,100.046875 C85.3164062,100.628909 85.1904309,101.114256 84.9384766,101.50293 C84.6865222,101.891604 84.3046901,102.201171 83.7929688,102.431641 L85.6386719,105.917969 L85.6386719,106 L83.7519531,106 L82.1523438,102.876953 Z M80.7519531,101.453125 L82.1699219,101.453125 C82.6113303,101.453125 82.9531238,101.340821 83.1953125,101.116211 C83.4375012,100.8916 83.5585938,100.582033 83.5585938,100.1875 C83.5585938,99.7851542 83.4443371,99.4687512 83.2158203,99.2382812 C82.9873035,99.0078113 82.6367211,98.8925781 82.1640625,98.8925781 L80.7519531,98.8925781 L80.7519531,101.453125 Z M88.5214844,106 L86.7636719,106 L86.7636719,97.46875 L88.5214844,97.46875 L88.5214844,106 Z M96.8476562,103.158203 C96.7812497,104.076176 96.4423859,104.798825 95.8310547,105.326172 C95.2197235,105.853518 94.4140675,106.117188 93.4140625,106.117188 C92.320307,106.117188 91.4599641,105.749027 90.8330078,105.012695 C90.2060516,104.276364 89.8925781,103.265631 89.8925781,101.980469 L89.8925781,101.458984 C89.8925781,100.638668 90.0371079,99.9160188 90.3261719,99.2910156 C90.6152358,98.6660125 91.0283176,98.1865251 91.5654297,97.8525391 C92.1025417,97.518553 92.7265589,97.3515625 93.4375,97.3515625 C94.4218799,97.3515625 95.2148407,97.6152317 95.8164062,98.1425781 C96.4179718,98.6699245 96.7656245,99.4101515 96.859375,100.363281 L95.1015625,100.363281 C95.0585935,99.8124972 94.9052748,99.4130872 94.6416016,99.1650391 C94.3779284,98.9169909 93.9765652,98.7929688 93.4375,98.7929688 C92.8515596,98.7929688 92.4130874,99.0029276 92.1220703,99.4228516 C91.8310532,99.8427755 91.6816407,100.494136 91.6738281,101.376953 L91.6738281,102.021484 C91.6738281,102.943364 91.8134752,103.617185 92.0927734,104.042969 C92.3720717,104.468752 92.812497,104.681641 93.4140625,104.681641 C93.957034,104.681641 94.3623033,104.557618 94.6298828,104.30957 C94.8974623,104.061522 95.0507811,103.677737 95.0898438,103.158203 L96.8476562,103.158203 Z M102.818359,104.242188 L99.7363281,104.242188 L99.1503906,106 L97.28125,106 L100.457031,97.46875 L102.085938,97.46875 L105.279297,106 L103.410156,106 L102.818359,104.242188 Z M100.210938,102.818359 L102.34375,102.818359 L101.271484,99.625 L100.210938,102.818359 Z" id="COPAAMERICA" fill="#FFFFFF" fill-rule="nonzero"></path>
    </g>
</svg>