<?xml version="1.0" encoding="utf-8"?>
<!-- Generator: Adobe Illustrator 20.1.0, SVG Export Plug-In . SVG Version: 6.00 Build 0)  -->
<svg version="1.1" id="Layer_1" xmlns="http://www.w3.org/2000/svg" xmlns:xlink="http://www.w3.org/1999/xlink" x="0px" y="0px"
	 viewBox="0 0 90 76.4" style="enable-background:new 0 0 90 76.4;" xml:space="preserve">
<style type="text/css">
	.st0{fill:#FFFFFF;}
	.st1{clip-path:url(#SVGID_2_);fill:#FFFFFF;}
</style>
<g>
	<g>
		<g>
			<path class="st0" d="M13.6,73.9h4.9v2.2h-7.7V64.4h2.8V73.9z"/>
			<path class="st0" d="M25.4,76.1h-2.8V64.4h2.8V76.1z"/>
			<path class="st0" d="M39.7,74.6c-0.4,0.5-1.1,0.9-1.9,1.2c-0.8,0.3-1.8,0.4-2.7,0.4c-1.5,0-2.8-0.5-3.7-1.4
				c-0.9-0.9-1.4-2.2-1.5-3.9v-1c0-1.2,0.2-2.2,0.6-3c0.4-0.9,1-1.5,1.7-2c0.8-0.5,1.6-0.7,2.6-0.7c1.5,0,2.6,0.3,3.4,1
				c0.8,0.7,1.3,1.7,1.4,3h-2.7c-0.1-0.7-0.3-1.1-0.6-1.4c-0.3-0.3-0.8-0.4-1.4-0.4c-0.7,0-1.3,0.3-1.6,0.9
				c-0.4,0.6-0.6,1.5-0.6,2.6v0.7c0,1.2,0.2,2,0.6,2.6c0.4,0.6,1,0.9,1.9,0.9c0.7,0,1.3-0.2,1.6-0.5v-1.8h-2v-1.9h4.8L39.7,74.6
				L39.7,74.6z"/>
			<path class="st0" d="M53.2,64.4v7.7c0,0.9-0.2,1.6-0.6,2.3c-0.4,0.6-0.9,1.1-1.6,1.5c-0.7,0.3-1.5,0.5-2.5,0.5
				c-1.4,0-2.5-0.4-3.4-1.1c-0.8-0.7-1.2-1.8-1.3-3v-7.7h3v7.8c0,1.3,0.6,1.9,1.8,1.9c0.6,0,1-0.2,1.3-0.5s0.5-0.8,0.5-1.6v-7.6h2.8
				V64.4z"/>
			<path class="st0" d="M64.9,71.1h-4.4v2.8h5.2v2.2h-8.1V64.4h8.1v2.2h-5.3v2.5h4.4L64.9,71.1L64.9,71.1z"/>
			<path class="st0" d="M79.2,76.1h-2.7v-8.7l-2.7,0.8v-2.1l5.1-1.8h0.2v11.8H79.2z"/>
		</g>
		<g>
			<g>
				<defs>
					<circle id="SVGID_1_" cx="45" cy="29" r="28.9"/>
				</defs>
				<clipPath id="SVGID_2_">
					<use xlink:href="#SVGID_1_"  style="overflow:visible;"/>
				</clipPath>
				<path class="st1" d="M72.5,31c-1,1.4-2.3,2.2-2.3,2.2s-0.6-1.8-2.2-4.8c-1.2-2.3-2.9-3.7-2.9-3.7s0.4-2.5,0.7-5.5
					c0.3-3.1,0-5.3,0-5.3S67,14,68.9,15c1.1,0.6,1.8,1.2,2.2,1.7C67.7,9.5,61.5,4,53.9,1.5c0.3,0.4,0.6,0.9,1,1.5
					c0.7,0.9,1.5,2.8,1.5,2.8s-2.9,0.3-5.5,0.6c-3.3,0.4-5.1,1.3-5.1,1.3s-2.7-1.6-4.5-2.2c-1.8-0.7-4.5-1-4.5-1s0.5-1.4,1.9-2.6
					c1.2-1.1,2.1-1.4,2.6-1.5c-8.7,1.1-16.2,6-20.7,13.1c0.8-1,1.7-1.9,2.6-2.3c1.4-0.7,3.2-0.5,3.2-0.5s-1.3,3.4-1.5,5.3
					c-0.4,3.3-0.2,4.8-0.2,4.8s-1.8,1.4-3.7,4.1c-2,2.7-2.3,4-2.3,4s-0.9-0.7-1.5-2.7c-0.3-0.9-0.3-2.5-0.3-3.6
					c-0.5,2-0.7,4.2-0.7,6.4c0,6.2,2,12,5.3,16.7c-0.1-0.6-0.2-1.5-0.1-2.7s0.3-2.2,0.3-2.2s1.4,1.5,3.8,2.7
					c3.3,1.6,4.8,2.1,4.8,2.1s1.3,2.8,2.4,4.2c1,1.3,3.7,3.8,3.7,3.8s-1.1,0.5-2.2,0.7c-1,0.2-1.9,0.2-2.6,0.2
					c4,2.1,8.6,3.3,13.5,3.3c2.9,0,5.6-0.4,8.2-1.2c-0.4-0.2-1.2-0.5-2.3-0.9c-1.2-0.5-2.3-0.9-2.3-0.9s0.2,0,3.1-2.8
					c2.9-2.8,3.6-4.6,3.6-4.6s2.1,0.1,4.7-0.7c3-0.9,5.3-2.1,5.3-2.1s0.4,0.8,0.5,2.1c0,0.7-0.1,1.8-0.2,2.4
					c5.1-5.2,8.2-12.3,8.2-20.2c0-0.1,0-0.3,0-0.4C73.6,29.1,73,30.2,72.5,31z M52.6,33.8c-2.2,4.8-2.9,5.2-3.2,5.2
					c0.1,0.1-0.3,0.5-6.4-0.1c-7-0.7-6.6-1.1-6.5-1.1c-0.1,0-0.7-0.1-1.9-5.8c-1.3-6.4-0.7-7-0.7-7s2.3-1.7,4.8-3.2s6.1-3.2,6.1-3.2
					s1.4,0,6.1,4.1s4,4.4,4,4.4S55.5,27.7,52.6,33.8z"/>
			</g>
		</g>
	</g>
</g>
</svg>
