<svg height="125" viewBox="0 0 125 125" width="125" xmlns="http://www.w3.org/2000/svg"><g fill="#fff" fill-rule="evenodd"><g fill-rule="nonzero" transform="translate(-13 10)"><g transform="translate(69.7 63.4)"><path d="m10.6 14.9c-3.03337915-4.4207285-4.86026798-9.55669901-5.3-14.9-.43973202 5.34330099-2.26662085 10.4792715-5.3 14.9z"/><path d="m5.3 0c.3 4.9 1 10.2 4.1 14.9h1.2c-3.03337915-4.4207285-4.86026798-9.55669901-5.3-14.9z"/><path d="m5.3 0c-.3 4.9-1 10.2-4.1 14.9h-1.2c3.03337915-4.4207285 4.86026798-9.55669901 5.3-14.9z"/></g><path d="m78.3 60.6c0-8.8 13.3-34.6 13.3-40.1 0-9.1679268-7.4320732-16.6-16.6-16.6s-16.6 7.4320732-16.6 16.6c0 5.5 13.3 31.2 13.3 40.1.0705371 4.29991-3.6961296 10.19991-11.3 17.7 5.3-5.6 7.4-10.9 7.4-17.7 0-9.4-8.1-23.8-8.2-24.2-2.4-4.6-5.1-9.9-5.1-15.9 0-11.32183737 9.1781626-20.5 20.5-20.5s20.5 9.17816263 20.5 20.5c0 6-2.7 11.3-5.1 15.9-.2.3-8.2 14.8-8.2 24.2 0 6.8 2.1 12.1 7.4 17.7-7.6038704-7.50009-11.3705371-13.40009-11.3-17.7z"/></g><path d="m48.9492188 105.242188h-3.0820313l-.5859375 1.757812h-1.8691406l3.1757812-8.53125h1.6289063l3.1933593 8.53125h-1.8691406zm-2.6074219-1.423829h2.1328125l-1.0722656-3.193359zm10.9980469-.304687h-3.375v3.486328h-1.7578126v-8.53125h5.5546876v1.4238281h-3.796875v2.2031249h3.375zm8.1386718.644531c-.0664066.917973-.4052704 1.640622-1.0166015 2.167969-.6113312.527346-1.4169872.791016-2.4169922.791016-1.0937555 0-1.9540985-.368161-2.5810547-1.104493-.6269563-.736331-.9404297-1.747064-.9404297-3.032226v-.521485c0-.820316.1445298-1.542965.4335937-2.167968.289064-.6250035.7021458-1.1044909 1.2392579-1.4384769.537112-.3339861 1.1611292-.5009766 1.8720703-.5009766.9843799 0 1.7773407.2636692 2.3789062.7910156s.9492183 1.2675729 1.0429688 2.2207029h-1.7578125c-.042969-.550784-.1962878-.950194-.459961-1.198242-.2636732-.2480481-.6650363-.3720702-1.2041015-.3720702-.5859405 0-1.0244126.2099592-1.3154297.6298832s-.4404297 1.071284-.4482422 1.954101v.644531c0 .92188.139647 1.595701.4189453 2.021485.2792983.425783.7197236.638672 1.3212891.638672.5429714 0 .9482408-.124023 1.2158203-.372071s.4208982-.631833.4599609-1.151367zm8.1621094-1.230469c0 .839848-.148436 1.576169-.4453125 2.208985-.2968765.632815-.7216769 1.121092-1.2744141 1.464843-.5527371.343752-1.1865198.515626-1.9013672.515626-.7070347 0-1.3378878-.169921-1.8925781-.509766-.5546902-.339846-.9843735-.825192-1.2890625-1.456055-.304689-.630862-.4589843-1.356441-.4628906-2.176758v-.421875c0-.839848.1513657-1.579098.4541016-2.217773.3027359-.6386751.7304659-1.1289046 1.2832031-1.4707032.5527371-.3417986 1.1845667-.5126953 1.8955078-.5126953s1.3427707.1708967 1.8955078.5126953c.5527372.3417986.9804672.8320281 1.2832031 1.4707032.3027359.638675.4541016 1.375972.4541016 2.211914zm-1.78125-.386718c0-.894536-.1601546-1.574217-.4804688-2.039063-.3203141-.464846-.7773407-.6972655-1.3710937-.6972655-.5898467 0-1.0449203.2294895-1.3652344.6884765s-.4824218 1.131832-.4863281 2.018555v.416015c0 .871098.1601546 1.546873.4804688 2.027344.3203141.480471.7812469.720703 1.3828124.720703.5898467 0 1.0429672-.231443 1.359375-.694336.3164079-.462893.4765625-1.137691.4804688-2.024414zm9.9960938 4.458984h-1.7578126l-3.421875-5.613281v5.613281h-1.7578124v-8.53125h1.7578124l3.4277344 5.625v-5.625h1.7519532z" fill-rule="nonzero"/><rect height="28" rx="14" width="28" x="48" y="16"/></g></svg>