<?xml version="1.0" encoding="utf-8"?>
<!-- Generator: Adobe Illustrator 20.1.0, SVG Export Plug-In . SVG Version: 6.00 Build 0)  -->
<svg version="1.1" id="Layer_1" xmlns="http://www.w3.org/2000/svg" xmlns:xlink="http://www.w3.org/1999/xlink" x="0px" y="0px"
	 viewBox="0 0 90 86.4" style="enable-background:new 0 0 90 86.4;" xml:space="preserve">
<style type="text/css">
	.st0{fill:#FFFFFF;}
	.st1{clip-path:url(#SVGID_2_);fill:#FFFFFF;}
</style>
<g id="Layer_2">
</g>
<g>
	<path class="st0" d="M19.9,69.7l1.1-6h1.7l-1.9,8.4h-1.7l-1.4-5.6l-1.4,5.6h-1.7l-1.9-8.4h1.7l1.1,6l1.4-6h1.5L19.9,69.7z"/>
	<path class="st0" d="M30.4,68.1c0,0.8-0.1,1.6-0.4,2.2c-0.3,0.6-0.7,1.1-1.3,1.4c-0.5,0.3-1.2,0.5-1.9,0.5c-0.7,0-1.3-0.2-1.9-0.5
		c-0.5-0.3-1-0.8-1.3-1.4c-0.3-0.6-0.5-1.3-0.5-2.1v-0.4c0-0.8,0.1-1.6,0.4-2.2c0.3-0.6,0.7-1.1,1.3-1.4c0.5-0.3,1.2-0.5,1.9-0.5
		c0.7,0,1.3,0.2,1.9,0.5c0.5,0.3,1,0.8,1.3,1.4c0.3,0.6,0.4,1.4,0.4,2.2V68.1z M28.7,67.7c0-0.9-0.2-1.6-0.5-2S27.4,65,26.8,65
		c-0.6,0-1,0.2-1.3,0.7c-0.3,0.5-0.5,1.1-0.5,2v0.4c0,0.9,0.2,1.5,0.5,2c0.3,0.5,0.8,0.7,1.4,0.7c0.6,0,1-0.2,1.3-0.7
		c0.3-0.5,0.5-1.1,0.5-2V67.7z"/>
	<path class="st0" d="M34.6,69h-1.4v3.1h-1.7v-8.4h3.1c1,0,1.8,0.2,2.3,0.7c0.5,0.4,0.8,1.1,0.8,1.9c0,0.6-0.1,1.1-0.4,1.4
		c-0.2,0.4-0.6,0.7-1.1,0.9L38,72v0.1h-1.9L34.6,69z M33.2,67.6h1.4c0.4,0,0.8-0.1,1-0.3c0.2-0.2,0.4-0.5,0.4-0.9
		c0-0.4-0.1-0.7-0.3-0.9c-0.2-0.2-0.6-0.3-1-0.3h-1.4V67.6z"/>
	<path class="st0" d="M40.6,70.7h3.7v1.4h-5.4v-8.4h1.7V70.7z"/>
	<path class="st0" d="M45.1,72.1v-8.4h2.6c0.7,0,1.4,0.2,2,0.5c0.6,0.3,1,0.8,1.4,1.4c0.3,0.6,0.5,1.3,0.5,2.1v0.4
		c0,0.8-0.2,1.5-0.5,2.1c-0.3,0.6-0.8,1.1-1.4,1.4s-1.2,0.5-2,0.5H45.1z M46.8,65.1v5.6h0.8c0.7,0,1.2-0.2,1.6-0.7s0.5-1.1,0.5-1.9
		v-0.4c0-0.9-0.2-1.5-0.5-1.9c-0.4-0.4-0.9-0.7-1.6-0.7H46.8z"/>
	<path class="st0" d="M62,69.3c-0.1,0.9-0.4,1.6-1,2.1c-0.6,0.5-1.4,0.8-2.4,0.8c-1.1,0-1.9-0.4-2.5-1.1c-0.6-0.7-0.9-1.7-0.9-3
		v-0.5c0-0.8,0.1-1.5,0.4-2.1s0.7-1.1,1.2-1.4c0.5-0.3,1.1-0.5,1.8-0.5c1,0,1.8,0.3,2.3,0.8c0.6,0.5,0.9,1.2,1,2.2h-1.7
		c0-0.5-0.2-0.9-0.5-1.2c-0.3-0.2-0.7-0.4-1.2-0.4c-0.6,0-1,0.2-1.3,0.6c-0.3,0.4-0.4,1.1-0.4,1.9v0.6c0,0.9,0.1,1.6,0.4,2
		c0.3,0.4,0.7,0.6,1.3,0.6c0.5,0,0.9-0.1,1.2-0.4c0.3-0.2,0.4-0.6,0.5-1.1H62z"/>
	<path class="st0" d="M69.3,63.7v5.5c0,0.9-0.3,1.6-0.9,2.2c-0.6,0.5-1.4,0.8-2.4,0.8c-1,0-1.8-0.3-2.3-0.8
		c-0.6-0.5-0.9-1.2-0.9-2.1v-5.6h1.7v5.6c0,0.6,0.1,1,0.4,1.2c0.3,0.3,0.6,0.4,1.1,0.4c1,0,1.5-0.5,1.5-1.5v-5.6H69.3z"/>
	<path class="st0" d="M72.3,69.1v3h-1.7v-8.4h3.3c0.6,0,1.2,0.1,1.7,0.3c0.5,0.2,0.8,0.6,1.1,1c0.3,0.4,0.4,0.9,0.4,1.5
		c0,0.8-0.3,1.5-0.8,1.9c-0.6,0.5-1.3,0.7-2.3,0.7H72.3z M72.3,67.7h1.5c0.5,0,0.8-0.1,1-0.3c0.2-0.2,0.4-0.5,0.4-0.9
		c0-0.4-0.1-0.7-0.4-1c-0.2-0.3-0.6-0.4-1-0.4h-1.6V67.7z"/>
	<path class="st0" d="M20.2,79.1c0,0.8-0.1,1.5-0.4,2c-0.3,0.6-0.6,1-1.1,1.4l1.4,1.1l-1.1,1l-1.8-1.4c-0.2,0-0.4,0.1-0.6,0.1
		c-0.7,0-1.3-0.2-1.9-0.5c-0.5-0.3-1-0.8-1.3-1.4c-0.3-0.6-0.5-1.3-0.5-2.1v-0.4c0-0.8,0.1-1.6,0.4-2.2c0.3-0.6,0.7-1.1,1.3-1.4
		c0.5-0.3,1.2-0.5,1.9-0.5c0.7,0,1.3,0.2,1.9,0.5c0.5,0.3,1,0.8,1.3,1.4c0.3,0.6,0.4,1.4,0.4,2.2V79.1z M18.5,78.7
		c0-0.9-0.2-1.6-0.5-2S17.2,76,16.7,76c-0.6,0-1,0.2-1.3,0.7c-0.3,0.5-0.5,1.1-0.5,2v0.4c0,0.9,0.2,1.5,0.5,2
		c0.3,0.5,0.8,0.7,1.4,0.7c0.6,0,1-0.2,1.3-0.7c0.3-0.5,0.5-1.1,0.5-2V78.7z"/>
	<path class="st0" d="M27.9,74.7v5.5c0,0.9-0.3,1.6-0.9,2.2c-0.6,0.5-1.4,0.8-2.4,0.8c-1,0-1.8-0.3-2.3-0.8
		c-0.6-0.5-0.9-1.2-0.9-2.1v-5.6h1.7v5.6c0,0.6,0.1,1,0.4,1.2c0.3,0.3,0.6,0.4,1.1,0.4c1,0,1.5-0.5,1.5-1.5v-5.6H27.9z"/>
	<path class="st0" d="M33.9,81.4h-3l-0.6,1.7h-1.8l3.1-8.4h1.6l3.1,8.4h-1.8L33.9,81.4z M31.3,80h2.1l-1.1-3.1L31.3,80z"/>
	<path class="st0" d="M38.9,81.7h3.7v1.4h-5.4v-8.4h1.7V81.7z"/>
	<path class="st0" d="M45.4,83.1h-1.7v-8.4h1.7V83.1z"/>
	<path class="st0" d="M52,79.7h-3.3v3.4H47v-8.4h5.5v1.4h-3.7v2.2H52V79.7z"/>
	<path class="st0" d="M55.3,83.1h-1.7v-8.4h1.7V83.1z"/>
	<path class="st0" d="M62,79.5h-3.3v2.3h3.9v1.4h-5.6v-8.4h5.6v1.4h-3.9v2H62V79.5z"/>
	<path class="st0" d="M66.7,80.1h-1.4v3.1h-1.7v-8.4h3.1c1,0,1.8,0.2,2.3,0.7c0.5,0.4,0.8,1.1,0.8,1.9c0,0.6-0.1,1.1-0.4,1.4
		c-0.2,0.4-0.6,0.7-1.1,0.9l1.8,3.4v0.1h-1.9L66.7,80.1z M65.3,78.7h1.4c0.4,0,0.8-0.1,1-0.3c0.2-0.2,0.4-0.5,0.4-0.9
		c0-0.4-0.1-0.7-0.3-0.9c-0.2-0.2-0.6-0.3-1-0.3h-1.4V78.7z"/>
	<path class="st0" d="M75.5,80.9c0-0.3-0.1-0.6-0.3-0.8c-0.2-0.2-0.6-0.4-1.2-0.6c-0.6-0.2-1.1-0.4-1.4-0.6c-1-0.5-1.4-1.2-1.4-2.1
		c0-0.5,0.1-0.9,0.4-1.2c0.3-0.4,0.6-0.6,1.1-0.8c0.5-0.2,1-0.3,1.6-0.3c0.6,0,1.1,0.1,1.6,0.3c0.5,0.2,0.8,0.5,1.1,0.9
		c0.3,0.4,0.4,0.8,0.4,1.4h-1.7c0-0.4-0.1-0.7-0.4-0.9c-0.2-0.2-0.6-0.3-1-0.3c-0.4,0-0.8,0.1-1,0.3c-0.2,0.2-0.4,0.4-0.4,0.7
		c0,0.3,0.1,0.5,0.4,0.7c0.3,0.2,0.7,0.4,1.2,0.5c1,0.3,1.7,0.7,2.2,1.1c0.5,0.4,0.7,1,0.7,1.6c0,0.7-0.3,1.3-0.8,1.7
		c-0.6,0.4-1.3,0.6-2.2,0.6c-0.6,0-1.2-0.1-1.8-0.4c-0.5-0.2-0.9-0.6-1.2-1c-0.3-0.4-0.4-0.9-0.4-1.4h1.7c0,0.9,0.6,1.4,1.7,1.4
		c0.4,0,0.7-0.1,1-0.3C75.4,81.5,75.5,81.2,75.5,80.9z"/>
</g>
<g>
	<defs>
		<circle id="SVGID_1_" cx="45" cy="28.9" r="28.9"/>
	</defs>
	<clipPath id="SVGID_2_">
		<use xlink:href="#SVGID_1_"  style="overflow:visible;"/>
	</clipPath>
	<path class="st1" d="M72.5,30.9c-1,1.4-2.3,2.2-2.3,2.2s-0.6-1.8-2.2-4.8c-1.2-2.3-2.9-3.7-2.9-3.7s0.4-2.5,0.7-5.5
		c0.3-3.1,0-5.3,0-5.3s1.2,0.1,3.1,1.1c1.1,0.6,1.8,1.2,2.2,1.7C67.7,9.4,61.5,3.9,53.9,1.4c0.3,0.4,0.6,0.9,1,1.5
		c0.7,0.9,1.5,2.8,1.5,2.8S53.6,6.1,51,6.4c-3.3,0.4-5.1,1.3-5.1,1.3S43.1,6,41.3,5.4s-4.5-1-4.5-1s0.5-1.4,1.9-2.6
		c1.2-1.1,2.1-1.4,2.6-1.5c-8.7,1.1-16.2,6.1-20.7,13.2c0.8-1,1.7-1.9,2.6-2.3c1.4-0.7,3.2-0.5,3.2-0.5s-1.3,3.4-1.5,5.3
		c-0.4,3.3-0.2,4.8-0.2,4.8s-1.8,1.4-3.7,4.1c-2,2.7-2.3,4-2.3,4s-0.9-0.7-1.4-2.7c-0.3-0.9-0.3-2.5-0.3-3.6c-0.5,2-0.7,4.2-0.7,6.4
		c0,6.2,2,12,5.3,16.7c-0.1-0.6-0.2-1.5-0.1-2.7c0.1-1.2,0.3-2.2,0.3-2.2s1.4,1.5,3.8,2.7c3.3,1.6,4.8,2.1,4.8,2.1s1.3,2.8,2.4,4.2
		c1,1.3,3.7,3.8,3.7,3.8s-1.1,0.5-2.2,0.7c-1,0.2-1.9,0.2-2.6,0.2c4,2.1,8.6,3.3,13.5,3.3c2.9,0,5.6-0.4,8.2-1.2
		c-0.4-0.2-1.2-0.5-2.3-0.9c-1.2-0.5-2.3-0.9-2.3-0.9s0.2,0,3.1-2.8c2.9-2.8,3.6-4.6,3.6-4.6s2.1,0.1,4.7-0.7c3-0.9,5.3-2.1,5.3-2.1
		s0.4,0.8,0.5,2.1c0,0.7-0.1,1.8-0.2,2.4c5.1-5.2,8.2-12.3,8.2-20.2c0-0.1,0-0.3,0-0.4C73.6,29,73,30.1,72.5,30.9z M52.6,33.7
		c-2.2,4.8-2.9,5.2-3.2,5.2c0.1,0.1-0.3,0.5-6.4-0.1c-7-0.7-6.6-1.1-6.5-1.1c-0.1,0-0.7-0.1-1.9-5.8c-1.3-6.4-0.7-7-0.7-7
		s2.3-1.7,4.8-3.2c2.5-1.5,6.1-3.2,6.1-3.2s1.4,0,6.1,4.1c4.7,4.1,4,4.4,4,4.4S55.5,27.6,52.6,33.7z"/>
</g>
</svg>
