<?xml version="1.0" encoding="utf-8"?>
<!-- Generator: Adobe Illustrator 20.1.0, SVG Export Plug-In . SVG Version: 6.00 Build 0)  -->
<svg version="1.1" id="Layer_1" xmlns="http://www.w3.org/2000/svg" xmlns:xlink="http://www.w3.org/1999/xlink" x="0px" y="0px"
	 viewBox="0 0 90 90" style="enable-background:new 0 0 90 90;" xml:space="preserve">
<style type="text/css">
	.st0{clip-path:url(#SVGID_2_);fill:#FFFFFF;}
	.st1{fill:#FFFFFF;}
</style>
<g id="Layer_2">
</g>
<g>
	<g>
		<defs>
			<circle id="SVGID_1_" cx="45" cy="29.9" r="29.9"/>
		</defs>
		<clipPath id="SVGID_2_">
			<use xlink:href="#SVGID_1_"  style="overflow:visible;"/>
		</clipPath>
		<path class="st0" d="M73.5,32c-1,1.5-2.4,2.3-2.4,2.3s-0.6-1.9-2.3-5c-1.3-2.4-3-3.8-3-3.8s0.4-2.6,0.7-5.8c0.4-3.2,0-5.5,0-5.5
			s1.2,0.1,3.2,1.1c1.1,0.6,1.9,1.3,2.3,1.7C68.6,9.8,62.1,4,54.3,1.5c0.3,0.4,0.6,1,1.1,1.6C56,4,56.9,6,56.9,6s-3,0.3-5.7,0.7
			C47.8,7,45.9,8,45.9,8S43,6.3,41.1,5.5c-1.9-0.7-4.6-1.1-4.6-1.1s0.5-1.4,2-2.7c1.3-1.1,2.2-1.4,2.7-1.5
			c-9,1.2-16.8,6.3-21.4,13.7c0.8-1,1.8-1.9,2.7-2.4c1.4-0.7,3.3-0.5,3.3-0.5s-1.3,3.5-1.6,5.4c-0.4,3.4-0.2,5-0.2,5
			s-1.8,1.4-3.9,4.2c-2.1,2.8-2.4,4.2-2.4,4.2s-0.9-0.7-1.5-2.8c-0.3-1-0.4-2.6-0.3-3.7c-0.5,2.1-0.7,4.3-0.7,6.6
			c0,6.5,2.1,12.4,5.5,17.3c-0.1-0.7-0.2-1.6-0.1-2.8c0.1-1.2,0.3-2.3,0.3-2.3s1.4,1.5,4,2.8c3.4,1.7,5,2.2,5,2.2s1.4,2.9,2.5,4.3
			c1.1,1.4,3.8,3.9,3.8,3.9s-1.1,0.5-2.3,0.8c-1,0.2-2,0.2-2.7,0.2c4.2,2.2,8.9,3.5,14,3.5c3,0,5.8-0.4,8.5-1.2
			c-0.4-0.2-1.2-0.5-2.4-0.9c-1.2-0.5-2.4-0.9-2.4-0.9s0.3,0,3.2-2.9c3-2.9,3.8-4.8,3.8-4.8s2.1,0.1,4.8-0.8c3.1-1,5.4-2.2,5.4-2.2
			s0.4,0.8,0.5,2.2c0,0.7-0.1,1.8-0.2,2.5c5.3-5.4,8.5-12.8,8.5-20.9c0-0.1,0-0.3,0-0.4C74.6,30.1,74.1,31.2,73.5,32z M52.9,35
			c-2.3,5-3.1,5.4-3.3,5.4c0.1,0.2-0.3,0.5-6.6-0.1c-7.2-0.7-6.9-1.1-6.7-1.2c-0.1,0-0.7-0.1-2-6c-1.4-6.6-0.8-7.3-0.8-7.3
			s2.4-1.8,5-3.3s6.3-3.3,6.3-3.3s1.4,0,6.3,4.2c4.9,4.2,4.2,4.5,4.2,4.5S55.9,28.6,52.9,35z"/>
	</g>
	<g>
		<path class="st1" d="M22.2,62.8H25V72c0,0.8-0.2,1.6-0.6,2.2c-0.4,0.6-0.9,1.2-1.6,1.5s-1.5,0.5-2.3,0.5c-1.4,0-2.5-0.4-3.3-1.1
			c-0.8-0.7-1.2-1.7-1.2-3h2.8c0,0.7,0.1,1.1,0.4,1.4c0.3,0.3,0.7,0.5,1.3,0.5c0.5,0,0.9-0.2,1.3-0.5c0.3-0.4,0.5-0.9,0.5-1.5V62.8z
			"/>
		<path class="st1" d="M33.1,75.1c-0.7,0.8-1.6,1.2-2.7,1.2c-1.1,0-1.9-0.3-2.4-0.9c-0.6-0.6-0.8-1.5-0.9-2.7v-6.5h2.6v6.4
			c0,1,0.5,1.5,1.4,1.5c0.9,0,1.5-0.3,1.8-0.9v-7h2.7v9.9h-2.5L33.1,75.1z"/>
		<path class="st1" d="M46.5,71.3c0,1.5-0.3,2.7-1,3.7c-0.7,0.9-1.6,1.4-2.8,1.4c-1,0-1.8-0.3-2.4-1v4.7h-2.6V66.2h2.4l0.1,1
			c0.6-0.8,1.5-1.2,2.5-1.2c1.2,0,2.2,0.5,2.8,1.4c0.7,0.9,1,2.1,1,3.7V71.3z M43.9,71.1c0-0.9-0.2-1.6-0.5-2.1
			c-0.3-0.5-0.8-0.8-1.4-0.8c-0.8,0-1.4,0.3-1.7,1v4.1c0.3,0.7,0.9,1,1.7,1C43.3,74.2,43.9,73.1,43.9,71.1z"/>
		<path class="st1" d="M48.1,63.7c0-0.4,0.1-0.7,0.4-1c0.3-0.3,0.6-0.4,1.1-0.4c0.5,0,0.8,0.1,1.1,0.4c0.3,0.3,0.4,0.6,0.4,1
			c0,0.4-0.1,0.7-0.4,1c-0.3,0.3-0.6,0.4-1.1,0.4s-0.8-0.1-1.1-0.4C48.3,64.4,48.1,64.1,48.1,63.7z M51,76.1h-2.7v-9.9H51V76.1z"/>
		<path class="st1" d="M55.9,76.1h-2.7v-14h2.7V76.1z"/>
		<path class="st1" d="M62.6,76.3c-1.5,0-2.6-0.4-3.5-1.3c-0.9-0.9-1.4-2.1-1.4-3.6v-0.3c0-1,0.2-1.9,0.6-2.7
			c0.4-0.8,0.9-1.4,1.6-1.8c0.7-0.4,1.5-0.6,2.4-0.6c1.4,0,2.4,0.4,3.2,1.3c0.8,0.9,1.2,2.1,1.2,3.6V72h-6.3
			c0.1,0.6,0.3,1.2,0.8,1.6c0.4,0.4,1,0.6,1.6,0.6c1,0,1.8-0.4,2.4-1.1l1.3,1.5c-0.4,0.6-0.9,1-1.6,1.3
			C64.2,76.1,63.5,76.3,62.6,76.3z M62.3,68.2c-0.5,0-0.9,0.2-1.3,0.5c-0.3,0.4-0.5,0.9-0.6,1.5h3.7V70c0-0.6-0.2-1-0.5-1.4
			C63.3,68.3,62.9,68.2,62.3,68.2z"/>
		<path class="st1" d="M73.8,68.7c-0.4,0-0.7-0.1-1-0.1c-1,0-1.7,0.3-2,1v6.5h-2.6v-9.9h2.5l0.1,1.2C71.3,66.5,72,66,73,66
			c0.3,0,0.6,0,0.8,0.1L73.8,68.7z"/>
		<path class="st1" d="M17.6,87.4v2.5h-1.5v-7.1h2.8c0.5,0,1,0.1,1.4,0.3c0.4,0.2,0.7,0.5,0.9,0.8c0.2,0.4,0.3,0.8,0.3,1.2
			c0,0.7-0.2,1.2-0.7,1.6c-0.5,0.4-1.1,0.6-2,0.6H17.6z M17.6,86.2h1.3c0.4,0,0.7-0.1,0.9-0.3c0.2-0.2,0.3-0.4,0.3-0.8
			c0-0.3-0.1-0.6-0.3-0.8c-0.2-0.2-0.5-0.3-0.8-0.3h-1.3V86.2z"/>
		<path class="st1" d="M25.2,87.3H24v2.6h-1.5v-7.1h2.6c0.8,0,1.5,0.2,1.9,0.6c0.5,0.4,0.7,0.9,0.7,1.6c0,0.5-0.1,0.9-0.3,1.2
			c-0.2,0.3-0.5,0.6-1,0.8l1.5,2.9v0.1h-1.6L25.2,87.3z M24,86.1h1.2c0.4,0,0.7-0.1,0.9-0.3c0.2-0.2,0.3-0.4,0.3-0.8
			c0-0.3-0.1-0.6-0.3-0.8c-0.2-0.2-0.5-0.3-0.9-0.3H24V86.1z"/>
		<path class="st1" d="M34.8,86.5c0,0.7-0.1,1.3-0.4,1.8c-0.2,0.5-0.6,0.9-1.1,1.2s-1,0.4-1.6,0.4c-0.6,0-1.1-0.1-1.6-0.4
			c-0.5-0.3-0.8-0.7-1.1-1.2c-0.3-0.5-0.4-1.1-0.4-1.8v-0.4c0-0.7,0.1-1.3,0.4-1.8c0.3-0.5,0.6-0.9,1.1-1.2c0.5-0.3,1-0.4,1.6-0.4
			s1.1,0.1,1.6,0.4c0.5,0.3,0.8,0.7,1.1,1.2c0.3,0.5,0.4,1.1,0.4,1.8V86.5z M33.3,86.2c0-0.7-0.1-1.3-0.4-1.7
			c-0.3-0.4-0.6-0.6-1.1-0.6c-0.5,0-0.9,0.2-1.1,0.6c-0.3,0.4-0.4,0.9-0.4,1.7v0.3c0,0.7,0.1,1.3,0.4,1.7c0.3,0.4,0.7,0.6,1.2,0.6
			c0.5,0,0.9-0.2,1.1-0.6c0.3-0.4,0.4-0.9,0.4-1.7V86.2z"/>
		<path class="st1" d="M39.8,88.7h3.1v1.2h-4.6v-7.1h1.5V88.7z"/>
		<path class="st1" d="M48,86.8h-2.8v1.9h3.3v1.2h-4.8v-7.1h4.7V84h-3.3v1.7H48V86.8z"/>
		<path class="st1" d="M53.4,88.4h-2.6l-0.5,1.5h-1.6l2.6-7.1h1.4l2.7,7.1h-1.6L53.4,88.4z M51.2,87.3H53l-0.9-2.7L51.2,87.3z"/>
		<path class="st1" d="M61.6,89c-0.3,0.3-0.6,0.6-1.1,0.7c-0.5,0.2-1,0.3-1.6,0.3c-0.6,0-1.2-0.1-1.6-0.4c-0.5-0.3-0.8-0.7-1.1-1.2
			c-0.3-0.5-0.4-1.1-0.4-1.8v-0.5c0-0.7,0.1-1.3,0.4-1.8c0.2-0.5,0.6-0.9,1-1.2c0.5-0.3,1-0.4,1.6-0.4c0.8,0,1.5,0.2,2,0.6
			c0.5,0.4,0.8,1,0.8,1.8h-1.4c-0.1-0.4-0.2-0.7-0.4-0.9c-0.2-0.2-0.5-0.3-0.9-0.3c-0.5,0-0.9,0.2-1.1,0.6c-0.3,0.4-0.4,0.9-0.4,1.7
			v0.5c0,0.7,0.1,1.3,0.4,1.7c0.3,0.4,0.7,0.6,1.2,0.6c0.5,0,0.9-0.1,1.2-0.4v-1.2h-1.3v-1.1h2.8V89z"/>
		<path class="st1" d="M68.1,82.8v4.7c0,0.8-0.2,1.4-0.7,1.8c-0.5,0.5-1.1,0.7-2,0.7c-0.8,0-1.5-0.2-2-0.7c-0.5-0.4-0.7-1-0.7-1.8
			v-4.7h1.5v4.7c0,0.5,0.1,0.8,0.3,1c0.2,0.2,0.5,0.3,0.9,0.3c0.8,0,1.2-0.4,1.3-1.3v-4.7H68.1z"/>
		<path class="st1" d="M73.6,86.8h-2.8v1.9h3.3v1.2h-4.8v-7.1h4.7V84h-3.3v1.7h2.8V86.8z"/>
	</g>
	<rect x="15.9" y="79.1" class="st1" width="19.6" height="0.8"/>
	<rect x="41.9" y="79.1" class="st1" width="31.9" height="0.8"/>
</g>
</svg>
