<?xml version="1.0" encoding="utf-8"?>
<!-- Generator: Adobe Illustrator 20.1.0, SVG Export Plug-In . SVG Version: 6.00 Build 0)  -->
<svg version="1.1" id="Layer_1" xmlns="http://www.w3.org/2000/svg" xmlns:xlink="http://www.w3.org/1999/xlink" x="0px" y="0px"
	 viewBox="0 0 90 85.2" style="enable-background:new 0 0 90 85.2;" xml:space="preserve">
<style type="text/css">
	.st0{fill:#FFFFFF;}
	.st1{clip-path:url(#SVGID_2_);fill:#FFFFFF;}
</style>
<g id="Layer_2">
</g>
<g>
	<g>
		<path class="st0" d="M18.1,71.4c-0.1,0.9-0.4,1.6-1,2.1c-0.6,0.5-1.4,0.8-2.3,0.8c-1.1,0-1.9-0.4-2.5-1.1
			c-0.6-0.7-0.9-1.7-0.9-2.9v-0.5c0-0.8,0.1-1.5,0.4-2.1c0.3-0.6,0.7-1.1,1.2-1.4c0.5-0.3,1.1-0.5,1.8-0.5c1,0,1.7,0.3,2.3,0.8
			c0.6,0.5,0.9,1.2,1,2.1h-1.7c0-0.5-0.2-0.9-0.4-1.2s-0.6-0.4-1.2-0.4c-0.6,0-1,0.2-1.3,0.6c-0.3,0.4-0.4,1-0.4,1.9v0.6
			c0,0.9,0.1,1.5,0.4,2c0.3,0.4,0.7,0.6,1.3,0.6c0.5,0,0.9-0.1,1.2-0.4c0.3-0.2,0.4-0.6,0.4-1.1H18.1z"/>
		<path class="st0" d="M26,74.2h-1.7v-3.5h-3.3v3.5h-1.7v-8.3h1.7v3.3h3.3v-3.3H26V74.2z"/>
		<path class="st0" d="M32.2,72.5h-3l-0.6,1.7h-1.8l3.1-8.3h1.6l3.1,8.3h-1.8L32.2,72.5z M29.7,71.1h2.1l-1-3.1L29.7,71.1z"/>
		<path class="st0" d="M37.6,65.9l2.1,6l2.1-6H44v8.3h-1.7v-2.3l0.2-3.9l-2.2,6.2h-1.2L36.9,68l0.2,3.9v2.3h-1.7v-8.3H37.6z"/>
		<path class="st0" d="M47.2,71.3v2.9h-1.7v-8.3h3.2c0.6,0,1.2,0.1,1.6,0.3c0.5,0.2,0.8,0.5,1.1,1c0.3,0.4,0.4,0.9,0.4,1.4
			c0,0.8-0.3,1.4-0.8,1.9c-0.6,0.5-1.3,0.7-2.3,0.7H47.2z M47.2,69.9h1.5c0.4,0,0.8-0.1,1-0.3c0.2-0.2,0.4-0.5,0.4-0.9
			c0-0.4-0.1-0.7-0.4-1c-0.2-0.2-0.6-0.4-1-0.4h-1.6V69.9z"/>
		<path class="st0" d="M54.8,74.2h-1.7v-8.3h1.7V74.2z"/>
		<path class="st0" d="M63.2,70.2c0,0.8-0.1,1.5-0.4,2.1c-0.3,0.6-0.7,1.1-1.2,1.4c-0.5,0.3-1.1,0.5-1.8,0.5c-0.7,0-1.3-0.2-1.8-0.5
			c-0.5-0.3-1-0.8-1.2-1.4c-0.3-0.6-0.4-1.3-0.4-2.1v-0.4c0-0.8,0.1-1.5,0.4-2.1c0.3-0.6,0.7-1.1,1.2-1.4c0.5-0.3,1.1-0.5,1.8-0.5
			c0.7,0,1.3,0.2,1.8,0.5c0.5,0.3,0.9,0.8,1.2,1.4c0.3,0.6,0.4,1.3,0.4,2.1V70.2z M61.5,69.9c0-0.9-0.2-1.5-0.5-2
			c-0.3-0.4-0.8-0.7-1.3-0.7c-0.6,0-1,0.2-1.3,0.7s-0.5,1.1-0.5,2v0.4c0,0.8,0.2,1.5,0.5,2c0.3,0.5,0.8,0.7,1.3,0.7
			c0.6,0,1-0.2,1.3-0.7c0.3-0.4,0.5-1.1,0.5-2V69.9z"/>
		<path class="st0" d="M71.1,74.2h-1.7l-3.3-5.4v5.4h-1.7v-8.3h1.7l3.3,5.4v-5.4h1.7V74.2z"/>
		<path class="st0" d="M76.9,72c0-0.3-0.1-0.6-0.3-0.7c-0.2-0.2-0.6-0.4-1.2-0.5c-0.6-0.2-1.1-0.4-1.4-0.6c-0.9-0.5-1.4-1.2-1.4-2
			c0-0.4,0.1-0.8,0.4-1.2c0.3-0.3,0.6-0.6,1.1-0.8c0.5-0.2,1-0.3,1.6-0.3c0.6,0,1.1,0.1,1.6,0.3c0.5,0.2,0.8,0.5,1.1,0.9
			c0.3,0.4,0.4,0.8,0.4,1.3h-1.7c0-0.4-0.1-0.7-0.4-0.9c-0.2-0.2-0.6-0.3-1-0.3c-0.4,0-0.7,0.1-1,0.3c-0.2,0.2-0.3,0.4-0.3,0.7
			c0,0.3,0.1,0.5,0.4,0.7c0.3,0.2,0.7,0.4,1.2,0.5c1,0.3,1.7,0.7,2.1,1.1c0.4,0.4,0.7,1,0.7,1.6c0,0.7-0.3,1.3-0.8,1.7
			c-0.5,0.4-1.3,0.6-2.2,0.6c-0.6,0-1.2-0.1-1.7-0.3c-0.5-0.2-0.9-0.6-1.2-1c-0.3-0.4-0.4-0.9-0.4-1.4H74c0,0.9,0.5,1.4,1.6,1.4
			c0.4,0,0.7-0.1,0.9-0.2C76.8,72.5,76.9,72.3,76.9,72z"/>
		<path class="st0" d="M26.1,83.8h3.6v1.4h-5.3v-8.3h1.7V83.8z"/>
		<path class="st0" d="M35.7,81.5h-3.3v2.2h3.8v1.4h-5.5v-8.3h5.5v1.4h-3.8v2h3.3V81.5z"/>
		<path class="st0" d="M41.9,83.4h-3l-0.6,1.7h-1.8l3.1-8.3h1.6l3.1,8.3h-1.8L41.9,83.4z M39.4,82.1h2.1l-1-3.1L39.4,82.1z"/>
		<path class="st0" d="M51.4,84.1c-0.3,0.4-0.7,0.7-1.3,0.9c-0.6,0.2-1.2,0.3-1.9,0.3c-0.7,0-1.3-0.2-1.9-0.5
			c-0.5-0.3-1-0.8-1.2-1.4c-0.3-0.6-0.4-1.3-0.5-2.1v-0.6c0-0.8,0.1-1.5,0.4-2.1c0.3-0.6,0.7-1.1,1.2-1.4c0.5-0.3,1.1-0.5,1.8-0.5
			c1,0,1.7,0.2,2.3,0.7c0.6,0.5,0.9,1.1,1,2h-1.7c-0.1-0.5-0.2-0.8-0.5-1c-0.3-0.2-0.6-0.3-1.1-0.3c-0.6,0-1,0.2-1.3,0.7
			c-0.3,0.4-0.5,1.1-0.5,1.9v0.5c0,0.9,0.2,1.5,0.5,2c0.3,0.4,0.8,0.7,1.4,0.7c0.6,0,1.1-0.1,1.4-0.4V82h-1.5v-1.3h3.2V84.1z"/>
		<path class="st0" d="M59.1,76.9v5.4c0,0.9-0.3,1.6-0.8,2.1c-0.6,0.5-1.3,0.8-2.3,0.8c-1,0-1.7-0.3-2.3-0.8
			c-0.6-0.5-0.9-1.2-0.9-2.1v-5.5h1.7v5.4c0,0.5,0.1,0.9,0.4,1.2c0.3,0.2,0.6,0.4,1.1,0.4c1,0,1.4-0.5,1.5-1.5v-5.5H59.1z"/>
		<path class="st0" d="M65.4,81.5h-3.3v2.2H66v1.4h-5.5v-8.3H66v1.4h-3.8v2h3.3V81.5z"/>
	</g>
	<g>
		<defs>
			<circle id="SVGID_1_" cx="45" cy="28.9" r="28.9"/>
		</defs>
		<clipPath id="SVGID_2_">
			<use xlink:href="#SVGID_1_"  style="overflow:visible;"/>
		</clipPath>
		<path class="st1" d="M72.5,30.9c-1,1.4-2.3,2.2-2.3,2.2s-0.6-1.8-2.2-4.8c-1.2-2.3-2.9-3.7-2.9-3.7s0.4-2.5,0.7-5.5
			c0.3-3.1,0-5.3,0-5.3s1.2,0.1,3.1,1.1c1.1,0.6,1.8,1.2,2.2,1.7C67.7,9.4,61.5,3.9,53.9,1.4c0.3,0.4,0.6,0.9,1,1.5
			c0.7,0.9,1.5,2.8,1.5,2.8S53.6,6.1,51,6.4c-3.3,0.4-5.1,1.3-5.1,1.3S43.1,6,41.3,5.4s-4.5-1-4.5-1s0.5-1.4,1.9-2.6
			c1.2-1.1,2.1-1.4,2.6-1.5c-8.7,1.1-16.2,6.1-20.7,13.2c0.8-1,1.7-1.9,2.6-2.3c1.4-0.7,3.2-0.5,3.2-0.5s-1.3,3.4-1.5,5.3
			c-0.4,3.3-0.2,4.8-0.2,4.8s-1.8,1.4-3.7,4.1c-2,2.7-2.3,4-2.3,4s-0.9-0.7-1.4-2.7c-0.3-0.9-0.3-2.5-0.3-3.6
			c-0.5,2-0.7,4.2-0.7,6.4c0,6.2,2,12,5.3,16.7c-0.1-0.6-0.2-1.5-0.1-2.7c0.1-1.2,0.3-2.2,0.3-2.2s1.4,1.5,3.8,2.7
			c3.3,1.6,4.8,2.1,4.8,2.1s1.3,2.8,2.4,4.2c1,1.3,3.7,3.8,3.7,3.8s-1.1,0.5-2.2,0.7c-1,0.2-1.9,0.2-2.6,0.2c4,2.1,8.6,3.3,13.5,3.3
			c2.9,0,5.6-0.4,8.2-1.2c-0.4-0.2-1.2-0.5-2.3-0.9c-1.2-0.5-2.3-0.9-2.3-0.9s0.2,0,3.1-2.8c2.9-2.8,3.6-4.6,3.6-4.6
			s2.1,0.1,4.7-0.7c3-0.9,5.3-2.1,5.3-2.1s0.4,0.8,0.5,2.1c0,0.7-0.1,1.8-0.2,2.4c5.1-5.2,8.2-12.3,8.2-20.2c0-0.1,0-0.3,0-0.4
			C73.6,29,73,30.1,72.5,30.9z M52.6,33.7c-2.2,4.8-2.9,5.2-3.2,5.2c0.1,0.1-0.3,0.5-6.4-0.1c-7-0.7-6.6-1.1-6.5-1.1
			c-0.1,0-0.7-0.1-1.9-5.8c-1.3-6.4-0.7-7-0.7-7s2.3-1.7,4.8-3.2c2.5-1.5,6.1-3.2,6.1-3.2s1.4,0,6.1,4.1c4.7,4.1,4,4.4,4,4.4
			S55.5,27.6,52.6,33.7z"/>
	</g>
</g>
</svg>
