<?xml version="1.0"?>
<svg width="74" height="89" xmlns="http://www.w3.org/2000/svg" xmlns:svg="http://www.w3.org/2000/svg" xmlns:xlink="http://www.w3.org/1999/xlink">
 <g>
  <title>Layer 1</title>
  <g id="Layer_2"/>
  <g id="svg_1">
   <g id="svg_2">
    <defs fill="#ffffff" transform="translate(1.5554289817810059,0) translate(0.5,0) translate(-0.5,0) translate(0.5,0) translate(-0.5,0) translate(-0.5,0) translate(-0.5,0) translate(-0.5,0) translate(-0.5,0) translate(-0.5,0) translate(-0.5,0) translate(-0.5,0) translate(-0.5,0) translate(-0.5,0) translate(-0.5,0) translate(-0.5,0) translate(-0.5,0) translate(-0.5,0) translate(-0.5,0) translate(-0.5,0) translate(-0.5,0) translate(-0.5,0) translate(-0.5,0) translate(-0.5,0) translate(-0.5,0) translate(-0.5,0) translate(-0.5,0) translate(-0.5,0) translate(-0.5,0) translate(-0.5,0) ">
     <circle fill="#ffffff" id="SVGID_1_" cx="45" cy="35" r="35"/>
    </defs>
    <clipPath fill="#ffffff" transform="translate(1.5554289817810059,0) translate(0.5,0) translate(-0.5,0) translate(0.5,0) translate(-0.5,0) translate(-0.5,0) translate(-0.5,0) translate(-0.5,0) translate(-0.5,0) translate(-0.5,0) translate(-0.5,0) translate(-0.5,0) translate(-0.5,0) translate(-0.5,0) translate(-0.5,0) translate(-0.5,0) translate(-0.5,0) translate(-0.5,0) translate(-0.5,0) translate(-0.5,0) translate(-0.5,0) translate(-0.5,0) translate(-0.5,0) translate(-0.5,0) translate(-0.5,0) translate(-0.5,0) translate(-0.5,0) translate(-0.5,0) translate(-0.5,0) translate(-0.5,0) " id="SVGID_2_">
     <use fill="#ffffff" xlink:href="#SVGID_1_" id="svg_3"/>
    </clipPath>
    <path fill="#ffffff" class="st0" d="m70.405429,37.5c-1.2,1.7 -2.8,2.7 -2.8,2.7s-0.8,-2.2 -2.6,-5.8c-1.5,-2.8 -3.5,-4.4 -3.5,-4.4s0.4,-3 0.8,-6.7s0,-6.4 0,-6.4s1.5,0.2 3.7,1.3c1.3,0.7 2.2,1.5 2.7,2c-4.1,-8.8 -11.7,-15.5 -20.9,-18.5c0.3,0.5 0.7,1.2 1.2,1.8c0.9,1.2 1.9,3.5 1.9,3.5s-3.5,0.4 -6.6,0.8c-4,0.5 -6.2,1.6 -6.2,1.6s-3.4,-2 -5.6,-2.9s-5.4,-1.3 -5.4,-1.3s0.6,-1.7 2.3,-3.1c1.5,-1.3 2.6,-1.7 3.1,-1.8c-10.5,1.4 -19.6,7.4 -25.1,16c1,-1.2 2.1,-2.3 3.2,-2.8c1.6,-0.8 3.9,-0.6 3.9,-0.6s-1.6,4.1 -1.9,6.4c-0.5,4 -0.3,5.9 -0.3,5.9s-2.1,1.7 -4.5,5s-2.8,4.9 -2.8,4.9s-1.1,-0.8 -1.7,-3.3c-0.3,-1.1 -0.4,-3.1 -0.4,-4.4c-0.6,2.4 -0.9,5 -0.9,7.6c0,7.6 2.4,14.6 6.5,20.3c-0.2,-0.8 -0.3,-1.9 -0.2,-3.3c0.1,-1.4 0.3,-2.6 0.3,-2.6s1.7,1.8 4.7,3.2c3.9,1.9 5.8,2.6 5.8,2.6s1.6,3.4 2.9,5s4.4,4.6 4.4,4.6s-1.3,0.6 -2.7,0.9c-1.1,0.3 -2.3,0.3 -3,0.3c4.9,2.6 10.4,4 16.3,4c3.5,0 6.8,-0.5 10,-1.4c-0.5,-0.2 -1.4,-0.6 -2.8,-1.1c-1.4,-0.6 -2.8,-1.1 -2.8,-1.1s0.3,0 3.8,-3.4s4.4,-5.6 4.4,-5.6s2.5,0.1 5.7,-0.9c3.6,-1.1 6.4,-2.5 6.4,-2.5s0.5,1 0.6,2.5c0.1,0.9 -0.1,2.1 -0.2,2.9c6.2,-6.3 10,-14.9 10,-24.5c0,-0.2 0,-0.3 0,-0.5c-0.5,0.8 -1.1,2.1 -1.7,3.1zm-24.1,3.4c-2.7,5.8 -3.6,6.3 -3.8,6.3c0.1,0.2 -0.4,0.6 -7.7,-0.1c-8.4,-0.8 -8,-1.3 -7.9,-1.4c-0.1,0 -0.9,-0.1 -2.3,-7c-1.6,-7.7 -0.9,-8.5 -0.9,-8.5s2.8,-2.1 5.8,-3.8c3,-1.8 7.4,-3.9 7.4,-3.9s1.7,0 7.4,5s4.9,5.3 4.9,5.3s0.5,0.6 -2.9,8.1z" id="svg_4"/>
   </g>
  </g>
  <text fill="#ffffff" stroke-width="0" x="2.670707" y="86.380161" id="svg_5" font-size="24" font-family="Sans-serif" text-anchor="middle" xml:space="preserve" font-weight="bold" transform="matrix(0.41574795735447156,0,0,0.41574795735447156,35.939840154853044,50.95723259580765) " stroke="null">LEAGUE CUP</text>
 </g>
</svg>