<?xml version="1.0" encoding="UTF-8"?>
<svg width="125px" height="125px" viewBox="0 0 125 125" version="1.1" xmlns="http://www.w3.org/2000/svg" xmlns:xlink="http://www.w3.org/1999/xlink">
    <!-- Generator: Sketch 55.2 (78181) - https://sketchapp.com -->
    <title>WORLD CUP (W)</title>
    <desc>Created with Sketch.</desc>
    <g id="WORLD-CUP-(W)" stroke="none" stroke-width="1" fill="none" fill-rule="evenodd">
        <path d="M67.2265506,36.5481231 C67.2208836,36.7777633 67.2171056,37.0188336 67.2204114,37.2853617 C67.2341066,38.419535 67.4574806,39.139109 67.5854602,39.518379 C67.6298516,39.6487856 67.681799,39.7511365 67.7587757,39.8404988 C67.9774272,39.9428497 68.2173299,40 68.469511,40 C69.4720965,40 70.2876712,39.1032602 70.2876712,38.0002598 C70.2876712,36.8972594 69.4720965,36 68.469511,36 C67.9878167,36 67.5519305,36.2109365 67.2265506,36.5481231 Z" id="Fill-29" fill="#FFFFFF"></path>
        <path d="M73.1671726,51.3948431 C72.8956002,53.4537049 70.9759512,57.3840716 69.4815472,59.6602261 C67.7669629,62.2723844 67.7669629,62.2723844 67.1945951,63.6618194 C66.8136884,64.5862168 66.6967964,66.0520397 67.5986788,68.0598042 C67.9629586,68.870652 68.4154113,69.7300164 69.1530403,70.915062 C69.6236314,71.6711995 69.8695077,72.0428166 69.381282,72.6007583 C68.9807253,73.0570215 67.6425132,73.5060588 66.5375814,73.6923835 C64.7056013,74.0015482 63.9125494,73.9999998 63.3835123,73.9999998 C62.854979,73.9999998 62.0614232,74.0015482 60.2294432,73.6923835 C59.1250152,73.5060588 57.7862993,73.0570215 57.3862464,72.6007583 C56.8975169,72.0428166 57.1433932,71.6711995 57.6139843,70.915062 C58.3516132,69.7300164 58.8040659,68.870652 59.1683458,68.0598042 C60.0707321,66.0520397 59.95384,64.5862168 59.5729333,63.6618194 C59.0005655,62.2723844 59.0005655,62.2723844 57.2854774,59.6602261 C55.7910734,57.3840716 53.8719282,53.4537049 53.6003558,51.3948431 C53.447187,50.2356043 52.7911809,45.4660024 54.9027949,42.4099681 C55.5013626,41.5433777 56.1256264,41.0349849 56.7398134,40.7000134 C55.837931,40.0223284 55.2484325,38.9322517 55.2484325,37.700754 C55.2484325,35.6491181 56.8783707,33.979938 58.8811542,33.979938 C59.2696186,33.979938 59.6429677,34.0439388 59.9941476,34.1600691 C59.9437631,33.8049683 59.9231055,33.3497374 59.1834612,33.1783807 C58.9995578,33.1360576 58.9471579,33.1056057 58.2110405,33.0539922 C56.5967214,32.9419909 56.6677636,32.8170863 56.4007258,31.8870114 C56.3468144,31.6996544 56.2999568,31.5427494 56.2284108,31.0622279 C56.1392303,30.4660922 56.4707602,30.304542 57.4064002,30.3024774 C58.391417,28.9496881 60.6970112,28 63.3835123,28 C66.0705172,28 68.3761114,28.9496881 69.3611282,30.3024774 C70.2967682,30.304542 70.6282982,30.4660922 70.5391176,31.0622279 C70.4670678,31.5427494 70.420714,31.6996544 70.3668027,31.8870114 C70.099261,32.8170863 70.1703031,32.9419909 68.5564879,33.0539922 C67.8203705,33.1056057 67.7679706,33.1360576 67.5840672,33.1783807 C66.8444229,33.3497374 66.8232614,33.8049683 66.7733808,34.1600691 C67.1240568,34.0439388 67.4979098,33.979938 67.8858703,33.979938 C69.8891577,33.979938 71.5185921,35.6491181 71.5185921,37.700754 C71.5185921,38.9322517 70.9295974,40.0223284 70.027715,40.7000134 C70.6413981,41.0349849 71.2656619,41.5433777 71.8642297,42.4099681 C73.9758437,45.4660024 73.3198376,50.2356043 73.1671726,51.3948431 M63.8840775,23 C48.1436083,23 35.3835616,35.5359343 35.3835616,51.0000001 C35.3835616,66.4640659 48.1436083,79 63.8840775,79 C79.6240309,79 92.3835616,66.4640659 92.3835616,51.0000001 C92.3835616,35.5359343 79.6240309,23 63.8840775,23" id="Fill-31" fill="#FFFFFF"></path>
        <path d="M59.0646867,36 C58.0621282,36 57.2465753,36.8972594 57.2465753,38.0002598 C57.2465753,39.1032602 58.0621282,40 59.0646867,40 C59.3168611,40 59.5572296,39.9428497 59.7758752,39.8404988 C59.8523776,39.7511365 59.9047959,39.6487856 59.9487139,39.518379 C60.07669,39.139109 60.300058,38.419535 60.3137529,37.2853617 C60.3170585,37.0188336 60.3137529,36.7777633 60.308086,36.5486427 C59.9822427,36.2109365 59.5463682,36 59.0646867,36" id="Fill-34" fill="#FFFFFF"></path>
        <path d="M25.6816406,95.5390625 L26.8300781,89.46875 L28.5820312,89.46875 L26.6894531,98 L24.9199219,98 L23.53125,92.2929688 L22.1425781,98 L20.3730469,98 L18.4804688,89.46875 L20.2324219,89.46875 L21.3867188,95.5273438 L22.7929688,89.46875 L24.28125,89.46875 L25.6816406,95.5390625 Z M36.5390625,93.9277344 C36.5390625,94.7675823 36.3906265,95.5039031 36.09375,96.1367188 C35.7968735,96.7695344 35.3720731,97.2578108 34.8193359,97.6015625 C34.2665988,97.9453142 33.6328161,98.1171875 32.9179688,98.1171875 C32.210934,98.1171875 31.5800809,97.9472673 31.0253906,97.6074219 C30.4707004,97.2675764 30.0410171,96.7822297 29.7363281,96.1513672 C29.4316391,95.5205047 29.2773438,94.794926 29.2734375,93.9746094 L29.2734375,93.5527344 C29.2734375,92.7128864 29.4248032,91.973636 29.7275391,91.3349609 C30.030275,90.6962859 30.458005,90.2060564 31.0107422,89.8642578 C31.5634793,89.5224592 32.1953089,89.3515625 32.90625,89.3515625 C33.6171911,89.3515625 34.2490207,89.5224592 34.8017578,89.8642578 C35.354495,90.2060564 35.782225,90.6962859 36.0849609,91.3349609 C36.3876968,91.973636 36.5390625,92.7109333 36.5390625,93.546875 L36.5390625,93.9277344 Z M34.7578125,93.5410156 C34.7578125,92.6464799 34.5976579,91.9667992 34.2773438,91.5019531 C33.9570296,91.0371071 33.500003,90.8046875 32.90625,90.8046875 C32.3164033,90.8046875 31.8613297,91.0341774 31.5410156,91.4931641 C31.2207015,91.9521507 31.0585938,92.6249956 31.0546875,93.5117188 L31.0546875,93.9277344 C31.0546875,94.7988325 31.2148421,95.474607 31.5351562,95.9550781 C31.8554704,96.4355493 32.3164032,96.6757812 32.9179688,96.6757812 C33.5078154,96.6757812 33.9609359,96.4443383 34.2773438,95.9814453 C34.5937516,95.5185524 34.7539062,94.8437544 34.7578125,93.9570312 L34.7578125,93.5410156 Z M40.9746094,94.8769531 L39.5742188,94.8769531 L39.5742188,98 L37.8164062,98 L37.8164062,89.46875 L40.9863281,89.46875 C41.9941457,89.46875 42.7714816,89.6933571 43.3183594,90.1425781 C43.8652371,90.5917991 44.1386719,91.2265584 44.1386719,92.046875 C44.1386719,92.6289092 44.0126966,93.1142559 43.7607422,93.5029297 C43.5087878,93.8916035 43.1269557,94.2011707 42.6152344,94.4316406 L44.4609375,97.9179688 L44.4609375,98 L42.5742188,98 L40.9746094,94.8769531 Z M39.5742188,93.453125 L40.9921875,93.453125 C41.433596,93.453125 41.7753894,93.3408214 42.0175781,93.1162109 C42.2597668,92.8916004 42.3808594,92.5820332 42.3808594,92.1875 C42.3808594,91.7851542 42.2666027,91.4687512 42.0380859,91.2382812 C41.8095692,91.0078113 41.4589867,90.8925781 40.9863281,90.8925781 L39.5742188,90.8925781 L39.5742188,93.453125 Z M47.2324219,96.5878906 L50.9648438,96.5878906 L50.9648438,98 L45.4746094,98 L45.4746094,89.46875 L47.2324219,89.46875 L47.2324219,96.5878906 Z M51.9726562,98 L51.9726562,89.46875 L54.5976562,89.46875 C55.34766,89.46875 56.0185517,89.6376936 56.6103516,89.9755859 C57.2021514,90.3134783 57.6640608,90.7939422 57.9960938,91.4169922 C58.3281267,92.0400422 58.4941406,92.7480429 58.4941406,93.5410156 L58.4941406,93.9335938 C58.4941406,94.7265665 58.3310563,95.4316375 58.0048828,96.0488281 C57.6787093,96.6660187 57.218753,97.1445296 56.625,97.484375 C56.031247,97.8242204 55.3613319,97.9960937 54.6152344,98 L51.9726562,98 Z M53.7304688,90.8925781 L53.7304688,96.5878906 L54.5800781,96.5878906 C55.2675816,96.5878906 55.7929669,96.3632835 56.15625,95.9140625 C56.5195331,95.4648415 56.7050781,94.8222698 56.7128906,93.9863281 L56.7128906,93.5351562 C56.7128906,92.6679644 56.5332049,92.0107444 56.1738281,91.5634766 C55.8144513,91.1162087 55.289066,90.8925781 54.5976562,90.8925781 L53.7304688,90.8925781 Z M69.4570312,95.1582031 C69.3906247,96.0761765 69.0517609,96.7988255 68.4404297,97.3261719 C67.8290985,97.8535183 67.0234425,98.1171875 66.0234375,98.1171875 C64.929682,98.1171875 64.0693391,97.7490271 63.4423828,97.0126953 C62.8154266,96.2763635 62.5019531,95.2656314 62.5019531,93.9804688 L62.5019531,93.4589844 C62.5019531,92.6386678 62.6464829,91.9160188 62.9355469,91.2910156 C63.2246108,90.6660125 63.6376926,90.1865251 64.1748047,89.8525391 C64.7119167,89.518553 65.3359339,89.3515625 66.046875,89.3515625 C67.0312549,89.3515625 67.8242157,89.6152317 68.4257812,90.1425781 C69.0273468,90.6699245 69.3749995,91.4101515 69.46875,92.3632812 L67.7109375,92.3632812 C67.6679685,91.8124972 67.5146498,91.4130872 67.2509766,91.1650391 C66.9873034,90.9169909 66.5859402,90.7929688 66.046875,90.7929688 C65.4609346,90.7929688 65.0224624,91.0029276 64.7314453,91.4228516 C64.4404282,91.8427755 64.2910157,92.4941362 64.2832031,93.3769531 L64.2832031,94.0214844 C64.2832031,94.943364 64.4228502,95.6171854 64.7021484,96.0429688 C64.9814467,96.4687521 65.421872,96.6816406 66.0234375,96.6816406 C66.566409,96.6816406 66.9716783,96.5576184 67.2392578,96.3095703 C67.5068373,96.0615222 67.6601561,95.677737 67.6992188,95.1582031 L69.4570312,95.1582031 Z M77.0683594,89.46875 L77.0683594,95.0878906 C77.0683594,96.021489 76.7763701,96.7597629 76.1923828,97.3027344 C75.6083955,97.8457058 74.8105519,98.1171875 73.7988281,98.1171875 C72.8027294,98.1171875 72.0117217,97.8535183 71.4257812,97.3261719 C70.8398408,96.7988255 70.5410157,96.0742234 70.5292969,95.1523438 L70.5292969,89.46875 L72.2871094,89.46875 L72.2871094,95.0996094 C72.2871094,95.6582059 72.4208971,96.0654284 72.6884766,96.3212891 C72.956056,96.5771497 73.3261695,96.7050781 73.7988281,96.7050781 C74.7871143,96.7050781 75.2890624,96.1855521 75.3046875,95.1464844 L75.3046875,89.46875 L77.0683594,89.46875 Z M80.2675781,94.9941406 L80.2675781,98 L78.5097656,98 L78.5097656,89.46875 L81.8378906,89.46875 C82.4785188,89.46875 83.0419898,89.5859363 83.5283203,89.8203125 C84.0146509,90.0546887 84.3886706,90.3876932 84.6503906,90.8193359 C84.9121107,91.2509787 85.0429688,91.7421847 85.0429688,92.2929688 C85.0429688,93.1289104 84.7568388,93.7880835 84.1845703,94.2705078 C83.6123018,94.7529321 82.8203176,94.9941406 81.8085938,94.9941406 L80.2675781,94.9941406 Z M80.2675781,93.5703125 L81.8378906,93.5703125 C82.3027367,93.5703125 82.6572253,93.4609386 82.9013672,93.2421875 C83.145509,93.0234364 83.2675781,92.7109395 83.2675781,92.3046875 C83.2675781,91.8867167 83.1445325,91.5488294 82.8984375,91.2910156 C82.6523425,91.0332018 82.3125022,90.9003907 81.8789062,90.8925781 L80.2675781,90.8925781 L80.2675781,93.5703125 Z M89.203125,94.53125 C89.203125,93.6367143 89.3222644,92.7851603 89.5605469,91.9765625 C89.7988293,91.1679647 90.1503883,90.4521516 90.6152344,89.8291016 C91.0800804,89.2060516 91.5839817,88.7734387 92.1269531,88.53125 L92.4550781,89.4453125 C91.8847628,89.8671896 91.4394547,90.5195268 91.1191406,91.4023438 C90.7988265,92.2851607 90.6386719,93.3164004 90.6386719,94.4960938 L90.6386719,94.6777344 C90.6386719,95.861334 90.7968734,96.8964799 91.1132812,97.7832031 C91.4296891,98.6699263 91.8769502,99.3320291 92.4550781,99.7695312 L92.1269531,100.666016 C91.5957005,100.427733 91.1005882,100.006839 90.6416016,99.4033203 C90.1826149,98.7998017 89.8320325,98.1035196 89.5898438,97.3144531 C89.347655,96.5253867 89.2187501,95.7011762 89.203125,94.8417969 L89.203125,94.53125 Z M100.318359,95.5390625 L101.466797,89.46875 L103.21875,89.46875 L101.326172,98 L99.5566406,98 L98.1679688,92.2929688 L96.7792969,98 L95.0097656,98 L93.1171875,89.46875 L94.8691406,89.46875 L96.0234375,95.5273438 L97.4296875,89.46875 L98.9179688,89.46875 L100.318359,95.5390625 Z M107.0625,94.6660156 C107.0625,95.5488325 106.935548,96.3984334 106.681641,97.2148438 C106.427733,98.03125 106.062502,98.75195 105.585938,99.3769531 C105.109373,100.001956 104.599612,100.431639 104.056641,100.666016 L103.728516,99.7695312 C104.283206,99.3515604 104.720702,98.7070356 105.041016,97.8359375 C105.36133,96.9648394 105.527344,95.9628963 105.539062,94.8300781 L105.539062,94.5195312 C105.539062,93.3515567 105.379884,92.3222701 105.061523,91.4316406 C104.743162,90.5410112 104.298831,89.8730491 103.728516,89.4277344 L104.056641,88.53125 C104.587893,88.7617199 105.088865,89.1796845 105.55957,89.7851562 C106.030276,90.390628 106.395507,91.0956991 106.655273,91.9003906 C106.91504,92.7050821 107.050781,93.5390582 107.0625,94.4023438 L107.0625,94.6660156 Z" id="WORLDCUP(W)" fill="#FFFFFF" fill-rule="nonzero"></path>
    </g>
</svg>