<svg height="125" viewBox="0 0 125 125" width="125" xmlns="http://www.w3.org/2000/svg"><g fill="#fff" fill-rule="evenodd"><path d="m55.8374023 93.6318359c-.0553388.7649778-.3377253 1.3671853-.8471679 1.8066407-.5094427.4394553-1.1808227.6591796-2.0141602.6591796-.9114629 0-1.6284153-.3068003-2.1508789-.9204101-.5224635-.6136098-.7836914-1.4558866-.7836914-2.5268555v-.4345703c0-.6835972.1204415-1.2858047.3613281-1.8066406.2408867-.5208359.5851215-.9204088 1.0327149-1.1987305s.9676077-.4174804 1.5600586-.4174804c.8203166 0 1.4811173.2197243 1.9824218.6591796.5013046.4394554.7910153 1.0563112.8691407 1.850586h-1.4648438c-.0358075-.4589867-.1635731-.7918284-.3833008-.9985352-.2197276-.2067067-.5541969-.3100586-1.0034179-.3100586-.4882837 0-.8536772.1749657-1.0961914.5249024-.2425143.3499366-.3670247.8927372-.3735352 1.6284179v.5371094c0 .768233.1163725 1.3297508.3491211 1.6845703s.5997696.5322266 1.1010742.5322266c.4524762 0 .7902007-.1033518 1.0131836-.3100586s.3507485-.5265278.3833008-.9594727zm6.8017579-1.0253906c0 .6998733-.1236967 1.3134739-.3710938 1.8408203s-.6013974.9342434-1.0620117 1.2207032c-.4606143.2864597-.9887666.4296874-1.5844727.4296874-.5891956 0-1.1149065-.1416001-1.5771484-.4248046-.4622419-.2832046-.8203112-.6876602-1.0742188-1.2133789-.2539075-.5257188-.3824869-1.1303677-.3857421-1.8139649v-.3515625c0-.6998733.126138-1.3159153.3784179-1.8481445s.6087217-.9407538 1.069336-1.225586c.4606142-.2848321.9871389-.427246 1.5795898-.427246s1.1189756.1424139 1.5795898.427246c.4606143.2848322.8170561.6933568 1.069336 1.225586s.378418 1.1466436.378418 1.8432617zm-1.484375-.3222656c0-.7454464-.1334623-1.311847-.4003907-1.6992188-.2669284-.3873717-.647784-.5810547-1.1425781-.5810547-.4915389 0-.8707669.1912416-1.1376953.5737305s-.4020182.9431929-.4052734 1.6821289v.3466797c0 .7259151.1334622 1.2890605.4003906 1.6894531.2669284.4003927.6510391.600586 1.1523437.600586.4915389 0 .8691393-.1928692 1.1328125-.5786133s.3971354-.9480757.4003907-1.6870117zm4.0136718 1.2109375v2.5048828h-1.4648437v-7.109375h2.7734375c.5338568 0 1.0034159.0976553 1.4086914.2929688.4052755.1953134.7169585.4728172.9350586.8325195.2181.3597023.3271484.7690407.3271484 1.2280273 0 .6966181-.2384416 1.245929-.715332 1.6479492-.4768904.4020203-1.1368773.6030274-1.9799805.6030274zm0-1.1865234h1.3085938c.3873717 0 .6827789-.091145.8862304-.2734376.2034516-.1822925.3051758-.4427066.3051758-.78125 0-.348309-.102538-.6298817-.3076172-.8447265-.2050791-.2148448-.4882794-.3255208-.8496093-.3320313h-1.3427735zm8.1298828 2.2265624h-2.5683593l-.4882813 1.4648438h-1.5576172l2.6464844-7.109375h1.3574219l2.6611328 7.109375h-1.5576172zm-2.1728515-1.1865234h1.7773437l-.8935547-2.6611328zm-41.706543 12.4746092h3.1103516v1.176758h-4.5751953v-7.109375h1.4648437zm5.5078125 1.176758h-1.4648437v-7.109375h1.4648437zm1.3574219 0v-7.109375h2.4902344c.8626345 0 1.5169248.1652 1.9628906.495605.4459658.330406.6689453.814613.6689453 1.452637 0 .348309-.0895173.65511-.2685547.92041-.1790373.265301-.4280583.459798-.7470703.583496.3645852.091147.6518544.275064.8618164.551758s.3149414.615233.3149414 1.015625c0 .683597-.2180968 1.20117-.6542969 1.552735-.4362001.351564-1.0579386.530599-1.8652343.537109zm1.4648437-3.095703v1.918945h1.2548828c.3450539 0 .6144197-.082193.8081055-.246582.1936859-.164389.2905274-.391437.2905274-.681152 0-.651045-.3369107-.981445-1.0107422-.991211zm0-1.035156h1.0839844c.738936-.013021 1.1083984-.307615 1.1083984-.883789 0-.322268-.0935863-.554199-.2807617-.695801s-.4825826-.212403-.8862304-.212403h-1.0253907zm9.194336 1.049804h-2.8125v1.904297h3.3007812v1.176758h-4.765625v-7.109375h4.7558594v1.186523h-3.2910156v1.694336h2.8125zm3.9794922.478516h-1.1669922v2.602539h-1.4648438v-7.109375h2.6416016c.8398479 0 1.4876279.187173 1.9433594.561523.4557314.374351.6835937.903317.6835937 1.586914 0 .485029-.1049794.889485-.3149414 1.213379-.209962.323895-.5281554.581868-.9545898.773926l1.5380859 2.905274v.068359h-1.5722656zm-1.1669922-1.186523h1.1816406c.3678404 0 .6526683-.093587.8544922-.280762.2018239-.187176.3027344-.445148.3027344-.773926 0-.335288-.0952139-.598957-.2856446-.791016-.1904306-.192058-.4825826-.288086-.8764648-.288086h-1.1767578zm10.024414-2.13379h-2.1777343v5.922852h-1.4648438v-5.922852h-2.1484375v-1.186523h5.7910156zm4.2626954 4.458008h-2.5683594l-.4882813 1.464844h-1.5576172l2.6464844-7.109375h1.3574219l2.6611328 7.109375h-1.5576172zm-2.1728516-1.186523h1.7773437l-.8935547-2.661133zm4.8876953 2.651367v-7.109375h2.1875c.6250031 0 1.1840796.140786 1.6772461.422363s.8780911.681964 1.1547852 1.201172c.276694.519208.415039 1.109209.415039 1.77002v.327148c0 .660811-.1359036 1.24837-.4077148 1.762695-.2718113.514326-.6551082.913085-1.1499024 1.196289-.4947941.283205-1.0530568.426433-1.6748047.429688zm1.4648437-5.922852v4.746094h.7080079c.5729195 0 1.0107406-.187172 1.3134765-.561523s.4573568-.909827.4638672-1.606446v-.375976c0-.72266-.1497381-1.270343-.4492187-1.643067-.2994807-.372723-.7373018-.559082-1.3134766-.559082zm10.8740235 2.529297c0 .699874-.1236967 1.313474-.3710938 1.840821-.247397.527346-.6013974.934243-1.0620117 1.220703s-.9887665.429687-1.5844726.429687c-.5891957 0-1.1149066-.1416-1.5771485-.424804-.4622419-.283205-.8203112-.687661-1.0742187-1.213379-.2539075-.525719-.382487-1.130368-.3857422-1.813965v-.351563c0-.699873.126138-1.315915.378418-1.848144.2522799-.532229.6087216-.940754 1.0693359-1.225586.4606143-.2848323.987139-.4272462 1.5795898-.4272462.5924509 0 1.1189756.1424139 1.5795899.4272462.4606143.284832.817056.693357 1.0693359 1.225586s.378418 1.146643.378418 1.843261zm-1.484375-.322265c0-.745447-.1334622-1.311847-.4003906-1.699219-.2669285-.387372-.647784-.581055-1.1425782-.581055-.4915389 0-.8707669.191242-1.1376953.573731s-.4020182.943193-.4052734 1.682129v.346679c0 .725915.1334622 1.289061.4003906 1.689453.2669284.400393.6510392.600586 1.1523438.600586.4915389 0 .8691393-.192869 1.1328125-.578613s.3971354-.948076.4003906-1.687012zm5.1806641 1.113281h-1.1669922v2.602539h-1.4648438v-7.109375h2.6416016c.8398479 0 1.4876279.187173 1.9433594.561523.4557314.374351.6835937.903317.6835937 1.586914 0 .485029-.1049794.889485-.3149414 1.213379-.209962.323895-.5281554.581868-.9545899.773926l1.538086 2.905274v.068359h-1.5722656zm-1.1669922-1.186523h1.1816406c.3678404 0 .6526682-.093587.8544922-.280762.2018239-.187176.3027344-.445148.3027344-.773926 0-.335288-.0952139-.598957-.2856446-.791016-.1904306-.192058-.4825826-.288086-.8764648-.288086h-1.1767578zm9.1943359.708007h-2.8125v1.904297h3.3007813v1.176758h-4.765625v-7.109375h4.7558593v1.186523h-3.2910156v1.694336h2.8125zm5.0341797 1.215821c0-.276694-.0976553-.489095-.2929688-.637207-.1953134-.148113-.5468724-.304362-1.0546875-.46875-.507815-.164389-.9098292-.326334-1.2060547-.48584-.8072957-.4362-1.2109374-1.02376-1.2109374-1.762696 0-.384116.1082345-.726723.324707-1.027832.2164724-.301108.5273417-.536294.9326172-.705566.4052754-.1692717.8601862-.2539062 1.3647461-.2539062.507815 0 .9602844.0919587 1.3574218.2758792.3971374.18392.7055653.44352.925293.778808s.3295899.716144.3295899 1.142578h-1.4648438c0-.325522-.102538-.578612-.3076172-.759277-.2050791-.180665-.4931622-.270996-.8642578-.270996-.3580747 0-.6363922.075683-.8349609.227051s-.2978516.350747-.2978516.598144c0 .231121.1163725.424804.3491211.581055s.5753558.302734 1.027832.439453c.8333375.250652 1.4404278.561522 1.8212891.932617.3808613.371096.5712891.833331.5712891 1.386719 0 .615237-.2327451 1.097817-.6982422 1.447754-.4654972.349937-1.0921185.524902-1.8798828.524902-.5468778 0-1.0449197-.100096-1.4941407-.300293-.449221-.200196-.7918282-.474445-1.027832-.822754s-.3540039-.75195-.3540039-1.210937h1.4697266c0 .784509.4687453 1.176758 1.40625 1.176758.348309 0 .6201162-.0708.8154296-.212403.1953135-.141602.2929688-.339354.2929688-.593261z" fill-rule="nonzero"/><path d="m67.2265506 36.5481231c-.005667.2296402-.009445.4707105-.0061392.7372386.0136952 1.1341733.2370692 1.8537473.3650488 2.2330173.0443914.1304066.0963388.2327575.1733155.3221198.2186515.1023509.4585542.1595012.7107353.1595012 1.0025855 0 1.8181602-.8967398 1.8181602-1.9997402s-.8155747-2.0002598-1.8181602-2.0002598c-.4816943 0-.9175805.2109365-1.2429604.5481231z"/><path d="m73.1671726 51.3948431c-.2715724 2.0588618-2.1912214 5.9892285-3.6856254 8.265383-1.7145843 2.6121583-1.7145843 2.6121583-2.2869521 4.0015933-.3809067.9243974-.4977987 2.3902203.4040837 4.3979848.3642798.8108478.8167325 1.6702122 1.5543615 2.8552578.4705911.7561375.7164674 1.1277546.2282417 1.6856963-.4005567.4562632-1.7387688.9053005-2.8437006 1.0916252-1.8319801.3091647-2.625032.3076163-3.1540691.3076163-.5285333 0-1.3220891.0015484-3.1540691-.3076163-1.104428-.1863247-2.4431439-.635362-2.8431968-1.0916252-.4887295-.5579417-.2428532-.9295588.2277379-1.6856963.7376289-1.1850456 1.1900816-2.04441 1.5543615-2.8552578.9023863-2.0077645.7854942-3.4735874.4045875-4.3979848-.5723678-1.389435-.5723678-1.389435-2.2874559-4.0015933-1.494404-2.2761545-3.4135492-6.2065212-3.6851216-8.265383-.1531688-1.1592388-.8091749-5.9288407 1.3024391-8.984875.5985677-.8665904 1.2228315-1.3749832 1.8370185-1.7099547-.9018824-.677685-1.4913809-1.7677617-1.4913809-2.9992594 0-2.0516359 1.6299382-3.720816 3.6327217-3.720816.3884644 0 .7618135.0640008 1.1129934.1801311-.0503845-.3551008-.0710421-.8103317-.8106864-.9816884-.1839034-.0423231-.2363033-.072775-.9724207-.1243885-1.6143191-.1120013-1.5432769-.2369059-1.8103147-1.1669808-.0539114-.187357-.100769-.344262-.172315-.8247835-.0891805-.5961357.2423494-.7576859 1.1779894-.7597505.9850168-1.3527893 3.290611-2.3024774 5.9771121-2.3024774 2.6870049 0 4.9925991.9496881 5.9776159 2.3024774.93564.0020646 1.26717.1636148 1.1779894.7597505-.0720498.4805215-.1184036.6374265-.1723149.8247835-.2675417.9300749-.1964996 1.0549795-1.8103148 1.1669808-.7361174.0516135-.7885173.0820654-.9724207.1243885-.7396443.1713567-.7608058.6265876-.8106864.9816884.350676-.1161303.724529-.1801311 1.1124895-.1801311 2.0032874 0 3.6327218 1.6691801 3.6327218 3.720816 0 1.2314977-.5889947 2.3215744-1.4908771 2.9992594.6136831.3349715 1.2379469.8433643 1.8365147 1.7099547 2.111614 3.0560343 1.4556079 7.8256362 1.3029429 8.984875m-9.2830951-28.3948431c-15.7404692 0-28.5005159 12.5359343-28.5005159 28.0000001s12.7600467 27.9999999 28.5005159 27.9999999c15.7399534 0 28.4994841-12.5359341 28.4994841-27.9999999s-12.7595307-28.0000001-28.4994841-28.0000001"/><path d="m59.0646867 36c-1.0025585 0-1.8181114.8972594-1.8181114 2.0002598s.8155529 1.9997402 1.8181114 1.9997402c.2521744 0 .4925429-.0571503.7111885-.1595012.0765024-.0893623.1289207-.1917132.1728387-.3221198.1279761-.37927.3513441-1.098844.365039-2.2330173.0033056-.2665281 0-.5075984-.0056669-.736719-.3258433-.3377062-.7617178-.5486427-1.2433993-.5486427"/></g></svg>