<?xml version="1.0" encoding="UTF-8"?>
<svg width="125px" height="125px" viewBox="0 0 125 125" version="1.1" xmlns="http://www.w3.org/2000/svg" xmlns:xlink="http://www.w3.org/1999/xlink">
    <!-- Generator: Sketch 55.2 (78181) - https://sketchapp.com -->
    <title>EURO 2020</title>
    <desc>Created with Sketch.</desc>
    <g id="EURO-2020" stroke="none" stroke-width="1" fill="none" fill-rule="evenodd">
        <g id="football-england-premier_league-copy" transform="translate(33.000000, 23.000000)" fill="#FFFFFF" fill-rule="nonzero">
            <path d="M56.5951234,29.8536585 C55.5899241,31.2195122 54.283165,32 54.283165,32 C54.283165,32 53.6800454,30.2439024 52.0717265,27.3170732 C50.9660073,25.0731707 49.2571684,23.7073171 49.2571684,23.7073171 C49.2571684,23.7073171 49.6592482,21.2682927 49.9608079,18.3414634 C50.2623677,15.3170732 49.9608079,13.1707317 49.9608079,13.1707317 C49.9608079,13.1707317 51.1670471,13.2682927 53.0769258,14.2439024 C54.182645,14.8292683 54.8862846,15.4146341 55.2883643,15.902439 C51.8706866,8.87804878 45.6384509,3.51219512 37.9989362,1.07317073 C38.300496,1.46341463 38.6020558,1.95121951 39.0041355,2.53658537 C39.707775,3.41463415 40.5119345,5.26829268 40.5119345,5.26829268 C40.5119345,5.26829268 37.5968565,5.56097561 34.9833383,5.85365854 C31.6661806,6.24390244 29.8568218,7.12195122 29.8568218,7.12195122 C29.8568218,7.12195122 27.1427837,5.56097561 25.232905,4.97560976 C23.3230263,4.3902439 20.7095081,4 20.7095081,4 C20.7095081,4 21.2121078,2.63414634 22.6193868,1.46341463 C23.825626,0.390243902 24.7303053,0.0975609756 25.232905,0 C16.487671,1.07317073 9.04919616,5.85365854 4.52579928,12.7804878 C5.32995873,11.804878 6.2346381,10.9268293 7.13931748,10.5365854 C8.54659651,9.85365854 10.3559553,10.0487805 10.3559553,10.0487805 C10.3559553,10.0487805 9.04919616,13.3658537 8.8481563,15.2195122 C8.44607658,18.4390244 8.64711644,19.902439 8.64711644,19.902439 C8.64711644,19.902439 6.83775769,21.2682927 4.92787901,23.902439 C2.91748039,26.5365854 2.6159206,27.804878 2.6159206,27.804878 C2.6159206,27.804878 1.61072129,27.1219512 1.00760171,25.1707317 C0.706041917,24.2926829 0.706041917,22.7317073 0.706041917,21.6585366 C0.203442264,23.6097561 0.0024024024,25.7560976 0.0024024024,27.902439 C0.0024024024,33.9512195 2.01280102,39.6097561 5.32995873,44.195122 C5.2294388,43.6097561 5.12891887,42.7317073 5.2294388,41.5609756 C5.32995873,40.3902439 5.53099859,39.4146341 5.53099859,39.4146341 C5.53099859,39.4146341 6.93827762,40.8780488 9.35075596,42.0487805 C12.6679137,43.6097561 14.1757126,44.097561 14.1757126,44.097561 C14.1757126,44.097561 15.4824717,46.8292683 16.588191,48.195122 C17.6939102,49.5609756 20.3074284,51.902439 20.3074284,51.902439 C20.3074284,51.902439 19.2017092,52.3902439 18.0959899,52.5853659 C17.0907906,52.7804878 16.1861112,52.7804878 15.4824717,52.7804878 C19.503269,54.8292683 24.1271858,56 29.0526624,56 C31.9677404,56 34.6817785,55.6097561 37.2952967,54.8292683 C36.893217,54.6341463 36.0890575,54.3414634 34.9833383,53.9512195 C33.7770991,53.4634146 32.6713799,53.0731707 32.6713799,53.0731707 C32.6713799,53.0731707 32.8724197,53.0731707 35.7874977,50.3414634 C38.7025757,47.6097561 39.4062152,45.8536585 39.4062152,45.8536585 C39.4062152,45.8536585 41.5171338,45.9512195 44.130652,45.1707317 C47.1462499,44.2926829 49.4582083,43.1219512 49.4582083,43.1219512 C49.4582083,43.1219512 49.860288,43.902439 49.9608079,45.1707317 C49.9608079,45.8536585 49.860288,46.9268293 49.7597681,47.5121951 C54.8862846,42.4390244 58.0024024,35.5121951 58.0024024,27.804878 C58.0024024,27.7073171 58.0024024,27.5121951 58.0024024,27.4146341 C57.7008426,28 57.198243,29.0731707 56.5951234,29.8536585 Z M36.6921771,32.5853659 C34.4807386,37.2682927 33.7770991,37.6585366 33.4755393,37.6585366 C33.5760592,37.7560976 33.1739795,38.1463415 27.0422638,37.5609756 C20.0058686,36.8780488 20.4079483,36.4878049 20.5084683,36.4878049 C20.4079483,36.4878049 19.8048287,36.3902439 18.5985896,30.8292683 C17.2918305,24.5853659 17.8949501,24 17.8949501,24 C17.8949501,24 20.2069085,22.3414634 22.7199067,20.8780488 C25.232905,19.4146341 28.8516225,17.7560976 28.8516225,17.7560976 C28.8516225,17.7560976 30.2589015,17.7560976 34.9833383,21.7560976 C39.707775,25.7560976 39.0041355,26.0487805 39.0041355,26.0487805 C39.0041355,26.0487805 39.5067352,26.6341463 36.6921771,32.5853659 Z" id="Shape"></path>
        </g>
        <path d="M37.8945312,94.3027344 L34.5195312,94.3027344 L34.5195312,96.5878906 L38.4804688,96.5878906 L38.4804688,98 L32.7617188,98 L32.7617188,89.46875 L38.46875,89.46875 L38.46875,90.8925781 L34.5195312,90.8925781 L34.5195312,92.9257812 L37.8945312,92.9257812 L37.8945312,94.3027344 Z M45.96875,89.46875 L45.96875,95.0878906 C45.96875,96.021489 45.6767607,96.7597629 45.0927734,97.3027344 C44.5087861,97.8457058 43.7109426,98.1171875 42.6992188,98.1171875 C41.70312,98.1171875 40.9121123,97.8535183 40.3261719,97.3261719 C39.7402314,96.7988255 39.4414063,96.0742234 39.4296875,95.1523438 L39.4296875,89.46875 L41.1875,89.46875 L41.1875,95.0996094 C41.1875,95.6582059 41.3212877,96.0654284 41.5888672,96.3212891 C41.8564467,96.5771497 42.2265601,96.7050781 42.6992188,96.7050781 C43.6875049,96.7050781 44.189453,96.1855521 44.2050781,95.1464844 L44.2050781,89.46875 L45.96875,89.46875 Z M50.5683594,94.8769531 L49.1679688,94.8769531 L49.1679688,98 L47.4101562,98 L47.4101562,89.46875 L50.5800781,89.46875 C51.5878957,89.46875 52.3652316,89.6933571 52.9121094,90.1425781 C53.4589871,90.5917991 53.7324219,91.2265584 53.7324219,92.046875 C53.7324219,92.6289092 53.6064466,93.1142559 53.3544922,93.5029297 C53.1025378,93.8916035 52.7207057,94.2011707 52.2089844,94.4316406 L54.0546875,97.9179688 L54.0546875,98 L52.1679688,98 L50.5683594,94.8769531 Z M49.1679688,93.453125 L50.5859375,93.453125 C51.027346,93.453125 51.3691394,93.3408214 51.6113281,93.1162109 C51.8535168,92.8916004 51.9746094,92.5820332 51.9746094,92.1875 C51.9746094,91.7851542 51.8603527,91.4687512 51.6318359,91.2382812 C51.4033192,91.0078113 51.0527367,90.8925781 50.5800781,90.8925781 L49.1679688,90.8925781 L49.1679688,93.453125 Z M62.0761719,93.9277344 C62.0761719,94.7675823 61.9277359,95.5039031 61.6308594,96.1367188 C61.3339829,96.7695344 60.9091825,97.2578108 60.3564453,97.6015625 C59.8037082,97.9453142 59.1699254,98.1171875 58.4550781,98.1171875 C57.7480433,98.1171875 57.1171903,97.9472673 56.5625,97.6074219 C56.0078097,97.2675764 55.5781265,96.7822297 55.2734375,96.1513672 C54.9687485,95.5205047 54.8144531,94.794926 54.8105469,93.9746094 L54.8105469,93.5527344 C54.8105469,92.7128864 54.9619125,91.973636 55.2646484,91.3349609 C55.5673843,90.6962859 55.9951144,90.2060564 56.5478516,89.8642578 C57.1005887,89.5224592 57.7324183,89.3515625 58.4433594,89.3515625 C59.1543004,89.3515625 59.78613,89.5224592 60.3388672,89.8642578 C60.8916043,90.2060564 61.3193344,90.6962859 61.6220703,91.3349609 C61.9248062,91.973636 62.0761719,92.7109333 62.0761719,93.546875 L62.0761719,93.9277344 Z M60.2949219,93.5410156 C60.2949219,92.6464799 60.1347672,91.9667992 59.8144531,91.5019531 C59.494139,91.0371071 59.0371123,90.8046875 58.4433594,90.8046875 C57.8535127,90.8046875 57.3984391,91.0341774 57.078125,91.4931641 C56.7578109,91.9521507 56.5957031,92.6249956 56.5917969,93.5117188 L56.5917969,93.9277344 C56.5917969,94.7988325 56.7519515,95.474607 57.0722656,95.9550781 C57.3925797,96.4355493 57.8535126,96.6757812 58.4550781,96.6757812 C59.0449248,96.6757812 59.4980453,96.4443383 59.8144531,95.9814453 C60.130861,95.5185524 60.2910156,94.8437544 60.2949219,93.9570312 L60.2949219,93.5410156 Z M72.0078125,98 L66.1601562,98 L66.1601562,96.8398438 L68.9199219,93.8984375 C69.29883,93.4843729 69.5791007,93.1230484 69.7607422,92.8144531 C69.9423837,92.5058578 70.0332031,92.212892 70.0332031,91.9355469 C70.0332031,91.5566387 69.937501,91.2587901 69.7460938,91.0419922 C69.5546865,90.8251942 69.2812518,90.7167969 68.9257812,90.7167969 C68.5429668,90.7167969 68.241212,90.8486315 68.0205078,91.1123047 C67.7998036,91.3759779 67.6894531,91.7226541 67.6894531,92.1523438 L65.9902344,92.1523438 C65.9902344,91.6328099 66.1142566,91.1582053 66.3623047,90.7285156 C66.6103528,90.298826 66.9609352,89.9619153 67.4140625,89.7177734 C67.8671898,89.4736316 68.3808565,89.3515625 68.9550781,89.3515625 C69.8339888,89.3515625 70.5165991,89.5624979 71.0029297,89.984375 C71.4892602,90.4062521 71.7324219,91.0019493 71.7324219,91.7714844 C71.7324219,92.1933615 71.623048,92.6230447 71.4042969,93.0605469 C71.1855458,93.4980491 70.8105495,94.0078096 70.2792969,94.5898438 L68.3398438,96.6347656 L72.0078125,96.6347656 L72.0078125,98 Z M78.7871094,94.4726562 C78.7871094,95.6523496 78.5429712,96.5546844 78.0546875,97.1796875 C77.5664038,97.8046906 76.8515672,98.1171875 75.9101562,98.1171875 C74.9804641,98.1171875 74.2695337,97.8105499 73.7773438,97.1972656 C73.2851538,96.5839813 73.0332032,95.7050838 73.0214844,94.5605469 L73.0214844,92.9902344 C73.0214844,91.7988222 73.2685522,90.8945343 73.7626953,90.2773438 C74.2568384,89.6601532 74.9687454,89.3515625 75.8984375,89.3515625 C76.8281296,89.3515625 77.53906,89.6572235 78.03125,90.2685547 C78.52344,90.8798859 78.7753906,91.7578068 78.7871094,92.9023438 L78.7871094,94.4726562 Z M77.09375,92.75 C77.09375,92.0429652 76.9970713,91.5283219 76.8037109,91.2060547 C76.6103506,90.8837875 76.3085958,90.7226562 75.8984375,90.7226562 C75.499998,90.7226562 75.2060556,90.875975 75.0166016,91.1826172 C74.8271475,91.4892593 74.7265626,91.9687467 74.7148438,92.6210938 L74.7148438,94.6953125 C74.7148438,95.3906285 74.8095694,95.9072249 74.9990234,96.2451172 C75.1884775,96.5830095 75.4921854,96.7519531 75.9101562,96.7519531 C76.3242208,96.7519531 76.623046,96.5898454 76.8066406,96.265625 C76.9902353,95.9414046 77.0859375,95.4453158 77.09375,94.7773438 L77.09375,92.75 Z M85.7773438,98 L79.9296875,98 L79.9296875,96.8398438 L82.6894531,93.8984375 C83.0683613,93.4843729 83.3486319,93.1230484 83.5302734,92.8144531 C83.711915,92.5058578 83.8027344,92.212892 83.8027344,91.9355469 C83.8027344,91.5566387 83.7070322,91.2587901 83.515625,91.0419922 C83.3242178,90.8251942 83.050783,90.7167969 82.6953125,90.7167969 C82.3124981,90.7167969 82.0107433,90.8486315 81.7900391,91.1123047 C81.5693348,91.3759779 81.4589844,91.7226541 81.4589844,92.1523438 L79.7597656,92.1523438 C79.7597656,91.6328099 79.8837878,91.1582053 80.1318359,90.7285156 C80.3798841,90.298826 80.7304665,89.9619153 81.1835938,89.7177734 C81.636721,89.4736316 82.1503878,89.3515625 82.7246094,89.3515625 C83.60352,89.3515625 84.2861304,89.5624979 84.7724609,89.984375 C85.2587915,90.4062521 85.5019531,91.0019493 85.5019531,91.7714844 C85.5019531,92.1933615 85.3925792,92.6230447 85.1738281,93.0605469 C84.955077,93.4980491 84.5800808,94.0078096 84.0488281,94.5898438 L82.109375,96.6347656 L85.7773438,96.6347656 L85.7773438,98 Z M92.5566406,94.4726562 C92.5566406,95.6523496 92.3125024,96.5546844 91.8242188,97.1796875 C91.3359351,97.8046906 90.6210985,98.1171875 89.6796875,98.1171875 C88.7499954,98.1171875 88.039065,97.8105499 87.546875,97.1972656 C87.054685,96.5839813 86.8027344,95.7050838 86.7910156,94.5605469 L86.7910156,92.9902344 C86.7910156,91.7988222 87.0380835,90.8945343 87.5322266,90.2773438 C88.0263697,89.6601532 88.7382766,89.3515625 89.6679688,89.3515625 C90.5976609,89.3515625 91.3085913,89.6572235 91.8007812,90.2685547 C92.2929712,90.8798859 92.5449218,91.7578068 92.5566406,92.9023438 L92.5566406,94.4726562 Z M90.8632812,92.75 C90.8632812,92.0429652 90.7666025,91.5283219 90.5732422,91.2060547 C90.3798818,90.8837875 90.0781271,90.7226562 89.6679688,90.7226562 C89.2695293,90.7226562 88.9755869,90.875975 88.7861328,91.1826172 C88.5966787,91.4892593 88.4960938,91.9687467 88.484375,92.6210938 L88.484375,94.6953125 C88.484375,95.3906285 88.5791006,95.9072249 88.7685547,96.2451172 C88.9580088,96.5830095 89.2617167,96.7519531 89.6796875,96.7519531 C90.0937521,96.7519531 90.3925772,96.5898454 90.5761719,96.265625 C90.7597665,95.9414046 90.8554687,95.4453158 90.8632812,94.7773438 L90.8632812,92.75 Z" id="EURO2020" fill="#FFFFFF" fill-rule="nonzero"></path>
    </g>
</svg>