<?xml version="1.0" encoding="UTF-8"?>
<svg width="125px" height="125px" viewBox="0 0 125 125" version="1.1" xmlns="http://www.w3.org/2000/svg" xmlns:xlink="http://www.w3.org/1999/xlink">
    <!-- Generator: Sketch 55.2 (78181) - https://sketchapp.com -->
    <title>EURO 2020 QUAL.</title>
    <desc>Created with Sketch.</desc>
    <g id="EURO-2020-QUAL." stroke="none" stroke-width="1" fill="none" fill-rule="evenodd">
        <g id="football-england-premier_league-copy" transform="translate(33.000000, 23.000000)" fill="#FFFFFF" fill-rule="nonzero">
            <path d="M56.5951234,29.8536585 C55.5899241,31.2195122 54.283165,32 54.283165,32 C54.283165,32 53.6800454,30.2439024 52.0717265,27.3170732 C50.9660073,25.0731707 49.2571684,23.7073171 49.2571684,23.7073171 C49.2571684,23.7073171 49.6592482,21.2682927 49.9608079,18.3414634 C50.2623677,15.3170732 49.9608079,13.1707317 49.9608079,13.1707317 C49.9608079,13.1707317 51.1670471,13.2682927 53.0769258,14.2439024 C54.182645,14.8292683 54.8862846,15.4146341 55.2883643,15.902439 C51.8706866,8.87804878 45.6384509,3.51219512 37.9989362,1.07317073 C38.300496,1.46341463 38.6020558,1.95121951 39.0041355,2.53658537 C39.707775,3.41463415 40.5119345,5.26829268 40.5119345,5.26829268 C40.5119345,5.26829268 37.5968565,5.56097561 34.9833383,5.85365854 C31.6661806,6.24390244 29.8568218,7.12195122 29.8568218,7.12195122 C29.8568218,7.12195122 27.1427837,5.56097561 25.232905,4.97560976 C23.3230263,4.3902439 20.7095081,4 20.7095081,4 C20.7095081,4 21.2121078,2.63414634 22.6193868,1.46341463 C23.825626,0.390243902 24.7303053,0.0975609756 25.232905,0 C16.487671,1.07317073 9.04919616,5.85365854 4.52579928,12.7804878 C5.32995873,11.804878 6.2346381,10.9268293 7.13931748,10.5365854 C8.54659651,9.85365854 10.3559553,10.0487805 10.3559553,10.0487805 C10.3559553,10.0487805 9.04919616,13.3658537 8.8481563,15.2195122 C8.44607658,18.4390244 8.64711644,19.902439 8.64711644,19.902439 C8.64711644,19.902439 6.83775769,21.2682927 4.92787901,23.902439 C2.91748039,26.5365854 2.6159206,27.804878 2.6159206,27.804878 C2.6159206,27.804878 1.61072129,27.1219512 1.00760171,25.1707317 C0.706041917,24.2926829 0.706041917,22.7317073 0.706041917,21.6585366 C0.203442264,23.6097561 0.0024024024,25.7560976 0.0024024024,27.902439 C0.0024024024,33.9512195 2.01280102,39.6097561 5.32995873,44.195122 C5.2294388,43.6097561 5.12891887,42.7317073 5.2294388,41.5609756 C5.32995873,40.3902439 5.53099859,39.4146341 5.53099859,39.4146341 C5.53099859,39.4146341 6.93827762,40.8780488 9.35075596,42.0487805 C12.6679137,43.6097561 14.1757126,44.097561 14.1757126,44.097561 C14.1757126,44.097561 15.4824717,46.8292683 16.588191,48.195122 C17.6939102,49.5609756 20.3074284,51.902439 20.3074284,51.902439 C20.3074284,51.902439 19.2017092,52.3902439 18.0959899,52.5853659 C17.0907906,52.7804878 16.1861112,52.7804878 15.4824717,52.7804878 C19.503269,54.8292683 24.1271858,56 29.0526624,56 C31.9677404,56 34.6817785,55.6097561 37.2952967,54.8292683 C36.893217,54.6341463 36.0890575,54.3414634 34.9833383,53.9512195 C33.7770991,53.4634146 32.6713799,53.0731707 32.6713799,53.0731707 C32.6713799,53.0731707 32.8724197,53.0731707 35.7874977,50.3414634 C38.7025757,47.6097561 39.4062152,45.8536585 39.4062152,45.8536585 C39.4062152,45.8536585 41.5171338,45.9512195 44.130652,45.1707317 C47.1462499,44.2926829 49.4582083,43.1219512 49.4582083,43.1219512 C49.4582083,43.1219512 49.860288,43.902439 49.9608079,45.1707317 C49.9608079,45.8536585 49.860288,46.9268293 49.7597681,47.5121951 C54.8862846,42.4390244 58.0024024,35.5121951 58.0024024,27.804878 C58.0024024,27.7073171 58.0024024,27.5121951 58.0024024,27.4146341 C57.7008426,28 57.198243,29.0731707 56.5951234,29.8536585 Z M36.6921771,32.5853659 C34.4807386,37.2682927 33.7770991,37.6585366 33.4755393,37.6585366 C33.5760592,37.7560976 33.1739795,38.1463415 27.0422638,37.5609756 C20.0058686,36.8780488 20.4079483,36.4878049 20.5084683,36.4878049 C20.4079483,36.4878049 19.8048287,36.3902439 18.5985896,30.8292683 C17.2918305,24.5853659 17.8949501,24 17.8949501,24 C17.8949501,24 20.2069085,22.3414634 22.7199067,20.8780488 C25.232905,19.4146341 28.8516225,17.7560976 28.8516225,17.7560976 C28.8516225,17.7560976 30.2589015,17.7560976 34.9833383,21.7560976 C39.707775,25.7560976 39.0041355,26.0487805 39.0041355,26.0487805 C39.0041355,26.0487805 39.5067352,26.6341463 36.6921771,32.5853659 Z" id="Shape"></path>
        </g>
        <path d="M37.8349609,94.3027344 L34.4599609,94.3027344 L34.4599609,96.5878906 L38.4208984,96.5878906 L38.4208984,98 L32.7021484,98 L32.7021484,89.46875 L38.4091797,89.46875 L38.4091797,90.8925781 L34.4599609,90.8925781 L34.4599609,92.9257812 L37.8349609,92.9257812 L37.8349609,94.3027344 Z M45.9091797,89.46875 L45.9091797,95.0878906 C45.9091797,96.021489 45.6171904,96.7597629 45.0332031,97.3027344 C44.4492158,97.8457058 43.6513722,98.1171875 42.6396484,98.1171875 C41.6435497,98.1171875 40.852542,97.8535183 40.2666016,97.3261719 C39.6806611,96.7988255 39.381836,96.0742234 39.3701172,95.1523438 L39.3701172,89.46875 L41.1279297,89.46875 L41.1279297,95.0996094 C41.1279297,95.6582059 41.2617174,96.0654284 41.5292969,96.3212891 C41.7968763,96.5771497 42.1669898,96.7050781 42.6396484,96.7050781 C43.6279346,96.7050781 44.1298827,96.1855521 44.1455078,95.1464844 L44.1455078,89.46875 L45.9091797,89.46875 Z M50.5087891,94.8769531 L49.1083984,94.8769531 L49.1083984,98 L47.3505859,98 L47.3505859,89.46875 L50.5205078,89.46875 C51.5283254,89.46875 52.3056613,89.6933571 52.8525391,90.1425781 C53.3994168,90.5917991 53.6728516,91.2265584 53.6728516,92.046875 C53.6728516,92.6289092 53.5468763,93.1142559 53.2949219,93.5029297 C53.0429675,93.8916035 52.6611354,94.2011707 52.1494141,94.4316406 L53.9951172,97.9179688 L53.9951172,98 L52.1083984,98 L50.5087891,94.8769531 Z M49.1083984,93.453125 L50.5263672,93.453125 C50.9677756,93.453125 51.3095691,93.3408214 51.5517578,93.1162109 C51.7939465,92.8916004 51.9150391,92.5820332 51.9150391,92.1875 C51.9150391,91.7851542 51.8007824,91.4687512 51.5722656,91.2382812 C51.3437489,91.0078113 50.9931664,90.8925781 50.5205078,90.8925781 L49.1083984,90.8925781 L49.1083984,93.453125 Z M62.0166016,93.9277344 C62.0166016,94.7675823 61.8681655,95.5039031 61.5712891,96.1367188 C61.2744126,96.7695344 60.8496121,97.2578108 60.296875,97.6015625 C59.7441379,97.9453142 59.1103551,98.1171875 58.3955078,98.1171875 C57.688473,98.1171875 57.05762,97.9472673 56.5029297,97.6074219 C55.9482394,97.2675764 55.5185562,96.7822297 55.2138672,96.1513672 C54.9091782,95.5205047 54.7548828,94.794926 54.7509766,93.9746094 L54.7509766,93.5527344 C54.7509766,92.7128864 54.9023422,91.973636 55.2050781,91.3349609 C55.507814,90.6962859 55.9355441,90.2060564 56.4882812,89.8642578 C57.0410184,89.5224592 57.672848,89.3515625 58.3837891,89.3515625 C59.0947301,89.3515625 59.7265597,89.5224592 60.2792969,89.8642578 C60.832034,90.2060564 61.2597641,90.6962859 61.5625,91.3349609 C61.8652359,91.973636 62.0166016,92.7109333 62.0166016,93.546875 L62.0166016,93.9277344 Z M60.2353516,93.5410156 C60.2353516,92.6464799 60.0751969,91.9667992 59.7548828,91.5019531 C59.4345687,91.0371071 58.977542,90.8046875 58.3837891,90.8046875 C57.7939424,90.8046875 57.3388688,91.0341774 57.0185547,91.4931641 C56.6982406,91.9521507 56.5361328,92.6249956 56.5322266,93.5117188 L56.5322266,93.9277344 C56.5322266,94.7988325 56.6923812,95.474607 57.0126953,95.9550781 C57.3330094,96.4355493 57.7939423,96.6757812 58.3955078,96.6757812 C58.9853545,96.6757812 59.438475,96.4443383 59.7548828,95.9814453 C60.0712906,95.5185524 60.2314453,94.8437544 60.2353516,93.9570312 L60.2353516,93.5410156 Z M71.9482422,98 L66.1005859,98 L66.1005859,96.8398438 L68.8603516,93.8984375 C69.2392597,93.4843729 69.5195303,93.1230484 69.7011719,92.8144531 C69.8828134,92.5058578 69.9736328,92.212892 69.9736328,91.9355469 C69.9736328,91.5566387 69.8779306,91.2587901 69.6865234,91.0419922 C69.4951162,90.8251942 69.2216815,90.7167969 68.8662109,90.7167969 C68.4833965,90.7167969 68.1816417,90.8486315 67.9609375,91.1123047 C67.7402333,91.3759779 67.6298828,91.7226541 67.6298828,92.1523438 L65.9306641,92.1523438 C65.9306641,91.6328099 66.0546863,91.1582053 66.3027344,90.7285156 C66.5507825,90.298826 66.9013649,89.9619153 67.3544922,89.7177734 C67.8076195,89.4736316 68.3212862,89.3515625 68.8955078,89.3515625 C69.7744185,89.3515625 70.4570288,89.5624979 70.9433594,89.984375 C71.4296899,90.4062521 71.6728516,91.0019493 71.6728516,91.7714844 C71.6728516,92.1933615 71.5634777,92.6230447 71.3447266,93.0605469 C71.1259755,93.4980491 70.7509792,94.0078096 70.2197266,94.5898438 L68.2802734,96.6347656 L71.9482422,96.6347656 L71.9482422,98 Z M78.7275391,94.4726562 C78.7275391,95.6523496 78.4834009,96.5546844 77.9951172,97.1796875 C77.5068335,97.8046906 76.7919969,98.1171875 75.8505859,98.1171875 C74.9208938,98.1171875 74.2099634,97.8105499 73.7177734,97.1972656 C73.2255835,96.5839813 72.9736329,95.7050838 72.9619141,94.5605469 L72.9619141,92.9902344 C72.9619141,91.7988222 73.2089819,90.8945343 73.703125,90.2773438 C74.1972681,89.6601532 74.909175,89.3515625 75.8388672,89.3515625 C76.7685593,89.3515625 77.4794897,89.6572235 77.9716797,90.2685547 C78.4638696,90.8798859 78.7158203,91.7578068 78.7275391,92.9023438 L78.7275391,94.4726562 Z M77.0341797,92.75 C77.0341797,92.0429652 76.937501,91.5283219 76.7441406,91.2060547 C76.5507803,90.8837875 76.2490255,90.7226562 75.8388672,90.7226562 C75.4404277,90.7226562 75.1464853,90.875975 74.9570312,91.1826172 C74.7675772,91.4892593 74.6669922,91.9687467 74.6552734,92.6210938 L74.6552734,94.6953125 C74.6552734,95.3906285 74.7499991,95.9072249 74.9394531,96.2451172 C75.1289072,96.5830095 75.4326151,96.7519531 75.8505859,96.7519531 C76.2646505,96.7519531 76.5634756,96.5898454 76.7470703,96.265625 C76.930665,95.9414046 77.0263671,95.4453158 77.0341797,94.7773438 L77.0341797,92.75 Z M85.7177734,98 L79.8701172,98 L79.8701172,96.8398438 L82.6298828,93.8984375 C83.008791,93.4843729 83.2890616,93.1230484 83.4707031,92.8144531 C83.6523447,92.5058578 83.7431641,92.212892 83.7431641,91.9355469 C83.7431641,91.5566387 83.6474619,91.2587901 83.4560547,91.0419922 C83.2646475,90.8251942 82.9912127,90.7167969 82.6357422,90.7167969 C82.2529278,90.7167969 81.951173,90.8486315 81.7304688,91.1123047 C81.5097645,91.3759779 81.3994141,91.7226541 81.3994141,92.1523438 L79.7001953,92.1523438 C79.7001953,91.6328099 79.8242175,91.1582053 80.0722656,90.7285156 C80.3203137,90.298826 80.6708962,89.9619153 81.1240234,89.7177734 C81.5771507,89.4736316 82.0908174,89.3515625 82.6650391,89.3515625 C83.5439497,89.3515625 84.2265601,89.5624979 84.7128906,89.984375 C85.1992212,90.4062521 85.4423828,91.0019493 85.4423828,91.7714844 C85.4423828,92.1933615 85.3330089,92.6230447 85.1142578,93.0605469 C84.8955067,93.4980491 84.5205105,94.0078096 83.9892578,94.5898438 L82.0498047,96.6347656 L85.7177734,96.6347656 L85.7177734,98 Z M92.4970703,94.4726562 C92.4970703,95.6523496 92.2529321,96.5546844 91.7646484,97.1796875 C91.2763647,97.8046906 90.5615281,98.1171875 89.6201172,98.1171875 C88.690425,98.1171875 87.9794946,97.8105499 87.4873047,97.1972656 C86.9951147,96.5839813 86.7431641,95.7050838 86.7314453,94.5605469 L86.7314453,92.9902344 C86.7314453,91.7988222 86.9785132,90.8945343 87.4726562,90.2773438 C87.9667993,89.6601532 88.6787063,89.3515625 89.6083984,89.3515625 C90.5380906,89.3515625 91.249021,89.6572235 91.7412109,90.2685547 C92.2334009,90.8798859 92.4853515,91.7578068 92.4970703,92.9023438 L92.4970703,94.4726562 Z M90.8037109,92.75 C90.8037109,92.0429652 90.7070322,91.5283219 90.5136719,91.2060547 C90.3203115,90.8837875 90.0185567,90.7226562 89.6083984,90.7226562 C89.2099589,90.7226562 88.9160166,90.875975 88.7265625,91.1826172 C88.5371084,91.4892593 88.4365235,91.9687467 88.4248047,92.6210938 L88.4248047,94.6953125 C88.4248047,95.3906285 88.5195303,95.9072249 88.7089844,96.2451172 C88.8984384,96.5830095 89.2021463,96.7519531 89.6201172,96.7519531 C90.0341818,96.7519531 90.3330069,96.5898454 90.5166016,96.265625 C90.7001962,95.9414046 90.7958984,95.4453158 90.8037109,94.7773438 L90.8037109,92.75 Z M29.5996094,106.606445 C29.5996094,107.270511 29.4921886,107.847491 29.2773438,108.337402 C29.0624989,108.827314 28.7646503,109.220376 28.3837891,109.516602 L29.5654297,110.444336 L28.6328125,111.269531 L27.1191406,110.053711 C26.9466137,110.083008 26.7675791,110.097656 26.5820312,110.097656 C25.9928356,110.097656 25.4671247,109.956056 25.0048828,109.672852 C24.5426409,109.389647 24.1845716,108.985191 23.9306641,108.459473 C23.6767565,107.933754 23.5481771,107.329105 23.5449219,106.645508 L23.5449219,106.293945 C23.5449219,105.594072 23.6710599,104.97803 23.9233398,104.445801 C24.1756198,103.913572 24.5320615,103.505047 24.9926758,103.220215 C25.4532901,102.935383 25.9798147,102.792969 26.5722656,102.792969 C27.1647165,102.792969 27.6912412,102.935383 28.1518555,103.220215 C28.6124698,103.505047 28.9689115,103.913572 29.2211914,104.445801 C29.4734713,104.97803 29.5996094,105.592444 29.5996094,106.289062 L29.5996094,106.606445 Z M28.1152344,106.28418 C28.1152344,105.538733 27.9817722,104.972333 27.7148438,104.584961 C27.4479153,104.197589 27.0670598,104.003906 26.5722656,104.003906 C26.0807267,104.003906 25.7014987,104.195148 25.4345703,104.577637 C25.1676419,104.960126 25.0325521,105.52083 25.0292969,106.259766 L25.0292969,106.606445 C25.0292969,107.33236 25.1627591,107.895506 25.4296875,108.295898 C25.6966159,108.696291 26.0807267,108.896484 26.5820312,108.896484 C27.0735702,108.896484 27.4511706,108.703615 27.7148438,108.317871 C27.9785169,107.932127 28.1119792,107.369795 28.1152344,106.630859 L28.1152344,106.28418 Z M36.0546875,102.890625 L36.0546875,107.573242 C36.0546875,108.351241 35.8113631,108.966469 35.324707,109.418945 C34.838051,109.871422 34.1731813,110.097656 33.3300781,110.097656 C32.4999958,110.097656 31.8408228,109.877932 31.3525391,109.438477 C30.8642554,108.999021 30.6152344,108.395186 30.6054688,107.626953 L30.6054688,102.890625 L32.0703125,102.890625 L32.0703125,107.583008 C32.0703125,108.048505 32.1818023,108.387857 32.4047852,108.601074 C32.627768,108.814291 32.9361959,108.920898 33.3300781,108.920898 C34.15365,108.920898 34.57194,108.48796 34.5849609,107.62207 L34.5849609,102.890625 L36.0546875,102.890625 Z M41.1621094,108.535156 L38.59375,108.535156 L38.1054688,110 L36.5478516,110 L39.1943359,102.890625 L40.5517578,102.890625 L43.2128906,110 L41.6552734,110 L41.1621094,108.535156 Z M38.9892578,107.348633 L40.7666016,107.348633 L39.8730469,104.6875 L38.9892578,107.348633 Z M45.3417969,108.823242 L48.4521484,108.823242 L48.4521484,110 L43.8769531,110 L43.8769531,102.890625 L45.3417969,102.890625 L45.3417969,108.823242 Z M50.8496094,110 L49.3847656,110 L49.3847656,102.890625 L50.8496094,102.890625 L50.8496094,110 Z M56.484375,107.094727 L53.671875,107.094727 L53.671875,110 L52.2070312,110 L52.2070312,102.890625 L56.8359375,102.890625 L56.8359375,104.077148 L53.671875,104.077148 L53.671875,105.913086 L56.484375,105.913086 L56.484375,107.094727 Z M59.2431641,110 L57.7783203,110 L57.7783203,102.890625 L59.2431641,102.890625 L59.2431641,110 Z M66.1816406,107.631836 C66.1263018,108.396814 65.8439153,108.999021 65.3344727,109.438477 C64.82503,109.877932 64.15365,110.097656 63.3203125,110.097656 C62.4088496,110.097656 61.6918971,109.790856 61.1694336,109.177246 C60.64697,108.563636 60.3857422,107.72136 60.3857422,106.650391 L60.3857422,106.21582 C60.3857422,105.532223 60.5061837,104.930016 60.7470703,104.40918 C60.9879569,103.888344 61.3321918,103.488771 61.7797852,103.210449 C62.2273785,102.932128 62.7473929,102.792969 63.3398438,102.792969 C64.1601604,102.792969 64.820961,103.012693 65.3222656,103.452148 C65.8235702,103.891604 66.1132809,104.50846 66.1914062,105.302734 L64.7265625,105.302734 C64.690755,104.843748 64.5629894,104.510906 64.3432617,104.304199 C64.1235341,104.097492 63.7890647,103.994141 63.3398438,103.994141 C62.8515601,103.994141 62.4861666,104.169106 62.2436523,104.519043 C62.0011381,104.86898 61.8766276,105.41178 61.8701172,106.147461 L61.8701172,106.68457 C61.8701172,107.452803 61.9864897,108.014321 62.2192383,108.369141 C62.4519868,108.72396 62.8190079,108.901367 63.3203125,108.901367 C63.7727887,108.901367 64.1105132,108.798015 64.3334961,108.591309 C64.556479,108.384602 64.6842446,108.064781 64.7167969,107.631836 L66.1816406,107.631836 Z M71.1572266,108.535156 L68.5888672,108.535156 L68.1005859,110 L66.5429688,110 L69.1894531,102.890625 L70.546875,102.890625 L73.2080078,110 L71.6503906,110 L71.1572266,108.535156 Z M68.984375,107.348633 L70.7617188,107.348633 L69.8681641,104.6875 L68.984375,107.348633 Z M78.6376953,104.077148 L76.4599609,104.077148 L76.4599609,110 L74.9951172,110 L74.9951172,104.077148 L72.8466797,104.077148 L72.8466797,102.890625 L78.6376953,102.890625 L78.6376953,104.077148 Z M81.0302734,110 L79.5654297,110 L79.5654297,102.890625 L81.0302734,102.890625 L81.0302734,110 Z M88.2275391,106.606445 C88.2275391,107.306319 88.1038424,107.919919 87.8564453,108.447266 C87.6090482,108.974612 87.2550479,109.381509 86.7944336,109.667969 C86.3338193,109.954429 85.805667,110.097656 85.2099609,110.097656 C84.6207653,110.097656 84.0950544,109.956056 83.6328125,109.672852 C83.1705706,109.389647 82.8125013,108.985191 82.5585938,108.459473 C82.3046862,107.933754 82.1761068,107.329105 82.1728516,106.645508 L82.1728516,106.293945 C82.1728516,105.594072 82.2989896,104.97803 82.5512695,104.445801 C82.8035494,103.913572 83.1599912,103.505047 83.6206055,103.220215 C84.0812198,102.935383 84.6077444,102.792969 85.2001953,102.792969 C85.7926462,102.792969 86.3191709,102.935383 86.7797852,103.220215 C87.2403994,103.505047 87.5968412,103.913572 87.8491211,104.445801 C88.101401,104.97803 88.2275391,105.592444 88.2275391,106.289062 L88.2275391,106.606445 Z M86.7431641,106.28418 C86.7431641,105.538733 86.6097019,104.972333 86.3427734,104.584961 C86.075845,104.197589 85.6949895,104.003906 85.2001953,104.003906 C84.7086564,104.003906 84.3294284,104.195148 84.0625,104.577637 C83.7955716,104.960126 83.6604818,105.52083 83.6572266,106.259766 L83.6572266,106.606445 C83.6572266,107.33236 83.7906888,107.895506 84.0576172,108.295898 C84.3245456,108.696291 84.7086563,108.896484 85.2099609,108.896484 C85.7014999,108.896484 86.0791002,108.703615 86.3427734,108.317871 C86.6064466,107.932127 86.7399088,107.369795 86.7431641,106.630859 L86.7431641,106.28418 Z M95.0732422,110 L93.6083984,110 L90.7568359,105.322266 L90.7568359,110 L89.2919922,110 L89.2919922,102.890625 L90.7568359,102.890625 L93.6132812,107.578125 L93.6132812,102.890625 L95.0732422,102.890625 L95.0732422,110 Z M100.039062,108.134766 C100.039062,107.858072 99.9414072,107.645671 99.7460938,107.497559 C99.5507803,107.349446 99.1992213,107.193197 98.6914062,107.028809 C98.1835912,106.86442 97.781577,106.702475 97.4853516,106.542969 C96.6780559,106.106769 96.2744141,105.519209 96.2744141,104.780273 C96.2744141,104.396157 96.3826487,104.05355 96.5991211,103.752441 C96.8155935,103.451333 97.1264628,103.216147 97.5317383,103.046875 C97.9370137,102.877603 98.3919246,102.792969 98.8964844,102.792969 C99.4042994,102.792969 99.8567688,102.884927 100.253906,103.068848 C100.651044,103.252768 100.959472,103.512368 101.179199,103.847656 C101.398927,104.182944 101.508789,104.5638 101.508789,104.990234 L100.043945,104.990234 C100.043945,104.664712 99.9414073,104.411622 99.7363281,104.230957 C99.531249,104.050292 99.2431659,103.959961 98.8720703,103.959961 C98.5139956,103.959961 98.2356781,104.035644 98.0371094,104.187012 C97.8385407,104.33838 97.7392578,104.537759 97.7392578,104.785156 C97.7392578,105.016277 97.8556303,105.20996 98.0883789,105.366211 C98.3211275,105.522462 98.6637347,105.668945 99.1162109,105.805664 C99.9495484,106.056316 100.556639,106.367186 100.9375,106.738281 C101.318361,107.109377 101.508789,107.571612 101.508789,108.125 C101.508789,108.740237 101.276044,109.222817 100.810547,109.572754 C100.34505,109.922691 99.7184284,110.097656 98.9306641,110.097656 C98.3837863,110.097656 97.8857444,109.99756 97.4365234,109.797363 C96.9873024,109.597167 96.6446952,109.322918 96.4086914,108.974609 C96.1726876,108.6263 96.0546875,108.222659 96.0546875,107.763672 L97.5244141,107.763672 C97.5244141,108.548181 97.9931594,108.94043 98.9306641,108.94043 C99.2789731,108.94043 99.5507803,108.86963 99.7460938,108.728027 C99.9414072,108.586425 100.039062,108.388673 100.039062,108.134766 Z" id="EURO2020QUALIFICATIONS" fill="#FFFFFF" fill-rule="nonzero"></path>
    </g>
</svg>