<?xml version="1.0" encoding="UTF-8"?>
<svg width="125px" height="125px" viewBox="0 0 125 125" version="1.1" xmlns="http://www.w3.org/2000/svg" xmlns:xlink="http://www.w3.org/1999/xlink">
    <!-- Generator: Sketch 55.2 (78181) - https://sketchapp.com -->
    <title>WORLD CUP 2022</title>
    <desc>Created with Sketch.</desc>
    <g id="WORLD-CUP-2022" stroke="none" stroke-width="1" fill="none" fill-rule="evenodd">
        <g id="football-england-premier_league-copy" transform="translate(33.000000, 23.000000)" fill="#FFFFFF" fill-rule="nonzero">
            <path d="M56.5951234,29.8536585 C55.5899241,31.2195122 54.283165,32 54.283165,32 C54.283165,32 53.6800454,30.2439024 52.0717265,27.3170732 C50.9660073,25.0731707 49.2571684,23.7073171 49.2571684,23.7073171 C49.2571684,23.7073171 49.6592482,21.2682927 49.9608079,18.3414634 C50.2623677,15.3170732 49.9608079,13.1707317 49.9608079,13.1707317 C49.9608079,13.1707317 51.1670471,13.2682927 53.0769258,14.2439024 C54.182645,14.8292683 54.8862846,15.4146341 55.2883643,15.902439 C51.8706866,8.87804878 45.6384509,3.51219512 37.9989362,1.07317073 C38.300496,1.46341463 38.6020558,1.95121951 39.0041355,2.53658537 C39.707775,3.41463415 40.5119345,5.26829268 40.5119345,5.26829268 C40.5119345,5.26829268 37.5968565,5.56097561 34.9833383,5.85365854 C31.6661806,6.24390244 29.8568218,7.12195122 29.8568218,7.12195122 C29.8568218,7.12195122 27.1427837,5.56097561 25.232905,4.97560976 C23.3230263,4.3902439 20.7095081,4 20.7095081,4 C20.7095081,4 21.2121078,2.63414634 22.6193868,1.46341463 C23.825626,0.390243902 24.7303053,0.0975609756 25.232905,0 C16.487671,1.07317073 9.04919616,5.85365854 4.52579928,12.7804878 C5.32995873,11.804878 6.2346381,10.9268293 7.13931748,10.5365854 C8.54659651,9.85365854 10.3559553,10.0487805 10.3559553,10.0487805 C10.3559553,10.0487805 9.04919616,13.3658537 8.8481563,15.2195122 C8.44607658,18.4390244 8.64711644,19.902439 8.64711644,19.902439 C8.64711644,19.902439 6.83775769,21.2682927 4.92787901,23.902439 C2.91748039,26.5365854 2.6159206,27.804878 2.6159206,27.804878 C2.6159206,27.804878 1.61072129,27.1219512 1.00760171,25.1707317 C0.706041917,24.2926829 0.706041917,22.7317073 0.706041917,21.6585366 C0.203442264,23.6097561 0.0024024024,25.7560976 0.0024024024,27.902439 C0.0024024024,33.9512195 2.01280102,39.6097561 5.32995873,44.195122 C5.2294388,43.6097561 5.12891887,42.7317073 5.2294388,41.5609756 C5.32995873,40.3902439 5.53099859,39.4146341 5.53099859,39.4146341 C5.53099859,39.4146341 6.93827762,40.8780488 9.35075596,42.0487805 C12.6679137,43.6097561 14.1757126,44.097561 14.1757126,44.097561 C14.1757126,44.097561 15.4824717,46.8292683 16.588191,48.195122 C17.6939102,49.5609756 20.3074284,51.902439 20.3074284,51.902439 C20.3074284,51.902439 19.2017092,52.3902439 18.0959899,52.5853659 C17.0907906,52.7804878 16.1861112,52.7804878 15.4824717,52.7804878 C19.503269,54.8292683 24.1271858,56 29.0526624,56 C31.9677404,56 34.6817785,55.6097561 37.2952967,54.8292683 C36.893217,54.6341463 36.0890575,54.3414634 34.9833383,53.9512195 C33.7770991,53.4634146 32.6713799,53.0731707 32.6713799,53.0731707 C32.6713799,53.0731707 32.8724197,53.0731707 35.7874977,50.3414634 C38.7025757,47.6097561 39.4062152,45.8536585 39.4062152,45.8536585 C39.4062152,45.8536585 41.5171338,45.9512195 44.130652,45.1707317 C47.1462499,44.2926829 49.4582083,43.1219512 49.4582083,43.1219512 C49.4582083,43.1219512 49.860288,43.902439 49.9608079,45.1707317 C49.9608079,45.8536585 49.860288,46.9268293 49.7597681,47.5121951 C54.8862846,42.4390244 58.0024024,35.5121951 58.0024024,27.804878 C58.0024024,27.7073171 58.0024024,27.5121951 58.0024024,27.4146341 C57.7008426,28 57.198243,29.0731707 56.5951234,29.8536585 Z M36.6921771,32.5853659 C34.4807386,37.2682927 33.7770991,37.6585366 33.4755393,37.6585366 C33.5760592,37.7560976 33.1739795,38.1463415 27.0422638,37.5609756 C20.0058686,36.8780488 20.4079483,36.4878049 20.5084683,36.4878049 C20.4079483,36.4878049 19.8048287,36.3902439 18.5985896,30.8292683 C17.2918305,24.5853659 17.8949501,24 17.8949501,24 C17.8949501,24 20.2069085,22.3414634 22.7199067,20.8780488 C25.232905,19.4146341 28.8516225,17.7560976 28.8516225,17.7560976 C28.8516225,17.7560976 30.2589015,17.7560976 34.9833383,21.7560976 C39.707775,25.7560976 39.0041355,26.0487805 39.0041355,26.0487805 C39.0041355,26.0487805 39.5067352,26.6341463 36.6921771,32.5853659 Z" id="Shape"></path>
        </g>
        <path d="M21.5361328,96.5390625 L22.6845703,90.46875 L24.4365234,90.46875 L22.5439453,99 L20.7744141,99 L19.3857422,93.2929688 L17.9970703,99 L16.2275391,99 L14.3349609,90.46875 L16.0869141,90.46875 L17.2412109,96.5273438 L18.6474609,90.46875 L20.1357422,90.46875 L21.5361328,96.5390625 Z M32.3935547,94.9277344 C32.3935547,95.7675823 32.2451187,96.5039031 31.9482422,97.1367188 C31.6513657,97.7695344 31.2265653,98.2578108 30.6738281,98.6015625 C30.121091,98.9453142 29.4873083,99.1171875 28.7724609,99.1171875 C28.0654262,99.1171875 27.4345731,98.9472673 26.8798828,98.6074219 C26.3251925,98.2675764 25.8955093,97.7822297 25.5908203,97.1513672 C25.2861313,96.5205047 25.131836,95.794926 25.1279297,94.9746094 L25.1279297,94.5527344 C25.1279297,93.7128864 25.2792954,92.973636 25.5820312,92.3349609 C25.8847671,91.6962859 26.3124972,91.2060564 26.8652344,90.8642578 C27.4179715,90.5224592 28.0498011,90.3515625 28.7607422,90.3515625 C29.4716832,90.3515625 30.1035129,90.5224592 30.65625,90.8642578 C31.2089871,91.2060564 31.6367172,91.6962859 31.9394531,92.3349609 C32.242189,92.973636 32.3935547,93.7109333 32.3935547,94.546875 L32.3935547,94.9277344 Z M30.6123047,94.5410156 C30.6123047,93.6464799 30.45215,92.9667992 30.1318359,92.5019531 C29.8115218,92.0371071 29.3544952,91.8046875 28.7607422,91.8046875 C28.1708955,91.8046875 27.7158219,92.0341774 27.3955078,92.4931641 C27.0751937,92.9521507 26.913086,93.6249956 26.9091797,94.5117188 L26.9091797,94.9277344 C26.9091797,95.7988325 27.0693343,96.474607 27.3896484,96.9550781 C27.7099625,97.4355493 28.1708954,97.6757812 28.7724609,97.6757812 C29.3623076,97.6757812 29.8154281,97.4443383 30.1318359,96.9814453 C30.4482438,96.5185524 30.6083984,95.8437544 30.6123047,94.9570312 L30.6123047,94.5410156 Z M36.8291016,95.8769531 L35.4287109,95.8769531 L35.4287109,99 L33.6708984,99 L33.6708984,90.46875 L36.8408203,90.46875 C37.8486379,90.46875 38.6259738,90.6933571 39.1728516,91.1425781 C39.7197293,91.5917991 39.9931641,92.2265584 39.9931641,93.046875 C39.9931641,93.6289092 39.8671888,94.1142559 39.6152344,94.5029297 C39.36328,94.8916035 38.9814479,95.2011707 38.4697266,95.4316406 L40.3154297,98.9179688 L40.3154297,99 L38.4287109,99 L36.8291016,95.8769531 Z M35.4287109,94.453125 L36.8466797,94.453125 C37.2880881,94.453125 37.6298816,94.3408214 37.8720703,94.1162109 C38.114259,93.8916004 38.2353516,93.5820332 38.2353516,93.1875 C38.2353516,92.7851542 38.1210949,92.4687512 37.8925781,92.2382812 C37.6640614,92.0078113 37.3134789,91.8925781 36.8408203,91.8925781 L35.4287109,91.8925781 L35.4287109,94.453125 Z M43.0869141,97.5878906 L46.8193359,97.5878906 L46.8193359,99 L41.3291016,99 L41.3291016,90.46875 L43.0869141,90.46875 L43.0869141,97.5878906 Z M47.8271484,99 L47.8271484,90.46875 L50.4521484,90.46875 C51.2021522,90.46875 51.8730439,90.6376936 52.4648438,90.9755859 C53.0566436,91.3134783 53.518553,91.7939422 53.8505859,92.4169922 C54.1826188,93.0400422 54.3486328,93.7480429 54.3486328,94.5410156 L54.3486328,94.9335938 C54.3486328,95.7265665 54.1855485,96.4316375 53.859375,97.0488281 C53.5332015,97.6660187 53.0732452,98.1445296 52.4794922,98.484375 C51.8857392,98.8242204 51.215824,98.9960937 50.4697266,99 L47.8271484,99 Z M49.5849609,91.8925781 L49.5849609,97.5878906 L50.4345703,97.5878906 C51.1220737,97.5878906 51.6474591,97.3632835 52.0107422,96.9140625 C52.3740253,96.4648415 52.5595703,95.8222698 52.5673828,94.9863281 L52.5673828,94.5351562 C52.5673828,93.6679644 52.3876971,93.0107444 52.0283203,92.5634766 C51.6689435,92.1162087 51.1435581,91.8925781 50.4521484,91.8925781 L49.5849609,91.8925781 Z M65.3115234,96.1582031 C65.2451169,97.0761765 64.9062531,97.7988255 64.2949219,98.3261719 C63.6835907,98.8535183 62.8779347,99.1171875 61.8779297,99.1171875 C60.7841742,99.1171875 59.9238313,98.7490271 59.296875,98.0126953 C58.6699187,97.2763635 58.3564453,96.2656314 58.3564453,94.9804688 L58.3564453,94.4589844 C58.3564453,93.6386678 58.5009751,92.9160188 58.7900391,92.2910156 C59.079103,91.6660125 59.4921848,91.1865251 60.0292969,90.8525391 C60.5664089,90.518553 61.1904261,90.3515625 61.9013672,90.3515625 C62.8857471,90.3515625 63.6787079,90.6152317 64.2802734,91.1425781 C64.8818389,91.6699245 65.2294917,92.4101515 65.3232422,93.3632812 L63.5654297,93.3632812 C63.5224607,92.8124972 63.3691419,92.4130872 63.1054688,92.1650391 C62.8417956,91.9169909 62.4404324,91.7929688 61.9013672,91.7929688 C61.3154268,91.7929688 60.8769546,92.0029276 60.5859375,92.4228516 C60.2949204,92.8427755 60.1455079,93.4941362 60.1376953,94.3769531 L60.1376953,95.0214844 C60.1376953,95.943364 60.2773424,96.6171854 60.5566406,97.0429688 C60.8359389,97.4687521 61.2763642,97.6816406 61.8779297,97.6816406 C62.4209012,97.6816406 62.8261705,97.5576184 63.09375,97.3095703 C63.3613295,97.0615222 63.5146482,96.677737 63.5537109,96.1582031 L65.3115234,96.1582031 Z M72.9228516,90.46875 L72.9228516,96.0878906 C72.9228516,97.021489 72.6308623,97.7597629 72.046875,98.3027344 C71.4628877,98.8457058 70.6650441,99.1171875 69.6533203,99.1171875 C68.6572216,99.1171875 67.8662139,98.8535183 67.2802734,98.3261719 C66.694333,97.7988255 66.3955079,97.0742234 66.3837891,96.1523438 L66.3837891,90.46875 L68.1416016,90.46875 L68.1416016,96.0996094 C68.1416016,96.6582059 68.2753893,97.0654284 68.5429688,97.3212891 C68.8105482,97.5771497 69.1806617,97.7050781 69.6533203,97.7050781 C70.6416065,97.7050781 71.1435546,97.1855521 71.1591797,96.1464844 L71.1591797,90.46875 L72.9228516,90.46875 Z M76.1220703,95.9941406 L76.1220703,99 L74.3642578,99 L74.3642578,90.46875 L77.6923828,90.46875 C78.333011,90.46875 78.8964819,90.5859363 79.3828125,90.8203125 C79.8691431,91.0546887 80.2431628,91.3876932 80.5048828,91.8193359 C80.7666029,92.2509787 80.8974609,92.7421847 80.8974609,93.2929688 C80.8974609,94.1289104 80.611331,94.7880835 80.0390625,95.2705078 C79.466794,95.7529321 78.6748097,95.9941406 77.6630859,95.9941406 L76.1220703,95.9941406 Z M76.1220703,94.5703125 L77.6923828,94.5703125 C78.1572289,94.5703125 78.5117175,94.4609386 78.7558594,94.2421875 C79.0000012,94.0234364 79.1220703,93.7109395 79.1220703,93.3046875 C79.1220703,92.8867167 78.9990247,92.5488294 78.7529297,92.2910156 C78.5068347,92.0332018 78.1669944,91.9003907 77.7333984,91.8925781 L76.1220703,91.8925781 L76.1220703,94.5703125 Z M90.7587891,99 L84.9111328,99 L84.9111328,97.8398438 L87.6708984,94.8984375 C88.0498066,94.4843729 88.3300772,94.1230484 88.5117188,93.8144531 C88.6933603,93.5058578 88.7841797,93.212892 88.7841797,92.9355469 C88.7841797,92.5566387 88.6884775,92.2587901 88.4970703,92.0419922 C88.3056631,91.8251942 88.0322283,91.7167969 87.6767578,91.7167969 C87.2939434,91.7167969 86.9921886,91.8486315 86.7714844,92.1123047 C86.5507801,92.3759779 86.4404297,92.7226541 86.4404297,93.1523438 L84.7412109,93.1523438 C84.7412109,92.6328099 84.8652331,92.1582053 85.1132812,91.7285156 C85.3613294,91.298826 85.7119118,90.9619153 86.1650391,90.7177734 C86.6181663,90.4736316 87.1318331,90.3515625 87.7060547,90.3515625 C88.5849653,90.3515625 89.2675757,90.5624979 89.7539062,90.984375 C90.2402368,91.4062521 90.4833984,92.0019493 90.4833984,92.7714844 C90.4833984,93.1933615 90.3740245,93.6230447 90.1552734,94.0605469 C89.9365223,94.4980491 89.5615261,95.0078096 89.0302734,95.5898438 L87.0908203,97.6347656 L90.7587891,97.6347656 L90.7587891,99 Z M97.5380859,95.4726562 C97.5380859,96.6523496 97.2939478,97.5546844 96.8056641,98.1796875 C96.3173804,98.8046906 95.6025438,99.1171875 94.6611328,99.1171875 C93.7314407,99.1171875 93.0205103,98.8105499 92.5283203,98.1972656 C92.0361304,97.5839813 91.7841797,96.7050838 91.7724609,95.5605469 L91.7724609,93.9902344 C91.7724609,92.7988222 92.0195288,91.8945343 92.5136719,91.2773438 C93.007815,90.6601532 93.7197219,90.3515625 94.6494141,90.3515625 C95.5791062,90.3515625 96.2900366,90.6572235 96.7822266,91.2685547 C97.2744165,91.8798859 97.5263671,92.7578068 97.5380859,93.9023438 L97.5380859,95.4726562 Z M95.8447266,93.75 C95.8447266,93.0429652 95.7480478,92.5283219 95.5546875,92.2060547 C95.3613272,91.8837875 95.0595724,91.7226562 94.6494141,91.7226562 C94.2509746,91.7226562 93.9570322,91.875975 93.7675781,92.1826172 C93.5781241,92.4892593 93.4775391,92.9687467 93.4658203,93.6210938 L93.4658203,95.6953125 C93.4658203,96.3906285 93.5605459,96.9072249 93.75,97.2451172 C93.9394541,97.5830095 94.243162,97.7519531 94.6611328,97.7519531 C95.0751974,97.7519531 95.3740225,97.5898454 95.5576172,97.265625 C95.7412119,96.9414046 95.836914,96.4453158 95.8447266,95.7773438 L95.8447266,93.75 Z M104.52832,99 L98.6806641,99 L98.6806641,97.8398438 L101.44043,94.8984375 C101.819338,94.4843729 102.099608,94.1230484 102.28125,93.8144531 C102.462892,93.5058578 102.553711,93.212892 102.553711,92.9355469 C102.553711,92.5566387 102.458009,92.2587901 102.266602,92.0419922 C102.075194,91.8251942 101.80176,91.7167969 101.446289,91.7167969 C101.063475,91.7167969 100.76172,91.8486315 100.541016,92.1123047 C100.320311,92.3759779 100.209961,92.7226541 100.209961,93.1523438 L98.5107422,93.1523438 C98.5107422,92.6328099 98.6347644,92.1582053 98.8828125,91.7285156 C99.1308606,91.298826 99.481443,90.9619153 99.9345703,90.7177734 C100.387698,90.4736316 100.901364,90.3515625 101.475586,90.3515625 C102.354497,90.3515625 103.037107,90.5624979 103.523438,90.984375 C104.009768,91.4062521 104.25293,92.0019493 104.25293,92.7714844 C104.25293,93.1933615 104.143556,93.6230447 103.924805,94.0605469 C103.706054,94.4980491 103.331057,95.0078096 102.799805,95.5898438 L100.860352,97.6347656 L104.52832,97.6347656 L104.52832,99 Z M111.413086,99 L105.56543,99 L105.56543,97.8398438 L108.325195,94.8984375 C108.704103,94.4843729 108.984374,94.1230484 109.166016,93.8144531 C109.347657,93.5058578 109.438477,93.212892 109.438477,92.9355469 C109.438477,92.5566387 109.342774,92.2587901 109.151367,92.0419922 C108.95996,91.8251942 108.686525,91.7167969 108.331055,91.7167969 C107.94824,91.7167969 107.646485,91.8486315 107.425781,92.1123047 C107.205077,92.3759779 107.094727,92.7226541 107.094727,93.1523438 L105.395508,93.1523438 C105.395508,92.6328099 105.51953,92.1582053 105.767578,91.7285156 C106.015626,91.298826 106.366209,90.9619153 106.819336,90.7177734 C107.272463,90.4736316 107.78613,90.3515625 108.360352,90.3515625 C109.239262,90.3515625 109.921873,90.5624979 110.408203,90.984375 C110.894534,91.4062521 111.137695,92.0019493 111.137695,92.7714844 C111.137695,93.1933615 111.028321,93.6230447 110.80957,94.0605469 C110.590819,94.4980491 110.215823,95.0078096 109.68457,95.5898438 L107.745117,97.6347656 L111.413086,97.6347656 L111.413086,99 Z" id="WORLDCUP2022" fill="#FFFFFF" fill-rule="nonzero"></path>
    </g>
</svg>