<?xml version="1.0" encoding="UTF-8"?>
<svg width="90px" height="90px" viewBox="0 0 90 90" version="1.1" xmlns="http://www.w3.org/2000/svg" xmlns:xlink="http://www.w3.org/1999/xlink">
    <!-- Generator: Sketch 48.2 (47327) - http://www.bohemiancoding.com/sketch -->
    <title>Liga Aguila</title>
    <desc>Created with Sketch.</desc>
    <defs></defs>
    <g id="Page-1" stroke="none" stroke-width="1" fill="none" fill-rule="evenodd">
        <g id="Liga-Aguila" fill="#FFFFFF">
            <path d="M33.4125635,52.4873106 C33.9582087,52.5163247 34.808513,52.5158925 35.6588173,52.3336844 C36.673491,52.1307497 37.5866974,51.7248802 37.5866974,51.7248802 C37.5866974,51.7248802 35.3544152,49.644799 34.4412088,48.5286579 C33.5280024,47.4125167 32.4118613,44.9772997 32.4118613,44.9772997 C32.4118613,44.9772997 31.0927854,44.5206965 28.3024326,43.0494196 C26.1716177,42.0347458 25.0047429,40.7664036 25.0047429,40.7664036 C25.0047429,40.7664036 24.9032755,41.6288763 24.8018081,42.6435501 C24.7007501,43.6793943 24.8009926,44.4761943 24.9271083,45.0151542 C22.0687458,40.995406 20.3879773,36.0799188 20.3879773,30.7718671 C20.3879773,28.8888294 20.5994993,27.0551952 21.0000793,25.2934289 C20.9988377,25.3104609 20.9977376,25.3271099 20.9967815,25.3433625 C20.9967815,26.2565689 21.0475152,27.6771122 21.3011836,28.4381175 C21.7577868,30.1630629 22.5187921,30.7211334 22.5187921,30.7211334 C22.5187921,30.7211334 22.8231943,29.6049923 24.497406,27.2712427 C26.1716177,24.937493 27.6936283,23.8213519 27.6936283,23.8213519 C27.6936283,23.8213519 27.5414272,22.5530097 27.8965631,19.7119232 C28.0994978,18.1391789 29.2156389,15.2473587 29.2156389,15.2473587 C29.2156389,15.2473587 27.6428946,15.0951576 26.4760198,15.6532282 C25.5800006,16.1012378 24.6839813,17.0437724 23.9233378,18.0572369 C27.7032657,11.8066271 34.1860359,7.37350566 41.7518152,6.37770571 C41.328927,6.4861495 40.5889784,6.78991181 39.6160449,7.63730548 C38.4491701,8.65197924 37.9925669,9.81885406 37.9925669,9.81885406 C37.9925669,9.81885406 40.2248492,10.1232562 41.7975935,10.7320604 C43.3703378,11.3408647 45.7548212,12.7614079 45.7548212,12.7614079 C45.7548212,12.7614079 47.3275655,11.9496689 50.1179183,11.6452668 C52.2994669,11.3915984 54.7854176,11.0871963 54.7854176,11.0871963 C54.7854176,11.0871963 54.1258797,9.46371824 53.5170754,8.65197924 C53.1623468,8.17900773 52.8765141,7.70603623 52.6595773,7.38360177 C59.0998224,9.49315705 64.3689219,14.1886693 67.2394521,20.2427148 C66.8721984,19.8472559 66.2640458,19.3012117 65.3887583,18.8494505 C63.7652803,18.0377115 62.7506066,17.9362441 62.7506066,17.9362441 C62.7506066,17.9362441 63.1057424,19.9148579 62.8013403,22.502276 C62.4969381,25.0896941 62.192536,27.220509 62.192536,27.220509 C62.192536,27.220509 63.663813,28.3873838 64.6784867,30.3659976 C66.0482963,32.9534157 66.5556332,34.4754263 66.5556332,34.4754263 C66.5556332,34.4754263 67.6210406,33.7651547 68.4835133,32.5475462 C68.917861,31.879319 69.3522087,31.0130602 69.5981772,30.4994168 C69.5991612,30.5901167 69.5996544,30.6809343 69.5996544,30.7718671 C69.5996544,37.4935702 66.9044218,43.5857679 62.5357216,48.0266952 C62.6210414,47.4523579 62.732098,46.5535171 62.6998729,45.9412398 C62.6491392,44.8250986 62.2940034,44.1655607 62.2940034,44.1655607 C62.2940034,44.1655607 60.3661233,45.1295008 57.8294389,45.9412398 C55.6478903,46.6007777 53.8722112,46.550044 53.8722112,46.550044 C53.8722112,46.550044 53.2126733,48.1227884 50.7774563,50.456538 C48.3422392,52.8410213 48.1393045,52.8410213 48.1393045,52.8410213 C48.1393045,52.8410213 49.1032446,53.1961571 50.0671846,53.6020266 C50.9639616,53.99063 51.5965456,54.2383304 51.9649367,54.3762608 C49.7547548,55.0279707 47.4151278,55.3777057 44.9938158,55.3777057 C40.8068239,55.3777057 36.8640878,54.331922 33.4125635,52.4873106 Z M39.6667786,24.6838246 C37.5359637,25.9014331 35.6080836,27.37271 35.6080836,27.37271 C35.6080836,27.37271 35.1007467,27.9307806 36.2676215,33.3592852 C37.4344964,38.7877898 37.8910996,38.2804529 37.8910996,38.2804529 C37.8910996,38.2804529 36.8764258,38.6863224 43.3703378,39.2951267 C49.8642499,39.9039309 48.7481087,39.2951267 48.7481087,39.2951267 C48.7481087,39.2951267 49.0525109,40.2083331 51.4877279,34.9320295 C53.9229449,29.655726 53.4663417,29.1483891 53.4663417,29.1483891 C53.4663417,29.1483891 54.0244123,28.8947207 50.0164509,25.3940962 C46.0084896,21.8934718 44.8416148,21.9442054 44.8416148,21.9442054 C44.8416148,21.9442054 41.7975935,23.4662161 39.6667786,24.6838246 Z" id="Ball"></path>
            <g id="Group" transform="translate(5.000000, 66.000000)">
                <path d="M0.64183419,14.2334995 L9.98851184,0.898292612 L13.0560599,1.64955547 L15.1828088,17.7946806 L12.0355841,17.0239044 L11.4652803,12.7142422 L5.37002249,11.2214731 L2.87277823,14.7798725 L0.64183419,14.2334995 Z M6.68010814,9.48526126 L11.2615111,10.6072772 L10.409917,4.17012198 L6.68010814,9.48526126 Z M28.9921377,18.9417102 C27.061819,19.2989795 25.4079622,19.4290373 24.0305176,19.3318876 C21.4188281,19.147688 19.4608117,18.3191666 18.1564097,16.8462985 C16.8520077,15.3734304 16.2902317,13.3550486 16.4710647,10.7910923 C16.650455,8.24759309 17.4891275,6.33997581 18.9871075,5.06818322 C20.4850875,3.79639063 22.529663,3.25188092 25.1208954,3.43463776 C26.7779203,3.55150595 28.407576,3.86175003 30.0099113,4.36537933 L29.8360527,6.83044731 C27.9928698,6.04941909 26.4644074,5.61610791 25.2506196,5.53050076 C23.6481469,5.41748008 22.3744412,5.84161073 21.4294642,6.80290543 C20.4844871,7.76420013 19.9458776,9.1824432 19.8136193,11.0576772 C19.6856895,12.8715399 20.0523917,14.3279354 20.913737,15.4269075 C21.7750822,16.5258796 23.0274294,17.1333097 24.6708163,17.249216 C25.032225,17.2747058 25.4586057,17.2533816 25.9499711,17.1852428 L26.3012953,12.2039643 L29.4516727,12.426157 L28.9921377,18.9417102 Z M32.1031419,4.67238303 L35.2613391,4.6662366 L35.2794391,13.966512 C35.2822995,15.4362431 35.5270378,16.4970375 36.0136614,17.1489269 C36.500285,17.8008164 37.2836258,18.1257053 38.3637073,18.1236032 C39.3959371,18.1215943 40.142149,17.8091094 40.6023656,17.1861391 C41.0625821,16.5631689 41.2913432,15.5612669 41.2886558,14.1804033 L41.2701167,4.6545424 L44.0181584,4.6491942 L44.0362984,13.9699773 C44.0390257,15.3713489 43.9078052,16.4397108 43.642633,17.1750952 C43.3774608,17.9104797 42.8933556,18.5488678 42.1903029,19.0902789 C41.2278829,19.8372743 39.9332132,20.2123495 38.306255,20.2155159 C36.5630855,20.2189084 35.1609634,19.825156 34.0998465,19.0342469 C33.3673346,18.4887938 32.8550938,17.8420909 32.5631088,17.0941188 C32.2711237,16.3461467 32.1238296,15.3022524 32.121222,13.9624045 L32.1031419,4.67238303 Z M47.4756358,19.4532554 L46.325883,4.32109082 L49.4750092,4.08181794 L50.6247619,19.2139825 L47.4756358,19.4532554 Z M54.6847453,19.1498182 L52.277426,4.1661888 L55.3956408,3.66520613 L57.461381,16.52278 L64.2141383,15.4378598 L64.5557174,17.5639153 L54.6847453,19.1498182 Z M65.1769237,17.8917181 L67.2628772,1.74127152 L70.3285175,0.982261305 L79.708855,14.2938125 L76.5635876,15.0725373 L74.0573615,11.5204582 L67.9658944,13.0286214 L67.4064802,17.3397106 L65.1769237,17.8917181 Z M68.3524101,10.7710968 L72.9309638,9.63751014 L69.1877388,4.3318107 L68.3524101,10.7710968 Z" id="AGUILA"></path>
            </g>
            <path d="M34,66.6665039 L34,60.1625977 L34.9228516,60.1625977 L34.9228516,65.9765625 L37.8496094,65.9765625 L37.8496094,66.6665039 L34,66.6665039 Z M39.7319335,66.6665039 L39.7319335,60.1625977 L40.6547851,60.1625977 L40.6547851,66.6665039 L39.7319335,66.6665039 Z M48.1533202,66.4907227 C47.3652303,66.7163097 46.6782255,66.8291016 46.092285,66.8291016 C45.0581002,66.8291016 44.2648952,66.5346709 43.7126464,65.9458008 C43.1603975,65.3569306 42.8842772,64.5131891 42.8842772,63.4145508 C42.8842772,62.3364204 43.1640596,61.4978057 43.7236327,60.8986816 C44.2832058,60.2995576 45.0683542,60 46.0791014,60 C46.7412141,60 47.4296838,60.0981435 48.1445311,60.2944336 L48.1445311,61.1469727 C47.2480423,60.8422836 46.5610374,60.6899414 46.083496,60.6899414 C45.3803675,60.6899414 44.8347186,60.9287085 44.4465331,61.40625 C44.0583475,61.8837915 43.8642577,62.556148 43.8642577,63.4233398 C43.8642577,64.2817426 44.0722634,64.9489722 44.4882811,65.4250488 C44.9042988,65.9011254 45.4873008,66.1391602 46.2373046,66.1391602 C46.5449233,66.1391602 46.8774395,66.0849615 47.2348632,65.9765625 L47.2348632,63.8583984 L48.1533202,63.8583984 L48.1533202,66.4907227 Z M54.0039061,64.1791992 L52.8964842,61.3754883 L51.7846678,64.1791992 L54.0039061,64.1791992 Z M54.979492,66.6665039 L54.2719725,64.8647461 L51.5166014,64.8647461 L50.8002928,66.6665039 L49.9433592,66.6665039 L52.522949,60.1625977 L53.4370115,60.1625977 L55.9770506,66.6665039 L54.979492,66.6665039 Z" id="LIGA"></path>
        </g>
    </g>
</svg>