<?xml version="1.0" encoding="UTF-8"?>
<svg width="125px" height="125px" viewBox="0 0 125 125" version="1.1" xmlns="http://www.w3.org/2000/svg" xmlns:xlink="http://www.w3.org/1999/xlink">
    <!-- Generator: Sketch 55.2 (78181) - https://sketchapp.com -->
    <title>UEFA U21</title>
    <desc>Created with Sketch.</desc>
    <g id="UEFA-U21" stroke="none" stroke-width="1" fill="none" fill-rule="evenodd">
        <g id="logo-sudamericana-color" transform="translate(-13.000000, 10.000000)" fill="#FFFFFF" fill-rule="nonzero">
            <g id="Group-3" transform="translate(69.700000, 63.400000)">
                <path d="M10.6,14.9 C7.56662085,10.4792715 5.73973202,5.34330099 5.3,4.26325641e-14 L5.3,4.26325641e-14 C4.86026798,5.34330099 3.03337915,10.4792715 7.10542736e-15,14.9 L10.6,14.9 Z" id="Path"></path>
                <path d="M5.3,4.26325641e-14 C5.6,4.9 6.3,10.2 9.4,14.9 L10.6,14.9 C7.56662085,10.4792715 5.73973202,5.34330099 5.3,4.26325641e-14 L5.3,4.26325641e-14 Z" id="Path"></path>
                <path d="M5.3,4.26325641e-14 C5,4.9 4.3,10.2 1.2,14.9 L3.55271368e-14,14.9 C3.03337915,10.4792715 4.86026798,5.34330099 5.3,4.26325641e-14 L5.3,4.26325641e-14 Z" id="Path"></path>
            </g>
            <path d="M78.3,60.6 C78.3,51.8 91.6,26 91.6,20.5 C91.6,11.3320732 84.1679268,3.9 75,3.9 C65.8320732,3.9 58.4,11.3320732 58.4,20.5 C58.4,26 71.7,51.7 71.7,60.6 C71.7705371,64.89991 68.0038704,70.79991 60.4,78.3 C65.7,72.7 67.8,67.4 67.8,60.6 C67.8,51.2 59.7,36.8 59.6,36.4 C57.2,31.8 54.5,26.5 54.5,20.5 C54.5,9.17816263 63.6781626,2.84217094e-14 75,2.84217094e-14 C86.3218374,2.84217094e-14 95.5,9.17816263 95.5,20.5 C95.5,26.5 92.8,31.8 90.4,36.4 C90.2,36.7 82.2,51.2 82.2,60.6 C82.2,67.4 84.3,72.7 89.6,78.3 C81.9961296,70.79991 78.2294629,64.89991 78.3,60.6 Z" id="Path"></path>
        </g>
        <rect id="Rectangle" fill="#FFFFFF" x="48" y="16" width="28" height="28" rx="14"></rect>
        <path d="M43.21875,98.46875 L43.21875,104.087891 C43.21875,105.021489 42.9267607,105.759763 42.3427734,106.302734 C41.7587861,106.845706 40.9609426,107.117188 39.9492188,107.117188 C38.95312,107.117188 38.1621123,106.853518 37.5761719,106.326172 C36.9902314,105.798825 36.6914063,105.074223 36.6796875,104.152344 L36.6796875,98.46875 L38.4375,98.46875 L38.4375,104.099609 C38.4375,104.658206 38.5712877,105.065428 38.8388672,105.321289 C39.1064467,105.57715 39.4765601,105.705078 39.9492188,105.705078 C40.9375049,105.705078 41.439453,105.185552 41.4550781,104.146484 L41.4550781,98.46875 L43.21875,98.46875 Z M49.7929688,103.302734 L46.4179688,103.302734 L46.4179688,105.587891 L50.3789062,105.587891 L50.3789062,107 L44.6601562,107 L44.6601562,98.46875 L50.3671875,98.46875 L50.3671875,99.8925781 L46.4179688,99.8925781 L46.4179688,101.925781 L49.7929688,101.925781 L49.7929688,103.302734 Z M56.5429688,103.513672 L53.1679688,103.513672 L53.1679688,107 L51.4101562,107 L51.4101562,98.46875 L56.9648438,98.46875 L56.9648438,99.8925781 L53.1679688,99.8925781 L53.1679688,102.095703 L56.5429688,102.095703 L56.5429688,103.513672 Z M61.6757812,105.242188 L58.59375,105.242188 L58.0078125,107 L56.1386719,107 L59.3144531,98.46875 L60.9433594,98.46875 L64.1367188,107 L62.2675781,107 L61.6757812,105.242188 Z M59.0683594,103.818359 L61.2011719,103.818359 L60.1289062,100.625 L59.0683594,103.818359 Z M74.3789062,98.46875 L74.3789062,104.087891 C74.3789062,105.021489 74.086917,105.759763 73.5029297,106.302734 C72.9189424,106.845706 72.1210988,107.117188 71.109375,107.117188 C70.1132763,107.117188 69.3222686,106.853518 68.7363281,106.326172 C68.1503877,105.798825 67.8515626,105.074223 67.8398438,104.152344 L67.8398438,98.46875 L69.5976562,98.46875 L69.5976562,104.099609 C69.5976562,104.658206 69.731444,105.065428 69.9990234,105.321289 C70.2666029,105.57715 70.6367164,105.705078 71.109375,105.705078 C72.0976612,105.705078 72.5996093,105.185552 72.6152344,104.146484 L72.6152344,98.46875 L74.3789062,98.46875 Z M81.4863281,107 L75.6386719,107 L75.6386719,105.839844 L78.3984375,102.898438 C78.7773456,102.484373 79.0576163,102.123048 79.2392578,101.814453 C79.4208993,101.505858 79.5117188,101.212892 79.5117188,100.935547 C79.5117188,100.556639 79.4160166,100.25879 79.2246094,100.041992 C79.0332022,99.8251942 78.7597674,99.7167969 78.4042969,99.7167969 C78.0214825,99.7167969 77.7197277,99.8486315 77.4990234,100.112305 C77.2783192,100.375978 77.1679688,100.722654 77.1679688,101.152344 L75.46875,101.152344 C75.46875,100.63281 75.5927722,100.158205 75.8408203,99.7285156 C76.0888684,99.298826 76.4394509,98.9619153 76.8925781,98.7177734 C77.3457054,98.4736316 77.8593721,98.3515625 78.4335938,98.3515625 C79.3125044,98.3515625 79.9951148,98.5624979 80.4814453,98.984375 C80.9677759,99.4062521 81.2109375,100.001949 81.2109375,100.771484 C81.2109375,101.193361 81.1015636,101.623045 80.8828125,102.060547 C80.6640614,102.498049 80.2890652,103.00781 79.7578125,103.589844 L77.8183594,105.634766 L81.4863281,105.634766 L81.4863281,107 Z M86.6367188,107 L84.9433594,107 L84.9433594,100.472656 L82.921875,101.099609 L82.921875,99.7226562 L86.4550781,98.4570312 L86.6367188,98.4570312 L86.6367188,107 Z" id="UEFAU21" fill="#FFFFFF" fill-rule="nonzero"></path>
    </g>
</svg>