<?xml version="1.0" encoding="utf-8"?>
<!-- Generator: Adobe Illustrator 20.1.0, SVG Export Plug-In . SVG Version: 6.00 Build 0)  -->
<svg version="1.1" id="Layer_1" xmlns="http://www.w3.org/2000/svg" xmlns:xlink="http://www.w3.org/1999/xlink" x="0px" y="0px"
	 viewBox="0 0 90 87" style="enable-background:new 0 0 90 87;" xml:space="preserve">
<style type="text/css">
	.st0{fill:#FFFFFF;}
	.st1{clip-path:url(#SVGID_2_);fill:#FFFFFF;}
</style>
<g id="Layer_2">
</g>
<g>
	<g>
		<g>
			<path class="st0" d="M30.4,74.3H28V62.3h2.4V74.3z"/>
			<path class="st0" d="M40.8,74.3h-2.4l-3.5-7.8v7.8h-2.4V62.3h2.4l3.5,7.8v-7.8h2.4V74.3z"/>
			<path class="st0" d="M50.2,64.3h-3v9.9h-2.4v-9.9h-2.9v-2h8.3V64.3z"/>
			<path class="st0" d="M52.3,66l-1.1-0.6c0.4-0.8,0.6-1.5,0.6-2.2v-1.4h1.8V63c0,0.5-0.1,1-0.4,1.6C53,65.2,52.6,65.6,52.3,66z"/>
			<path class="st0" d="M57.8,72.3H62v2h-6.6V62.3h2.4V72.3z"/>
		</g>
		<g>
			<path class="st0" d="M20.3,83.2h-2.8v3.7h-1.8v-9h5v1.5h-3.1v2.3h2.8V83.2z"/>
			<path class="st0" d="M24.4,83.6h-0.9v3.3h-1.8v-9h2.9c0.9,0,1.6,0.2,2.1,0.7c0.5,0.5,0.7,1.1,0.7,2c0,1.2-0.4,2-1.3,2.5l1.6,3.7
				v0.1h-1.9L24.4,83.6z M23.5,82.1h1c0.4,0,0.6-0.1,0.8-0.4c0.2-0.2,0.3-0.6,0.3-1c0-0.9-0.4-1.3-1.1-1.3h-1.1V82.1z"/>
			<path class="st0" d="M30.5,86.9h-1.8v-9h1.8V86.9z"/>
			<path class="st0" d="M36.7,83h-2.8v2.4h3.3v1.5h-5.1v-9h5.1v1.5h-3.3v2.1h2.8V83z"/>
			<path class="st0" d="M44.5,86.9h-1.8L40.1,81v5.9h-1.8v-9h1.8l2.7,5.9v-5.9h1.8V86.9z"/>
			<path class="st0" d="M46,86.9v-9h2.4c1,0,1.9,0.3,2.5,1c0.6,0.7,0.9,1.6,1,2.7v1.5c0,1.2-0.3,2.1-0.9,2.8s-1.5,1-2.6,1H46z
				 M47.8,79.4v5.9h0.5c0.6,0,1-0.2,1.3-0.5S50,84,50,83.3v-1.6c0-0.8-0.1-1.4-0.4-1.8c-0.2-0.3-0.6-0.5-1.2-0.5H47.8z"/>
			<path class="st0" d="M54.9,85.4h3.2v1.5h-5v-9h1.8V85.4z"/>
			<path class="st0" d="M61,86.9h-1.8v-9H61V86.9z"/>
			<path class="st0" d="M67.1,83h-2.8v2.4h3.3v1.5h-5.1v-9h5.1v1.5h-3.3v2.1h2.8V83z"/>
			<path class="st0" d="M72.5,84.5c0-0.4-0.1-0.6-0.3-0.8s-0.5-0.4-1-0.6c-0.9-0.3-1.5-0.7-1.9-1.2c-0.4-0.5-0.6-1-0.6-1.6
				c0-0.8,0.3-1.4,0.8-1.8c0.5-0.5,1.2-0.7,2-0.7c0.5,0,1,0.1,1.5,0.3c0.4,0.2,0.8,0.6,1,1c0.2,0.4,0.3,0.9,0.3,1.4h-1.8
				c0-0.4-0.1-0.7-0.3-1c-0.2-0.2-0.4-0.3-0.8-0.3c-0.3,0-0.6,0.1-0.7,0.3c-0.2,0.2-0.3,0.4-0.3,0.8c0,0.2,0.1,0.5,0.3,0.7
				s0.5,0.4,1,0.6c0.9,0.3,1.5,0.7,1.9,1.2c0.4,0.5,0.6,1,0.6,1.8c0,0.8-0.2,1.4-0.7,1.8c-0.5,0.4-1.2,0.7-2,0.7
				c-0.6,0-1.1-0.1-1.6-0.4c-0.5-0.2-0.8-0.6-1.1-1s-0.4-1-0.4-1.6h1.8c0,0.5,0.1,0.9,0.3,1.1c0.2,0.2,0.5,0.4,1,0.4
				C72.2,85.5,72.5,85.2,72.5,84.5z"/>
		</g>
	</g>
	<g>
		<defs>
			<circle id="SVGID_1_" cx="45" cy="28.9" r="28.9"/>
		</defs>
		<clipPath id="SVGID_2_">
			<use xlink:href="#SVGID_1_"  style="overflow:visible;"/>
		</clipPath>
		<path class="st1" d="M72.5,30.9c-1,1.4-2.3,2.2-2.3,2.2s-0.6-1.8-2.2-4.8c-1.2-2.3-2.9-3.7-2.9-3.7s0.4-2.5,0.7-5.5
			c0.3-3.1,0-5.3,0-5.3s1.2,0.1,3.1,1.1c1.1,0.6,1.8,1.2,2.2,1.7C67.7,9.4,61.5,3.9,53.9,1.4c0.3,0.4,0.6,0.9,1,1.5
			c0.7,0.9,1.5,2.8,1.5,2.8S53.6,6.1,51,6.4c-3.3,0.4-5.1,1.3-5.1,1.3S43.1,6,41.3,5.4s-4.5-1-4.5-1s0.5-1.4,1.9-2.6
			c1.2-1.1,2.1-1.4,2.6-1.5c-8.7,1.1-16.2,6.1-20.7,13.2c0.8-1,1.7-1.9,2.6-2.3c1.4-0.7,3.2-0.5,3.2-0.5s-1.3,3.4-1.5,5.3
			c-0.4,3.3-0.2,4.8-0.2,4.8s-1.8,1.4-3.7,4.1c-2,2.7-2.3,4-2.3,4s-0.9-0.7-1.4-2.7c-0.3-0.9-0.3-2.5-0.3-3.6
			c-0.5,2-0.7,4.2-0.7,6.4c0,6.2,2,12,5.3,16.7c-0.1-0.6-0.2-1.5-0.1-2.7c0.1-1.2,0.3-2.2,0.3-2.2s1.4,1.5,3.8,2.7
			c3.3,1.6,4.8,2.1,4.8,2.1s1.3,2.8,2.4,4.2c1,1.3,3.7,3.8,3.7,3.8s-1.1,0.5-2.2,0.7c-1,0.2-1.9,0.2-2.6,0.2c4,2.1,8.6,3.3,13.5,3.3
			c2.9,0,5.6-0.4,8.2-1.2c-0.4-0.2-1.2-0.5-2.3-0.9c-1.2-0.5-2.3-0.9-2.3-0.9s0.2,0,3.1-2.8c2.9-2.8,3.6-4.6,3.6-4.6
			s2.1,0.1,4.7-0.7c3-0.9,5.3-2.1,5.3-2.1s0.4,0.8,0.5,2.1c0,0.7-0.1,1.8-0.2,2.4c5.1-5.2,8.2-12.3,8.2-20.2c0-0.1,0-0.3,0-0.4
			C73.6,29,73,30.1,72.5,30.9z M52.6,33.7c-2.2,4.8-2.9,5.2-3.2,5.2c0.1,0.1-0.3,0.5-6.4-0.1c-7-0.7-6.6-1.1-6.5-1.1
			c-0.1,0-0.7-0.1-1.9-5.8c-1.3-6.4-0.7-7-0.7-7s2.3-1.7,4.8-3.2s6.1-3.2,6.1-3.2s1.4,0,6.1,4.1c4.7,4.1,4,4.4,4,4.4
			S55.5,27.6,52.6,33.7z"/>
	</g>
</g>
</svg>
