<?xml version="1.0" encoding="UTF-8"?>
<svg width="90px" height="90px" viewBox="0 0 90 90" version="1.1" xmlns="http://www.w3.org/2000/svg" xmlns:xlink="http://www.w3.org/1999/xlink">
    <!-- Generator: Sketch 48.2 (47327) - http://www.bohemiancoding.com/sketch -->
    <title>Copa_MX</title>
    <desc>Created with Sketch.</desc>
    <defs></defs>
    <g id="Page-1" stroke="none" stroke-width="1" fill="none" fill-rule="evenodd">
        <g id="Copa_MX" fill="#FFFFFF">
            <path d="M32.2886121,60.5845057 C32.8872117,60.6163356 33.8200374,60.6158615 34.752863,60.4159703 C35.8660101,60.1933409 36.8678424,59.7480821 36.8678424,59.7480821 C36.8678424,59.7480821 34.4189189,57.4661306 33.4170866,56.2416689 C32.4152542,55.0172071 31.1907925,52.3456542 31.1907925,52.3456542 C31.1907925,52.3456542 29.7437013,51.844738 26.682547,50.2306748 C24.3449382,49.1175278 23.0648191,47.726094 23.0648191,47.726094 C23.0648191,47.726094 22.9535044,48.672269 22.8421896,49.785416 C22.7313241,50.9217881 22.841295,51.7959169 22.9796502,52.3871824 C19.8438858,47.9773208 18,42.5847895 18,36.7615956 C18,34.6958105 18.2320501,32.6842236 18.671506,30.7514792 C18.670144,30.7701642 18.668937,30.788429 18.6678882,30.8062589 C18.6678882,31.8080912 18.7235456,33.3664971 19.0018323,34.2013574 C19.5027485,36.0937073 20.3376088,36.7059382 20.3376088,36.7059382 C20.3376088,36.7059382 20.6715529,35.4814765 22.5082455,32.9212383 C24.3449382,30.3610001 26.0146587,29.1365383 26.0146587,29.1365383 C26.0146587,29.1365383 25.8476867,27.7451045 26.2372881,24.6282928 C26.4599175,22.9029149 27.6843793,19.7304458 27.6843793,19.7304458 C27.6843793,19.7304458 25.9590014,19.5634737 24.6788823,20.1757046 C23.6959051,20.6671932 22.7129279,21.7012001 21.8784645,22.8130205 C26.0252314,15.9557939 33.1371493,11.0924415 41.4371816,10 C40.9732524,10.1189682 40.1614924,10.4522104 39.0941365,11.3818429 C37.8140174,12.49499 37.3131012,13.7751091 37.3131012,13.7751091 C37.3131012,13.7751091 39.7620247,14.1090532 41.4874027,14.7769414 C43.2127806,15.4448297 45.8286761,17.0032355 45.8286761,17.0032355 C45.8286761,17.0032355 47.5540541,16.1127179 50.6152084,15.7787738 C53.0084746,15.500487 55.7356848,15.1665429 55.7356848,15.1665429 C55.7356848,15.1665429 55.0121393,13.3855076 54.344251,12.49499 C53.9550963,11.976117 53.6415237,11.457244 53.4035334,11.1035175 C60.4687992,13.4178034 66.2492607,18.5690115 69.3983735,25.2105973 C68.9954782,24.7767594 68.3283048,24.1777221 67.3680715,23.6821178 C65.5870362,22.7916002 64.4738891,22.6802854 64.4738891,22.6802854 C64.4738891,22.6802854 64.8634906,24.8509222 64.5295465,27.6894472 C64.1956024,30.5279721 63.8616583,32.8655809 63.8616583,32.8655809 C63.8616583,32.8655809 65.4757215,34.1457 66.5888685,36.3163368 C68.091617,39.1548617 68.6481906,40.8245823 68.6481906,40.8245823 C68.6481906,40.8245823 69.816995,40.0453794 70.7631699,38.7096029 C71.2396708,37.9765247 71.7161716,37.0261962 71.9860111,36.4627041 C71.9870906,36.5622064 71.9876317,36.6618378 71.9876317,36.7615956 C71.9876317,44.1356346 69.0308288,50.8190754 64.2381498,55.6909911 C64.3317498,55.0609148 64.4535843,54.0748423 64.4182318,53.4031439 C64.3625744,52.1786821 63.972973,51.4551366 63.972973,51.4551366 C63.972973,51.4551366 61.8579936,52.5126263 59.075126,53.4031439 C56.6818598,54.1266895 54.7338525,54.0710321 54.7338525,54.0710321 C54.7338525,54.0710321 54.0103069,55.79641 51.338754,58.3566482 C48.6672011,60.9725438 48.4445717,60.9725438 48.4445717,60.9725438 C48.4445717,60.9725438 49.5020614,61.3621453 50.5595511,61.8074041 C51.5433595,62.2337211 52.2373354,62.5054607 52.6414785,62.656777 C50.2168002,63.3717349 47.6501143,63.7554114 44.9938158,63.7554114 C40.4004796,63.7554114 36.0751041,62.6081352 32.2886121,60.5845057 Z M39.1497939,30.0827133 C36.8121851,31.4184898 34.6972057,33.032553 34.6972057,33.032553 C34.6972057,33.032553 34.1406322,33.6447838 35.4207513,39.6001205 C36.7008704,45.5554572 37.2017865,44.9988837 37.2017865,44.9988837 C37.2017865,44.9988837 36.0886395,45.4441425 43.2127806,46.1120308 C50.3369217,46.779919 49.1124599,46.1120308 49.1124599,46.1120308 C49.1124599,46.1120308 49.446404,47.1138631 52.1179569,41.3254985 C54.7895098,35.5371338 54.2885937,34.9805603 54.2885937,34.9805603 C54.2885937,34.9805603 54.9008246,34.7022735 50.5038937,30.8619162 C46.1069629,27.0215589 44.8268438,27.0772163 44.8268438,27.0772163 C44.8268438,27.0772163 41.4874027,28.7469368 39.1497939,30.0827133 Z" id="Ball"></path>
            <path d="M15.6538125,73.568 C15.3778111,73.2319983 15.0388145,72.9740009 14.6368125,72.794 C14.2348105,72.6139991 13.7698151,72.524 13.2418125,72.524 C12.7138099,72.524 12.2248147,72.625999 11.7748125,72.83 C11.3248102,73.034001 10.9348141,73.3189982 10.6048125,73.685 C10.2748108,74.0510018 10.0168134,74.4859975 9.8308125,74.99 C9.64481157,75.4940025 9.5518125,76.0399971 9.5518125,76.628 C9.5518125,77.228003 9.64481157,77.7769975 9.8308125,78.275 C10.0168134,78.7730025 10.2718109,79.2049982 10.5958125,79.571 C10.9198141,79.9370018 11.3008103,80.221999 11.7388125,80.426 C12.1768147,80.630001 12.64781,80.732 13.1518125,80.732 C13.7278154,80.732 14.2378103,80.6120012 14.6818125,80.372 C15.1258147,80.1319988 15.4918111,79.7960022 15.7798125,79.364 L18.1198125,81.11 C17.5798098,81.8660038 16.8958166,82.4239982 16.0678125,82.784 C15.2398084,83.1440018 14.3878169,83.324 13.5118125,83.324 C12.5158075,83.324 11.5978167,83.1680016 10.7578125,82.856 C9.9178083,82.5439984 9.19181556,82.0970029 8.5798125,81.515 C7.96780944,80.9329971 7.49081421,80.2280041 7.1488125,79.4 C6.80681079,78.5719959 6.6358125,77.6480051 6.6358125,76.628 C6.6358125,75.6079949 6.80681079,74.6840041 7.1488125,73.856 C7.49081421,73.0279959 7.96780944,72.3230029 8.5798125,71.741 C9.19181556,71.1589971 9.9178083,70.7120016 10.7578125,70.4 C11.5978167,70.0879984 12.5158075,69.932 13.5118125,69.932 C13.8718143,69.932 14.2468105,69.9649997 14.6368125,70.031 C15.0268144,70.0970003 15.4108106,70.2019993 15.7888125,70.346 C16.1668144,70.4900007 16.5298108,70.6819988 16.8778125,70.922 C17.2258142,71.1620012 17.5378111,71.4559983 17.8138125,71.804 L15.6538125,73.568 Z M17.8408125,76.628 C17.8408125,75.6079949 18.0118108,74.6840041 18.3538125,73.856 C18.6958142,73.0279959 19.1728094,72.3230029 19.7848125,71.741 C20.3968156,71.1589971 21.1228083,70.7120016 21.9628125,70.4 C22.8028167,70.0879984 23.7208075,69.932 24.7168125,69.932 C25.7128175,69.932 26.6308083,70.0879984 27.4708125,70.4 C28.3108167,70.7120016 29.0368094,71.1589971 29.6488125,71.741 C30.2608156,72.3230029 30.7378108,73.0279959 31.0798125,73.856 C31.4218142,74.6840041 31.5928125,75.6079949 31.5928125,76.628 C31.5928125,77.6480051 31.4218142,78.5719959 31.0798125,79.4 C30.7378108,80.2280041 30.2608156,80.9329971 29.6488125,81.515 C29.0368094,82.0970029 28.3108167,82.5439984 27.4708125,82.856 C26.6308083,83.1680016 25.7128175,83.324 24.7168125,83.324 C23.7208075,83.324 22.8028167,83.1680016 21.9628125,82.856 C21.1228083,82.5439984 20.3968156,82.0970029 19.7848125,81.515 C19.1728094,80.9329971 18.6958142,80.2280041 18.3538125,79.4 C18.0118108,78.5719959 17.8408125,77.6480051 17.8408125,76.628 Z M20.7568125,76.628 C20.7568125,77.228003 20.8498116,77.7769975 21.0358125,78.275 C21.2218134,78.7730025 21.4888108,79.2049982 21.8368125,79.571 C22.1848142,79.9370018 22.6018101,80.221999 23.0878125,80.426 C23.5738149,80.630001 24.1168095,80.732 24.7168125,80.732 C25.3168155,80.732 25.8598101,80.630001 26.3458125,80.426 C26.8318149,80.221999 27.2488108,79.9370018 27.5968125,79.571 C27.9448142,79.2049982 28.2118116,78.7730025 28.3978125,78.275 C28.5838134,77.7769975 28.6768125,77.228003 28.6768125,76.628 C28.6768125,76.0399971 28.5838134,75.4940025 28.3978125,74.99 C28.2118116,74.4859975 27.9448142,74.0510018 27.5968125,73.685 C27.2488108,73.3189982 26.8318149,73.034001 26.3458125,72.83 C25.8598101,72.625999 25.3168155,72.524 24.7168125,72.524 C24.1168095,72.524 23.5738149,72.625999 23.0878125,72.83 C22.6018101,73.034001 22.1848142,73.3189982 21.8368125,73.685 C21.4888108,74.0510018 21.2218134,74.4859975 21.0358125,74.99 C20.8498116,75.4940025 20.7568125,76.0399971 20.7568125,76.628 Z M32.3758125,70.256 L37.1098125,70.256 C37.7698158,70.256 38.3938096,70.3159994 38.9818125,70.436 C39.5698154,70.5560006 40.0828103,70.7629985 40.5208125,71.057 C40.9588147,71.3510015 41.3068112,71.7469975 41.5648125,72.245 C41.8228138,72.7430025 41.9518125,73.3699962 41.9518125,74.126 C41.9518125,74.8700037 41.8318137,75.4939975 41.5918125,75.998 C41.3518113,76.5020025 41.0218146,76.9039985 40.6018125,77.204 C40.1818104,77.5040015 39.6838154,77.7169994 39.1078125,77.843 C38.5318096,77.9690006 37.9078159,78.032 37.2358125,78.032 L35.1838125,78.032 L35.1838125,83 L32.3758125,83 L32.3758125,70.256 Z M35.1838125,75.656 L37.0558125,75.656 C37.3078138,75.656 37.5508113,75.6320002 37.7848125,75.584 C38.0188137,75.5359998 38.2288116,75.4550006 38.4148125,75.341 C38.6008134,75.2269994 38.7508119,75.071001 38.8648125,74.873 C38.9788131,74.674999 39.0358125,74.4260015 39.0358125,74.126 C39.0358125,73.8019984 38.9608133,73.541001 38.8108125,73.343 C38.6608117,73.144999 38.4688137,72.9920005 38.2348125,72.884 C38.0008113,72.7759995 37.7398139,72.7070001 37.4518125,72.677 C37.1638111,72.6469999 36.8878138,72.632 36.6238125,72.632 L35.1838125,72.632 L35.1838125,75.656 Z M45.4528125,70.256 L47.7748125,70.256 L53.3188125,83 L50.1508125,83 L49.0528125,80.3 L44.1028125,80.3 L43.0408125,83 L39.9448125,83 L45.4528125,70.256 Z M46.5328125,73.964 L44.9848125,77.924 L48.0988125,77.924 L46.5328125,73.964 Z M57.6748125,70.256 L61.9228125,70.256 L64.8568125,78.572 L64.8928125,78.572 L67.8448125,70.256 L72.0748125,70.256 L72.0748125,83 L69.2668125,83 L69.2668125,73.226 L69.2308125,73.226 L65.8828125,83 L63.7408125,83 L60.5188125,73.226 L60.4828125,73.226 L60.4828125,83 L57.6748125,83 L57.6748125,70.256 Z M76.7098125,76.34 L72.4978125,70.256 L76.0258125,70.256 L78.7438125,74.72 L81.3538125,70.256 L84.7558125,70.256 L80.6338125,76.286 L85.2418125,83 L81.7138125,83 L78.5998125,77.87 L75.5758125,83 L72.2458125,83 L76.7098125,76.34 Z" id="COPA-MX"></path>
        </g>
    </g>
</svg>