<?xml version="1.0" encoding="utf-8"?>
<!-- Generator: Adobe Illustrator 20.1.0, SVG Export Plug-In . SVG Version: 6.00 Build 0)  -->
<svg version="1.1" id="Layer_1" xmlns="http://www.w3.org/2000/svg" xmlns:xlink="http://www.w3.org/1999/xlink" x="0px" y="0px"
	 viewBox="0 0 90 77.3" style="enable-background:new 0 0 90 77.3;" xml:space="preserve">
<style type="text/css">
	.st0{fill:#FFFFFF;}
	.st1{clip-path:url(#SVGID_2_);fill:#FFFFFF;}
</style>
<g id="Layer_2">
</g>
<g>
	<g>
		<path class="st0" d="M24.2,73.7c0-0.6-0.2-1-0.6-1.4c-0.4-0.3-1.2-0.6-2.2-1c-1.1-0.3-1.9-0.7-2.6-1.1c-1.2-0.8-1.8-1.8-1.8-3
			c0-1.1,0.4-2,1.3-2.6c0.9-0.7,2-1,3.4-1c0.9,0,1.7,0.2,2.5,0.5c0.7,0.3,1.3,0.8,1.7,1.5c0.4,0.6,0.6,1.3,0.6,2.1h-2.3
			c0-0.7-0.2-1.2-0.7-1.6c-0.4-0.4-1.1-0.6-1.9-0.6c-0.8,0-1.3,0.2-1.8,0.5c-0.4,0.3-0.6,0.8-0.6,1.3c0,0.5,0.2,0.9,0.7,1.2
			c0.5,0.3,1.2,0.6,2.2,0.9c1,0.3,1.9,0.7,2.5,1c0.6,0.4,1.1,0.8,1.4,1.4c0.3,0.5,0.4,1.1,0.4,1.8c0,1.1-0.4,2-1.3,2.6
			c-0.8,0.7-2,1-3.5,1c-1,0-1.8-0.2-2.7-0.5c-0.8-0.4-1.4-0.8-1.9-1.5c-0.4-0.6-0.7-1.4-0.7-2.2h2.3c0,0.8,0.2,1.3,0.7,1.8
			c0.5,0.4,1.2,0.6,2.1,0.6c0.8,0,1.4-0.2,1.8-0.5C24,74.6,24.2,74.2,24.2,73.7z"/>
		<path class="st0" d="M34.9,72h-4.7v3.5h5.5v1.6h-7.4V65.7h7.4v1.6h-5.4v3.1h4.7V72z"/>
		<path class="st0" d="M41.5,72.7h-2.2v4.4h-2V65.7h4c1.3,0,2.3,0.3,3,0.9c0.7,0.6,1.1,1.4,1.1,2.6c0,0.8-0.2,1.4-0.6,1.9
			S44,72,43.4,72.2l2.6,4.7v0.1h-2.1L41.5,72.7z M39.3,71.1h2c0.7,0,1.2-0.2,1.6-0.5c0.4-0.3,0.6-0.8,0.6-1.4c0-0.6-0.2-1.1-0.5-1.4
			c-0.3-0.3-0.9-0.5-1.5-0.5h-2.1V71.1z"/>
		<path class="st0" d="M49.4,77.1h-2V65.7h2V77.1z"/>
		<path class="st0" d="M58.5,72h-4.7v3.5h5.5v1.6h-7.4V65.7h7.4v1.6h-5.4v3.1h4.7V72z"/>
		<path class="st0" d="M70,74h-5.1l-1.1,3.1h-2.4l5-13.3h2.1l5,13.3h-2.4L70,74z M65.5,72.1h3.9l-1.9-5.5L65.5,72.1z"/>
	</g>
	<g>
		<defs>
			<circle id="SVGID_1_" cx="45" cy="28.9" r="28.9"/>
		</defs>
		<clipPath id="SVGID_2_">
			<use xlink:href="#SVGID_1_"  style="overflow:visible;"/>
		</clipPath>
		<path class="st1" d="M72.5,30.9c-1,1.4-2.3,2.2-2.3,2.2s-0.6-1.8-2.2-4.8c-1.2-2.3-2.9-3.7-2.9-3.7s0.4-2.5,0.7-5.5
			c0.3-3.1,0-5.3,0-5.3s1.2,0.1,3.1,1.1c1.1,0.6,1.8,1.2,2.2,1.7C67.7,9.4,61.5,3.9,53.9,1.4c0.3,0.4,0.6,0.9,1,1.5
			c0.7,0.9,1.5,2.8,1.5,2.8S53.6,6.1,51,6.4c-3.3,0.4-5.1,1.3-5.1,1.3S43.1,6,41.3,5.4s-4.5-1-4.5-1s0.5-1.4,1.9-2.6
			c1.2-1.1,2.1-1.4,2.6-1.5c-8.7,1.1-16.2,6.1-20.7,13.2c0.8-1,1.7-1.9,2.6-2.3c1.4-0.7,3.2-0.5,3.2-0.5s-1.3,3.4-1.5,5.3
			c-0.4,3.3-0.2,4.8-0.2,4.8s-1.8,1.4-3.7,4.1c-2,2.7-2.3,4-2.3,4s-0.9-0.7-1.4-2.7c-0.3-0.9-0.3-2.5-0.3-3.6
			c-0.5,2-0.7,4.2-0.7,6.4c0,6.2,2,12,5.3,16.7c-0.1-0.6-0.2-1.5-0.1-2.7c0.1-1.2,0.3-2.2,0.3-2.2s1.4,1.5,3.8,2.7
			c3.3,1.6,4.8,2.1,4.8,2.1s1.3,2.8,2.4,4.2c1,1.3,3.7,3.8,3.7,3.8s-1.1,0.5-2.2,0.7c-1,0.2-1.9,0.2-2.6,0.2c4,2.1,8.6,3.3,13.5,3.3
			c2.9,0,5.6-0.4,8.2-1.2c-0.4-0.2-1.2-0.5-2.3-0.9c-1.2-0.5-2.3-0.9-2.3-0.9s0.2,0,3.1-2.8c2.9-2.8,3.6-4.6,3.6-4.6
			s2.1,0.1,4.7-0.7c3-0.9,5.3-2.1,5.3-2.1s0.4,0.8,0.5,2.1c0,0.7-0.1,1.8-0.2,2.4c5.1-5.2,8.2-12.3,8.2-20.2c0-0.1,0-0.3,0-0.4
			C73.6,29,73,30.1,72.5,30.9z M52.6,33.7c-2.2,4.8-2.9,5.2-3.2,5.2c0.1,0.1-0.3,0.5-6.4-0.1c-7-0.7-6.6-1.1-6.5-1.1
			c-0.1,0-0.7-0.1-1.9-5.8c-1.3-6.4-0.7-7-0.7-7s2.3-1.7,4.8-3.2c2.5-1.5,6.1-3.2,6.1-3.2s1.4,0,6.1,4.1c4.7,4.1,4,4.4,4,4.4
			S55.5,27.6,52.6,33.7z"/>
	</g>
</g>
</svg>
