<?xml version="1.0" encoding="UTF-8"?>
<svg width="90px" height="90px" viewBox="0 0 90 90" version="1.1" xmlns="http://www.w3.org/2000/svg" xmlns:xlink="http://www.w3.org/1999/xlink">
    <!-- Generator: Sketch 48.2 (47327) - http://www.bohemiancoding.com/sketch -->
    <title>Liga_MX</title>
    <desc>Created with Sketch.</desc>
    <defs></defs>
    <g id="Page-1" stroke="none" stroke-width="1" fill="none" fill-rule="evenodd">
        <g id="Liga_MX" fill="#FFFFFF">
            <path d="M32.2886121,60.5845057 C32.8872117,60.6163356 33.8200374,60.6158615 34.752863,60.4159703 C35.8660101,60.1933409 36.8678424,59.7480821 36.8678424,59.7480821 C36.8678424,59.7480821 34.4189189,57.4661306 33.4170866,56.2416689 C32.4152542,55.0172071 31.1907925,52.3456542 31.1907925,52.3456542 C31.1907925,52.3456542 29.7437013,51.844738 26.682547,50.2306748 C24.3449382,49.1175278 23.0648191,47.726094 23.0648191,47.726094 C23.0648191,47.726094 22.9535044,48.672269 22.8421896,49.785416 C22.7313241,50.9217881 22.841295,51.7959169 22.9796502,52.3871824 C19.8438858,47.9773208 18,42.5847895 18,36.7615956 C18,34.6958105 18.2320501,32.6842236 18.671506,30.7514792 C18.670144,30.7701642 18.668937,30.788429 18.6678882,30.8062589 C18.6678882,31.8080912 18.7235456,33.3664971 19.0018323,34.2013574 C19.5027485,36.0937073 20.3376088,36.7059382 20.3376088,36.7059382 C20.3376088,36.7059382 20.6715529,35.4814765 22.5082455,32.9212383 C24.3449382,30.3610001 26.0146587,29.1365383 26.0146587,29.1365383 C26.0146587,29.1365383 25.8476867,27.7451045 26.2372881,24.6282928 C26.4599175,22.9029149 27.6843793,19.7304458 27.6843793,19.7304458 C27.6843793,19.7304458 25.9590014,19.5634737 24.6788823,20.1757046 C23.6959051,20.6671932 22.7129279,21.7012001 21.8784645,22.8130205 C26.0252314,15.9557939 33.1371493,11.0924415 41.4371816,10 C40.9732524,10.1189682 40.1614924,10.4522104 39.0941365,11.3818429 C37.8140174,12.49499 37.3131012,13.7751091 37.3131012,13.7751091 C37.3131012,13.7751091 39.7620247,14.1090532 41.4874027,14.7769414 C43.2127806,15.4448297 45.8286761,17.0032355 45.8286761,17.0032355 C45.8286761,17.0032355 47.5540541,16.1127179 50.6152084,15.7787738 C53.0084746,15.500487 55.7356848,15.1665429 55.7356848,15.1665429 C55.7356848,15.1665429 55.0121393,13.3855076 54.344251,12.49499 C53.9550963,11.976117 53.6415237,11.457244 53.4035334,11.1035175 C60.4687992,13.4178034 66.2492607,18.5690115 69.3983735,25.2105973 C68.9954782,24.7767594 68.3283048,24.1777221 67.3680715,23.6821178 C65.5870362,22.7916002 64.4738891,22.6802854 64.4738891,22.6802854 C64.4738891,22.6802854 64.8634906,24.8509222 64.5295465,27.6894472 C64.1956024,30.5279721 63.8616583,32.8655809 63.8616583,32.8655809 C63.8616583,32.8655809 65.4757215,34.1457 66.5888685,36.3163368 C68.091617,39.1548617 68.6481906,40.8245823 68.6481906,40.8245823 C68.6481906,40.8245823 69.816995,40.0453794 70.7631699,38.7096029 C71.2396708,37.9765247 71.7161716,37.0261962 71.9860111,36.4627041 C71.9870906,36.5622064 71.9876317,36.6618378 71.9876317,36.7615956 C71.9876317,44.1356346 69.0308288,50.8190754 64.2381498,55.6909911 C64.3317498,55.0609148 64.4535843,54.0748423 64.4182318,53.4031439 C64.3625744,52.1786821 63.972973,51.4551366 63.972973,51.4551366 C63.972973,51.4551366 61.8579936,52.5126263 59.075126,53.4031439 C56.6818598,54.1266895 54.7338525,54.0710321 54.7338525,54.0710321 C54.7338525,54.0710321 54.0103069,55.79641 51.338754,58.3566482 C48.6672011,60.9725438 48.4445717,60.9725438 48.4445717,60.9725438 C48.4445717,60.9725438 49.5020614,61.3621453 50.5595511,61.8074041 C51.5433595,62.2337211 52.2373354,62.5054607 52.6414785,62.656777 C50.2168002,63.3717349 47.6501143,63.7554114 44.9938158,63.7554114 C40.4004796,63.7554114 36.0751041,62.6081352 32.2886121,60.5845057 Z M39.1497939,30.0827133 C36.8121851,31.4184898 34.6972057,33.032553 34.6972057,33.032553 C34.6972057,33.032553 34.1406322,33.6447838 35.4207513,39.6001205 C36.7008704,45.5554572 37.2017865,44.9988837 37.2017865,44.9988837 C37.2017865,44.9988837 36.0886395,45.4441425 43.2127806,46.1120308 C50.3369217,46.779919 49.1124599,46.1120308 49.1124599,46.1120308 C49.1124599,46.1120308 49.446404,47.1138631 52.1179569,41.3254985 C54.7895098,35.5371338 54.2885937,34.9805603 54.2885937,34.9805603 C54.2885937,34.9805603 54.9008246,34.7022735 50.5038937,30.8619162 C46.1069629,27.0215589 44.8268438,27.0772163 44.8268438,27.0772163 C44.8268438,27.0772163 41.4874027,28.7469368 39.1497939,30.0827133 Z" id="Ball"></path>
            <path d="M8.46484375,83 L8.46484375,71.578125 L11.5507812,71.578125 L11.5507812,80.5078125 L15.9492188,80.5078125 L15.9492188,83 L8.46484375,83 Z M18.7773438,83 L18.7773438,71.578125 L21.8789062,71.578125 L21.8789062,83 L18.7773438,83 Z M29.9335938,76.3125 L34.8632812,76.3125 L34.8632812,82.46875 C33.5247329,82.9270856 32.0533934,83.15625 30.4492188,83.15625 C28.6887933,83.15625 27.3281298,82.6458384 26.3671875,81.625 C25.4062452,80.6041616 24.9257812,79.148447 24.9257812,77.2578125 C24.9257812,75.4140533 25.4518177,73.9791718 26.5039062,72.953125 C27.5559948,71.9270782 29.0299384,71.4140625 30.9257812,71.4140625 C31.6445348,71.4140625 32.3229135,71.4817702 32.9609375,71.6171875 C33.5989615,71.7526048 34.1549455,71.9244781 34.6289062,72.1328125 L33.6523438,74.5546875 C32.829423,74.1484355 31.9257862,73.9453125 30.9414062,73.9453125 C30.0403601,73.9453125 29.3437525,74.2382783 28.8515625,74.8242188 C28.3593725,75.4101592 28.1132812,76.2473904 28.1132812,77.3359375 C28.1132812,78.4036512 28.3359353,79.2174451 28.78125,79.7773438 C29.2265647,80.3372424 29.8684854,80.6171875 30.7070312,80.6171875 C31.1653669,80.6171875 31.5872377,80.5729171 31.9726562,80.484375 L31.9726562,78.6953125 L29.9335938,78.6953125 L29.9335938,76.3125 Z M45.1992188,83 L44.6367188,80.859375 L40.9257812,80.859375 L40.3476562,83 L36.9570312,83 L40.6835938,71.53125 L44.8007812,71.53125 L48.5742188,83 L45.1992188,83 Z M43.9960938,78.328125 L43.5039062,76.453125 C43.3893223,76.0364563 43.2500008,75.4973991 43.0859375,74.8359375 C42.9218742,74.1744759 42.8138023,73.7005223 42.7617188,73.4140625 C42.7148435,73.6796888 42.6223965,74.1171845 42.484375,74.7265625 C42.3463535,75.3359405 42.040367,76.5364494 41.5664062,78.328125 L43.9960938,78.328125 Z M60.9414062,83 L58.6054688,74.7734375 L58.5351562,74.7734375 C58.6445318,76.1744862 58.6992188,77.263017 58.6992188,78.0390625 L58.6992188,83 L55.9648438,83 L55.9648438,71.578125 L60.0742188,71.578125 L62.4570312,79.6875 L62.5195312,79.6875 L64.8554688,71.578125 L68.9726562,71.578125 L68.9726562,83 L66.1367188,83 L66.1367188,77.9921875 C66.1367188,77.7317695 66.140625,77.4427099 66.1484375,77.125 C66.15625,76.8072901 66.1914059,76.028652 66.2539062,74.7890625 L66.1835938,74.7890625 L63.8789062,83 L60.9414062,83 Z M82.7226562,83 L79.1523438,83 L76.9257812,79.4296875 L74.7226562,83 L71.2304688,83 L75.0195312,77.15625 L71.4570312,71.578125 L74.8789062,71.578125 L76.9414062,75.109375 L78.9257812,71.578125 L82.4492188,71.578125 L78.8320312,77.3984375 L82.7226562,83 Z" id="LIGA-MX"></path>
        </g>
    </g>
</svg>