<?xml version="1.0" encoding="UTF-8"?>
<svg width="55px" height="77px" viewBox="0 0 55 77" version="1.1" xmlns="http://www.w3.org/2000/svg" xmlns:xlink="http://www.w3.org/1999/xlink">
    <!-- Generator: Sketch 46.2 (44496) - http://www.bohemiancoding.com/sketch -->
    <title>EFL</title>
    <desc>Created with Sketch.</desc>
    <defs></defs>
    <g id="Page-1" stroke="none" stroke-width="1" fill="none" fill-rule="evenodd">
        <g id="Kambi-Premier-League-1" transform="translate(-196.000000, -145.000000)">
            <g id="premier_league_kambi_02" style="mix-blend-mode: lighten;" transform="translate(196.000000, 145.000000)">
                <g id="EFL">
                    <g id="Txt" transform="translate(0.000000, 64.000000)" fill="#FFFFFF">
                        <path d="M7.9140625,7.1796875 L3.6015625,7.1796875 L3.6015625,9.890625 L8.6953125,9.890625 L8.6953125,12 L0.859375,12 L0.859375,0.625 L8.7109375,0.625 L8.7109375,2.7421875 L3.6015625,2.7421875 L3.6015625,5.140625 L7.9140625,5.140625 L7.9140625,7.1796875 Z M16.9765625,7.46875 L12.5546875,7.46875 L12.5546875,12 L9.8125,12 L9.8125,0.625 L17.421875,0.625 L17.421875,2.7421875 L12.5546875,2.7421875 L12.5546875,5.359375 L16.9765625,5.359375 L16.9765625,7.46875 Z M21.3046875,9.890625 L26.078125,9.890625 L26.078125,12 L18.5625,12 L18.5625,0.625 L21.3046875,0.625 L21.3046875,9.890625 Z" id="EFL"></path>
                        <path d="M35.4921875,8.453125 C35.3619785,9.65104766 34.9335974,10.5677052 34.2070312,11.203125 C33.4804651,11.8385448 32.5130269,12.15625 31.3046875,12.15625 C30.4609333,12.15625 29.714847,11.9453146 29.0664062,11.5234375 C28.4179655,11.1015604 27.9166684,10.5039101 27.5625,9.73046875 C27.2083316,8.95702738 27.0286459,8.07292164 27.0234375,7.078125 L27.0234375,5.6015625 C27.0234375,4.59114078 27.2005191,3.69531641 27.5546875,2.9140625 C27.9088559,2.13280859 28.4179654,1.52995004 29.0820312,1.10546875 C29.7460971,0.680987461 30.5104123,0.46875 31.375,0.46875 C32.5937561,0.46875 33.5559861,0.798173789 34.2617188,1.45703125 C34.9674514,2.11588871 35.3776036,3.02603586 35.4921875,4.1875 L34.5234375,4.1875 C34.283853,2.25519867 33.2343843,1.2890625 31.375,1.2890625 C30.3437448,1.2890625 29.5221385,1.67447531 28.9101562,2.4453125 C28.298174,3.21614969 27.9921875,4.2812432 27.9921875,5.640625 L27.9921875,7.03125 C27.9921875,8.34375656 28.2903616,9.39062109 28.8867188,10.171875 C29.4830759,10.9531289 30.2890574,11.34375 31.3046875,11.34375 C32.3099009,11.34375 33.0677058,11.102867 33.578125,10.6210937 C34.0885442,10.1393205 34.4036452,9.41667148 34.5234375,8.453125 L35.4921875,8.453125 Z M44.6794471,0.625 L44.6794471,8.390625 C44.6742388,9.15625383 44.5049696,9.82291383 44.1716346,10.390625 C43.8382996,10.9583362 43.3682522,11.3945297 42.7614784,11.6992188 C42.1547045,12.0039078 41.4580969,12.15625 40.6716346,12.15625 C39.473712,12.15625 38.5140861,11.8294304 37.7927284,11.1757812 C37.0713706,10.5221321 36.6976764,9.61719328 36.6716346,8.4609375 L36.6716346,0.625 L37.6247596,0.625 L37.6247596,8.3203125 C37.6247596,9.27865062 37.8981944,10.0221328 38.4450721,10.5507812 C38.9919498,11.0794297 39.7341299,11.34375 40.6716346,11.34375 C41.6091393,11.34375 42.3500173,11.0781277 42.8942909,10.546875 C43.4385644,10.0156223 43.7106971,9.27604641 43.7106971,8.328125 L43.7106971,0.625 L44.6794471,0.625 Z M47.3354567,7.3671875 L47.3354567,12 L46.3745192,12 L46.3745192,0.625 L50.2495192,0.625 C51.4318168,0.625 52.3654012,0.927080312 53.0503005,1.53125 C53.7351997,2.13541969 54.0776442,2.96614055 54.0776442,4.0234375 C54.0776442,5.09115117 53.7482204,5.91536168 53.089363,6.49609375 C52.4305055,7.07682582 51.476088,7.3671875 50.2260817,7.3671875 L47.3354567,7.3671875 Z M47.3354567,6.5546875 L50.2495192,6.5546875 C51.1818156,6.5546875 51.8927459,6.33333555 52.3823317,5.890625 C52.8719175,5.44791445 53.1167067,4.83073312 53.1167067,4.0390625 C53.1167067,3.25260023 52.8732196,2.62630441 52.386238,2.16015625 C51.8992564,1.69400809 51.207857,1.45572922 50.3120192,1.4453125 L47.3354567,1.4453125 L47.3354567,6.5546875 Z" id="CUP" opacity="0.699999988"></path>
                    </g>
                    <g id="Ball">
                        <circle id="Oval" fill="#FFFFFF" cx="27.2721026" cy="27.3834173" r="26.9938158"></circle>
                        <path d="M21.4280806,20.704535 C19.0904718,22.0403115 16.9754924,23.6543747 16.9754924,23.6543747 C16.9754924,23.6543747 16.4189189,24.2666056 17.699038,30.2219423 C18.9791571,36.177279 19.4800733,35.6207055 19.4800733,35.6207055 C19.4800733,35.6207055 18.3669262,36.0659643 25.4910673,36.7338525 C32.6152084,37.4017407 31.3907467,36.7338525 31.3907467,36.7338525 C31.3907467,36.7338525 31.7246908,37.7356848 34.3962437,31.9473202 C37.0677966,26.1589556 36.5668804,25.602382 36.5668804,25.602382 C36.5668804,25.602382 37.1791113,25.3240953 32.7821805,21.483738 C28.3852497,17.6433807 27.1051306,17.699038 27.1051306,17.699038 C27.1051306,17.699038 23.7656894,19.3687586 21.4280806,20.704535 Z" id="Shape" fill="#000000"></path>
                        <path d="M37.0121393,44.6928539 C37.0121393,44.6928539 38.9601466,44.7485112 41.3534127,44.0249656 C44.1362803,43.134448 46.2512597,42.0769583 46.2512597,42.0769583 C46.2512597,42.0769583 46.6408612,42.8005039 46.6965186,44.0249656 C46.7521759,45.0824553 46.4182318,46.919148 46.4182318,46.919148 C46.4182318,46.919148 45.0824553,48.3662391 42.0769583,50.3142464 C38.8488319,52.3735685 35.3424187,53.4310582 35.3424187,53.4310582 C35.3424187,53.4310582 34.5075584,53.1527714 32.8378378,52.4292258 C31.7803481,51.983967 30.7228585,51.5943656 30.7228585,51.5943656 C30.7228585,51.5943656 30.9454879,51.5943656 33.6170408,48.97847 C36.2885937,46.4182318 37.0121393,44.6928539 37.0121393,44.6928539 L37.0121393,44.6928539 Z" id="Shape" fill="#000000"></path>
                        <path d="M46.7521759,13.3021072 C46.7521759,13.3021072 47.865323,13.4134219 49.6463582,14.3039395 C51.3717361,15.1944572 52.1509391,16.4189189 52.1509391,16.4189189 C52.1509391,16.4189189 52.930142,17.532066 53.5423729,19.9253321 C54.1546038,22.3185983 54.4885479,26.6042144 54.4885479,26.6042144 C54.4885479,26.6042144 53.7650023,28.2182776 53.0414567,29.3314246 C52.0952817,30.6672011 50.9264773,31.446404 50.9264773,31.446404 C50.9264773,31.446404 50.3699038,29.7766835 48.8671553,26.9381585 C47.7540082,24.7675218 46.139945,23.4874027 46.139945,23.4874027 C46.139945,23.4874027 46.4738891,21.1497939 46.8078333,18.3112689 C47.1417774,15.4727439 46.7521759,13.3021072 46.7521759,13.3021072 L46.7521759,13.3021072 Z" id="Shape" fill="#000000"></path>
                        <path d="M28.1069629,7.62505726 C28.1069629,7.62505726 29.8323408,6.73453962 32.8934952,6.40059551 C35.2867613,6.12230875 38.0139716,5.78836464 38.0139716,5.78836464 C38.0139716,5.78836464 37.290426,4.00732936 36.6225378,3.11681173 C35.9546496,2.22629409 35.5093907,1.33577645 35.2867613,1.2801191 C35.0641319,1.22446175 31.1681173,0.222629409 28.273935,0.222629409 C25.3797526,0.222629409 24.1552909,0.556573523 24.1552909,0.556573523 C24.1552909,0.556573523 23.0978012,0.50091617 21.3724233,2.00366468 C20.0923042,3.11681173 19.591388,4.39693083 19.591388,4.39693083 C19.591388,4.39693083 22.0403115,4.73087494 23.7656894,5.39876317 C25.4910673,6.0666514 28.1069629,7.62505726 28.1069629,7.62505726 L28.1069629,7.62505726 Z" id="Shape" fill="#000000"></path>
                        <path d="M8.29294549,19.7583601 C8.29294549,19.7583601 8.12597343,18.3669262 8.5155749,15.2501145 C8.73820431,13.5247366 9.96266606,10.3522675 9.96266606,10.3522675 C9.96266606,10.3522675 8.23728814,10.1852955 6.95716903,10.7975263 C4.73087494,11.9106734 2.50458085,15.806688 2.00366468,17.0868071 C1.50274851,18.3112689 1.00183234,20.4819056 0.946174989,21.4280806 C0.946174989,22.429913 1.00183234,23.9883188 1.2801191,24.8231791 C1.78103527,26.7155291 2.61589556,27.32776 2.61589556,27.32776 C2.61589556,27.32776 2.94983967,26.1032982 4.7865323,23.54306 C6.62322492,20.9828218 8.29294549,19.7583601 8.29294549,19.7583601 L8.29294549,19.7583601 Z" id="Shape" fill="#000000"></path>
                        <path d="M13.4690792,42.967476 C13.4690792,42.967476 14.693541,45.6390289 15.6953733,46.8634906 C16.6972057,48.0879524 19.1461292,50.3699038 19.1461292,50.3699038 C19.1461292,50.3699038 18.1442968,50.8151626 17.0311498,51.037792 C15.4727439,51.3717361 13.9143381,51.1491067 13.9143381,51.1491067 C13.9143381,51.1491067 10.7975263,49.3124141 9.12780577,47.6983509 C7.4580852,46.139945 6.45625286,45.5833715 5.56573523,43.9136509 C5.56573523,43.9136509 4.897847,42.6891892 5.12047641,40.4072377 C5.23179111,39.2940907 5.34310582,38.3479157 5.34310582,38.3479157 C5.34310582,38.3479157 6.62322492,39.7393495 8.96083372,40.8524966 C12.0219881,42.4665598 13.4690792,42.967476 13.4690792,42.967476 L13.4690792,42.967476 Z" id="Shape" fill="#000000"></path>
                    </g>
                </g>
            </g>
        </g>
    </g>
</svg>