<?xml version="1.0" encoding="utf-8"?>
<!-- Generator: Adobe Illustrator 20.1.0, SVG Export Plug-In . SVG Version: 6.00 Build 0)  -->
<svg version="1.1" id="Layer_1" xmlns="http://www.w3.org/2000/svg" xmlns:xlink="http://www.w3.org/1999/xlink" x="0px" y="0px"
	 viewBox="0 0 90 70" style="enable-background:new 0 0 90 70;" xml:space="preserve">
<style type="text/css">
	.st0{clip-path:url(#SVGID_2_);fill:#FFFFFF;}
</style>
<g id="Layer_2">
</g>
<g>
	<g>
		<defs>
			<circle id="SVGID_1_" cx="45" cy="35" r="35"/>
		</defs>
		<clipPath id="SVGID_2_">
			<use xlink:href="#SVGID_1_"  style="overflow:visible;"/>
		</clipPath>
		<path class="st0" d="M78.4,37.5c-1.2,1.7-2.8,2.7-2.8,2.7S74.8,38,73,34.4c-1.5-2.8-3.5-4.4-3.5-4.4s0.4-3,0.8-6.7s0-6.4,0-6.4
			s1.5,0.2,3.7,1.3c1.3,0.7,2.2,1.5,2.7,2C72.6,11.4,65,4.7,55.8,1.7c0.3,0.5,0.7,1.2,1.2,1.8C57.9,4.7,58.9,7,58.9,7
			s-3.5,0.4-6.6,0.8c-4,0.5-6.2,1.6-6.2,1.6s-3.4-2-5.6-2.9s-5.4-1.3-5.4-1.3s0.6-1.7,2.3-3.1c1.5-1.3,2.6-1.7,3.1-1.8
			C30,1.7,20.9,7.7,15.4,16.3c1-1.2,2.1-2.3,3.2-2.8c1.6-0.8,3.9-0.6,3.9-0.6s-1.6,4.1-1.9,6.4c-0.5,4-0.3,5.9-0.3,5.9
			s-2.1,1.7-4.5,5S13,35.1,13,35.1s-1.1-0.8-1.7-3.3c-0.3-1.1-0.4-3.1-0.4-4.4c-0.6,2.4-0.9,5-0.9,7.6c0,7.6,2.4,14.6,6.5,20.3
			c-0.2-0.8-0.3-1.9-0.2-3.3c0.1-1.4,0.3-2.6,0.3-2.6s1.7,1.8,4.7,3.2c3.9,1.9,5.8,2.6,5.8,2.6s1.6,3.4,2.9,5s4.4,4.6,4.4,4.6
			s-1.3,0.6-2.7,0.9c-1.1,0.3-2.3,0.3-3,0.3c4.9,2.6,10.4,4,16.3,4c3.5,0,6.8-0.5,10-1.4c-0.5-0.2-1.4-0.6-2.8-1.1
			c-1.4-0.6-2.8-1.1-2.8-1.1s0.3,0,3.8-3.4s4.4-5.6,4.4-5.6s2.5,0.1,5.7-0.9c3.6-1.1,6.4-2.5,6.4-2.5s0.5,1,0.6,2.5
			c0.1,0.9-0.1,2.1-0.2,2.9c6.2-6.3,10-14.9,10-24.5c0-0.2,0-0.3,0-0.5C79.6,35.2,79,36.5,78.4,37.5z M54.3,40.9
			c-2.7,5.8-3.6,6.3-3.8,6.3c0.1,0.2-0.4,0.6-7.7-0.1c-8.4-0.8-8-1.3-7.9-1.4c-0.1,0-0.9-0.1-2.3-7c-1.6-7.7-0.9-8.5-0.9-8.5
			s2.8-2.1,5.8-3.8c3-1.8,7.4-3.9,7.4-3.9s1.7,0,7.4,5s4.9,5.3,4.9,5.3S57.7,33.4,54.3,40.9z"/>
	</g>
</g>
</svg>
