<?xml version="1.0" encoding="utf-8"?>
<!-- Generator: Adobe Illustrator 20.1.0, SVG Export Plug-In . SVG Version: 6.00 Build 0)  -->
<svg version="1.1" xmlns="http://www.w3.org/2000/svg" xmlns:xlink="http://www.w3.org/1999/xlink" x="0px" y="0px" width="90px"
	 height="90px" viewBox="0 0 90 90" style="enable-background:new 0 0 90 90;" xml:space="preserve">
<style type="text/css">
	.st0{fill:#FFFFFF;}
	.st1{display:none;}
	.st2{display:inline;fill:#CCC242;}
</style>
<g id="Layer_3">
</g>
<g id="Layer_4">
</g>
<g id="Layer_2">
	<g>
		<path class="st0" d="M83.9,58h-3.2C75.4,72.6,61.4,83,45,83S14.6,72.6,9.3,58H6.1H0v3h7.2C13.4,75.7,28,86,45,86
			s31.6-10.3,37.8-25H90v-3h-2.6H83.9z"/>
		<path class="st0" d="M82.8,29C76.6,14.3,62,4,45,4S13.4,14.3,7.2,29H0v3h6.1h3.2C14.6,17.4,28.6,7,45,7s30.4,10.4,35.7,25h3.2h3.5
			H90v-3H82.8z"/>
	</g>
</g>
<g id="Layer_5">
	<g>
		<g>
			<path class="st0" d="M11.2,33.6h2.5l-3,10.4H8.3l-1.4-5.2L5.8,44H3.4L0,33.6h2.5l1.9,5.7l1.3-5.7H8l1.5,5.7L11.2,33.6z"/>
			<path class="st0" d="M18.4,33.7c0.7,0,1.4,0.1,2,0.4c0.6,0.3,1.2,0.6,1.6,1.1c0.5,0.5,0.8,1,1.1,1.6c0.3,0.6,0.4,1.3,0.4,2
				c0,0.7-0.1,1.4-0.4,2c-0.3,0.6-0.6,1.2-1.1,1.6c-0.5,0.5-1,0.8-1.6,1.1c-0.6,0.3-1.3,0.4-2,0.4c-0.7,0-1.4-0.1-2-0.4
				c-0.6-0.3-1.2-0.6-1.6-1.1s-0.8-1-1.1-1.6c-0.3-0.6-0.4-1.3-0.4-2c0-0.7,0.1-1.4,0.4-2c0.3-0.6,0.6-1.2,1.1-1.6
				c0.5-0.5,1-0.8,1.6-1.1C17,33.8,17.7,33.7,18.4,33.7z M18.4,41.6c0.4,0,0.7-0.1,1.1-0.2c0.3-0.1,0.6-0.3,0.9-0.6
				c0.3-0.3,0.5-0.5,0.6-0.9c0.1-0.3,0.2-0.7,0.2-1.1c0-0.4-0.1-0.7-0.2-1.1c-0.1-0.3-0.3-0.6-0.6-0.9c-0.3-0.3-0.5-0.4-0.9-0.6
				c-0.3-0.1-0.7-0.2-1.1-0.2c-0.4,0-0.7,0.1-1.1,0.2c-0.3,0.1-0.6,0.3-0.9,0.6c-0.3,0.3-0.5,0.5-0.6,0.9c-0.1,0.3-0.2,0.7-0.2,1.1
				c0,0.4,0.1,0.7,0.2,1.1c0.1,0.3,0.3,0.6,0.6,0.9c0.3,0.3,0.5,0.5,0.9,0.6C17.7,41.5,18,41.6,18.4,41.6z"/>
			<path class="st0" d="M27.4,41.3c-0.1,0-0.2,0-0.4,0c-0.1,0-0.2,0-0.4,0V44h-2.4V33.7h2.4c0.6,0,1.1,0.1,1.7,0.3
				c0.5,0.2,1,0.5,1.4,0.8c0.4,0.3,0.7,0.7,0.9,1.2c0.2,0.5,0.3,0.9,0.3,1.5c0,0.6-0.1,1.1-0.4,1.5s-0.6,0.9-1,1.2l2.3,3.7H29
				L27.4,41.3z M26.6,39c0.3,0,0.5-0.1,0.7-0.1c0.2-0.1,0.4-0.2,0.6-0.3c0.2-0.1,0.3-0.3,0.4-0.5c0.1-0.2,0.1-0.4,0.1-0.6
				c0-0.2,0-0.4-0.1-0.5c-0.1-0.2-0.2-0.3-0.4-0.4c-0.2-0.1-0.4-0.2-0.6-0.3c-0.2-0.1-0.5-0.1-0.7-0.1V39z"/>
			<path class="st0" d="M39,44h-6.1V33.7h2.4v7.9H39V44z"/>
			<path class="st0" d="M42,33.6c0.7,0,1.3,0.2,1.9,0.5c0.6,0.3,1.1,0.7,1.6,1.1c0.4,0.5,0.8,1,1.1,1.6s0.4,1.3,0.4,2
				c0,0.7-0.1,1.3-0.4,1.9c-0.3,0.6-0.6,1.1-1,1.6c-0.4,0.5-1,0.8-1.6,1.1c-0.6,0.3-1.2,0.4-1.9,0.5h-2.4V33.6L42,33.6L42,33.6z
				 M42,41.6c0.4,0,0.7-0.1,1-0.3c0.3-0.2,0.6-0.4,0.8-0.6c0.2-0.2,0.4-0.5,0.5-0.8c0.1-0.3,0.2-0.7,0.2-1c0-0.4-0.1-0.7-0.2-1
				c-0.1-0.3-0.3-0.6-0.5-0.9c-0.2-0.3-0.5-0.5-0.8-0.6c-0.3-0.2-0.6-0.3-1-0.3V41.6z"/>
			<path class="st0" d="M54.3,43.9c-0.7,0-1.3-0.1-1.9-0.4c-0.6-0.2-1.2-0.6-1.7-1.1c-0.5-0.5-0.9-1.1-1.1-1.7s-0.4-1.3-0.4-2
				c0-0.7,0.1-1.4,0.4-2s0.6-1.2,1.1-1.7c0.5-0.5,1.1-0.9,1.7-1.1c0.6-0.3,1.3-0.4,1.9-0.4c0.7,0,1.3,0.1,1.9,0.4
				c0.6,0.3,1.2,0.6,1.7,1.1l-1.7,1.7c-0.3-0.3-0.6-0.5-0.9-0.6C55,36.1,54.6,36,54.3,36c-0.4,0-0.7,0.1-1,0.2
				c-0.3,0.1-0.6,0.3-0.9,0.6c-0.3,0.3-0.5,0.6-0.6,0.9c-0.1,0.3-0.2,0.7-0.2,1.1c0,0.4,0.1,0.7,0.2,1.1c0.1,0.3,0.3,0.6,0.6,0.9
				c0.3,0.3,0.6,0.5,0.9,0.6c0.3,0.1,0.7,0.2,1,0.2c0.4,0,0.7-0.1,1.1-0.2c0.3-0.1,0.7-0.3,0.9-0.6l1.7,1.7
				c-0.5,0.5-1.1,0.9-1.7,1.1C55.6,43.8,54.9,43.9,54.3,43.9z"/>
			<path class="st0" d="M62.5,44c-0.5,0-1-0.1-1.5-0.3c-0.5-0.2-0.9-0.5-1.2-0.8c-0.4-0.4-0.7-0.8-0.9-1.3c-0.2-0.5-0.3-1-0.3-1.5
				v-6.4H61v6.4c0,0.4,0.2,0.8,0.5,1.1c0.3,0.3,0.7,0.4,1.1,0.4c0.2,0,0.4,0,0.6-0.1c0.2-0.1,0.4-0.2,0.5-0.3
				c0.1-0.1,0.2-0.3,0.3-0.5C64,40.4,64,40.2,64,40v-6.4h2.4V40c0,0.5-0.1,1-0.3,1.5c-0.2,0.5-0.5,0.9-0.8,1.2
				c-0.4,0.4-0.8,0.6-1.2,0.8C63.6,43.8,63.1,43.9,62.5,44L62.5,44z"/>
			<path class="st0" d="M74.4,38c0,0.6-0.1,1.1-0.3,1.7c-0.2,0.5-0.5,1-0.9,1.4c-0.4,0.4-0.8,0.7-1.4,0.9s-1.1,0.3-1.7,0.4V44h-2.4
				V33.7h2.4c0.6,0,1.1,0.1,1.7,0.4c0.5,0.2,1,0.5,1.4,0.9c0.4,0.4,0.7,0.8,0.9,1.4C74.3,36.9,74.4,37.4,74.4,38z M70.2,39.9
				c0.3,0,0.5-0.1,0.7-0.2s0.4-0.2,0.6-0.4c0.2-0.2,0.3-0.4,0.4-0.6c0.1-0.2,0.1-0.5,0.1-0.7c0-0.3-0.1-0.5-0.1-0.7
				c-0.1-0.2-0.2-0.4-0.4-0.6c-0.2-0.2-0.4-0.3-0.6-0.4S70.5,36,70.2,36V39.9z"/>
			<path class="st0" d="M6.2,46.1h2.4v10.3H6.2v-3.9h-3v3.9H0.9V46.1h2.4v4h3V46.1z"/>
			<path class="st0" d="M14.2,46.1c0.7,0,1.4,0.1,2,0.4c0.6,0.3,1.2,0.6,1.6,1.1c0.5,0.5,0.8,1,1.1,1.6c0.3,0.6,0.4,1.3,0.4,2
				c0,0.7-0.1,1.4-0.4,2c-0.3,0.6-0.6,1.2-1.1,1.6c-0.5,0.5-1,0.8-1.6,1.1c-0.6,0.3-1.3,0.4-2,0.4s-1.4-0.1-2-0.4
				c-0.6-0.3-1.2-0.6-1.6-1.1c-0.5-0.5-0.8-1-1.1-1.6c-0.3-0.6-0.4-1.3-0.4-2c0-0.7,0.1-1.4,0.4-2c0.3-0.6,0.6-1.2,1.1-1.6
				c0.5-0.5,1-0.8,1.6-1.1C12.8,46.2,13.5,46.1,14.2,46.1z M14.2,54c0.4,0,0.7-0.1,1.1-0.2c0.3-0.1,0.6-0.3,0.9-0.6
				c0.3-0.3,0.5-0.5,0.6-0.9c0.1-0.3,0.2-0.7,0.2-1.1c0-0.4-0.1-0.7-0.2-1.1c-0.1-0.3-0.3-0.6-0.6-0.9c-0.3-0.3-0.5-0.4-0.9-0.6
				c-0.3-0.1-0.7-0.2-1.1-0.2c-0.4,0-0.7,0.1-1.1,0.2c-0.3,0.1-0.6,0.3-0.9,0.6c-0.3,0.3-0.5,0.5-0.6,0.9c-0.1,0.3-0.2,0.7-0.2,1.1
				c0,0.4,0.1,0.7,0.2,1.1c0.1,0.3,0.3,0.6,0.6,0.9c0.3,0.3,0.5,0.5,0.9,0.6C13.5,53.9,13.8,54,14.2,54z"/>
			<path class="st0" d="M24.5,56.4c-0.7,0-1.3-0.1-1.9-0.4c-0.6-0.2-1.2-0.6-1.7-1.1c-0.5-0.5-0.9-1.1-1.1-1.7s-0.4-1.3-0.4-2
				c0-0.7,0.1-1.4,0.4-2s0.6-1.2,1.1-1.7c0.5-0.5,1.1-0.9,1.7-1.1c0.6-0.3,1.3-0.4,1.9-0.4c0.7,0,1.3,0.1,1.9,0.4
				c0.6,0.3,1.2,0.6,1.7,1.1l-1.7,1.7c-0.3-0.3-0.6-0.5-0.9-0.6c-0.3-0.1-0.7-0.2-1.1-0.2c-0.4,0-0.7,0.1-1,0.2
				c-0.3,0.1-0.6,0.3-0.9,0.6c-0.3,0.3-0.5,0.6-0.6,0.9c-0.1,0.3-0.2,0.7-0.2,1.1c0,0.4,0.1,0.7,0.2,1.1c0.1,0.3,0.3,0.6,0.6,0.9
				c0.3,0.3,0.6,0.5,0.9,0.6c0.3,0.1,0.7,0.2,1,0.2c0.4,0,0.7-0.1,1.1-0.2c0.3-0.1,0.7-0.3,0.9-0.6l1.7,1.7
				c-0.5,0.5-1.1,0.9-1.7,1.1C25.8,56.3,25.2,56.4,24.5,56.4z"/>
			<path class="st0" d="M37.9,46.1l-5.3,5.2l5.3,5.1h-3.4l-3.3-3.2v3.2h-2.4V46.1h2.4v3.3l3.3-3.3H37.9z"/>
			<path class="st0" d="M44.5,48.5h-4.2V50h3.4v2.4h-3.4V54h4.2v2.4h-6.6V46.1l6.6,0V48.5z"/>
			<path class="st0" d="M47.4,56.4l1.2-2.9L45,46h2.6l2.1,4.5l1.8-4.5h2.6l-4.2,10.4H47.4z"/>
			<path class="st0" d="M64.8,54v2.4h-6.9v-2.6c0.7-0.4,1.3-0.8,1.9-1.2c0.6-0.4,1-0.8,1.4-1.2c0.4-0.4,0.7-0.7,0.9-1.1
				c0.2-0.3,0.3-0.6,0.3-0.8c0-0.3-0.1-0.6-0.3-0.8c-0.2-0.2-0.5-0.3-0.8-0.3c-0.3,0-0.6,0.1-0.8,0.3c-0.2,0.2-0.3,0.5-0.3,0.8h-2.4
				c0-0.5,0.1-0.9,0.3-1.3c0.2-0.4,0.4-0.8,0.7-1.1c0.3-0.3,0.7-0.6,1.1-0.7c0.4-0.2,0.9-0.3,1.3-0.3s0.9,0.1,1.3,0.3
				c0.4,0.2,0.8,0.4,1.1,0.7c0.3,0.3,0.6,0.7,0.7,1.1c0.2,0.4,0.3,0.9,0.3,1.3c0,1.4-1,2.8-3,4.5H64.8z"/>
			<path class="st0" d="M70.6,46.1c0.7,0,1.4,0.1,2,0.4c0.6,0.3,1.2,0.6,1.6,1.1c0.5,0.5,0.8,1,1.1,1.6c0.3,0.6,0.4,1.3,0.4,2
				c0,0.7-0.1,1.4-0.4,2c-0.3,0.6-0.6,1.2-1.1,1.6c-0.5,0.5-1,0.8-1.6,1.1c-0.6,0.3-1.3,0.4-2,0.4c-0.7,0-1.4-0.1-2-0.4
				c-0.6-0.3-1.2-0.6-1.6-1.1c-0.5-0.5-0.8-1-1.1-1.6c-0.3-0.6-0.4-1.3-0.4-2c0-0.7,0.1-1.4,0.4-2c0.3-0.6,0.6-1.2,1.1-1.6
				c0.5-0.5,1-0.8,1.6-1.1C69.3,46.2,69.9,46.1,70.6,46.1z M70.6,54c0.4,0,0.7-0.1,1.1-0.2c0.3-0.1,0.6-0.3,0.9-0.6
				c0.3-0.3,0.4-0.5,0.6-0.9s0.2-0.7,0.2-1.1c0-0.4-0.1-0.7-0.2-1.1c-0.1-0.3-0.3-0.6-0.6-0.9c-0.3-0.3-0.5-0.4-0.9-0.6
				c-0.3-0.1-0.7-0.2-1.1-0.2c-0.4,0-0.7,0.1-1.1,0.2c-0.3,0.1-0.6,0.3-0.9,0.6c-0.3,0.3-0.5,0.5-0.6,0.9c-0.1,0.3-0.2,0.7-0.2,1.1
				c0,0.4,0.1,0.7,0.2,1.1s0.3,0.6,0.6,0.9c0.3,0.3,0.5,0.5,0.9,0.6C69.9,53.9,70.3,54,70.6,54z"/>
			<path class="st0" d="M79,46.1h2.4v10.3H79v-6.6l-0.7,0.9l-1.8-1.5L79,46.1z"/>
			<path class="st0" d="M86.6,49c0.5,0,0.9,0.2,1.3,0.4c0.4,0.2,0.8,0.5,1.1,0.8c0.3,0.3,0.5,0.7,0.7,1.1c0.2,0.4,0.3,0.9,0.3,1.4
				c0,0.5-0.1,1-0.3,1.4c-0.2,0.5-0.5,0.8-0.8,1.2c-0.3,0.3-0.7,0.6-1.2,0.8c-0.4,0.2-0.9,0.3-1.4,0.3s-1-0.1-1.4-0.3
				c-0.5-0.2-0.8-0.5-1.2-0.8c-0.3-0.3-0.6-0.7-0.8-1.2c-0.2-0.5-0.3-0.9-0.3-1.4c0-0.6,0.1-1.1,0.4-1.6l2.5-5h2.7L86.6,49z
				 M86.3,54c0.4,0,0.7-0.1,1-0.4c0.3-0.3,0.4-0.6,0.4-1c0-0.2,0-0.4-0.1-0.5c-0.1-0.2-0.2-0.3-0.3-0.4c-0.1-0.1-0.3-0.2-0.4-0.3
				c-0.2-0.1-0.3-0.1-0.5-0.1c-0.2,0-0.4,0-0.5,0.1c-0.2,0.1-0.3,0.2-0.4,0.3c-0.1,0.1-0.2,0.3-0.3,0.4c-0.1,0.2-0.1,0.3-0.1,0.5
				c0,0.2,0,0.4,0.1,0.5c0.1,0.2,0.2,0.3,0.3,0.4c0.1,0.1,0.3,0.2,0.4,0.3C85.9,54,86.1,54,86.3,54z"/>
		</g>
		<g>
			<path class="st0" d="M81.9,36.4c0.4,0,0.7,0.1,1,0.2c0.3,0.1,0.6,0.3,0.8,0.6c0.2,0.2,0.4,0.5,0.6,0.8c0.1,0.3,0.2,0.7,0.2,1
				s-0.1,0.7-0.2,1c-0.1,0.3-0.3,0.6-0.6,0.8c-0.2,0.2-0.5,0.4-0.8,0.6c-0.3,0.1-0.7,0.2-1,0.2s-0.7-0.1-1-0.2
				c-0.3-0.1-0.6-0.3-0.8-0.6c-0.2-0.2-0.4-0.5-0.6-0.8c-0.1-0.3-0.2-0.7-0.2-1s0.1-0.7,0.2-1c0.1-0.3,0.3-0.6,0.6-0.8
				c0.2-0.2,0.5-0.4,0.8-0.6C81.2,36.4,81.5,36.4,81.9,36.4z M81.9,40.5c0.2,0,0.4,0,0.6-0.1s0.3-0.2,0.5-0.3
				c0.1-0.1,0.2-0.3,0.3-0.5s0.1-0.4,0.1-0.6s0-0.4-0.1-0.6s-0.2-0.3-0.3-0.5c-0.1-0.1-0.3-0.2-0.5-0.3s-0.4-0.1-0.6-0.1
				s-0.4,0-0.6,0.1S81,37.9,80.9,38c-0.1,0.1-0.2,0.3-0.3,0.5c-0.1,0.2-0.1,0.4-0.1,0.6s0,0.4,0.1,0.6c0.1,0.2,0.2,0.3,0.3,0.5
				c0.1,0.1,0.3,0.2,0.5,0.3S81.7,40.5,81.9,40.5z"/>
			<path class="st0" d="M88.2,37.6h-2v0.8h1.6v1.2h-1.6v2.1H85v-5.3h3.2V37.6z"/>
		</g>
	</g>
</g>
<g id="Layer_1" class="st1">
	<path class="st2" d="M45,3c23.2,0,42,18.8,42,42S68.2,87,45,87S3,68.2,3,45S21.8,3,45,3 M45,0C20.1,0,0,20.1,0,45s20.1,45,45,45
		s45-20.1,45-45S69.9,0,45,0L45,0z"/>
</g>
</svg>
