<?xml version="1.0" encoding="UTF-8" standalone="no"?>
<svg width="110px" height="157px" viewBox="0 0 110 157" version="1.1" xmlns="http://www.w3.org/2000/svg" xmlns:xlink="http://www.w3.org/1999/xlink">
    <!-- Generator: Sketch 3.8.1 (29687) - http://www.bohemiancoding.com/sketch -->
    <title>Euro 16 logo + type</title>
    <desc>Created with Sketch.</desc>
    <defs></defs>
    <g id="Page-1" stroke="none" stroke-width="1" fill="none" fill-rule="evenodd">
        <g id="Euro-16-logo-+-type" transform="translate(0.000000, -1.000000)" fill="#FFFFFF">
            <g id="Type" transform="translate(1.000000, 120.355000)">
                <polygon id="Fill-1" points="9.8898 9.1895 3.8208 9.1895 3.8208 13.3205 10.9438 13.3205 10.9438 15.8595 0.6598 15.8595 0.6598 0.5185 10.9218 0.5185 10.9218 3.0795 3.8208 3.0795 3.8208 6.7355 9.8898 6.7355"></polygon>
                <path d="M24.4083,0.5186 L24.4083,10.6226 C24.4083,12.3016 23.8833,13.6286 22.8333,14.6056 C21.7833,15.5816 20.3483,16.0706 18.5293,16.0706 C16.7383,16.0706 15.3153,15.5956 14.2623,14.6476 C13.2083,13.6996 12.6713,12.3966 12.6503,10.7386 L12.6503,0.5186 L15.8113,0.5186 L15.8113,10.6436 C15.8113,11.6486 16.0513,12.3806 16.5333,12.8406 C17.0133,13.3006 17.6793,13.5316 18.5293,13.5316 C20.3063,13.5316 21.2093,12.5966 21.2373,10.7286 L21.2373,0.5186 L24.4083,0.5186 L24.4083,0.5186 Z" id="Fill-2"></path>
                <path d="M30.1613,7.6836 L32.7113,7.6836 C33.5043,7.6836 34.1193,7.4816 34.5553,7.0776 C34.9903,6.6736 35.2083,6.1176 35.2083,5.4076 C35.2083,4.6836 35.0023,4.1156 34.5913,3.7006 C34.1813,3.2866 33.5503,3.0796 32.7003,3.0796 L30.1613,3.0796 L30.1613,7.6836 L30.1613,7.6836 Z M32.6793,10.2436 L30.1613,10.2436 L30.1613,15.8596 L27.0003,15.8596 L27.0003,0.5186 L32.7003,0.5186 C34.5123,0.5186 35.9103,0.9226 36.8933,1.7306 C37.8773,2.5376 38.3693,3.6796 38.3693,5.1546 C38.3693,6.2016 38.1423,7.0746 37.6893,7.7726 C37.2363,8.4716 36.5493,9.0286 35.6293,9.4426 L38.9483,15.7116 L38.9483,15.8596 L35.5563,15.8596 L32.6793,10.2436 L32.6793,10.2436 Z" id="Fill-4"></path>
                <path d="M50.1696,7.8408 C50.1696,6.2328 49.8816,5.0108 49.3056,4.1748 C48.7296,3.3388 47.9076,2.9208 46.8396,2.9208 C45.7796,2.9208 44.9616,3.3338 44.3846,4.1588 C43.8096,4.9848 43.5176,6.1948 43.5106,7.7888 L43.5106,8.5368 C43.5106,10.1038 43.7986,11.3188 44.3746,12.1828 C44.9506,13.0458 45.7796,13.4788 46.8606,13.4788 C47.9216,13.4788 48.7366,13.0618 49.3056,12.2298 C49.8746,11.3978 50.1626,10.1838 50.1696,8.5898 L50.1696,7.8408 L50.1696,7.8408 Z M53.3726,8.5368 C53.3726,10.0468 53.1056,11.3708 52.5716,12.5088 C52.0376,13.6468 51.2736,14.5248 50.2806,15.1428 C49.2866,15.7608 48.1466,16.0698 46.8606,16.0698 C45.5896,16.0698 44.4556,15.7648 43.4586,15.1528 C42.4606,14.5418 41.6876,13.6698 41.1396,12.5348 C40.5916,11.4018 40.3146,10.0958 40.3076,8.6208 L40.3076,7.8618 C40.3076,6.3528 40.5796,5.0228 41.1246,3.8738 C41.6686,2.7258 42.4376,1.8448 43.4316,1.2298 C44.4256,0.6148 45.5616,0.3078 46.8396,0.3078 C48.1186,0.3078 49.2546,0.6148 50.2486,1.2298 C51.2426,1.8448 52.0116,2.7258 52.5556,3.8738 C53.1006,5.0228 53.3726,6.3488 53.3726,7.8518 L53.3726,8.5368 L53.3726,8.5368 Z" id="Fill-6"></path>
                <path d="M71.2316,15.8594 L60.7156,15.8594 L60.7156,13.7734 L65.6786,8.4844 C66.3596,7.7394 66.8646,7.0894 67.1906,6.5354 C67.5166,5.9804 67.6806,5.4534 67.6806,4.9544 C67.6806,4.2734 67.5076,3.7374 67.1646,3.3474 C66.8206,2.9584 66.3286,2.7624 65.6896,2.7624 C65.0016,2.7624 64.4586,3.0004 64.0616,3.4734 C63.6646,3.9484 63.4656,4.5714 63.4656,5.3434 L60.4106,5.3434 C60.4106,4.4104 60.6326,3.5564 61.0796,2.7844 C61.5256,2.0114 62.1566,1.4054 62.9706,0.9664 C63.7856,0.5274 64.7096,0.3074 65.7426,0.3074 C67.3226,0.3074 68.5496,0.6874 69.4236,1.4464 C70.2986,2.2044 70.7366,3.2754 70.7366,4.6594 C70.7366,5.4184 70.5396,6.1904 70.1456,6.9774 C69.7526,7.7634 69.0786,8.6804 68.1236,9.7274 L64.6356,13.4044 L71.2316,13.4044 L71.2316,15.8594 L71.2316,15.8594 Z" id="Fill-8"></path>
                <path d="M80.3761,6.4121 C80.3761,5.1401 80.2021,4.2131 79.8551,3.6331 C79.5071,3.0531 78.9651,2.7631 78.2271,2.7631 C77.5111,2.7631 76.9811,3.0391 76.6421,3.5911 C76.3011,4.1421 76.1201,5.0061 76.0991,6.1801 L76.0991,9.9131 C76.0991,11.1651 76.2691,12.0951 76.6091,12.7031 C76.9501,13.3111 77.4961,13.6151 78.2481,13.6151 C78.9921,13.6151 79.5301,13.3231 79.8601,12.7401 C80.1901,12.1561 80.3621,11.2641 80.3761,10.0601 L80.3761,6.4121 L80.3761,6.4121 Z M83.4211,9.5161 C83.4211,11.6381 82.9821,13.2611 82.1051,14.3851 C81.2271,15.5081 79.9401,16.0701 78.2481,16.0701 C76.5761,16.0701 75.2981,15.5181 74.4131,14.4161 C73.5271,13.3131 73.0751,11.7321 73.0541,9.6751 L73.0541,6.8501 C73.0541,4.7091 73.4981,3.0831 74.3871,1.9731 C75.2751,0.8631 76.5551,0.3081 78.2271,0.3081 C79.8981,0.3081 81.1771,0.8571 82.0631,1.9571 C82.9471,3.0571 83.4001,4.6351 83.4211,6.6921 L83.4211,9.5161 L83.4211,9.5161 Z" id="Fill-10"></path>
                <polygon id="Fill-12" points="92.8722 15.8594 89.8272 15.8594 89.8272 4.1054 86.1922 5.2284 86.1922 2.7734 92.5462 0.4974 92.8722 0.4974"></polygon>
                <path d="M103.1447,8.0518 C102.6537,8.0518 102.2077,8.1798 101.8067,8.4358 C101.4067,8.6918 101.1117,9.0308 100.9217,9.4508 L100.9217,10.3758 C100.9217,11.3928 101.1227,12.1868 101.5227,12.7578 C101.9227,13.3288 102.4847,13.6148 103.2077,13.6148 C103.8617,13.6148 104.3897,13.3578 104.7937,12.8418 C105.1977,12.3268 105.3997,11.6588 105.3997,10.8388 C105.3997,10.0048 105.1957,9.3308 104.7887,8.8198 C104.3807,8.3078 103.8327,8.0518 103.1447,8.0518 L103.1447,8.0518 L103.1447,8.0518 Z M106.1167,0.3608 L106.1167,2.8678 L105.8217,2.8678 C104.4447,2.8898 103.3357,3.2468 102.4977,3.9438 C101.6577,4.6388 101.1537,5.6048 100.9847,6.8408 C101.7997,6.0118 102.8297,5.5968 104.0727,5.5968 C105.4067,5.5968 106.4667,6.0748 107.2537,7.0308 C108.0407,7.9858 108.4337,9.2418 108.4337,10.8018 C108.4337,11.7998 108.2177,12.7018 107.7867,13.5098 C107.3537,14.3178 106.7437,14.9468 105.9537,15.3958 C105.1627,15.8458 104.2687,16.0708 103.2717,16.0708 C101.6557,16.0708 100.3507,15.5078 99.3577,14.3848 C98.3637,13.2608 97.8667,11.7608 97.8667,9.8858 L97.8667,8.7898 C97.8667,7.1248 98.1807,5.6558 98.8097,4.3798 C99.4377,3.1058 100.3397,2.1178 101.5167,1.4198 C102.6937,0.7208 104.0577,0.3668 105.6107,0.3608 L106.1167,0.3608 L106.1167,0.3608 Z" id="Fill-14"></path>
                <polygon id="Fill-16" points="34.0758 32.3428 29.7838 32.3428 29.7838 36.8598 28.4348 36.8598 28.4348 26.6318 34.7708 26.6318 34.7708 27.7358 29.7838 27.7358 29.7838 31.2398 34.0758 31.2398"></polygon>
                <path d="M37.735,31.6191 L39.807,31.6191 C40.477,31.6191 41.009,31.4461 41.405,31.0981 C41.801,30.7521 41.999,30.2871 41.999,29.7051 C41.999,29.0721 41.81,28.5871 41.433,28.2491 C41.056,27.9111 40.512,27.7391 39.8,27.7351 L37.735,27.7351 L37.735,31.6191 L37.735,31.6191 Z M40.137,32.7221 L37.735,32.7221 L37.735,36.8591 L36.38,36.8591 L36.38,26.6321 L39.765,26.6321 C40.917,26.6321 41.803,26.8941 42.423,27.4191 C43.044,27.9431 43.355,28.7071 43.355,29.7091 C43.355,30.3461 43.182,30.9001 42.838,31.3731 C42.494,31.8471 42.015,32.2001 41.402,32.4341 L43.804,36.7751 L43.804,36.8591 L42.357,36.8591 L40.137,32.7221 L40.137,32.7221 Z" id="Fill-18"></path>
                <path d="M47.0138,33.0801 L50.4908,33.0801 L48.7488,28.2971 L47.0138,33.0801 L47.0138,33.0801 Z M50.8908,34.1841 L46.6068,34.1841 L45.6438,36.8591 L44.2538,36.8591 L48.1588,26.6321 L49.3388,26.6321 L53.2518,36.8591 L51.8678,36.8591 L50.8908,34.1841 L50.8908,34.1841 Z" id="Fill-20"></path>
                <polygon id="Fill-22" points="62.4874 36.8594 61.1324 36.8594 55.9844 28.9784 55.9844 36.8594 54.6284 36.8594 54.6284 26.6314 55.9844 26.6314 61.1454 34.5484 61.1454 26.6314 62.4874 26.6314"></polygon>
                <path d="M72.4064,33.6143 C72.2804,34.6963 71.8814,35.5303 71.2094,36.1183 C70.5364,36.7063 69.6434,37.0003 68.5294,37.0003 C67.3204,37.0003 66.3524,36.5663 65.6244,35.7003 C64.8964,34.8343 64.5324,33.6753 64.5324,32.2233 L64.5324,31.2403 C64.5324,30.2893 64.7024,29.4533 65.0414,28.7323 C65.3814,28.0113 65.8624,27.4583 66.4854,27.0713 C67.1074,26.6843 67.8294,26.4923 68.6484,26.4923 C69.7344,26.4923 70.6054,26.7953 71.2614,27.4013 C71.9174,28.0083 72.2994,28.8473 72.4064,29.9203 L71.0514,29.9203 C70.9334,29.1023 70.6794,28.5103 70.2884,28.1433 C69.8974,27.7773 69.3504,27.5943 68.6484,27.5943 C67.7874,27.5943 67.1114,27.9133 66.6224,28.5513 C66.1334,29.1883 65.8874,30.0943 65.8874,31.2713 L65.8874,32.2623 C65.8874,33.3733 66.1194,34.2573 66.5834,34.9133 C67.0474,35.5693 67.6954,35.8973 68.5294,35.8973 C69.2784,35.8973 69.8524,35.7273 70.2534,35.3873 C70.6534,35.0493 70.9194,34.4573 71.0514,33.6143 L72.4064,33.6143 L72.4064,33.6143 Z" id="Fill-24"></path>
                <polygon id="Fill-27" points="80.0275 32.1318 75.5955 32.1318 75.5955 35.7568 80.7445 35.7568 80.7445 36.8598 74.2475 36.8598 74.2475 26.6318 80.6735 26.6318 80.6735 27.7358 75.5955 27.7358 75.5955 31.0288 80.0275 31.0288"></polygon>
            </g>
            <g id="Cup" transform="translate(0.000000, 0.355000)">
                <path d="M64.1777,25.5729 C63.1577,25.5729 62.2347,25.9789 61.5457,26.6279 C61.5337,27.0699 61.5257,27.5339 61.5327,28.0469 C61.5617,30.2299 62.0347,31.6149 62.3057,32.3449 C62.3997,32.5959 62.5097,32.7929 62.6727,32.9649 C63.1357,33.1619 63.6437,33.2719 64.1777,33.2719 C66.3007,33.2719 68.0277,31.5459 68.0277,29.4229 C68.0277,27.2999 66.3007,25.5729 64.1777,25.5729" id="Fill-29"></path>
                <g id="Group-33" transform="translate(0.000000, -0.000000)">
                    <path d="M74.3327351,55.7119065 C73.7960963,59.6834318 70.0027869,67.2650726 67.0497801,71.6557536 C63.6616877,76.6945827 63.6616877,76.6945827 62.5306642,79.3747898 C61.777976,81.1579439 61.5469924,83.9855027 63.3291509,87.8584616 C64.0489836,89.4225795 64.9430497,91.0802856 66.4006363,93.3662275 C67.3305447,94.8248097 67.8164069,95.5416556 66.8516519,96.61792 C66.0601345,97.4980475 63.4157697,98.3642362 61.2323767,98.7236548 C57.612305,99.3200307 56.0452002,99.3170439 54.9998,99.3170439 C53.9553954,99.3170439 52.387295,99.3200307 48.7672233,98.7236548 C46.5848259,98.3642362 43.9394655,97.4980475 43.1489438,96.61792 C42.1831931,95.5416556 42.6690553,94.8248097 43.5989637,93.3662275 C45.0565503,91.0802856 45.9506164,89.4225795 46.6704491,87.8584616 C48.4536033,83.9855027 48.2226196,81.1579439 47.4699314,79.3747898 C46.3389079,76.6945827 46.3389079,76.6945827 42.9498199,71.6557536 C39.9968131,67.2650726 36.2044993,59.6834318 35.6678605,55.7119065 C35.3651923,53.4757456 34.068896,44.2752279 38.2415364,38.3801661 C39.4243321,36.7085214 40.6579043,35.7278364 41.8715642,35.0816795 C40.0894057,33.7744314 38.9245312,31.6716835 38.9245312,29.2961359 C38.9245312,25.3385493 42.1453595,22.1187165 46.1029462,22.1187165 C46.8705686,22.1187165 47.6083225,22.2421733 48.3022691,22.4661877 C48.2027072,21.7812016 48.1618868,20.9030654 46.7003177,20.5725198 C46.3369167,20.490879 46.2333723,20.4321375 44.7787725,20.3325755 C41.5888084,20.1165262 41.7291907,19.8755863 41.2015125,18.0814804 C41.0949812,17.7200706 41.0023886,17.4174023 40.8610107,16.4904808 C40.6847861,15.3405405 41.3399035,15.0289117 43.1887685,15.0249292 C45.1352042,12.4154111 49.691158,10.5834716 54.9998,10.5834716 C60.3094376,10.5834716 64.8653914,12.4154111 66.8118271,15.0249292 C68.6606921,15.0289117 69.3158096,15.3405405 69.1395849,16.4904808 C68.9972114,17.4174023 68.9056144,17.7200706 68.7990832,18.0814804 C68.2704093,19.8755863 68.4107916,20.1165262 65.2218231,20.3325755 C63.7672233,20.4321375 63.6636789,20.490879 63.3002779,20.5725198 C61.8387088,20.9030654 61.7968928,21.7812016 61.6983265,22.4661877 C62.3912775,22.2421733 63.130027,22.1187165 63.8966538,22.1187165 C67.8552361,22.1187165 71.0750688,25.3385493 71.0750688,29.2961359 C71.0750688,31.6716835 69.9111899,33.7744314 68.1290314,35.0816795 C69.3416957,35.7278364 70.5752679,36.7085214 71.7580636,38.3801661 C75.930704,44.2752279 74.6344077,53.4757456 74.3327351,55.7119065 M55.0007956,0.6452 C24.6244515,0.6452 -0.0002,24.9582227 -0.0002,54.9502577 C-0.0002,84.9422928 24.6244515,109.255315 55.0007956,109.255315 C85.3761441,109.255315 109.9998,84.9422928 109.9998,54.9502577 C109.9998,24.9582227 85.3761441,0.6452 55.0007956,0.6452" id="Fill-31"></path>
                </g>
                <path d="M46.306,25.5729 C44.183,25.5729 42.456,27.2999 42.456,29.4229 C42.456,31.5459 44.183,33.2719 46.306,33.2719 C46.84,33.2719 47.349,33.1619 47.812,32.9649 C47.974,32.7929 48.085,32.5959 48.178,32.3449 C48.449,31.6149 48.922,30.2299 48.951,28.0469 C48.958,27.5339 48.951,27.0699 48.939,26.6289 C48.249,25.9789 47.326,25.5729 46.306,25.5729" id="Fill-34"></path>
            </g>
        </g>
    </g>
</svg>