<?xml version="1.0" encoding="UTF-8" standalone="no"?>
<svg width="110px" height="109px" viewBox="0 0 110 109" version="1.1" xmlns="http://www.w3.org/2000/svg" xmlns:xlink="http://www.w3.org/1999/xlink">
    <!-- Generator: Sketch 3.8.1 (29687) - http://www.bohemiancoding.com/sketch -->
    <title>Euro-16-large-cup-white</title>
    <desc>Created with Sketch.</desc>
    <defs></defs>
    <g id="Page-1" stroke="none" stroke-width="1" fill="none" fill-rule="evenodd">
        <g id="Euro-16-large-cup-white" transform="translate(0.000000, -1.000000)" fill="#FFFFFF">
            <g id="Cup" transform="translate(0.000000, 0.355000)">
                <path d="M64.1777,25.5729 C63.1577,25.5729 62.2347,25.9789 61.5457,26.6279 C61.5337,27.0699 61.5257,27.5339 61.5327,28.0469 C61.5617,30.2299 62.0347,31.6149 62.3057,32.3449 C62.3997,32.5959 62.5097,32.7929 62.6727,32.9649 C63.1357,33.1619 63.6437,33.2719 64.1777,33.2719 C66.3007,33.2719 68.0277,31.5459 68.0277,29.4229 C68.0277,27.2999 66.3007,25.5729 64.1777,25.5729" id="Fill-29"></path>
                <g id="Group-33" transform="translate(0.000000, -0.000000)">
                    <path d="M74.3327351,55.7119065 C73.7960963,59.6834318 70.0027869,67.2650726 67.0497801,71.6557536 C63.6616877,76.6945827 63.6616877,76.6945827 62.5306642,79.3747898 C61.777976,81.1579439 61.5469924,83.9855027 63.3291509,87.8584616 C64.0489836,89.4225795 64.9430497,91.0802856 66.4006363,93.3662275 C67.3305447,94.8248097 67.8164069,95.5416556 66.8516519,96.61792 C66.0601345,97.4980475 63.4157697,98.3642362 61.2323767,98.7236548 C57.612305,99.3200307 56.0452002,99.3170439 54.9998,99.3170439 C53.9553954,99.3170439 52.387295,99.3200307 48.7672233,98.7236548 C46.5848259,98.3642362 43.9394655,97.4980475 43.1489438,96.61792 C42.1831931,95.5416556 42.6690553,94.8248097 43.5989637,93.3662275 C45.0565503,91.0802856 45.9506164,89.4225795 46.6704491,87.8584616 C48.4536033,83.9855027 48.2226196,81.1579439 47.4699314,79.3747898 C46.3389079,76.6945827 46.3389079,76.6945827 42.9498199,71.6557536 C39.9968131,67.2650726 36.2044993,59.6834318 35.6678605,55.7119065 C35.3651923,53.4757456 34.068896,44.2752279 38.2415364,38.3801661 C39.4243321,36.7085214 40.6579043,35.7278364 41.8715642,35.0816795 C40.0894057,33.7744314 38.9245312,31.6716835 38.9245312,29.2961359 C38.9245312,25.3385493 42.1453595,22.1187165 46.1029462,22.1187165 C46.8705686,22.1187165 47.6083225,22.2421733 48.3022691,22.4661877 C48.2027072,21.7812016 48.1618868,20.9030654 46.7003177,20.5725198 C46.3369167,20.490879 46.2333723,20.4321375 44.7787725,20.3325755 C41.5888084,20.1165262 41.7291907,19.8755863 41.2015125,18.0814804 C41.0949812,17.7200706 41.0023886,17.4174023 40.8610107,16.4904808 C40.6847861,15.3405405 41.3399035,15.0289117 43.1887685,15.0249292 C45.1352042,12.4154111 49.691158,10.5834716 54.9998,10.5834716 C60.3094376,10.5834716 64.8653914,12.4154111 66.8118271,15.0249292 C68.6606921,15.0289117 69.3158096,15.3405405 69.1395849,16.4904808 C68.9972114,17.4174023 68.9056144,17.7200706 68.7990832,18.0814804 C68.2704093,19.8755863 68.4107916,20.1165262 65.2218231,20.3325755 C63.7672233,20.4321375 63.6636789,20.490879 63.3002779,20.5725198 C61.8387088,20.9030654 61.7968928,21.7812016 61.6983265,22.4661877 C62.3912775,22.2421733 63.130027,22.1187165 63.8966538,22.1187165 C67.8552361,22.1187165 71.0750688,25.3385493 71.0750688,29.2961359 C71.0750688,31.6716835 69.9111899,33.7744314 68.1290314,35.0816795 C69.3416957,35.7278364 70.5752679,36.7085214 71.7580636,38.3801661 C75.930704,44.2752279 74.6344077,53.4757456 74.3327351,55.7119065 M55.0007956,0.6452 C24.6244515,0.6452 -0.0002,24.9582227 -0.0002,54.9502577 C-0.0002,84.9422928 24.6244515,109.255315 55.0007956,109.255315 C85.3761441,109.255315 109.9998,84.9422928 109.9998,54.9502577 C109.9998,24.9582227 85.3761441,0.6452 55.0007956,0.6452" id="Fill-31"></path>
                </g>
                <path d="M46.306,25.5729 C44.183,25.5729 42.456,27.2999 42.456,29.4229 C42.456,31.5459 44.183,33.2719 46.306,33.2719 C46.84,33.2719 47.349,33.1619 47.812,32.9649 C47.974,32.7929 48.085,32.5959 48.178,32.3449 C48.449,31.6149 48.922,30.2299 48.951,28.0469 C48.958,27.5339 48.951,27.0699 48.939,26.6289 C48.249,25.9789 47.326,25.5729 46.306,25.5729" id="Fill-34"></path>
            </g>
        </g>
    </g>
</svg>