<?xml version="1.0" encoding="UTF-8" standalone="no"?>
<svg width="32px" height="32px" viewBox="0 0 32 32" version="1.1" xmlns="http://www.w3.org/2000/svg" xmlns:xlink="http://www.w3.org/1999/xlink">
    <!-- Generator: Sketch 3.8.1 (29687) - http://www.bohemiancoding.com/sketch -->
    <title>Euro-16-large-cup-white</title>
    <desc>Created with Sketch.</desc>
    <defs></defs>
    <g id="Page-1" stroke="none" stroke-width="1" fill="none" fill-rule="evenodd">
        <g id="Overview-Widget-02-Copy-5" transform="translate(-672.000000, -489.000000)" fill="#23366F">
            <g id="Card-35" transform="translate(656.000000, 474.000000)">
                <g id="Header">
                    <g id="Euro-16-32x32-cup-black-Copy" transform="translate(16.000000, 15.000000)">
                        <g id="Page-1">
                            <g id="Euro-16-large-cup-white">
                                <g id="Cup" transform="translate(0.000000, 0.103273)">
                                    <path d="M18.4770877,7.71673432 C18.2546328,7.71673432 18.053333,7.80528009 17.9030668,7.94682246 C17.9004497,8.04321958 17.898705,8.14441474 17.9002316,8.25629646 C17.9065564,8.73239353 18.0097144,9.03445237 18.0688175,9.19366027 C18.0893183,9.24840163 18.1133085,9.29136595 18.1488577,9.32887795 C18.2498348,9.37184227 18.360626,9.3958325 18.4770877,9.3958325 C18.9400992,9.3958325 19.3167459,9.01940395 19.3167459,8.55639246 C19.3167459,8.09338097 18.9400992,7.71673432 18.4770877,7.71673432" id="Fill-29"></path>
                                    <g id="Group-33">
                                        <path d="M21.6240684,16.2071001 C21.4679553,17.3624529 20.3644471,19.5680211 19.5053906,20.8453101 C18.5197637,22.3111513 18.5197637,22.3111513 18.1907387,23.0908479 C17.9717748,23.6095837 17.9045796,24.4321462 18.4230257,25.5588252 C18.6324316,26.0138413 18.8925235,26.4960831 19.3165487,27.1610844 C19.5870675,27.5853992 19.7284093,27.7939362 19.4477533,28.1070313 C19.2174937,28.3630684 18.4482239,28.6150505 17.813055,28.7196087 C16.7599433,28.8930998 16.3040582,28.892231 15.9999418,28.892231 C15.696115,28.892231 15.2399404,28.8930998 14.1868286,28.7196087 C13.5519494,28.6150505 12.78239,28.3630684 12.55242,28.1070313 C12.2714744,27.7939362 12.4128161,27.5853992 12.6833349,27.1610844 C13.1073601,26.4960831 13.367452,26.0138413 13.5768579,25.5588252 C14.0955937,24.4321462 14.0283984,23.6095837 13.8094346,23.0908479 C13.4804096,22.3111513 13.4804096,22.3111513 12.4944931,20.8453101 C11.6354365,19.5680211 10.532218,17.3624529 10.3761049,16.2071001 C10.2880559,15.5565805 9.91095156,12.8800663 11.1248106,11.1651392 C11.4688966,10.6788426 11.827754,10.3935524 12.1808187,10.2055795 C11.6623726,9.82528913 11.3235,9.21358065 11.3235,8.52251226 C11.3235,7.37121434 12.2604682,6.43453571 13.4117662,6.43453571 C13.6350745,6.43453571 13.8496938,6.47045041 14.0515692,6.53561824 C14.0226057,6.33634956 14.0107307,6.08089175 13.585547,5.98473303 C13.4798303,5.96098298 13.4497083,5.94389455 13.026552,5.91493105 C12.0985624,5.85208035 12.1394009,5.78198874 11.9858945,5.26006703 C11.9549036,5.15492963 11.9279676,5.06688067 11.8868395,4.79723078 C11.8355741,4.46270269 12.0261537,4.37204704 12.5640054,4.37088849 C13.1302412,3.61175596 14.4556096,3.0788281 15.9999418,3.0788281 C17.5445637,3.0788281 18.869932,3.61175596 19.4361679,4.37088849 C19.9740195,4.37204704 20.1645992,4.46270269 20.1133338,4.79723078 C20.071916,5.06688067 20.0452696,5.15492963 20.0142787,5.26006703 C19.8604827,5.78198874 19.9013212,5.85208035 18.9736213,5.91493105 C18.550465,5.94389455 18.520343,5.96098298 18.4146263,5.98473303 C17.9894426,6.08089175 17.9772779,6.33634956 17.9486041,6.53561824 C18.1501898,6.47045041 18.3650988,6.43453571 18.5881175,6.43453571 C19.739705,6.43453571 20.6763837,7.37121434 20.6763837,8.52251226 C20.6763837,9.21358065 20.3378007,9.82528913 19.8193546,10.2055795 C20.1721297,10.3935524 20.530987,10.6788426 20.875073,11.1651392 C22.0889321,12.8800663 21.7118277,15.5565805 21.6240684,16.2071001 M-5.81818181e-05,15.9855295 C-5.81818181e-05,24.7104852 7.1634768,31.7833644 16.0002314,31.7833644 C24.8366965,31.7833644 31.9999418,24.7104852 31.9999418,15.9855295 C31.9999418,7.26057388 24.8366965,0.187694545 16.0002314,0.187694545 C7.1634768,0.187694545 -5.81818181e-05,7.26057388 -5.81818181e-05,15.9855295 Z" id="Fill-31"></path>
                                    </g>
                                    <path d="M12.587408,8.55639246 C12.587408,9.01940395 12.9640547,9.3958325 13.4270661,9.3958325 C13.5435278,9.3958325 13.6545371,9.37184227 13.7555142,9.32887795 C13.7908453,9.29136595 13.8150536,9.24840163 13.8353363,9.19366027 C13.8944394,9.03445237 13.9975974,8.73239353 14.0039222,8.25629646 C14.0054488,8.14441474 14.0039222,8.04321958 14.001305,7.94704056 C13.8508208,7.80528009 13.649521,7.71673432 13.4270661,7.71673432 C12.9640547,7.71673432 12.587408,8.09338097 12.587408,8.55639246 Z" id="Fill-34"></path>
                                </g>
                            </g>
                        </g>
                    </g>
                </g>
            </g>
        </g>
    </g>
</svg>