<?xml version="1.0" encoding="UTF-8" standalone="no"?>
<svg width="32px" height="32px" viewBox="0 0 32 32" version="1.1" xmlns="http://www.w3.org/2000/svg" xmlns:xlink="http://www.w3.org/1999/xlink">
    <!-- Generator: Sketch 3.8.1 (29687) - http://www.bohemiancoding.com/sketch -->
    <title>Euro-16-large-cup-white</title>
    <desc>Created with Sketch.</desc>
    <defs></defs>
    <g id="Page-1" stroke="none" stroke-width="1" fill="none" fill-rule="evenodd">
        <g id="Euro-16-large-cup-white" fill="#000000">
            <g id="Cup" transform="translate(0.000000, 0.103273)">
                <path d="M18.6698764,7.43938909 C18.3731491,7.43938909 18.10464,7.55749818 17.9042036,7.74629818 C17.9007127,7.87488 17.8983855,8.00986182 17.9004218,8.15909818 C17.9088582,8.79415273 18.0464582,9.19706182 18.1252945,9.40942545 C18.15264,9.48244364 18.18464,9.53975273 18.2320582,9.58978909 C18.3667491,9.64709818 18.5145309,9.67909818 18.6698764,9.67909818 C19.2874764,9.67909818 19.7898764,9.17698909 19.7898764,8.55938909 C19.7898764,7.94178909 19.2874764,7.43938909 18.6698764,7.43938909" id="Fill-29"></path>
                <g id="Group-33" transform="translate(0.000000, 0.000000)">
                    <path d="M21.6240684,16.2071001 C21.4679553,17.3624529 20.3644471,19.5680211 19.5053906,20.8453101 C18.5197637,22.3111513 18.5197637,22.3111513 18.1907387,23.0908479 C17.9717748,23.6095837 17.9045796,24.4321462 18.4230257,25.5588252 C18.6324316,26.0138413 18.8925235,26.4960831 19.3165487,27.1610844 C19.5870675,27.5853992 19.7284093,27.7939362 19.4477533,28.1070313 C19.2174937,28.3630684 18.4482239,28.6150505 17.813055,28.7196087 C16.7599433,28.8930998 16.3040582,28.892231 15.9999418,28.892231 C15.696115,28.892231 15.2399404,28.8930998 14.1868286,28.7196087 C13.5519494,28.6150505 12.78239,28.3630684 12.55242,28.1070313 C12.2714744,27.7939362 12.4128161,27.5853992 12.6833349,27.1610844 C13.1073601,26.4960831 13.367452,26.0138413 13.5768579,25.5588252 C14.0955937,24.4321462 14.0283984,23.6095837 13.8094346,23.0908479 C13.4804096,22.3111513 13.4804096,22.3111513 12.4944931,20.8453101 C11.6354365,19.5680211 10.532218,17.3624529 10.3761049,16.2071001 C10.2880559,15.5565805 9.91095156,12.8800663 11.1248106,11.1651392 C11.4688966,10.6788426 11.827754,10.3935524 12.1808187,10.2055795 C11.6623726,9.82528913 11.3235,9.21358065 11.3235,8.52251226 C11.3235,7.37121434 12.2604682,6.43453571 13.4117662,6.43453571 C13.6350745,6.43453571 13.8496938,6.47045041 14.0515692,6.53561824 C14.0226057,6.33634956 14.0107307,6.08089175 13.585547,5.98473303 C13.4798303,5.96098298 13.4497083,5.94389455 13.026552,5.91493105 C12.0985624,5.85208035 12.1394009,5.78198874 11.9858945,5.26006703 C11.9549036,5.15492963 11.9279676,5.06688067 11.8868395,4.79723078 C11.8355741,4.46270269 12.0261537,4.37204704 12.5640054,4.37088849 C13.1302412,3.61175596 14.4556096,3.0788281 15.9999418,3.0788281 C17.5445637,3.0788281 18.869932,3.61175596 19.4361679,4.37088849 C19.9740195,4.37204704 20.1645992,4.46270269 20.1133338,4.79723078 C20.071916,5.06688067 20.0452696,5.15492963 20.0142787,5.26006703 C19.8604827,5.78198874 19.9013212,5.85208035 18.9736213,5.91493105 C18.550465,5.94389455 18.520343,5.96098298 18.4146263,5.98473303 C17.9894426,6.08089175 17.9772779,6.33634956 17.9486041,6.53561824 C18.1501898,6.47045041 18.3650988,6.43453571 18.5881175,6.43453571 C19.739705,6.43453571 20.6763837,7.37121434 20.6763837,8.52251226 C20.6763837,9.21358065 20.3378007,9.82528913 19.8193546,10.2055795 C20.1721297,10.3935524 20.530987,10.6788426 20.875073,11.1651392 C22.0889321,12.8800663 21.7118277,15.5565805 21.6240684,16.2071001 M16.0002314,0.187694545 C7.1634768,0.187694545 -5.81818182e-05,7.26057388 -5.81818182e-05,15.9855295 C-5.81818182e-05,24.7104852 7.1634768,31.7833644 16.0002314,31.7833644 C24.8366965,31.7833644 31.9999418,24.7104852 31.9999418,15.9855295 C31.9999418,7.26057388 24.8366965,0.187694545 16.0002314,0.187694545" id="Fill-31"></path>
                </g>
                <path d="M13.4708364,7.43938909 C12.8532364,7.43938909 12.3508364,7.94178909 12.3508364,8.55938909 C12.3508364,9.17698909 12.8532364,9.67909818 13.4708364,9.67909818 C13.6261818,9.67909818 13.7742545,9.64709818 13.9089455,9.58978909 C13.9560727,9.53975273 13.9883636,9.48244364 14.0154182,9.40942545 C14.0942545,9.19706182 14.2318545,8.79415273 14.2402909,8.15909818 C14.2423273,8.00986182 14.2402909,7.87488 14.2368,7.74658909 C14.0360727,7.55749818 13.7675636,7.43938909 13.4708364,7.43938909" id="Fill-34"></path>
            </g>
        </g>
    </g>
</svg>