<?xml version="1.0" encoding="utf-8"?>
<!-- Generator: Adobe Illustrator 19.2.1, SVG Export Plug-In . SVG Version: 6.00 Build 0)  -->
<svg version="1.1" xmlns="http://www.w3.org/2000/svg" xmlns:xlink="http://www.w3.org/1999/xlink" x="0px" y="0px"
	 viewBox="0 0 110 157" style="enable-background:new 0 0 110 157;" xml:space="preserve">
<style type="text/css">
	.st0{fill:#FFFFFF;}
	.st1{font-family:'Arial-Black';}
	.st2{font-size:26.4978px;}
	.st3{display:none;}
	.st4{display:inline;fill:#FFFFFF;}
	.st5{display:inline;}
	.st6{font-size:41.7933px;}
</style>
<g id="Layer_2">
	<g>
		<path class="st0" d="M45.8,64.4c0.3-0.8,0.5-2,0.5-3.7c0-2.3-0.4-3.8-1.1-4.7c-0.7-0.8-2-1.3-3.7-1.3h-1.6v11.7h1.6
			c1.4,0,2.4-0.2,2.9-0.5S45.4,65.2,45.8,64.4z"/>
		<path class="st0" d="M55,4.2c-30.4,0-55,24.6-55,55s24.6,55,55,55s55-24.6,55-55S85.4,4.2,55,4.2z M68,19.7h7.5v24.1H68V19.7z
			 M53.5,101H33.6V77.4h19.6v5H40.9v3.8h11.4V91H40.9v4.7h12.6V101z M33.2,71.3V49.9H43c1.9,0,3.5,0.3,4.7,0.8s2.2,1.3,3,2.3
			s1.3,2.1,1.7,3.4c0.4,1.3,0.5,2.7,0.5,4.1c0,2.3-0.3,4.1-0.8,5.3s-1.2,2.3-2.2,3.2c-0.9,0.9-1.9,1.4-3,1.7
			c-1.5,0.4-2.8,0.6-3.9,0.6H33.2z M52.7,43.8l-4.2-15.2l-4.2,15.2H37l-5.4-24.1h7.1l2.5,13.5L45,19.7h7l3.7,13.5l2.5-13.5h7
			L60,43.8H52.7z M57,54.5c1-1.7,2.4-3,4.2-3.9c1.5-0.7,3.4-1,5.9-1c2.4,0,4.1,0.2,5.3,0.6c1.2,0.4,2.1,1.1,2.9,2
			c0.8,0.9,1.4,2,1.7,3.4l-6.4,1.1c-0.3-0.8-0.7-1.4-1.3-1.9s-1.4-0.6-2.4-0.6c-1.5,0-2.6,0.5-3.5,1.5s-1.3,2.6-1.3,4.8
			c0,2.3,0.4,4,1.3,5s2.1,1.5,3.6,1.5c0.7,0,1.4-0.1,2.1-0.3c0.7-0.2,1.4-0.6,2.3-1.1v-2h-4.4v-4.5h10.2v9.1c-2,1.3-3.7,2.2-5.2,2.7
			c-1.5,0.5-3.3,0.7-5.3,0.7c-2.5,0-4.6-0.4-6.2-1.3s-2.8-2.2-3.7-3.9c-0.9-1.7-1.3-3.7-1.3-5.9C55.5,58.3,56,56.3,57,54.5z
			 M77.9,83.2h-7.4V101h-7.3V83.2h-7.4v-5.8h22.2V83.2z"/>
	</g>
	<text transform="matrix(1 0 0 1 19.333 152.5732)" class="st0 st1 st2">2016</text>
</g>
<g id="Layer_1" class="st3">
	<title>Euro 16 logo + type</title>
	<desc>Created with Sketch.</desc>
	<g id="Type_2_" transform="translate(1.000000, 120.355000)">
		<polygon id="Fill-1_2_" class="st4" points="9.9,14.2 3.8,14.2 3.8,18.3 10.9,18.3 10.9,20.9 0.7,20.9 0.7,5.5 10.9,5.5 10.9,8.1 
			3.8,8.1 3.8,11.7 9.9,11.7 		"/>
		<path id="Fill-2_2_" class="st4" d="M24.4,5.5v10.1c0,1.7-0.5,3-1.6,4c-1,1-2.5,1.5-4.3,1.5c-1.8,0-3.2-0.5-4.3-1.4
			c-1.1-0.9-1.6-2.3-1.6-3.9V5.5h3.2v10.1c0,1,0.2,1.7,0.7,2.2c0.5,0.5,1.1,0.7,2,0.7c1.8,0,2.7-0.9,2.7-2.8V5.5H24.4L24.4,5.5z"/>
		<path id="Fill-4_2_" class="st4" d="M30.2,12.7h2.5c0.8,0,1.4-0.2,1.8-0.6c0.4-0.4,0.7-1,0.7-1.7c0-0.7-0.2-1.3-0.6-1.7
			c-0.4-0.4-1-0.6-1.9-0.6h-2.5V12.7L30.2,12.7z M32.7,15.2h-2.5v5.6H27V5.5h5.7c1.8,0,3.2,0.4,4.2,1.2c1,0.8,1.5,1.9,1.5,3.4
			c0,1-0.2,1.9-0.7,2.6c-0.5,0.7-1.1,1.3-2.1,1.7l3.3,6.3v0.1h-3.4L32.7,15.2L32.7,15.2z"/>
		<path id="Fill-6_2_" class="st4" d="M50.2,12.8c0-1.6-0.3-2.8-0.9-3.7c-0.6-0.8-1.4-1.3-2.5-1.3c-1.1,0-1.9,0.4-2.5,1.2
			c-0.6,0.8-0.9,2-0.9,3.6v0.7c0,1.6,0.3,2.8,0.9,3.6c0.6,0.9,1.4,1.3,2.5,1.3c1.1,0,1.9-0.4,2.4-1.2c0.6-0.8,0.9-2,0.9-3.6V12.8
			L50.2,12.8z M53.4,13.5c0,1.5-0.3,2.8-0.8,4c-0.5,1.1-1.3,2-2.3,2.6c-1,0.6-2.1,0.9-3.4,0.9c-1.3,0-2.4-0.3-3.4-0.9
			c-1-0.6-1.8-1.5-2.3-2.6c-0.5-1.1-0.8-2.4-0.8-3.9v-0.8c0-1.5,0.3-2.8,0.8-4c0.5-1.1,1.3-2,2.3-2.6s2.1-0.9,3.4-0.9
			c1.3,0,2.4,0.3,3.4,0.9s1.8,1.5,2.3,2.6c0.5,1.1,0.8,2.5,0.8,4V13.5L53.4,13.5z"/>
		<path id="Fill-8_2_" class="st4" d="M71.2,20.9H60.7v-2.1l5-5.3c0.7-0.7,1.2-1.4,1.5-1.9c0.3-0.6,0.5-1.1,0.5-1.6
			c0-0.7-0.2-1.2-0.5-1.6c-0.3-0.4-0.8-0.6-1.5-0.6c-0.7,0-1.2,0.2-1.6,0.7c-0.4,0.5-0.6,1.1-0.6,1.9h-3.1c0-0.9,0.2-1.8,0.7-2.6
			C61.5,7,62.2,6.4,63,6c0.8-0.4,1.7-0.7,2.8-0.7c1.6,0,2.8,0.4,3.7,1.1c0.9,0.8,1.3,1.8,1.3,3.2c0,0.8-0.2,1.5-0.6,2.3
			c-0.4,0.8-1.1,1.7-2,2.8l-3.5,3.7h6.6V20.9L71.2,20.9z"/>
		<path id="Fill-10_2_" class="st4" d="M80.4,11.4c0-1.3-0.2-2.2-0.5-2.8c-0.3-0.6-0.9-0.9-1.6-0.9c-0.7,0-1.2,0.3-1.6,0.8
			c-0.3,0.6-0.5,1.4-0.5,2.6v3.7c0,1.3,0.2,2.2,0.5,2.8c0.3,0.6,0.9,0.9,1.6,0.9c0.7,0,1.3-0.3,1.6-0.9c0.3-0.6,0.5-1.5,0.5-2.7
			V11.4L80.4,11.4z M83.4,14.5c0,2.1-0.4,3.7-1.3,4.9c-0.9,1.1-2.2,1.7-3.9,1.7c-1.7,0-2.9-0.6-3.8-1.7c-0.9-1.1-1.3-2.7-1.4-4.7
			v-2.8c0-2.1,0.4-3.8,1.3-4.9c0.9-1.1,2.2-1.7,3.8-1.7c1.7,0,3,0.5,3.8,1.6c0.9,1.1,1.3,2.7,1.4,4.7V14.5L83.4,14.5z"/>
		<polygon id="Fill-12_2_" class="st4" points="92.9,20.9 89.8,20.9 89.8,9.1 86.2,10.2 86.2,7.8 92.5,5.5 92.9,5.5 		"/>
		<path id="Fill-14_2_" class="st4" d="M103.1,13.1c-0.5,0-0.9,0.1-1.3,0.4c-0.4,0.3-0.7,0.6-0.9,1v0.9c0,1,0.2,1.8,0.6,2.4
			c0.4,0.6,1,0.9,1.7,0.9c0.7,0,1.2-0.3,1.6-0.8c0.4-0.5,0.6-1.2,0.6-2c0-0.8-0.2-1.5-0.6-2C104.4,13.3,103.8,13.1,103.1,13.1
			L103.1,13.1L103.1,13.1z M106.1,5.4v2.5h-0.3c-1.4,0-2.5,0.4-3.3,1.1c-0.8,0.7-1.3,1.7-1.5,2.9c0.8-0.8,1.8-1.2,3.1-1.2
			c1.3,0,2.4,0.5,3.2,1.4c0.8,1,1.2,2.2,1.2,3.8c0,1-0.2,1.9-0.6,2.7c-0.4,0.8-1,1.4-1.8,1.9c-0.8,0.5-1.7,0.7-2.7,0.7
			c-1.6,0-2.9-0.6-3.9-1.7c-1-1.1-1.5-2.6-1.5-4.5v-1.1c0-1.7,0.3-3.1,0.9-4.4c0.6-1.3,1.5-2.3,2.7-3c1.2-0.7,2.5-1.1,4.1-1.1H106.1
			L106.1,5.4z"/>
		<polygon id="Fill-16_2_" class="st4" points="34.1,37.3 29.8,37.3 29.8,41.9 28.4,41.9 28.4,31.6 34.8,31.6 34.8,32.7 29.8,32.7 
			29.8,36.2 34.1,36.2 		"/>
		<path id="Fill-18_2_" class="st4" d="M37.7,36.6h2.1c0.7,0,1.2-0.2,1.6-0.5c0.4-0.3,0.6-0.8,0.6-1.4c0-0.6-0.2-1.1-0.6-1.5
			c-0.4-0.3-0.9-0.5-1.6-0.5h-2.1V36.6L37.7,36.6z M40.1,37.7h-2.4v4.1h-1.4V31.6h3.4c1.2,0,2,0.3,2.7,0.8c0.6,0.5,0.9,1.3,0.9,2.3
			c0,0.6-0.2,1.2-0.5,1.7c-0.3,0.5-0.8,0.8-1.4,1.1l2.4,4.3v0.1h-1.4L40.1,37.7L40.1,37.7z"/>
		<path id="Fill-20_2_" class="st4" d="M47,38.1h3.5l-1.7-4.8L47,38.1L47,38.1z M50.9,39.2h-4.3l-1,2.7h-1.4l3.9-10.2h1.2l3.9,10.2
			h-1.4L50.9,39.2L50.9,39.2z"/>
		<polygon id="Fill-22_2_" class="st4" points="62.5,41.9 61.1,41.9 56,34 56,41.9 54.6,41.9 54.6,31.6 56,31.6 61.1,39.5 
			61.1,31.6 62.5,31.6 		"/>
		<path id="Fill-24_2_" class="st4" d="M72.4,38.6c-0.1,1.1-0.5,1.9-1.2,2.5c-0.7,0.6-1.6,0.9-2.7,0.9c-1.2,0-2.2-0.4-2.9-1.3
			c-0.7-0.9-1.1-2-1.1-3.5v-1c0-1,0.2-1.8,0.5-2.5c0.3-0.7,0.8-1.3,1.4-1.7c0.6-0.4,1.3-0.6,2.2-0.6c1.1,0,2,0.3,2.6,0.9
			c0.7,0.6,1,1.4,1.1,2.5h-1.4c-0.1-0.8-0.4-1.4-0.8-1.8c-0.4-0.4-0.9-0.5-1.6-0.5c-0.9,0-1.5,0.3-2,1c-0.5,0.6-0.7,1.5-0.7,2.7v1
			c0,1.1,0.2,2,0.7,2.7c0.5,0.7,1.1,1,1.9,1c0.7,0,1.3-0.2,1.7-0.5c0.4-0.3,0.7-0.9,0.8-1.8H72.4L72.4,38.6z"/>
		<polygon id="Fill-27_2_" class="st4" points="80,37.1 75.6,37.1 75.6,40.8 80.7,40.8 80.7,41.9 74.2,41.9 74.2,31.6 80.7,31.6 
			80.7,32.7 75.6,32.7 75.6,36 80,36 		"/>
	</g>
	<g id="Cup_2_" transform="translate(0.000000, 0.355000)">
		<path id="Fill-29_2_" class="st4" d="M64.2,30.6c-1,0-1.9,0.4-2.6,1.1c0,0.4,0,0.9,0,1.4c0,2.2,0.5,3.6,0.8,4.3
			c0.1,0.3,0.2,0.4,0.4,0.6c0.5,0.2,1,0.3,1.5,0.3c2.1,0,3.9-1.7,3.9-3.8C68,32.3,66.3,30.6,64.2,30.6"/>
		<g id="Group-33_2_" transform="translate(0.000000, -0.000000)" class="st5">
			<path id="Fill-31_2_" class="st0" d="M74.3,60.7c-0.5,4-4.3,11.6-7.3,15.9c-3.4,5-3.4,5-4.5,7.7c-0.8,1.8-1,4.6,0.8,8.5
				c0.7,1.6,1.6,3.2,3.1,5.5c0.9,1.5,1.4,2.2,0.5,3.3c-0.8,0.9-3.4,1.7-5.6,2.1c-3.6,0.6-5.2,0.6-6.2,0.6c-1,0-2.6,0-6.2-0.6
				c-2.2-0.4-4.8-1.2-5.6-2.1c-1-1.1-0.5-1.8,0.5-3.3c1.5-2.3,2.4-3.9,3.1-5.5c1.8-3.9,1.6-6.7,0.8-8.5c-1.1-2.7-1.1-2.7-4.5-7.7
				c-3-4.4-6.7-12-7.3-15.9c-0.3-2.2-1.6-11.4,2.6-17.3c1.2-1.7,2.4-2.7,3.6-3.3c-1.8-1.3-2.9-3.4-2.9-5.8c0-4,3.2-7.2,7.2-7.2
				c0.8,0,1.5,0.1,2.2,0.3c-0.1-0.7-0.1-1.6-1.6-1.9c-0.4-0.1-0.5-0.1-1.9-0.2c-3.2-0.2-3-0.5-3.6-2.3c-0.1-0.4-0.2-0.7-0.3-1.6
				c-0.2-1.1,0.5-1.5,2.3-1.5c1.9-2.6,6.5-4.4,11.8-4.4c5.3,0,9.9,1.8,11.8,4.4c1.8,0,2.5,0.3,2.3,1.5c-0.1,0.9-0.2,1.2-0.3,1.6
				c-0.5,1.8-0.4,2-3.6,2.3c-1.5,0.1-1.6,0.2-1.9,0.2c-1.5,0.3-1.5,1.2-1.6,1.9c0.7-0.2,1.4-0.3,2.2-0.3c4,0,7.2,3.2,7.2,7.2
				c0,2.4-1.2,4.5-2.9,5.8c1.2,0.6,2.4,1.6,3.6,3.3C75.9,49.3,74.6,58.5,74.3,60.7 M55,5.6C24.6,5.6,0,30,0,60s24.6,54.3,55,54.3
				c30.4,0,55-24.3,55-54.3S85.4,5.6,55,5.6"/>
		</g>
		<path id="Fill-34_2_" class="st4" d="M46.3,30.6c-2.1,0-3.8,1.7-3.8,3.8c0,2.1,1.7,3.8,3.8,3.8c0.5,0,1-0.1,1.5-0.3
			c0.2-0.2,0.3-0.4,0.4-0.6c0.3-0.7,0.7-2.1,0.8-4.3c0-0.5,0-1,0-1.4C48.2,31,47.3,30.6,46.3,30.6"/>
	</g>
	<text transform="matrix(1 0 0 1 1.3701 80.5537)" class="st0 st1 st6">WCQ</text>
	<path class="st4" d="M0.5,129.2c2-4,3.9-5.1,7.7-4c1.2,0.4,2.9,1.7,3,2.8c0.4,3.1,0.4,6.3,0,9.4c-0.1,1.2-1.5,2.2-2.7,3.7
		c0,0.1,0.2,0.9,0.3,1.7c-2.3,0.3-6.9-3.6-8.4-7C0.5,133.6,0.5,131.4,0.5,129.2z M3.2,132.6c0.1,1,0.1,2,0.2,3
		c0.2,1.6,1.1,2.6,2.8,2.6c1.7,0,2.7-0.8,2.8-2.5c0.1-2,0.1-4,0-5.9c-0.1-1.6-1-2.6-2.7-2.6c-1.7,0-2.6,0.9-2.9,2.5
		C3.3,130.6,3.3,131.6,3.2,132.6z"/>
	<path class="st4" d="M30,79.6c-0.7-0.7-1.6-1.2-2-2.1c-2.1-3.9-4.1-7.8-6.1-11.7c-3.2-6.2-3.5-12.7-2-19.4c0.1-0.4,0.1-0.8,0.1-1.2
		c-0.2,0-0.5-0.1-0.7-0.1c-0.4,3.1-0.9,6.2-1.2,8.3c-1.3-13,6.6-24.8,17.3-24.6c-0.9,0.5-1.5,0.9-2.4,1.4c3.5,0.4,7.1-1.1,10.5,2.1
		c-5.9-1.8-10.2-0.1-13.7,3.8c-3.3,3.7-5.1,8.2-5.8,13c-0.3,1.9-0.3,3.8-0.4,5.6c0.3,0.1,0.5,0.2,0.8,0.4c1.8-2.5,3.9-4.8,5.3-7.5
		c3.3-6.5,9.9-7,15.6-9c0.6-0.2,1.6,0.3,2.3,0.7c1.1,0.7,2,1.5,3,2.3c4.1,3.4,4.1,3.4,8.4,0.1c0.1-0.1,0.1-0.1,0.2-0.2
		c4.1-4.6,8.8-4.6,14.3-2.6c4.8,1.7,9.7,3.1,12.6,7.9c0.2,0.3,0.6,0.5,1,0.9c-0.4-11.3-12.4-18-21.7-12.2c-2.9,1.8-5.3,4.2-7.9,6.5
		c-1.2,1-2.3,1.7-3.3,0.3c0.7-0.4,1.6-0.6,2.1-1.1c3.7-4.2,7-8.8,13.1-9.6c0.4-0.1,0.8-0.7,1.1-1.1c0.5-0.5,0.9-1.2,1.5-1.4
		c5.2-2.1,10.8-0.7,14.3,3.7c4.5,5.6,6.2,12.3,6.1,19.4c-0.1,5.2-1.4,10.2-3.5,15c-0.6,1.4-1.3,2.7-2,4.1c-0.6,0.3-1.3,0.5-1.7,1
		c-1.2,1.5-2.4,3.1-3.8,5c0.5-1.8,0.8-3.1,1.1-4.4c1.4-2.7,2.9-5.4,4-8.2c0.8-2.1,0.9-4.5,1.3-6.7c0.6-3.4,0.5-6.5-2.4-9.1
		c-2-1.8-3.5-4.5-5.8-5.6c-3.5-1.7-7.6-2.6-11.4-3.4c-1.2-0.3-2.9,0.4-4,1.2c-2.3,1.6-4.4,3.5-6.6,5.3c-2,1.5-3.9,1.5-5.8-0.4
		c-1.6-1.6-3.2-3.1-5-4.6c-0.6-0.5-1.6-0.9-2.2-0.7c-5.5,1.8-11.6,2.8-14.3,9.2C29.8,51,28.9,52,28.1,53c-1.9,2.5-3.8,5-5.7,7.5
		c2.3,2.8,5,4.5,8.2,5.3c2.4,0.6,3.8-0.1,4.1-2.6c0.3-2.2,0.1-4.5-0.1-6.7c-0.1-2.2-0.4-4.3-0.7-6.5c0.2,0,0.4-0.1,0.6-0.1
		c0.3,1,0.5,2,0.9,3c1.2,3,2.2,6.1,3.8,8.9c1.5,2.6,3.6,5.1,7.4,4.5c0.4-0.1,0.8,0.3,1.3,0.5c0,0.2,0,0.4-0.1,0.6
		c-2.3,0-4.6,0-7.6,0c0.5,3.9,0.9,7.6,1.5,11.2c0.3,2,1.3,2.2,3,1.1c1.6-1.2,3.4-2.1,5.1-3.2c0.2,0.2,0.4,0.5,0.6,0.7
		c-2.9,2.9-6.7,5-7.3,9.8c1.8-1.2,3.6-2.4,5.4-3.6c0.2,0.2,0.4,0.4,0.5,0.6c-1.2,1.6-2.3,3.2-3.5,4.8c-1.2,1.5-2.8,3-0.7,5.7
		c0.8-1.3,1.7-2.2,1.9-3.3c0.7-4.1,3.1-5.8,7.1-6c1.6-0.1,3.4-0.7,4.6-1.6c2-1.6,3.5-3.7,5.2-5.7c0.7-0.8,1.2-1.6,1.7-2.5
		c-0.1-0.1-0.3-0.2-0.4-0.4c-1.6,0.9-3.3,1.7-4.9,2.6c-0.1-0.1-0.2-0.3-0.3-0.4c2.3-2.8,4.5-5.5,7-8.5c-2.9-0.7-5.2-1.2-7.6-1.7
		c2.9-1.6,5.7-2.9,8.1-4.6c1.8-1.3,3.5-3.1,4.7-5c1.9-2.9,3.3-6.1,5-9.2c0.5-0.8,1.2-1.5,1.8-2.3c0.1,2.2-0.4,4.3-0.6,6.3
		c-0.4,4.2,0.3,4.9,4.3,3.9c-0.1,1.1-0.4,2-0.4,2.9c0,0.8,0.2,2.1,0.7,2.4c0.6,0.3,1.9,0.1,2.5-0.3c1.1-0.9,1.8-2.1,2.7-3.2
		c-1,2.9-1.8,5.9-3.1,8.6c-1.2,2.4-4,2.4-5.5,0.2c-0.4-0.5-0.7-1.2-1.2-1.6c-0.6-0.5-1.3-0.8-2-1.2c-0.3,0.6-0.9,1.2-1,1.9
		c-0.4,3.7-1.1,7.5-0.9,11.1c0.1,2.9-0.7,4.8-3.1,6.2c-6.7,3.7-13.5,7.4-20.3,11.1c-0.6,0.3-1.3,0.5-1.9,0.8c-0.3,0.3-0.6,0.9-1,1
		c-3.6,1-7.1,1.9-11.1,2.9c0.4-2.9,0.8-5.4,1.2-7.9c0.3-1.5-0.1-2.6-1.3-3.7c-2.1-2.1-3.8-4.4-5.7-6.7c0.5,0.1,0.9,0.2,1.5,0.3
		c-3.5-6-6.8-11.8-10.1-17.6C23.7,69.4,26.6,74.6,30,79.6z M27,66.8c-0.2,0.2-0.4,0.3-0.6,0.5c2.4,6.4,6.6,11.5,12,16.5
		c0.3-6.3,0.4-11.9-0.9-18.2c-0.9,1.3-1.5,1.9-1.8,2.6c-0.7,2.2-2,2-3.7,1.2C30.4,68.5,28.7,67.6,27,66.8z M20.7,56.2
		c0.3,0,0.6,0,1,0c0-3.7,0-7.4,0-11.1c-0.1,0-0.2,0-0.3,0C21.1,48.8,20.9,52.5,20.7,56.2z"/>
	<path class="st4" d="M88.9,134.1c0,2.1,0.1,3.4-0.1,4.7c-0.1,0.5-0.7,1.1-1.1,1.1c-0.4,0-1.2-0.7-1.2-1.1
		c-0.1-4.4-0.1-8.8-0.1-13.4c2.4,0,4.6-0.4,6.6,0.1c1.4,0.4,3,1.8,3.7,3.1c0.9,1.7,0.2,3.6-1.4,4.9c-0.4,0.3-0.8,0.6-1.2,1
		c1.1,1.7,2.2,3.3,3.3,5c-0.2,0.3-0.3,0.5-0.5,0.8c-1-0.5-2.2-0.9-3-1.6c-0.9-0.8-1.4-2.1-2.2-3C91.2,135.1,90.3,134.8,88.9,134.1z
		 M91.2,127.6c-1.7-0.3-2.4,0.3-2.3,2.3c0.1,1.6,0.2,2.7,2.2,2.5c1.7-0.1,3.3-0.2,3.4-2.3C94.6,127.9,93.1,127.5,91.2,127.6z"/>
	<path class="st4" d="M48.8,95.1c0.6-0.3,1.3-0.5,1.9-0.8c6.2-2.7,12.5-5,18.5-8.2c3.3-1.8,6-4.9,8.9-7.5c-3,3.3-6,6.5-9.5,10.3
		c1.6-0.8,2.4-1.3,3.3-1.7c-0.8,0.7-1.4,1.6-2.3,2.2c-9.8,6.3-20.6,9.5-32,11.2c-2.9,0.4-5.9,0.6-8.9,0.9c0-0.2-0.1-0.5-0.1-0.7
		c1.6-0.2,3.3-0.4,4.9-0.6c9.3-0.9,18.3-2.8,26.2-8.2c-2.9,1.1-5.7,2.2-8.7,3.2C50.5,95.4,49.6,95.1,48.8,95.1z"/>
	<path class="st4" d="M16.9,125.6c0,3.1,0,6.3,0,9.4c0,2.5,1.2,3.4,3.7,3.1c1.5-0.2,2.2-0.9,2.1-2.5c-0.1-2.6,0-5.2,0-7.7
		c0-1.5,0.6-2.4,2.6-2.4c0,4.4,0,8.7,0,13.1c0,0.2-0.2,0.6-0.4,0.6c-2.6,0.3-5.2,0.9-7.7,0.6c-2.2-0.2-2.8-2.3-2.7-4.5
		c0-2.5,0-5,0-7.5C14.4,126.3,15,125.5,16.9,125.6z"/>
	<path class="st4" d="M74.4,125.4c3.5,0,6.5,0,9.4,0c0.2,0.2,0.3,0.4,0.5,0.6c-0.7,0.5-1.4,1.3-2.2,1.5c-1,0.3-2.2,0.1-3.2,0.1
		c-1.3-0.1-2,0.3-2,1.8c0,1.6,0.6,2.1,2.1,2c1.2-0.1,2.5,0,3.7,0c-0.1,1.7-0.1,1.7-5.3,2.4c-1.1,3.7-0.8,4.1,2.8,4.1
		c1.2,0,2.5,0,3.7,0c0.1,0.2,0.3,0.4,0.4,0.6c-0.7,0.5-1.4,1.1-2.1,1.5c-0.2,0.1-0.5,0-0.7,0c-7.1,0.2-7.1,0.2-7.1-6.9
		C74.4,130.6,74.4,128.1,74.4,125.4z"/>
	<path class="st4" d="M96.2,117.6c0-2.2-0.1-4.4,0.1-6.6c0-0.7,0.7-1.4,1.1-2.1c0.3,0.7,1,1.4,1,2.1c0.1,3.3,0,6.6,0,10
		c-6.4,0.9-4.6-5.3-7.5-7.9c0,2.3,0.1,4.3,0,6.3c0,0.6-0.6,1.1-0.9,1.7c-0.4-0.6-1.1-1.1-1.2-1.7c-0.1-2.8-0.1-5.7,0-8.5
		c0-0.7,0.6-1.4,0.9-2c0.9,0.5,2.2,0.7,2.6,1.4c1.1,1.9,1.9,4.1,2.8,6.1c0.2,0.4,0.4,0.8,0.7,1.2C95.9,117.6,96,117.6,96.2,117.6z"
		/>
	<path class="st4" d="M99.1,138.3c0.9-0.2,1.8-0.5,2.7-0.6c1.2-0.1,2.5,0.3,3.7,0.1c0.7-0.1,1.6-0.9,1.7-1.5c0.1-0.6-0.5-1.6-1.1-2
		c-1.1-0.7-2.4-1.1-3.6-1.7c-2-0.9-3.4-2.3-2.9-4.6c0.4-2.4,2.4-3.1,4.5-3.1c1.6,0,3.2,0.5,4.8,0.7c0.1,0.3,0.1,0.6,0.2,0.9
		c-0.8,0.3-1.7,0.8-2.5,0.9c-0.8,0.1-1.7-0.3-2.4-0.1c-0.7,0.2-1.5,0.7-1.8,1.4c-0.1,0.3,0.6,1.3,1.1,1.6c1.4,0.8,3,1.4,4.5,2.2
		c1.6,0.8,2.7,2.1,2.1,3.8c-0.5,1.4-1.6,2.9-2.9,3.6C105,141.1,102,140.5,99.1,138.3z"/>
	<path class="st4" d="M31.7,136.6c-0.6-3.1,1.9-1.7,3.2-2.6c-0.5-1.9-1-3.9-1.5-5.9c-0.2,0-0.4-0.1-0.6-0.1c-0.3,0.7-0.8,1.5-1,2.3
		c-0.7,2.7-1.4,5.5-2.1,8.2c-0.4,1.6-0.5,1.6-2.9,1.3c1.3-4.3,2.4-8.6,4-12.8c0.3-0.8,2-1.4,3.1-1.5c0.4-0.1,1.2,1.3,1.5,2.1
		c1.3,4,2.4,8.1,3.8,12.9c-1.4-0.6-2.7-0.8-2.8-1.2C36.2,136.2,33.9,136.5,31.7,136.6z"/>
	<path class="st4" d="M57.2,125.5c3.4,0,6.6,0,10,0c-1.5,3.9-5,0.9-7.2,2.7c0,0.8,0,1.8,0,3.1c2,0,3.8,0,6,0
		c-1.1,3.7-4.2,1.4-6.2,2.8c0,1.4,0.1,3-0.1,4.6c0,0.5-0.8,1.3-1.1,1.2c-0.6-0.1-1.4-0.7-1.4-1.2C57.2,134.4,57.2,130,57.2,125.5z"
		/>
	<path class="st4" d="M43.2,121.4c-0.8-0.4-1.8-0.7-2.5-1.3c-0.8-0.7-1.2-1.8-1.9-2.6c-0.4-0.4-1.1-0.7-1.7-0.6
		c-0.3,0-0.5,0.9-0.7,1.4c-0.4,0.9-0.7,1.9-1,2.9c-0.3-1-0.9-2.1-0.9-3.1c-0.1-2.9,0-5.8,0-8.6c3.9-1.1,7.2-0.6,8.3,1.5
		c1.4,2.5,0.1,4.3-1.9,5.8c0.9,1.4,1.8,2.8,2.7,4.2C43.5,121,43.4,121.2,43.2,121.4z M38.9,115.3c0.8-0.8,2-1.6,2.2-2.5
		c0.3-1.8-1.2-2-2.6-2.1c-1.6-0.1-2,0.6-2,2C36.5,114,36.7,115.1,38.9,115.3z"/>
	<path class="st4" d="M54.5,115.1c0,0.7,0,1.3,0,2c-0.2,3.3-1.3,4.4-4.4,4.5c-3.1,0.1-4.3-0.9-4.7-4.2c-0.2-1.4-0.2-2.8-0.1-4.2
		c0.4-4.1,2.9-5.7,6.8-4.2c1,0.4,1.8,1.6,2.2,2.7c0.4,1,0.2,2.3,0.3,3.4C54.6,115.1,54.6,115.1,54.5,115.1z M47.4,114.7
		c0,3.7,0.8,5.2,2.7,5c2.9-0.3,2.4-2.7,2.5-4.6c0.1-3.5-0.7-4.9-2.7-4.7C46.9,110.7,47.6,113.2,47.4,114.7z"/>
	<path class="st4" d="M24.8,109.4c0,2.6,0,5.1,0,7.7c0,1.8,0.8,2.6,2.5,2.6c1.7,0,2.5-0.8,2.4-2.7c-0.1-2-0.1-4,0-6
		c0.1-0.8,0.7-1.5,1.1-2.2c0.3,0.1,0.6,0.2,1,0.3c0,3.5,0,7,0,10.6c0,0.2-0.1,0.6-0.2,0.7c-1.9,0.3-3.8,0.8-5.7,0.9
		c-1.8,0-2.9-1.3-3.1-3.1c-0.2-2.5-0.2-5,0-7.5c0-0.6,0.8-1.2,1.3-1.8C24.3,109.1,24.6,109.2,24.8,109.4z"/>
	<path class="st4" d="M74.5,114.9c-0.7,0.3-1.5,0.7-2.2,0.8c-3.1,0.2-3.2,0.2-2.7,3.6c1.8,0.1,3.7,0.2,5.6,0.3
		c-0.4,1.9-1.2,2-7.7,1.5c0-3.9,0-7.8,0-11.9c2.6,0,5.2,0,7.8,0c0.1,0.3,0.2,0.5,0.3,0.8c-0.7,0.3-1.4,0.7-2.2,0.8
		c-1,0.1-2-0.1-3,0.2c-0.4,0.1-0.9,1.1-0.9,1.7c0,0.5,0.7,1.3,1.2,1.4c1.2,0.2,2.4,0.1,3.6,0.1C74.4,114.2,74.5,114.6,74.5,114.9z"
		/>
	<path class="st4" d="M42.9,125.6c0,3.3,0.1,6.5,0,9.8c-0.1,1.8,0.4,2.6,2.4,2.4c1.6-0.1,3.1,0,4.7,0c0.1,0.2,0.3,0.5,0.4,0.7
		c-0.7,0.5-1.4,1.4-2.1,1.4c-2.1,0.2-4.2,0.2-6.2,0c-0.6-0.1-1.6-1.1-1.6-1.8c-0.2-3.6,0-7.3-0.1-11C40.2,125.4,40.9,125,42.9,125.6
		z"/>
	<path class="st4" d="M12.7,120.9c0-4,0-7.9,0-11.9c2.7,0,5.2,0,7.8,0c0.1,0.2,0.2,0.4,0.3,0.5c-0.6,0.4-1.1,0.9-1.7,1.1
		c-1,0.2-2.1-0.1-3,0.1c-0.6,0.2-1.3,1-1.5,1.7c-0.1,0.4,0.8,1.3,1.4,1.4c1.1,0.2,2.3,0.1,3.5,0.1c0,2.3-1.5,1.8-2.6,1.8
		c-1.4,0-2.5,0-2.4,1.9c0.1,1.2,0.4,1.8,1.8,1.8c1.4-0.1,2.8,0,4.3,0C19.9,121.4,18.2,121.7,12.7,120.9z"/>
	<path class="st4" d="M57,108.9c2,0,3.6-0.1,5.1,0c2.3,0.2,3.8,1.8,3.7,3.9c-0.1,2.3-1.5,3.7-3.6,3.7c-2.6,0-3.7,0.8-3.3,3.4
		c0,0.4-0.5,0.8-0.8,1.2c-0.4-0.4-1.1-0.8-1.1-1.2C56.9,116.3,57,112.8,57,108.9z M61.6,115.3c0.7-0.9,1.9-1.7,2-2.6
		c0.2-1.8-1.4-1.9-2.8-2c-1.7-0.1-1.8,0.9-1.8,2.2C58.9,114.4,59.5,115,61.6,115.3z"/>
	<path class="st4" d="M87.1,121.2c-2.9-0.1-3-4.8-6.5-2.6c0-0.4,0-0.8,0-1.2c0.9-0.5,1.8-0.9,3-1.6c-0.4-1.5-0.8-3.1-1.2-4.7
		c-0.3,0-0.5-0.1-0.8-0.1c-0.5,1.9-1,3.9-1.6,5.7c-0.6,1.5,0.1,4-3.2,4.5c1.2-4,2-7.4,3.3-10.7c0.3-0.8,1.7-1.4,2.7-1.7
		c0.2-0.1,1.1,1.2,1.3,2C85.2,114.2,86.1,117.4,87.1,121.2z"/>
	<path class="st4" d="M52,125.6c1.8-0.6,2.5-0.1,2.5,1.5c-0.1,3.7,0,7.5-0.1,11.2c0,0.6-0.8,1.1-1.2,1.7c-0.4-0.6-1.2-1.1-1.2-1.7
		C52,134.1,52,129.9,52,125.6z"/>
	<path class="st4" d="M71.9,125.7c0,4.3,0,8.6-0.1,12.9c0,0.5-0.8,0.9-1.2,1.4c-0.4-0.5-1.1-1-1.1-1.5c-0.1-3.9-0.1-7.8,0-11.7
		c0-0.6,1-1.2,1.6-1.8C71.4,125.3,71.6,125.5,71.9,125.7z"/>
	<path class="st4" d="M37.4,27.7c2.8,0.6,5.6,1.3,8.5,1.9c0,0.2-0.1,0.4-0.1,0.6c-2.8-0.5-5.7-1.1-8.5-1.6
		C37.3,28.3,37.3,28,37.4,27.7z"/>
	<path class="st4" d="M20.7,56.2c0.2-3.7,0.4-7.4,0.6-11.1c0.1,0,0.2,0,0.3,0c0,3.7,0,7.4,0,11.1C21.3,56.2,21,56.2,20.7,56.2z"/>
	<path class="st4" d="M61.6,51.1c2-1.4,6.5-1.3,8,0.4c0.4,0.5,0.8,1.5,0.6,2c-0.8,2.3-1.6,4.7-3,6.6c-1.9,2.5-2.8,2.2-4.6-0.6
		c2.9,0.3,4.9-1.5,5.2-5C68.2,51.8,67.8,51.6,61.6,51.1z"/>
	<circle class="st4" cx="54.8" cy="64.6" r="54.8"/>
</g>
</svg>
