<?xml version="1.0" encoding="utf-8"?>
<!-- Generator: Adobe Illustrator 20.0.0, SVG Export Plug-In . SVG Version: 6.00 Build 0)  -->
<svg version="1.1" id="Layer_1" xmlns="http://www.w3.org/2000/svg" xmlns:xlink="http://www.w3.org/1999/xlink" x="0px" y="0px"
	 viewBox="0 0 55 90" style="enable-background:new 0 0 55 90;" xml:space="preserve">
<style type="text/css">
	.st0{fill:#FFFFFF;}
</style>
<title>premier_league_kambi_02</title>
<desc>Created with Sketch.</desc>
<g id="Page-1">
	<path id="Shape" class="st0" d="M7.2,59.8c-0.4-0.4-0.9-0.7-1.4-0.8c-0.6-0.2-1.3-0.2-2.3-0.2H1.3v12.5h2v-5h0.8
		c1.3,0,2.3-0.3,3.1-1c0.8-0.7,1.2-1.6,1.2-2.7C8.3,61.4,8,60.5,7.2,59.8L7.2,59.8z M6.4,62.4c0,1.3-0.8,1.9-2.5,1.9H3.3v-3.7h0.6
		C5.6,60.6,6.4,61.2,6.4,62.4L6.4,62.4z"/>
	<path id="Shape_1_" class="st0" d="M11,67.1c0-1.4,0.4-2.2,1.4-2.2c0.3,0,0.6,0.1,0.9,0.3l0.1,0.1l0.9-1.8l-0.1-0.1
		c-0.5-0.3-1.1-0.4-1.5-0.4c-0.4,0-0.7,0.1-0.9,0.2c-0.2,0.1-0.5,0.3-0.8,0.6v-0.6H9.1v7.9H11V67.1L11,67.1z"/>
	<path id="Shape_2_" class="st0" d="M18.3,71.4c0.4,0,0.8-0.1,1.1-0.1c0.3-0.1,0.7-0.2,1-0.4c0.3-0.2,0.6-0.4,0.8-0.7
		c0.3-0.3,0.5-0.6,0.7-1.1l0.1-0.1l-1.6-0.9l-0.1,0.1c-0.3,0.6-0.7,0.9-0.9,1.2c-0.3,0.2-0.7,0.3-1.1,0.3c-0.6,0-1-0.2-1.4-0.6
		c-0.3-0.3-0.6-0.8-0.6-1.4h5.6v-0.5c0-1.3-0.3-2.3-1-3.1c-0.7-0.7-1.6-1.1-2.8-1.1c-1.2,0-2.1,0.4-2.8,1.2c-0.7,0.8-1.1,1.8-1.1,3
		c0,1.2,0.3,2.3,1.1,3C16.2,71,17.1,71.4,18.3,71.4L18.3,71.4z M16.6,66.1c0.1-0.2,0.1-0.3,0.2-0.5s0.2-0.3,0.4-0.4
		c0.2-0.1,0.3-0.2,0.5-0.3c0.2-0.1,0.4-0.1,0.6-0.1c0.9,0,1.4,0.4,1.7,1.3H16.6L16.6,66.1z"/>
	<path id="Shape_3_" class="st0" d="M27.9,66.8v4.3h1.9v-4.1c0-0.8,0.1-1.4,0.3-1.8c0.2-0.3,0.6-0.5,1-0.5c0.4,0,0.7,0.2,0.9,0.4
		c0.2,0.3,0.3,0.8,0.3,1.6v4.4h1.9v-4.8c0-2.2-0.9-3.2-2.7-3.2c-0.9,0-1.7,0.4-2.3,1.1c-0.5-0.7-1.2-1.1-2.1-1.1
		c-0.4,0-0.7,0.1-1,0.2c-0.2,0.1-0.5,0.3-0.8,0.6v-0.6h-1.9v7.9h1.9v-4.1c0-0.8,0.1-1.4,0.3-1.8c0.2-0.3,0.6-0.6,1.1-0.6
		C27.6,64.8,27.9,65.5,27.9,66.8L27.9,66.8z"/>
	<rect id="Rectangle-path" x="36.1" y="63.3" class="st0" width="1.9" height="7.9"/>
	<path id="Shape_4_" class="st0" d="M37.1,61.3c0.3,0,0.6-0.1,0.9-0.3c0.2-0.2,0.3-0.6,0.3-0.9c0-0.3-0.1-0.6-0.3-0.9
		c-0.2-0.2-0.6-0.3-0.9-0.3c-0.3,0-0.6,0.1-0.9,0.3c-0.2,0.2-0.3,0.5-0.3,0.8c0,0.3,0.1,0.7,0.3,0.9C36.5,61.2,36.7,61.3,37.1,61.3
		L37.1,61.3z"/>
	<path id="Shape_5_" class="st0" d="M47.1,69.1L47.1,69.1l-1.6-0.9l-0.1,0.1c-0.3,0.6-0.7,0.9-0.9,1.2c-0.3,0.2-0.7,0.3-1.1,0.3
		c-0.6,0-1-0.2-1.4-0.6c-0.3-0.3-0.6-0.8-0.6-1.4H47v-0.5c0-1.3-0.3-2.3-1-3.1c-0.7-0.7-1.6-1.1-2.8-1.1s-2.1,0.4-2.8,1.2
		c-0.7,0.8-1.1,1.8-1.1,3c0,1.2,0.3,2.3,1.1,3c0.7,0.8,1.7,1.1,2.8,1.1c0.4,0,0.8-0.1,1.1-0.1c0.3-0.1,0.7-0.2,1-0.4
		c0.3-0.2,0.6-0.4,0.8-0.7C46.6,69.8,46.9,69.5,47.1,69.1L47.1,69.1z M41.6,66.1c0.1-0.2,0.1-0.3,0.2-0.5c0.1-0.2,0.2-0.3,0.4-0.4
		s0.3-0.2,0.5-0.3c0.2-0.1,0.4-0.1,0.6-0.1c0.9,0,1.4,0.4,1.7,1.3H41.6L41.6,66.1z"/>
	<path id="Shape_6_" class="st0" d="M50.5,67.1c0-1.4,0.4-2.2,1.4-2.2c0.3,0,0.6,0.1,0.9,0.3l0.1,0.1l0.9-1.8l-0.1-0.1
		c-0.5-0.3-1.1-0.4-1.5-0.4c-0.4,0-0.7,0.1-0.9,0.2c-0.2,0.1-0.5,0.3-0.8,0.6v-0.6h-1.9v7.9h1.9V67.1L50.5,67.1z"/>
	<polygon id="Shape_7_" class="st0" points="3.3,72.4 1.3,72.4 1.3,84.8 6.9,84.8 6.9,82.9 3.3,82.9 	"/>
	<path id="Shape_8_" class="st0" d="M14,81.8c-0.3,0.6-0.7,0.9-0.9,1.2c-0.3,0.2-0.7,0.3-1.1,0.3c-0.6,0-1-0.2-1.4-0.6
		c-0.3-0.3-0.6-0.8-0.6-1.4h5.6v-0.5c0-1.3-0.3-2.3-1-3.1c-0.7-0.7-1.6-1.1-2.8-1.1S9.7,77.1,9,77.9c-0.7,0.8-1.1,1.8-1.1,3
		c0,1.2,0.3,2.3,1.1,3c0.7,0.8,1.7,1.1,2.8,1.1c0.4,0,0.8-0.1,1.1-0.1c0.3-0.1,0.7-0.2,1-0.4c0.3-0.2,0.6-0.4,0.8-0.7
		c0.3-0.3,0.5-0.6,0.7-1.1l0.1-0.1L14,81.8L14,81.8L14,81.8z M10.1,79.8c0.1-0.2,0.1-0.3,0.2-0.5c0.1-0.2,0.2-0.3,0.4-0.4
		c0.2-0.1,0.3-0.2,0.5-0.3c0.2-0.1,0.4-0.1,0.6-0.1c0.9,0,1.4,0.4,1.7,1.3H10.1L10.1,79.8z"/>
	<path id="Shape_9_" class="st0" d="M23.3,77.7c-0.7-0.7-1.5-1-2.4-1c-1.1,0-1.9,0.4-2.7,1.2c-0.7,0.8-1.1,1.8-1.1,2.9
		c0,1.2,0.3,2.2,1.1,3c0.7,0.8,1.6,1.2,2.7,1.2c0.8,0,1.6-0.3,2.3-0.9v0.7h1.9v-7.9h-1.9V77.7L23.3,77.7z M22.8,82.6
		c-0.4,0.4-0.9,0.7-1.6,0.7c-0.6,0-1.1-0.2-1.5-0.7c-0.4-0.4-0.6-1.1-0.6-1.8c0-0.7,0.2-1.3,0.6-1.7s0.9-0.7,1.5-0.7
		s1.2,0.2,1.6,0.7c0.4,0.4,0.6,1.1,0.6,1.8C23.5,81.6,23.2,82.2,22.8,82.6L22.8,82.6z"/>
	<path id="Shape_10_" class="st0" d="M33.2,77.7c-0.7-0.7-1.4-1-2.4-1c-1.1,0-2.1,0.4-2.7,1.3c-0.6,0.8-0.9,1.8-0.9,2.9
		c0,1.2,0.3,2.2,1.1,2.9c0.7,0.8,1.6,1.2,2.7,1.2c0.9,0,1.7-0.3,2.4-1V85c0,1.6-0.6,2.3-1.9,2.3c-0.7,0-1.2-0.2-1.6-0.7
		c-0.2-0.2-0.3-0.5-0.3-0.8v-0.1h-1.9v0.1c0.1,1,0.5,1.8,1.2,2.4c0.7,0.6,1.6,0.8,2.6,0.8c1.2,0,2.2-0.4,2.9-1.2
		c0.4-0.4,0.6-0.9,0.8-1.6c0.1-0.2,0.1-0.4,0.1-0.7c0-0.3,0.1-0.6,0.1-1v-7.6h-1.9v0.8H33.2z M32.8,82.5c-0.4,0.5-0.9,0.7-1.6,0.7
		c-0.7,0-1.2-0.2-1.6-0.7c-0.3-0.4-0.5-1-0.5-1.7s0.2-1.3,0.5-1.7c0.4-0.5,0.9-0.7,1.6-0.7c0.6,0,1.1,0.2,1.5,0.7s0.6,1.1,0.6,1.8
		S33.1,82.1,32.8,82.5L32.8,82.5z"/>
	<path id="Shape_11_" class="st0" d="M42.3,81.4c0,1.3-0.5,1.9-1.4,1.9s-1.4-0.6-1.4-1.9v-4.5h-1.9v4.6c0,0.7,0.1,1.3,0.2,1.6
		c0.2,0.4,0.4,0.8,0.8,1.1c0.6,0.6,1.4,0.8,2.3,0.8s1.7-0.3,2.3-0.8c0.4-0.3,0.6-0.7,0.8-1.1c0.2-0.4,0.2-1,0.2-1.6v-4.6h-1.9V81.4
		L42.3,81.4z"/>
	<path id="Shape_12_" class="st0" d="M52.2,81.8L52.2,81.8c-0.4,0.6-0.7,1-1,1.2c-0.3,0.2-0.7,0.3-1.1,0.3c-0.6,0-1-0.2-1.4-0.6
		c-0.3-0.3-0.6-0.8-0.6-1.4h5.6v-0.5c0-1.3-0.3-2.3-1-3.1c-0.7-0.7-1.6-1.1-2.8-1.1s-2.1,0.4-2.8,1.2c-0.7,0.8-1.1,1.8-1.1,3
		c0,1.2,0.3,2.3,1.1,3c0.7,0.8,1.7,1.1,2.8,1.1c0.4,0,0.8-0.1,1.1-0.1c0.3-0.1,0.7-0.2,1-0.4c0.3-0.2,0.6-0.4,0.8-0.7
		c0.3-0.3,0.5-0.6,0.7-1.1l0.1-0.1L52.2,81.8L52.2,81.8z M48.3,79.8c0.1-0.2,0.1-0.3,0.2-0.5c0.1-0.2,0.2-0.3,0.4-0.4
		c0.2-0.1,0.3-0.2,0.5-0.3s0.4-0.1,0.6-0.1c0.9,0,1.4,0.4,1.7,1.3H48.3L48.3,79.8z"/>
	<path class="st0" d="M54.3,27.4c0-0.1,0-0.2,0-0.3c-0.3,0.6-0.7,1.5-1.2,2.2c-0.9,1.3-2.1,2.1-2.1,2.1s-0.6-1.7-2.1-4.5
		c-1.1-2.2-2.7-3.5-2.7-3.5s0.3-2.3,0.7-5.2c0.3-2.8-0.1-5-0.1-5s1.1,0.1,2.9,1c1,0.5,1.6,1.1,2,1.5c-3.1-6.6-8.9-11.8-16-14.1
		c0.2,0.4,0.5,0.9,0.9,1.4C37.3,4,38,5.8,38,5.8s-2.7,0.3-5.1,0.6c-3.1,0.3-4.8,1.2-4.8,1.2s-2.6-1.6-4.3-2.2s-4.2-1-4.2-1
		s0.5-1.3,1.8-2.4c1.1-0.9,1.9-1.3,2.3-1.4c-8.3,1.1-15.4,6-19.5,12.8C5,12.3,6,11.3,7,10.8c1.3-0.6,3-0.4,3-0.4s-1.2,3.2-1.4,4.9
		c-0.4,3.1-0.2,4.5-0.2,4.5S6.6,21,4.8,23.5c-1.8,2.6-2.2,3.8-2.2,3.8s-0.8-0.6-1.3-2.5C1,24,0.9,22.4,0.9,21.4c0,0,0,0,0,0
		c-0.4,1.9-0.7,3.9-0.7,6c0,5.8,1.8,11.2,5,15.6c-0.1-0.6-0.2-1.5-0.1-2.6c0.1-1.1,0.2-2.1,0.2-2.1s1.3,1.4,3.6,2.5
		c3.1,1.6,4.5,2.1,4.5,2.1s1.2,2.7,2.2,3.9c1,1.2,3.5,3.5,3.5,3.5s-1,0.4-2.1,0.7c-0.9,0.2-1.9,0.2-2.5,0.2c3.8,2,8.1,3.2,12.7,3.2
		c2.7,0,5.2-0.4,7.6-1.1c-0.4-0.2-1.1-0.4-2.1-0.8c-1.1-0.4-2.1-0.8-2.1-0.8s0.2,0,2.9-2.6c2.7-2.6,3.4-4.3,3.4-4.3s1.9,0.1,4.3-0.7
		c2.8-0.9,4.9-1.9,4.9-1.9s0.4,0.7,0.4,1.9c0,0.7-0.1,1.7-0.2,2.3C51.3,41.4,54.3,34.8,54.3,27.4z M34.4,31.9
		c-2.1,4.6-2.8,4.9-2.9,4.8c0.1,0.1-0.2,0.5-6-0.1c-6.6-0.6-6.1-1-6-1.1c-0.1,0-0.6-0.1-1.8-5.4c-1.3-6-0.7-6.6-0.7-6.6
		s2.1-1.6,4.5-2.9c2.3-1.3,5.7-3,5.7-3s1.3-0.1,5.7,3.8c4.4,3.8,3.8,4.1,3.8,4.1S37.1,26.2,34.4,31.9z"/>
</g>
</svg>
