<?xml version="1.0" encoding="utf-8"?>
<!-- Generator: Adobe Illustrator 19.2.1, SVG Export Plug-In . SVG Version: 6.00 Build 0)  -->
<svg version="1.1" xmlns="http://www.w3.org/2000/svg" xmlns:xlink="http://www.w3.org/1999/xlink" x="0px" y="0px"
	 viewBox="0 0 109 108" style="enable-background:new 0 0 109 108;" xml:space="preserve">
<style type="text/css">
	.st0{clip-path:url(#SVGID_2_);}
	.st1{clip-path:url(#SVGID_4_);}
	.st2{clip-path:url(#SVGID_6_);fill:#FFFFFF;}
	.st3{clip-path:url(#SVGID_8_);}
	.st4{clip-path:url(#SVGID_10_);}
	.st5{clip-path:url(#SVGID_12_);fill:#FFFFFF;}
	.st6{enable-background:new    ;}
	.st7{clip-path:url(#SVGID_14_);}
	.st8{clip-path:url(#SVGID_16_);}
	.st9{clip-path:url(#SVGID_18_);fill:#FFFFFF;}
</style>
<g id="Layer_2">
</g>
<g id="Layer_1">
	<g>
		<g>
			<g>
				<defs>
					<rect id="SVGID_1_" width="109" height="108"/>
				</defs>
				<clipPath id="SVGID_2_">
					<use xlink:href="#SVGID_1_"  style="overflow:visible;"/>
				</clipPath>
				<g class="st0">
					<g>
						<defs>
							<path id="SVGID_3_" d="M54.5,0.1c-30,0-54.3,24-54.3,53.6s24.3,53.6,54.3,53.6s54.3-24,54.3-53.6
								C108.9,24.1,84.6,0.1,54.5,0.1 M67.7,64.4c-3.3,7.4-8,10.7-7.6,14.5c0.8,6.1,7.1,9.4,5.9,11.5c-1.2,2.2-8.4,3-11.4,3
								c-2.9,0-10.1-0.7-11.4-2.9C42,88.4,48.3,85.1,49,79c0.5-3.7-4.3-7-7.6-14.4c-4.3-9.4-4.5-20.4-2.9-25.1
								c0.3-0.9,0.8-1.7,1.3-2.3c-1-3.7-1.3-10.7,3.3-13c0.7-0.4,1.5-0.5,2.3-0.5s2.1,0.2,2.9,0.6c-0.1-0.8-0.2-1.5-0.4-1.7
								c-0.7-1.1-3.6-0.8-4.8-1.1c-1.7-0.5-2.4-6-1.9-6.6c0.5-0.4,4.9-0.7,13-0.7s12.6,0.3,13.1,0.6c0.6,0.5-0.2,6.1-1.8,6.6
								c-1.2,0.3-4,0-4.8,1.1c-0.1,0.2-0.3,0.9-0.4,1.8c0.9-0.5,2.3-0.7,3.2-0.7c0.8,0,1.6,0.1,2.3,0.5c4.6,2.3,4.3,9.4,3.3,13.1
								c0.5,0.6,0.9,1.3,1.2,2.1C72.1,43.9,71.9,55,67.7,64.4"/>
						</defs>
						<clipPath id="SVGID_4_">
							<use xlink:href="#SVGID_3_"  style="overflow:visible;"/>
						</clipPath>
						<g class="st1">
							<g>
								<defs>
									<rect id="SVGID_5_" width="109" height="108"/>
								</defs>
								<clipPath id="SVGID_6_">
									<use xlink:href="#SVGID_5_"  style="overflow:visible;"/>
								</clipPath>
								<rect x="-4.8" y="-4.9" class="st2" width="118.7" height="117.3"/>
							</g>
						</g>
					</g>
					<g>
						<defs>
							<rect id="SVGID_7_" width="109" height="108"/>
						</defs>
						<clipPath id="SVGID_8_">
							<use xlink:href="#SVGID_7_"  style="overflow:visible;"/>
						</clipPath>
						<g class="st3">
							<g>
								<defs>
									<path id="SVGID_9_" d="M60.4,27.2c0,2.6,0.4,5.4,1.5,5.9s3,0.9,4.8,1.8c0.9-3.3-0.3-7-1.6-8.1C64.1,25.9,62,25.8,60.4,27.2
										"/>
								</defs>
								<clipPath id="SVGID_10_">
									<use xlink:href="#SVGID_9_"  style="overflow:visible;"/>
								</clipPath>
								<g class="st4">
									<g>
										<defs>
											<rect id="SVGID_11_" width="109" height="108"/>
										</defs>
										<clipPath id="SVGID_12_">
											<use xlink:href="#SVGID_11_"  style="overflow:visible;"/>
										</clipPath>
										<rect x="55.4" y="21.1" class="st5" width="16.6" height="18.8"/>
									</g>
								</g>
							</g>
							<g class="st6">
								<defs>
									<rect id="SVGID_13_" class="st6" width="109" height="108"/>
								</defs>
								<clipPath id="SVGID_14_">
									<use xlink:href="#SVGID_13_"  style="overflow:visible;"/>
								</clipPath>
								<g class="st7">
									<g>
										<defs>
											<path id="SVGID_15_" d="M44,26.9c-1.3,1.1-2.4,4.8-1.6,8.1c1.7-0.9,3.6-1.3,4.6-1.8c1.1-0.5,1.5-3.4,1.5-6.1
												C47,25.8,45.1,25.9,44,26.9"/>
										</defs>
										<clipPath id="SVGID_16_">
											<use xlink:href="#SVGID_15_"  style="overflow:visible;"/>
										</clipPath>
										<g class="st8">
											<g>
												<defs>
													<rect id="SVGID_17_" width="109" height="108"/>
												</defs>
												<clipPath id="SVGID_18_">
													<use xlink:href="#SVGID_17_"  style="overflow:visible;"/>
												</clipPath>
												<rect x="37.2" y="21.1" class="st9" width="16.4" height="18.8"/>
											</g>
										</g>
									</g>
								</g>
							</g>
						</g>
					</g>
				</g>
			</g>
		</g>
	</g>
</g>
</svg>
