<?xml version="1.0" encoding="utf-8"?>
<!-- Generator: Adobe Illustrator 19.2.1, SVG Export Plug-In . SVG Version: 6.00 Build 0)  -->
<svg version="1.1" id="Layer_1" xmlns="http://www.w3.org/2000/svg" xmlns:xlink="http://www.w3.org/1999/xlink" x="0px" y="0px"
	 viewBox="0 0 841.9 595.3" style="enable-background:new 0 0 841.9 595.3;" xml:space="preserve">
<style type="text/css">
	.st0{enable-background:new    ;}
	.st1{clip-path:url(#SVGID_2_);}
	.st2{clip-path:url(#SVGID_4_);}
	.st3{clip-path:url(#SVGID_6_);fill:#FFFFFF;}
	.st4{clip-path:url(#SVGID_8_);}
	.st5{clip-path:url(#SVGID_10_);fill:#FFFFFF;}
	.st6{clip-path:url(#SVGID_12_);}
	.st7{clip-path:url(#SVGID_14_);fill:#FFFFFF;}
</style>
<g class="st0">
	<g>
		<defs>
			<rect id="SVGID_1_" x="355.3" y="227.4" width="109" height="108"/>
		</defs>
		<clipPath id="SVGID_2_">
			<use xlink:href="#SVGID_1_"  style="overflow:visible;"/>
		</clipPath>
		<g class="st1">
			<defs>
				<path id="SVGID_3_" d="M409.8,227.5c-30,0-54.3,24-54.3,53.6c0,29.6,24.3,53.6,54.3,53.6s54.3-24,54.3-53.6
					C464.2,251.5,439.9,227.5,409.8,227.5 M423,291.8c-3.3,7.4-8,10.7-7.6,14.5c0.8,6.1,7.1,9.4,5.9,11.5c-1.2,2.2-8.4,3-11.4,3
					c-2.9,0-10.1-0.7-11.4-2.9c-1.2-2.1,5.1-5.4,5.8-11.5c0.5-3.7-4.3-7-7.6-14.4c-4.3-9.4-4.5-20.4-2.9-25.1
					c0.3-0.9,0.8-1.7,1.3-2.3c-1-3.7-1.3-10.7,3.3-13c0.7-0.4,1.5-0.5,2.3-0.5c0.8,0,2.1,0.2,2.9,0.6c-0.1-0.8-0.2-1.5-0.4-1.7
					c-0.7-1.1-3.6-0.8-4.8-1.1c-1.7-0.5-2.4-6-1.9-6.6c0.5-0.4,4.9-0.7,13-0.7c8.1,0,12.6,0.3,13.1,0.6c0.6,0.5-0.2,6.1-1.8,6.6
					c-1.2,0.3-4,0-4.8,1.1c-0.1,0.2-0.3,0.9-0.4,1.8c0.9-0.5,2.3-0.7,3.2-0.7c0.8,0,1.6,0.1,2.3,0.5c4.6,2.3,4.3,9.4,3.3,13.1
					c0.5,0.6,0.9,1.3,1.2,2.1C427.4,271.3,427.2,282.4,423,291.8"/>
			</defs>
			<clipPath id="SVGID_4_">
				<use xlink:href="#SVGID_3_"  style="overflow:visible;"/>
			</clipPath>
			<g class="st2">
				<defs>
					<rect id="SVGID_5_" x="355.3" y="227.4" width="109" height="108"/>
				</defs>
				<clipPath id="SVGID_6_">
					<use xlink:href="#SVGID_5_"  style="overflow:visible;"/>
				</clipPath>
				<rect x="350.5" y="222.5" class="st3" width="118.7" height="117.3"/>
			</g>
		</g>
		<g class="st1">
			<defs>
				<path id="SVGID_7_" d="M415.7,254.6c0,2.6,0.4,5.4,1.5,5.9c1.1,0.5,3,0.9,4.8,1.8c0.9-3.3-0.3-7-1.6-8.1
					C419.4,253.3,417.3,253.2,415.7,254.6"/>
			</defs>
			<clipPath id="SVGID_8_">
				<use xlink:href="#SVGID_7_"  style="overflow:visible;"/>
			</clipPath>
			<g class="st4">
				<defs>
					<rect id="SVGID_9_" x="355.3" y="227.4" width="109" height="108"/>
				</defs>
				<clipPath id="SVGID_10_">
					<use xlink:href="#SVGID_9_"  style="overflow:visible;"/>
				</clipPath>
				<rect x="410.7" y="248.5" class="st5" width="16.6" height="18.8"/>
			</g>
		</g>
		<g class="st1">
			<defs>
				<path id="SVGID_11_" d="M399.3,254.3c-1.3,1.1-2.4,4.8-1.6,8.1c1.7-0.9,3.6-1.3,4.6-1.8c1.1-0.5,1.5-3.4,1.5-6.1
					C402.3,253.2,400.4,253.3,399.3,254.3"/>
			</defs>
			<clipPath id="SVGID_12_">
				<use xlink:href="#SVGID_11_"  style="overflow:visible;"/>
			</clipPath>
			<g class="st6">
				<defs>
					<rect id="SVGID_13_" x="355.3" y="227.4" width="109" height="108"/>
				</defs>
				<clipPath id="SVGID_14_">
					<use xlink:href="#SVGID_13_"  style="overflow:visible;"/>
				</clipPath>
				<rect x="392.5" y="248.5" class="st7" width="16.4" height="18.8"/>
			</g>
		</g>
	</g>
</g>
</svg>
