<?xml version="1.0" encoding="utf-8"?>
<!-- Generator: Adobe Illustrator 20.1.0, SVG Export Plug-In . SVG Version: 6.00 Build 0)  -->
<svg version="1.1" id="Layer_1" xmlns="http://www.w3.org/2000/svg" xmlns:xlink="http://www.w3.org/1999/xlink" x="0px" y="0px"
	 viewBox="0 0 90 79.7" style="enable-background:new 0 0 90 79.7;" xml:space="preserve">
<style type="text/css">
	.st0{clip-path:url(#SVGID_2_);fill:#FFFFFF;}
	.st1{fill:#FFFFFF;}
</style>
<g>
	<g id="Layer_2">
	</g>
	<g>
		<g>
			<defs>
				<circle id="SVGID_1_" cx="45" cy="33" r="33"/>
			</defs>
			<clipPath id="SVGID_2_">
				<use xlink:href="#SVGID_1_"  style="overflow:visible;"/>
			</clipPath>
			<path class="st0" d="M76.5,35.4c-1.1,1.6-2.6,2.6-2.6,2.6s-0.7-2.1-2.5-5.5C70,29.7,68,28.2,68,28.2s0.4-2.8,0.8-6.4
				c0.4-3.5,0-6.1,0-6.1s1.4,0.2,3.5,1.2c1.3,0.6,2.1,1.4,2.5,1.9C71,10.8,63.9,4.5,55.2,1.6c0.3,0.4,0.7,1.1,1.2,1.7
				c0.8,1.1,1.7,3.2,1.7,3.2S54.8,7,51.9,7.3C48.1,7.8,46,8.9,46,8.9s-3.2-1.9-5.3-2.7c-2.1-0.8-5.1-1.2-5.1-1.2s0.6-1.6,2.2-3
				c1.4-1.2,2.4-1.6,3-1.7c-10,1.3-18.5,7-23.7,15.1c0.9-1.1,2-2.1,3-2.7c1.5-0.8,3.7-0.6,3.7-0.6s-1.5,3.9-1.8,6
				c-0.5,3.8-0.3,5.5-0.3,5.5s-2,1.6-4.3,4.7c-2.3,3.1-2.7,4.6-2.7,4.6s-1-0.8-1.6-3.1c-0.3-1.1-0.4-2.9-0.4-4.1
				C12.2,28.1,12,30.5,12,33c0,7.1,2.3,13.7,6.1,19.1c-0.2-0.7-0.3-1.8-0.2-3.1c0.1-1.4,0.3-2.5,0.3-2.5s1.6,1.7,4.4,3.1
				c3.7,1.8,5.5,2.4,5.5,2.4s1.5,3.2,2.7,4.8s4.2,4.3,4.2,4.3s-1.2,0.6-2.6,0.9c-1.1,0.2-2.2,0.3-2.9,0.2c4.6,2.4,9.9,3.8,15.4,3.8
				c3.3,0,6.4-0.5,9.4-1.4c-0.5-0.2-1.4-0.5-2.6-1c-1.3-0.6-2.6-1-2.6-1s0.3,0,3.6-3.2c3.3-3.2,4.1-5.3,4.1-5.3s2.4,0.1,5.3-0.9
				c3.4-1.1,6-2.4,6-2.4s0.5,0.9,0.6,2.4c0,0.8-0.1,2-0.2,2.8C74.5,50.2,78,42,78,33c0-0.2,0-0.3,0-0.5
				C77.7,33.3,77.1,34.5,76.5,35.4z M53.7,38.6c-2.6,5.5-3.4,6-3.6,5.9c0.1,0.2-0.4,0.5-7.3-0.1c-8-0.7-7.6-1.2-7.5-1.3
				c-0.1,0-0.8-0.1-2.2-6.6c-1.5-7.3-0.9-8-0.9-8s2.6-1.9,5.5-3.6c2.9-1.7,6.9-3.7,6.9-3.7s1.6,0,7,4.7c5.4,4.7,4.6,5,4.6,5
				S57,31.6,53.7,38.6z"/>
		</g>
		<g>
			<path class="st1" d="M16.9,73.1h-2.4v6.5h-1.6v-6.5h-2.3v-1.3h6.3V73.1z"/>
			<path class="st1" d="M19.7,79.6h-1.6v-7.7h1.6V79.6z"/>
			<path class="st1" d="M23,76.9v2.7h-1.6v-7.7h3c0.6,0,1.1,0.1,1.5,0.3s0.8,0.5,1,0.9c0.2,0.4,0.4,0.8,0.4,1.3
				c0,0.8-0.3,1.4-0.8,1.8c-0.5,0.4-1.2,0.7-2.2,0.7H23z M23,75.6h1.4c0.4,0,0.7-0.1,1-0.3c0.2-0.2,0.3-0.5,0.3-0.9
				c0-0.4-0.1-0.7-0.3-0.9c-0.2-0.2-0.5-0.4-0.9-0.4H23V75.6z"/>
			<path class="st1" d="M30.2,76.9v2.7h-1.6v-7.7h3c0.6,0,1.1,0.1,1.5,0.3s0.8,0.5,1,0.9c0.2,0.4,0.4,0.8,0.4,1.3
				c0,0.8-0.3,1.4-0.8,1.8c-0.5,0.4-1.2,0.7-2.2,0.7H30.2z M30.2,75.6h1.4c0.4,0,0.7-0.1,1-0.3c0.2-0.2,0.3-0.5,0.3-0.9
				c0-0.4-0.1-0.7-0.3-0.9c-0.2-0.2-0.5-0.4-0.9-0.4h-1.5V75.6z"/>
			<path class="st1" d="M40.5,76.2h-3.1v2.1H41v1.3h-5.2v-7.7H41v1.3h-3.6V75h3.1V76.2z"/>
			<path class="st1" d="M43.8,78.3h3.4v1.3h-5v-7.7h1.6V78.3z"/>
			<path class="st1" d="M50,79.6h-1.6v-7.7H50V79.6z"/>
			<path class="st1" d="M57.8,78.6c-0.3,0.3-0.7,0.6-1.2,0.8c-0.5,0.2-1.1,0.3-1.7,0.3c-0.7,0-1.3-0.1-1.8-0.4
				c-0.5-0.3-0.9-0.7-1.2-1.3c-0.3-0.6-0.4-1.2-0.4-2v-0.5c0-0.8,0.1-1.4,0.4-2s0.6-1,1.1-1.3c0.5-0.3,1.1-0.4,1.7-0.4
				c0.9,0,1.6,0.2,2.2,0.7s0.8,1.1,0.9,1.9h-1.6c-0.1-0.4-0.2-0.8-0.5-1c-0.2-0.2-0.6-0.3-1-0.3c-0.5,0-1,0.2-1.2,0.6
				c-0.3,0.4-0.4,1-0.4,1.8v0.5c0,0.8,0.2,1.4,0.5,1.8c0.3,0.4,0.8,0.6,1.4,0.6c0.6,0,1-0.1,1.3-0.4v-1.3h-1.5v-1.2h3V78.6z"/>
			<path class="st1" d="M63.6,78h-2.8l-0.5,1.6h-1.7l2.9-7.7H63l2.9,7.7h-1.7L63.6,78z M61.3,76.7h1.9l-1-2.9L61.3,76.7z"/>
			<path class="st1" d="M71.5,76.2h-3.1v2.1H72v1.3h-5.2v-7.7H72v1.3h-3.6V75h3.1V76.2z"/>
			<path class="st1" d="M79.4,79.6h-1.6l-3.1-5.1v5.1h-1.6v-7.7h1.6l3.1,5.1v-5.1h1.6V79.6z"/>
		</g>
	</g>
</g>
</svg>
