<?xml version="1.0" encoding="utf-8"?>
<!-- Generator: Adobe Illustrator 20.1.0, SVG Export Plug-In . SVG Version: 6.00 Build 0)  -->
<svg version="1.1" id="Layer_1" xmlns="http://www.w3.org/2000/svg" xmlns:xlink="http://www.w3.org/1999/xlink" x="0px" y="0px"
	 viewBox="0 0 90 72.5" style="enable-background:new 0 0 90 72.5;" xml:space="preserve">
<style type="text/css">
	.st0{fill:#FFFFFF;}
	.st1{clip-path:url(#SVGID_2_);fill:#FFFFFF;}
</style>
<g id="Layer_2">
</g>
<g>
	<g>
		<path class="st0" d="M9.8,72.4v-8.5h2.9c1,0,1.7,0.2,2.2,0.6s0.8,1,0.8,1.7c0,0.4-0.1,0.7-0.3,1.1s-0.5,0.6-0.9,0.7
			c0.5,0.1,0.8,0.4,1.1,0.7s0.4,0.8,0.4,1.2c0,0.8-0.3,1.4-0.8,1.8s-1.2,0.6-2.2,0.6H9.8z M11.3,67.4h1.5c0.5,0,0.8-0.1,1.1-0.3
			s0.4-0.5,0.4-0.9c0-0.4-0.1-0.7-0.4-0.9S13.3,65,12.8,65h-1.4V67.4z M11.3,68.5v2.7H13c0.5,0,0.8-0.1,1.1-0.3s0.4-0.5,0.4-1
			c0-0.9-0.5-1.3-1.4-1.4H11.3z"/>
		<path class="st0" d="M23.5,63.8v5.7c0,0.9-0.3,1.6-0.9,2.2s-1.4,0.8-2.3,0.8c-1,0-1.8-0.3-2.3-0.8s-0.9-1.2-0.9-2.2v-5.7h1.5v5.7
			c0,0.6,0.1,1,0.4,1.3c0.3,0.3,0.7,0.5,1.3,0.5c1.1,0,1.7-0.6,1.7-1.8v-5.7H23.5z"/>
		<path class="st0" d="M31.8,72.4h-1.5l-3.8-6.1v6.1H25v-8.5h1.5l3.8,6.1v-6.1h1.5V72.4z"/>
		<path class="st0" d="M33.4,72.4v-8.5h2.5c0.8,0,1.4,0.2,2,0.5s1,0.8,1.4,1.4s0.5,1.3,0.5,2.1v0.4c0,0.8-0.2,1.5-0.5,2.1
			s-0.8,1.1-1.4,1.4s-1.3,0.5-2,0.5H33.4z M34.9,65v6.1h1c0.8,0,1.4-0.2,1.8-0.7s0.6-1.2,0.6-2.1v-0.5c0-0.9-0.2-1.6-0.6-2.1
			s-1-0.7-1.8-0.7H34.9z"/>
		<path class="st0" d="M46.1,68.6h-3.5v2.6h4.1v1.2h-5.6v-8.5h5.5V65h-4.1v2.4h3.5V68.6z"/>
		<path class="st0" d="M52.2,70.2c0-0.4-0.1-0.7-0.4-0.9s-0.7-0.4-1.4-0.6s-1.2-0.4-1.6-0.7c-0.8-0.5-1.2-1.1-1.2-1.9
			c0-0.7,0.3-1.3,0.8-1.7c0.6-0.4,1.3-0.7,2.2-0.7c0.6,0,1.1,0.1,1.6,0.3c0.5,0.2,0.8,0.5,1.1,0.9s0.4,0.9,0.4,1.3h-1.5
			c0-0.4-0.1-0.8-0.4-1s-0.7-0.4-1.2-0.4c-0.5,0-0.9,0.1-1.1,0.3s-0.4,0.5-0.4,0.9c0,0.3,0.1,0.6,0.4,0.8s0.8,0.4,1.4,0.6
			s1.2,0.4,1.6,0.7s0.7,0.5,0.9,0.9s0.3,0.7,0.3,1.1c0,0.7-0.3,1.3-0.8,1.7s-1.3,0.6-2.2,0.6c-0.6,0-1.2-0.1-1.7-0.3
			s-0.9-0.5-1.2-0.9s-0.4-0.9-0.4-1.4h1.5c0,0.5,0.2,0.9,0.5,1.1s0.8,0.4,1.4,0.4c0.5,0,0.9-0.1,1.2-0.3S52.2,70.5,52.2,70.2z"/>
		<path class="st0" d="M56.7,70.8h3.6v1.6h-5.6v-8.5h2.1V70.8z"/>
		<path class="st0" d="M63.2,72.4h-2.1v-8.5h2.1V72.4z"/>
		<path class="st0" d="M71.5,71.3c-0.3,0.4-0.8,0.6-1.4,0.8s-1.3,0.3-2,0.3c-1.1,0-2-0.3-2.7-1s-1-1.6-1.1-2.9l0-0.7
			c0-0.8,0.1-1.6,0.4-2.2s0.7-1.1,1.3-1.4c0.6-0.3,1.2-0.5,1.9-0.5c1.1,0,1.9,0.2,2.5,0.7c0.6,0.5,0.9,1.2,1,2.2h-2
			c-0.1-0.5-0.2-0.8-0.5-1s-0.6-0.3-1-0.3c-0.5,0-0.9,0.2-1.2,0.7s-0.4,1.1-0.4,1.9v0.5c0,0.9,0.1,1.5,0.4,1.9s0.7,0.6,1.4,0.6
			c0.5,0,0.9-0.1,1.2-0.4v-1.3h-1.4v-1.4h3.5V71.3z"/>
		<path class="st0" d="M77.5,70.8h-2.8l-0.5,1.6H72l3.1-8.5H77l3.2,8.5H78L77.5,70.8z M75.1,69.2H77l-0.9-3L75.1,69.2z"/>
	</g>
	<g>
		<defs>
			<circle id="SVGID_1_" cx="45" cy="28.9" r="28.9"/>
		</defs>
		<clipPath id="SVGID_2_">
			<use xlink:href="#SVGID_1_"  style="overflow:visible;"/>
		</clipPath>
		<path class="st1" d="M72.5,30.9c-1,1.4-2.3,2.2-2.3,2.2s-0.6-1.8-2.2-4.8c-1.2-2.3-2.9-3.7-2.9-3.7s0.4-2.5,0.7-5.5
			c0.3-3.1,0-5.3,0-5.3s1.2,0.1,3.1,1.1c1.1,0.6,1.8,1.2,2.2,1.7C67.7,9.4,61.5,3.9,53.9,1.4c0.3,0.4,0.6,0.9,1,1.5
			c0.7,0.9,1.5,2.8,1.5,2.8S53.6,6.1,51,6.4c-3.3,0.4-5.1,1.3-5.1,1.3S43.1,6,41.3,5.4s-4.5-1-4.5-1s0.5-1.4,1.9-2.6
			c1.2-1.1,2.1-1.4,2.6-1.5c-8.7,1.1-16.2,6.1-20.7,13.2c0.8-1,1.7-1.9,2.6-2.3c1.4-0.7,3.2-0.5,3.2-0.5s-1.3,3.4-1.5,5.3
			c-0.4,3.3-0.2,4.8-0.2,4.8s-1.8,1.4-3.7,4.1c-2,2.7-2.3,4-2.3,4s-0.9-0.7-1.4-2.7c-0.3-0.9-0.3-2.5-0.3-3.6
			c-0.5,2-0.7,4.2-0.7,6.4c0,6.2,2,12,5.3,16.7c-0.1-0.6-0.2-1.5-0.1-2.7c0.1-1.2,0.3-2.2,0.3-2.2s1.4,1.5,3.8,2.7
			c3.3,1.6,4.8,2.1,4.8,2.1s1.3,2.8,2.4,4.2c1,1.3,3.7,3.8,3.7,3.8s-1.1,0.5-2.2,0.7c-1,0.2-1.9,0.2-2.6,0.2c4,2.1,8.6,3.3,13.5,3.3
			c2.9,0,5.6-0.4,8.2-1.2c-0.4-0.2-1.2-0.5-2.3-0.9c-1.2-0.5-2.3-0.9-2.3-0.9s0.2,0,3.1-2.8c2.9-2.8,3.6-4.6,3.6-4.6
			s2.1,0.1,4.7-0.7c3-0.9,5.3-2.1,5.3-2.1s0.4,0.8,0.5,2.1c0,0.7-0.1,1.8-0.2,2.4c5.1-5.2,8.2-12.3,8.2-20.2c0-0.1,0-0.3,0-0.4
			C73.6,29,73,30.1,72.5,30.9z M52.6,33.7c-2.2,4.8-2.9,5.2-3.2,5.2c0.1,0.1-0.3,0.5-6.4-0.1c-7-0.7-6.6-1.1-6.5-1.1
			c-0.1,0-0.7-0.1-1.9-5.8c-1.3-6.4-0.7-7-0.7-7s2.3-1.7,4.8-3.2s6.1-3.2,6.1-3.2s1.4,0,6.1,4.1c4.7,4.1,4,4.4,4,4.4
			S55.5,27.6,52.6,33.7z"/>
	</g>
</g>
</svg>
