<?xml version="1.0" encoding="utf-8"?>
<!-- Generator: Adobe Illustrator 20.1.0, SVG Export Plug-In . SVG Version: 6.00 Build 0)  -->
<svg version="1.1" id="Layer_1" xmlns="http://www.w3.org/2000/svg" xmlns:xlink="http://www.w3.org/1999/xlink" x="0px" y="0px"
	 viewBox="0 0 90 81.8" style="enable-background:new 0 0 90 81.8;" xml:space="preserve">
<style type="text/css">
	.st0{fill:#FFFFFF;}
	.st1{clip-path:url(#SVGID_2_);fill:#FFFFFF;}
</style>
<g id="Layer_2">
</g>
<g>
	<g>
		<path class="st0" d="M21,75.5h5.6v2.5h-8.8V64.7H21V75.5z"/>
		<path class="st0" d="M33.3,77.9c-0.1-0.2-0.2-0.5-0.3-0.9c-0.6,0.7-1.4,1.1-2.4,1.1c-0.9,0-1.7-0.3-2.4-0.8c-0.6-0.6-1-1.3-1-2.1
			c0-1.1,0.4-1.9,1.2-2.4c0.8-0.5,1.9-0.8,3.4-0.8h0.9v-0.5c0-0.9-0.4-1.4-1.2-1.4c-0.7,0-1.1,0.4-1.1,1.1h-3.1c0-1,0.4-1.7,1.2-2.3
			c0.8-0.6,1.8-0.9,3.1-0.9c1.3,0,2.3,0.3,3,0.9s1.1,1.5,1.1,2.5v4.4c0,0.9,0.2,1.6,0.4,2.1v0.2H33.3z M31.4,75.9
			c0.4,0,0.7-0.1,1-0.2c0.3-0.2,0.4-0.3,0.5-0.6v-1.6H32c-1.1,0-1.6,0.5-1.6,1.4c0,0.3,0.1,0.5,0.3,0.7
			C30.8,75.8,31.1,75.9,31.4,75.9z"/>
		<path class="st0" d="M41,75.5h5.6v2.5h-8.8V64.7H41V75.5z"/>
		<path class="st0" d="M47.7,65.5c0-0.4,0.2-0.8,0.5-1.1c0.3-0.3,0.7-0.4,1.2-0.4c0.5,0,0.9,0.1,1.2,0.4c0.3,0.3,0.5,0.6,0.5,1.1
			c0,0.4-0.2,0.8-0.5,1.1c-0.3,0.3-0.7,0.4-1.2,0.4c-0.5,0-0.9-0.1-1.2-0.4C47.9,66.3,47.7,66,47.7,65.5z M51,77.9h-3.1v-9.9H51
			V77.9z"/>
		<path class="st0" d="M52.5,72.9c0-1,0.2-1.9,0.5-2.6c0.3-0.8,0.8-1.4,1.4-1.8s1.3-0.6,2.1-0.6c1,0,1.8,0.3,2.4,1l0.1-0.9h2.8v9.5
			c0,0.9-0.2,1.6-0.6,2.3c-0.4,0.6-1,1.1-1.8,1.5s-1.7,0.5-2.7,0.5c-0.7,0-1.4-0.1-2.1-0.4c-0.7-0.3-1.2-0.6-1.6-1.1l1.3-1.8
			c0.6,0.7,1.3,1,2.3,1c1.4,0,2-0.7,2-2.1v-0.3c-0.6,0.6-1.3,1-2.2,1c-1.2,0-2.2-0.5-2.9-1.4c-0.7-0.9-1.1-2.2-1.1-3.7V72.9z
			 M55.6,73.1c0,0.8,0.2,1.4,0.5,1.9c0.3,0.5,0.7,0.7,1.3,0.7c0.7,0,1.1-0.2,1.4-0.7v-4.1c-0.3-0.4-0.8-0.7-1.4-0.7
			c-0.5,0-1,0.2-1.3,0.7C55.8,71.5,55.6,72.2,55.6,73.1z"/>
		<path class="st0" d="M69.2,77.9c-0.1-0.2-0.2-0.5-0.3-0.9c-0.6,0.7-1.4,1.1-2.4,1.1c-0.9,0-1.7-0.3-2.4-0.8c-0.6-0.6-1-1.3-1-2.1
			c0-1.1,0.4-1.9,1.2-2.4c0.8-0.5,1.9-0.8,3.4-0.8h0.9v-0.5c0-0.9-0.4-1.4-1.2-1.4c-0.7,0-1.1,0.4-1.1,1.1h-3.1c0-1,0.4-1.7,1.2-2.3
			c0.8-0.6,1.8-0.9,3.1-0.9s2.3,0.3,3,0.9s1.1,1.5,1.1,2.5v4.4c0,0.9,0.2,1.6,0.4,2.1v0.2H69.2z M67.2,75.9c0.4,0,0.7-0.1,1-0.2
			c0.3-0.2,0.4-0.3,0.5-0.6v-1.6h-0.9c-1.1,0-1.6,0.5-1.6,1.4c0,0.3,0.1,0.5,0.3,0.7C66.7,75.8,66.9,75.9,67.2,75.9z"/>
	</g>
	<g>
		<defs>
			<circle id="SVGID_1_" cx="45" cy="28.9" r="28.9"/>
		</defs>
		<clipPath id="SVGID_2_">
			<use xlink:href="#SVGID_1_"  style="overflow:visible;"/>
		</clipPath>
		<path class="st1" d="M72.5,30.9c-1,1.4-2.3,2.2-2.3,2.2s-0.6-1.8-2.2-4.8c-1.2-2.3-2.9-3.7-2.9-3.7s0.4-2.5,0.7-5.5
			c0.3-3.1,0-5.3,0-5.3s1.2,0.1,3.1,1.1c1.1,0.6,1.8,1.2,2.2,1.7C67.7,9.4,61.5,3.9,53.9,1.4c0.3,0.4,0.6,0.9,1,1.5
			c0.7,0.9,1.5,2.8,1.5,2.8S53.6,6.1,51,6.4c-3.3,0.4-5.1,1.3-5.1,1.3S43.1,6,41.3,5.4s-4.5-1-4.5-1s0.5-1.4,1.9-2.6
			c1.2-1.1,2.1-1.4,2.6-1.5c-8.7,1.1-16.2,6.1-20.7,13.2c0.8-1,1.7-1.9,2.6-2.3c1.4-0.7,3.2-0.5,3.2-0.5s-1.3,3.4-1.5,5.3
			c-0.4,3.3-0.2,4.8-0.2,4.8s-1.8,1.4-3.7,4.1c-2,2.7-2.3,4-2.3,4s-0.9-0.7-1.4-2.7c-0.3-0.9-0.3-2.5-0.3-3.6
			c-0.5,2-0.7,4.2-0.7,6.4c0,6.2,2,12,5.3,16.7c-0.1-0.6-0.2-1.5-0.1-2.7c0.1-1.2,0.3-2.2,0.3-2.2s1.4,1.5,3.8,2.7
			c3.3,1.6,4.8,2.1,4.8,2.1s1.3,2.8,2.4,4.2c1,1.3,3.7,3.8,3.7,3.8s-1.1,0.5-2.2,0.7c-1,0.2-1.9,0.2-2.6,0.2c4,2.1,8.6,3.3,13.5,3.3
			c2.9,0,5.6-0.4,8.2-1.2c-0.4-0.2-1.2-0.5-2.3-0.9c-1.2-0.5-2.3-0.9-2.3-0.9s0.2,0,3.1-2.8c2.9-2.8,3.6-4.6,3.6-4.6
			s2.1,0.1,4.7-0.7c3-0.9,5.3-2.1,5.3-2.1s0.4,0.8,0.5,2.1c0,0.7-0.1,1.8-0.2,2.4c5.1-5.2,8.2-12.3,8.2-20.2c0-0.1,0-0.3,0-0.4
			C73.6,29,73,30.1,72.5,30.9z M52.6,33.7c-2.2,4.8-2.9,5.2-3.2,5.2c0.1,0.1-0.3,0.5-6.4-0.1c-7-0.7-6.6-1.1-6.5-1.1
			c-0.1,0-0.7-0.1-1.9-5.8c-1.3-6.4-0.7-7-0.7-7s2.3-1.7,4.8-3.2c2.5-1.5,6.1-3.2,6.1-3.2s1.4,0,6.1,4.1c4.7,4.1,4,4.4,4,4.4
			S55.5,27.6,52.6,33.7z"/>
	</g>
</g>
</svg>
