<?xml version="1.0" encoding="utf-8"?>
<!-- Generator: Adobe Illustrator 20.1.0, SVG Export Plug-In . SVG Version: 6.00 Build 0)  -->
<svg version="1.1" id="Layer_1" xmlns="http://www.w3.org/2000/svg" xmlns:xlink="http://www.w3.org/1999/xlink" x="0px" y="0px"
	 viewBox="0 0 90 75.5" style="enable-background:new 0 0 90 75.5;" xml:space="preserve">
<style type="text/css">
	.st0{fill:#FFFFFF;}
	.st1{clip-path:url(#SVGID_2_);fill:#FFFFFF;}
</style>
<g id="Layer_2">
</g>
<g>
	<g>
		<path class="st0" d="M14.2,75.5c-1.3,0-2.3-0.4-3.1-1.2c-0.8-0.8-1.2-1.9-1.2-3.2v-0.2c0-0.9,0.2-1.7,0.5-2.4
			c0.3-0.7,0.8-1.3,1.5-1.6c0.6-0.4,1.3-0.6,2.1-0.6c1.2,0,2.2,0.4,2.8,1.2c0.7,0.8,1,1.9,1,3.3v0.8h-5.9c0.1,0.7,0.3,1.3,0.7,1.8
			s1,0.6,1.6,0.6c0.9,0,1.7-0.4,2.3-1.1l1.1,1c-0.4,0.5-0.8,1-1.4,1.2S14.9,75.5,14.2,75.5z M13.9,67.8c-0.6,0-1,0.2-1.3,0.6
			c-0.3,0.4-0.6,0.9-0.7,1.6h3.8v-0.1c0-0.7-0.2-1.2-0.5-1.5S14.5,67.8,13.9,67.8z"/>
		<path class="st0" d="M23.9,68.2c-0.3,0-0.5-0.1-0.8-0.1c-0.9,0-1.5,0.4-1.9,1.1v6.1h-2v-9h1.9l0,1c0.5-0.8,1.2-1.2,2-1.2
			c0.3,0,0.5,0,0.7,0.1L23.9,68.2z"/>
		<path class="st0" d="M28.8,75.5c-1.3,0-2.3-0.4-3.1-1.2c-0.8-0.8-1.2-1.9-1.2-3.2v-0.2c0-0.9,0.2-1.7,0.5-2.4
			c0.3-0.7,0.8-1.3,1.5-1.6c0.6-0.4,1.3-0.6,2.1-0.6c1.2,0,2.2,0.4,2.8,1.2c0.7,0.8,1,1.9,1,3.3v0.8h-5.9c0.1,0.7,0.3,1.3,0.7,1.8
			s1,0.6,1.6,0.6c0.9,0,1.7-0.4,2.3-1.1l1.1,1c-0.4,0.5-0.8,1-1.4,1.2S29.5,75.5,28.8,75.5z M28.5,67.8c-0.6,0-1,0.2-1.3,0.6
			c-0.3,0.4-0.6,0.9-0.7,1.6h3.8v-0.1c0-0.7-0.2-1.2-0.5-1.5S29.1,67.8,28.5,67.8z"/>
		<path class="st0" d="M33.4,70.8c0-1.4,0.3-2.5,1-3.3c0.6-0.8,1.5-1.3,2.6-1.3c1,0,1.7,0.3,2.3,1v-4.6h2v12.7h-1.8l-0.1-0.9
			c-0.6,0.7-1.4,1.1-2.4,1.1c-1.1,0-1.9-0.4-2.6-1.3C33.7,73.4,33.4,72.3,33.4,70.8z M35.4,71c0,0.9,0.2,1.6,0.5,2.1
			s0.9,0.8,1.5,0.8c0.8,0,1.4-0.4,1.8-1.1V69c-0.4-0.7-1-1.1-1.8-1.1c-0.7,0-1.2,0.3-1.5,0.8S35.4,70,35.4,71z"/>
		<path class="st0" d="M43.2,64.1c0-0.3,0.1-0.6,0.3-0.8c0.2-0.2,0.5-0.3,0.8-0.3s0.6,0.1,0.8,0.3c0.2,0.2,0.3,0.5,0.3,0.8
			c0,0.3-0.1,0.6-0.3,0.8c-0.2,0.2-0.5,0.3-0.8,0.3s-0.6-0.1-0.8-0.3C43.3,64.6,43.2,64.4,43.2,64.1z M45.4,75.4h-2v-9h2V75.4z"/>
		<path class="st0" d="M50.5,72.8l1.9-6.4h2.1l-3.1,9h-1.8l-3.1-9h2.1L50.5,72.8z"/>
		<path class="st0" d="M55.6,64.1c0-0.3,0.1-0.6,0.3-0.8c0.2-0.2,0.5-0.3,0.8-0.3s0.6,0.1,0.8,0.3c0.2,0.2,0.3,0.5,0.3,0.8
			c0,0.3-0.1,0.6-0.3,0.8c-0.2,0.2-0.5,0.3-0.8,0.3s-0.6-0.1-0.8-0.3C55.7,64.6,55.6,64.4,55.6,64.1z M57.8,75.4h-2v-9h2V75.4z"/>
		<path class="st0" d="M64.8,72.9c0-0.4-0.1-0.6-0.4-0.8c-0.3-0.2-0.8-0.4-1.5-0.5c-0.7-0.1-1.3-0.3-1.7-0.5c-1-0.5-1.5-1.2-1.5-2.1
			c0-0.8,0.3-1.4,1-1.9c0.7-0.5,1.5-0.8,2.5-0.8c1.1,0,1.9,0.3,2.6,0.8s1,1.2,1,2.1h-2c0-0.4-0.1-0.7-0.4-1
			c-0.3-0.3-0.7-0.4-1.1-0.4c-0.4,0-0.8,0.1-1.1,0.3c-0.3,0.2-0.4,0.5-0.4,0.8c0,0.3,0.1,0.6,0.4,0.7c0.3,0.2,0.8,0.3,1.6,0.5
			c0.8,0.2,1.4,0.4,1.9,0.6c0.5,0.2,0.8,0.5,1,0.9c0.2,0.3,0.3,0.7,0.3,1.2c0,0.8-0.3,1.5-1,2c-0.7,0.5-1.5,0.8-2.6,0.8
			c-0.7,0-1.4-0.1-2-0.4c-0.6-0.3-1-0.6-1.3-1.1c-0.3-0.5-0.5-1-0.5-1.5h2c0,0.5,0.2,0.8,0.5,1.1c0.3,0.3,0.8,0.4,1.3,0.4
			c0.5,0,0.9-0.1,1.2-0.3C64.7,73.5,64.8,73.3,64.8,72.9z"/>
		<path class="st0" d="M68.4,64.1c0-0.3,0.1-0.6,0.3-0.8c0.2-0.2,0.5-0.3,0.8-0.3s0.6,0.1,0.8,0.3c0.2,0.2,0.3,0.5,0.3,0.8
			c0,0.3-0.1,0.6-0.3,0.8c-0.2,0.2-0.5,0.3-0.8,0.3s-0.6-0.1-0.8-0.3C68.5,64.6,68.4,64.4,68.4,64.1z M70.5,75.4h-2v-9h2V75.4z"/>
		<path class="st0" d="M76.5,75.5c-1.3,0-2.3-0.4-3.1-1.2c-0.8-0.8-1.2-1.9-1.2-3.2v-0.2c0-0.9,0.2-1.7,0.5-2.4
			c0.3-0.7,0.8-1.3,1.5-1.6c0.6-0.4,1.3-0.6,2.1-0.6c1.2,0,2.2,0.4,2.8,1.2c0.7,0.8,1,1.9,1,3.3v0.8h-5.9c0.1,0.7,0.3,1.3,0.7,1.8
			s1,0.6,1.6,0.6c0.9,0,1.7-0.4,2.3-1.1l1.1,1c-0.4,0.5-0.8,1-1.4,1.2S77.3,75.5,76.5,75.5z M76.3,67.8c-0.6,0-1,0.2-1.3,0.6
			c-0.3,0.4-0.6,0.9-0.7,1.6h3.8v-0.1c0-0.7-0.2-1.2-0.5-1.5S76.8,67.8,76.3,67.8z"/>
	</g>
	<g>
		<defs>
			<circle id="SVGID_1_" cx="44.8" cy="28.9" r="28.9"/>
		</defs>
		<clipPath id="SVGID_2_">
			<use xlink:href="#SVGID_1_"  style="overflow:visible;"/>
		</clipPath>
		<path class="st1" d="M72.3,30.9c-1,1.4-2.3,2.2-2.3,2.2s-0.6-1.8-2.2-4.8C66.7,26,65,24.6,65,24.6s0.4-2.5,0.7-5.5
			c0.3-3.1,0-5.3,0-5.3s1.2,0.1,3.1,1.1c1.1,0.6,1.8,1.2,2.2,1.7C67.6,9.4,61.4,3.9,53.8,1.4c0.3,0.4,0.6,0.9,1,1.5
			c0.7,0.9,1.5,2.8,1.5,2.8s-2.9,0.3-5.5,0.6c-3.3,0.4-5.1,1.3-5.1,1.3S43,6,41.1,5.4s-4.5-1-4.5-1s0.5-1.4,1.9-2.6
			c1.2-1.1,2.1-1.4,2.6-1.5C32.4,1.4,25,6.3,20.5,13.4c0.8-1,1.7-1.9,2.6-2.3c1.4-0.7,3.2-0.5,3.2-0.5S25,14,24.8,15.9
			c-0.4,3.3-0.2,4.8-0.2,4.8s-1.8,1.4-3.7,4.1c-2,2.7-2.3,4-2.3,4s-0.9-0.7-1.4-2.7c-0.3-0.9-0.3-2.5-0.3-3.6
			c-0.5,2-0.7,4.2-0.7,6.4c0,6.2,2,12,5.3,16.7c-0.1-0.6-0.2-1.5-0.1-2.7c0.1-1.2,0.3-2.2,0.3-2.2s1.4,1.5,3.8,2.7
			c3.3,1.6,4.8,2.1,4.8,2.1s1.3,2.8,2.4,4.2c1,1.3,3.7,3.8,3.7,3.8s-1.1,0.5-2.2,0.7c-1,0.2-1.9,0.2-2.6,0.2c4,2.1,8.6,3.3,13.5,3.3
			c2.9,0,5.6-0.4,8.2-1.2c-0.4-0.2-1.2-0.5-2.3-0.9c-1.2-0.5-2.3-0.9-2.3-0.9s0.2,0,3.1-2.8c2.9-2.8,3.6-4.6,3.6-4.6
			s2.1,0.1,4.7-0.7c3-0.9,5.3-2.1,5.3-2.1s0.4,0.8,0.5,2.1c0,0.7-0.1,1.8-0.2,2.4c5.1-5.2,8.2-12.3,8.2-20.2c0-0.1,0-0.3,0-0.4
			C73.4,29,72.9,30.1,72.3,30.9z M52.5,33.7c-2.2,4.8-2.9,5.2-3.2,5.2c0.1,0.1-0.3,0.5-6.4-0.1c-7-0.7-6.6-1.1-6.5-1.1
			c-0.1,0-0.7-0.1-1.9-5.8c-1.3-6.4-0.7-7-0.7-7s2.3-1.7,4.8-3.2c2.5-1.5,6.1-3.2,6.1-3.2s1.4,0,6.1,4.1c4.7,4.1,4,4.4,4,4.4
			S55.3,27.6,52.5,33.7z"/>
	</g>
</g>
</svg>
