<?xml version="1.0" encoding="utf-8"?>
<!-- Generator: Adobe Illustrator 20.1.0, SVG Export Plug-In . SVG Version: 6.00 Build 0)  -->
<svg version="1.1" id="Layer_1" xmlns="http://www.w3.org/2000/svg" xmlns:xlink="http://www.w3.org/1999/xlink" x="0px" y="0px"
	 viewBox="0 0 90 71.9" style="enable-background:new 0 0 90 71.9;" xml:space="preserve">
<style type="text/css">
	.st0{fill:#FFFFFF;}
	.st1{clip-path:url(#SVGID_2_);fill:#FFFFFF;}
</style>
<g id="Layer_2">
</g>
<g>
	<g>
		<path class="st0" d="M12.5,58.7l-1.2-1.5L10,57.8l-0.9-1.2l6.8-2.5l0.8,1l-4.2,6l-0.9-1.2L12.5,58.7z M12.5,56.7l0.8,1l1.6-2
			L12.5,56.7z"/>
		<path class="st0" d="M17.1,63.1l2,1.4l-0.7,1l-3.2-2.2l3.9-5.8l1.2,0.8L17.1,63.1z"/>
		<path class="st0" d="M23,66.4l2.3,1l-0.5,1.1l-3.5-1.6l2.8-6.4l1.3,0.6L23,66.4z"/>
		<path class="st0" d="M30.8,68.4c0.1-0.3,0.1-0.5,0-0.7c-0.1-0.2-0.3-0.4-0.6-0.6c-0.6-0.4-1-0.9-1.2-1.3c-0.2-0.4-0.2-0.9-0.1-1.3
			c0.2-0.6,0.5-1,1-1.2c0.5-0.2,1.1-0.3,1.7-0.1c0.4,0.1,0.8,0.3,1,0.6c0.3,0.3,0.5,0.6,0.5,0.9c0.1,0.4,0.1,0.7,0,1.2l-1.4-0.4
			c0.1-0.3,0.1-0.6,0-0.8c-0.1-0.2-0.3-0.3-0.5-0.4c-0.2-0.1-0.4,0-0.6,0.1c-0.2,0.1-0.3,0.3-0.4,0.5c-0.1,0.2,0,0.4,0.1,0.6
			c0.1,0.2,0.3,0.4,0.7,0.7c0.6,0.4,1,0.8,1.2,1.3c0.2,0.4,0.2,0.9,0.1,1.4c-0.2,0.6-0.5,1-0.9,1.2c-0.5,0.2-1,0.3-1.7,0.1
			c-0.4-0.1-0.8-0.3-1.1-0.6c-0.3-0.3-0.5-0.6-0.6-1c-0.1-0.4-0.1-0.8,0-1.3l1.4,0.4c-0.1,0.4-0.1,0.7,0,0.9
			c0.1,0.2,0.3,0.4,0.7,0.5C30.4,69.1,30.7,68.9,30.8,68.4z"/>
		<path class="st0" d="M37.1,69.5l1.8-4.9l1.6,0.2l-2.9,6.6l-1.5-0.2l-1.1-7.2l1.5,0.2L37.1,69.5z"/>
		<path class="st0" d="M45.9,68.9l-2.2,0l0,1.8l2.6,0l0,1.2l-4,0l0.1-7l4,0l0,1.2l-2.6,0l0,1.6l2.2,0L45.9,68.9z"/>
		<path class="st0" d="M53.8,71.3l-1.4,0.1l-2.5-4.3l0.5,4.5L49,71.8l-0.7-6.9l1.4-0.1l2.5,4.3l-0.5-4.5l1.4-0.1L53.8,71.3z"/>
		<path class="st0" d="M59.4,68.3c-0.1-0.3-0.2-0.5-0.4-0.6c-0.2-0.1-0.5-0.2-0.9-0.2c-0.7-0.1-1.3-0.3-1.7-0.5
			c-0.4-0.3-0.6-0.6-0.7-1.1c-0.1-0.6-0.1-1.1,0.3-1.5c0.3-0.4,0.8-0.7,1.4-0.9c0.4-0.1,0.8-0.1,1.2,0c0.4,0.1,0.7,0.3,0.9,0.6
			c0.3,0.3,0.4,0.6,0.5,1l-1.4,0.3c-0.1-0.3-0.2-0.5-0.4-0.7c-0.2-0.1-0.4-0.2-0.6-0.1c-0.2,0.1-0.4,0.2-0.5,0.3
			C57,65,57,65.2,57.1,65.5c0,0.2,0.2,0.3,0.3,0.4c0.2,0.1,0.5,0.2,0.9,0.3c0.7,0.1,1.3,0.3,1.7,0.5c0.4,0.3,0.6,0.7,0.8,1.2
			c0.1,0.6,0.1,1.1-0.2,1.5c-0.3,0.4-0.8,0.7-1.4,0.9c-0.4,0.1-0.9,0.1-1.3,0c-0.4-0.1-0.7-0.3-1-0.6c-0.3-0.3-0.5-0.7-0.6-1.1
			l1.4-0.3c0.1,0.4,0.2,0.7,0.4,0.8c0.2,0.1,0.5,0.2,0.8,0.1C59.3,69.1,59.5,68.8,59.4,68.3z"/>
		<path class="st0" d="M64.9,65.5l-0.2,0.9l0.8,1.8l-1.3,0.5l-2.7-6.4l1.3-0.5l1.2,2.8l0.1-0.9l0.3-2.6l1.6-0.7L65.3,64l3.4,2.8
			l-1.5,0.6L64.9,65.5z"/>
		<path class="st0" d="M73.1,62.4l-1.6,1.1l0.5,1.4l-1.2,0.8l-2.2-7l1.1-0.7l5.8,4.5l-1.2,0.9L73.1,62.4z M71.1,62.4l1.1-0.7
			L70.2,60L71.1,62.4z"/>
		<path class="st0" d="M80.9,55.9l-0.8,1.2l-4.9-0.9l3.8,2.6l-0.8,1.2L72.4,56l0.8-1.2l4.9,0.9l-3.8-2.6l0.8-1.2L80.9,55.9z"/>
	</g>
	<g>
		<defs>
			<circle id="SVGID_1_" cx="45" cy="28.9" r="28.9"/>
		</defs>
		<clipPath id="SVGID_2_">
			<use xlink:href="#SVGID_1_"  style="overflow:visible;"/>
		</clipPath>
		<path class="st1" d="M72.5,30.9c-1,1.4-2.3,2.2-2.3,2.2s-0.6-1.8-2.2-4.8c-1.2-2.3-2.9-3.7-2.9-3.7s0.4-2.5,0.7-5.5
			c0.3-3.1,0-5.3,0-5.3s1.2,0.1,3.1,1.1c1.1,0.6,1.8,1.2,2.2,1.7C67.7,9.4,61.5,3.9,53.9,1.4c0.3,0.4,0.6,0.9,1,1.5
			c0.7,0.9,1.5,2.8,1.5,2.8S53.6,6.1,51,6.4c-3.3,0.4-5.1,1.3-5.1,1.3S43.1,6,41.3,5.4s-4.5-1-4.5-1s0.5-1.4,1.9-2.6
			c1.2-1.1,2.1-1.4,2.6-1.5c-8.7,1.1-16.2,6.1-20.7,13.2c0.8-1,1.7-1.9,2.6-2.3c1.4-0.7,3.2-0.5,3.2-0.5s-1.3,3.4-1.5,5.3
			c-0.4,3.3-0.2,4.8-0.2,4.8s-1.8,1.4-3.7,4.1c-2,2.7-2.3,4-2.3,4s-0.9-0.7-1.4-2.7c-0.3-0.9-0.3-2.5-0.3-3.6
			c-0.5,2-0.7,4.2-0.7,6.4c0,6.2,2,12,5.3,16.7c-0.1-0.6-0.2-1.5-0.1-2.7c0.1-1.2,0.3-2.2,0.3-2.2s1.4,1.5,3.8,2.7
			c3.3,1.6,4.8,2.1,4.8,2.1s1.3,2.8,2.4,4.2c1,1.3,3.7,3.8,3.7,3.8s-1.1,0.5-2.2,0.7c-1,0.2-1.9,0.2-2.6,0.2c4,2.1,8.6,3.3,13.5,3.3
			c2.9,0,5.6-0.4,8.2-1.2c-0.4-0.2-1.2-0.5-2.3-0.9c-1.2-0.5-2.3-0.9-2.3-0.9s0.2,0,3.1-2.8c2.9-2.8,3.6-4.6,3.6-4.6
			s2.1,0.1,4.7-0.7c3-0.9,5.3-2.1,5.3-2.1s0.4,0.8,0.5,2.1c0,0.7-0.1,1.8-0.2,2.4c5.1-5.2,8.2-12.3,8.2-20.2c0-0.1,0-0.3,0-0.4
			C73.6,29,73,30.1,72.5,30.9z M52.6,33.7c-2.2,4.8-2.9,5.2-3.2,5.2c0.1,0.1-0.3,0.5-6.4-0.1c-7-0.7-6.6-1.1-6.5-1.1
			c-0.1,0-0.7-0.1-1.9-5.8c-1.3-6.4-0.7-7-0.7-7s2.3-1.7,4.8-3.2c2.5-1.5,6.1-3.2,6.1-3.2s1.4,0,6.1,4.1c4.7,4.1,4,4.4,4,4.4
			S55.5,27.6,52.6,33.7z"/>
	</g>
</g>
</svg>
