<?xml version="1.0" encoding="utf-8"?>
<!-- Generator: Adobe Illustrator 20.1.0, SVG Export Plug-In . SVG Version: 6.00 Build 0)  -->
<svg version="1.1" id="Layer_1" xmlns="http://www.w3.org/2000/svg" xmlns:xlink="http://www.w3.org/1999/xlink" x="0px" y="0px"
	 viewBox="0 0 90 90.1" style="enable-background:new 0 0 90 90.1;" xml:space="preserve">
<style type="text/css">
	.st0{fill:#FFFFFF;}
	.st1{clip-path:url(#SVGID_2_);fill:#FFFFFF;}
</style>
<g id="Layer_2">
</g>
<g>
	<g>
		<path class="st0" d="M18.6,68.2v4.3h-2.5V60.3h4.7c0.9,0,1.7,0.2,2.4,0.5c0.7,0.3,1.2,0.8,1.6,1.4c0.4,0.6,0.6,1.3,0.6,2.1
			c0,1.2-0.4,2.1-1.2,2.8c-0.8,0.7-1.9,1-3.4,1L18.6,68.2L18.6,68.2z M18.6,66.2h2.2c0.7,0,1.2-0.2,1.5-0.5c0.3-0.3,0.5-0.8,0.5-1.3
			c0-0.6-0.2-1.1-0.5-1.4c-0.3-0.4-0.8-0.6-1.4-0.6h-2.3V66.2z"/>
		<path class="st0" d="M31.7,65.7c-0.3,0-0.6-0.1-0.9-0.1c-0.9,0-1.5,0.3-1.8,0.9v5.9h-2.4v-9h2.3l0.1,1.1c0.5-0.8,1.2-1.2,2-1.2
			c0.3,0,0.5,0,0.7,0.1V65.7z"/>
		<path class="st0" d="M36.5,72.6c-1.3,0-2.4-0.4-3.2-1.2c-0.8-0.8-1.2-1.9-1.2-3.2V68c0-0.9,0.2-1.7,0.5-2.4
			c0.4-0.7,0.8-1.3,1.5-1.6c0.6-0.4,1.4-0.6,2.2-0.6c1.2,0,2.2,0.4,2.9,1.2c0.7,0.8,1.1,1.9,1.1,3.3v1h-5.7c0.1,0.6,0.3,1.1,0.7,1.4
			c0.4,0.4,0.9,0.5,1.5,0.5c0.9,0,1.7-0.3,2.2-1l1.2,1.3c-0.4,0.5-0.8,0.9-1.5,1.2C37.9,72.5,37.2,72.6,36.5,72.6z M36.2,65.2
			c-0.5,0-0.9,0.2-1.2,0.5c-0.3,0.3-0.5,0.8-0.6,1.4h3.3v-0.2c0-0.5-0.2-0.9-0.4-1.2S36.7,65.2,36.2,65.2z"/>
		<path class="st0" d="M43.5,63.4l0.1,1c0.6-0.8,1.5-1.2,2.6-1.2c1.2,0,2,0.5,2.4,1.4c0.6-0.9,1.5-1.4,2.7-1.4c1,0,1.7,0.3,2.2,0.9
			c0.5,0.6,0.7,1.4,0.7,2.6v5.8h-2.4v-5.8c0-0.5-0.1-0.9-0.3-1.1c-0.2-0.2-0.6-0.4-1.1-0.4c-0.7,0-1.2,0.3-1.5,1v6.2h-2.4v-5.8
			c0-0.5-0.1-0.9-0.3-1.1c-0.2-0.2-0.6-0.4-1-0.4c-0.7,0-1.2,0.3-1.5,0.9v6.4h-2.4v-9C41.3,63.4,43.5,63.4,43.5,63.4z"/>
		<path class="st0" d="M55.6,61.1c0-0.4,0.1-0.7,0.4-0.9c0.2-0.2,0.6-0.4,1-0.4s0.7,0.1,1,0.4c0.3,0.3,0.4,0.5,0.4,0.9
			S58.3,61.8,58,62c-0.2,0.2-0.6,0.3-1,0.3s-0.7-0.1-1-0.3S55.6,61.5,55.6,61.1z M58.2,72.5h-2.4v-9h2.4V72.5z"/>
		<path class="st0" d="M64,72.6c-1.3,0-2.4-0.4-3.2-1.2c-0.8-0.8-1.2-1.9-1.2-3.2V68c0-0.9,0.2-1.7,0.5-2.4c0.4-0.7,0.8-1.3,1.5-1.6
			c0.6-0.4,1.4-0.6,2.2-0.6c1.2,0,2.2,0.4,2.9,1.2c0.7,0.8,1.1,1.9,1.1,3.3v1h-5.7c0.1,0.6,0.3,1.1,0.7,1.4c0.4,0.4,0.9,0.5,1.5,0.5
			c0.9,0,1.7-0.3,2.2-1l1.2,1.3c-0.4,0.5-0.8,0.9-1.5,1.2C65.4,72.5,64.7,72.6,64,72.6z M63.7,65.2c-0.5,0-0.9,0.2-1.2,0.5
			c-0.3,0.3-0.5,0.8-0.6,1.4h3.3v-0.2c0-0.5-0.2-0.9-0.4-1.2C64.6,65.4,64.2,65.2,63.7,65.2z"/>
		<path class="st0" d="M73.8,65.7c-0.3,0-0.6-0.1-0.9-0.1c-0.9,0-1.5,0.3-1.8,0.9v5.9h-2.4v-9H71l0.1,1.1c0.5-0.8,1.2-1.2,2-1.2
			c0.3,0,0.5,0,0.7,0.1L73.8,65.7z"/>
		<path class="st0" d="M18.6,84.4h5.3v2h-7.8V74.3h2.5V84.4z"/>
		<path class="st0" d="M29.9,86.6c-1.3,0-2.4-0.4-3.2-1.2c-0.8-0.8-1.2-1.9-1.2-3.2V82c0-0.9,0.2-1.7,0.5-2.4
			c0.4-0.7,0.8-1.3,1.5-1.6c0.6-0.4,1.4-0.6,2.2-0.6c1.2,0,2.2,0.4,2.9,1.2c0.7,0.8,1.1,1.9,1.1,3.3v1H28c0.1,0.6,0.3,1.1,0.7,1.4
			c0.4,0.4,0.9,0.5,1.5,0.5c0.9,0,1.7-0.3,2.2-1l1.2,1.3c-0.4,0.5-0.8,0.9-1.5,1.2C31.4,86.5,30.7,86.6,29.9,86.6z M29.7,79.2
			c-0.5,0-0.9,0.2-1.2,0.5c-0.3,0.3-0.5,0.8-0.6,1.4h3.3v-0.2c0-0.5-0.2-0.9-0.4-1.2C30.6,79.4,30.2,79.2,29.7,79.2z"/>
		<path class="st0" d="M40.8,86.5c-0.1-0.2-0.2-0.5-0.2-0.8c-0.6,0.6-1.3,1-2.3,1c-0.9,0-1.6-0.3-2.2-0.8c-0.6-0.5-0.9-1.2-0.9-1.9
			c0-1,0.4-1.7,1.1-2.2C37,81.3,38,81,39.4,81h1.1v-0.5c0-0.4-0.1-0.7-0.3-1c-0.2-0.3-0.6-0.4-1-0.4c-0.4,0-0.7,0.1-1,0.3
			c-0.2,0.2-0.3,0.5-0.3,0.8h-2.4c0-0.5,0.2-1,0.5-1.4s0.8-0.8,1.4-1c0.6-0.3,1.2-0.4,2-0.4c1.1,0,2,0.3,2.6,0.8
			c0.7,0.6,1,1.3,1,2.4v3.9c0,0.9,0.1,1.5,0.4,1.9v0.1H40.8z M38.8,84.8c0.4,0,0.7-0.1,1-0.2c0.3-0.2,0.5-0.4,0.7-0.6v-1.5h-0.9
			c-1.2,0-1.8,0.4-1.9,1.2v0.1c0,0.3,0.1,0.5,0.3,0.7C38.2,84.7,38.5,84.8,38.8,84.8z"/>
		<path class="st0" d="M45,81.9c0-1.4,0.3-2.5,1-3.3s1.5-1.3,2.7-1.3c1,0,1.8,0.3,2.3,1l0.1-0.8h2.2v8.7c0,0.8-0.2,1.5-0.5,2.1
			c-0.4,0.6-0.9,1-1.5,1.3s-1.4,0.5-2.3,0.5c-0.7,0-1.3-0.1-1.9-0.4s-1.1-0.6-1.4-1l1.1-1.5c0.6,0.7,1.3,1,2.2,1
			c0.6,0,1.1-0.2,1.5-0.5s0.5-0.8,0.5-1.5v-0.5c-0.6,0.6-1.3,0.9-2.2,0.9c-1.1,0-2-0.4-2.6-1.3C45.3,84.5,45,83.4,45,81.9L45,81.9z
			 M47.4,82c0,0.8,0.2,1.5,0.5,1.9c0.3,0.5,0.8,0.7,1.3,0.7c0.7,0,1.3-0.3,1.6-0.8V80c-0.3-0.6-0.8-0.8-1.6-0.8
			c-0.6,0-1,0.2-1.4,0.7C47.6,80.4,47.4,81.1,47.4,82z"/>
		<path class="st0" d="M61.1,85.5c-0.6,0.7-1.4,1.1-2.5,1.1c-1,0-1.7-0.3-2.2-0.8c-0.5-0.6-0.8-1.4-0.8-2.4v-5.9H58v5.8
			c0,0.9,0.4,1.4,1.3,1.4c0.8,0,1.4-0.3,1.7-0.9v-6.4h2.4v9h-2.3V85.5z"/>
		<path class="st0" d="M70,86.6c-1.3,0-2.4-0.4-3.2-1.2c-0.8-0.8-1.2-1.9-1.2-3.2V82c0-0.9,0.2-1.7,0.5-2.4c0.4-0.7,0.8-1.3,1.5-1.6
			c0.6-0.4,1.4-0.6,2.2-0.6c1.2,0,2.2,0.4,2.9,1.2c0.7,0.8,1.1,1.9,1.1,3.3v1h-5.7c0.1,0.6,0.3,1.1,0.7,1.4c0.4,0.4,0.9,0.5,1.5,0.5
			c0.9,0,1.7-0.3,2.2-1l1.2,1.3c-0.4,0.5-0.8,0.9-1.5,1.2C71.4,86.5,70.7,86.6,70,86.6z M69.7,79.2c-0.5,0-0.9,0.2-1.2,0.5
			c-0.3,0.3-0.5,0.8-0.6,1.4h3.3v-0.2c0-0.5-0.2-0.9-0.4-1.2C70.6,79.4,70.2,79.2,69.7,79.2z"/>
	</g>
	<g>
		<g>
			<defs>
				<circle id="SVGID_1_" cx="45" cy="28.9" r="28.9"/>
			</defs>
			<clipPath id="SVGID_2_">
				<use xlink:href="#SVGID_1_"  style="overflow:visible;"/>
			</clipPath>
			<path class="st1" d="M72.4,30.9c-1,1.4-2.3,2.2-2.3,2.2s-0.6-1.8-2.2-4.8c-1.1-2.3-2.8-3.7-2.8-3.7s0.4-2.5,0.7-5.5
				c0.3-3.1,0-5.3,0-5.3s1.2,0.1,3.1,1.1c1.1,0.6,1.8,1.2,2.2,1.7C67.7,9.4,61.5,3.9,53.9,1.4c0.3,0.4,0.6,0.9,1,1.5
				c0.7,0.9,1.5,2.8,1.5,2.8S53.5,6,50.9,6.3c-3.3,0.4-5.1,1.3-5.1,1.3S43.1,6,41.2,5.4s-4.5-1-4.5-1s0.5-1.4,1.9-2.6
				c1.2-1.1,2.1-1.4,2.6-1.5c-8.7,1.1-16.1,6-20.6,13.1c0.8-1,1.7-1.9,2.6-2.3c1.4-0.7,3.2-0.5,3.2-0.5s-1.3,3.4-1.5,5.3
				c-0.4,3.3-0.2,4.8-0.2,4.8s-1.8,1.4-3.7,4.1c-2,2.7-2.3,4-2.3,4s-1-0.7-1.6-2.7c-0.3-0.9-0.3-2.5-0.3-3.6c-0.5,2-0.7,4.2-0.7,6.4
				c0,6.2,2,12,5.3,16.7c-0.1-0.6-0.2-1.5-0.1-2.7s0.3-2.2,0.3-2.2s1.4,1.5,3.8,2.7c3.3,1.6,4.8,2.1,4.8,2.1s1.3,2.8,2.4,4.2
				s3.7,3.8,3.7,3.8s-1.1,0.5-2.2,0.7c-1,0.2-1.9,0.2-2.6,0.2c4,2.1,8.6,3.3,13.5,3.3c2.9,0,5.6-0.4,8.2-1.2
				c-0.4-0.2-1.2-0.5-2.3-0.9c-1.2-0.5-2.3-0.9-2.3-0.9s0.2,0,3.1-2.8c2.9-2.8,3.6-4.6,3.6-4.6s2.1,0.1,4.7-0.7
				c3-0.9,5.3-2.1,5.3-2.1s0.4,0.8,0.5,2.1c0,0.7-0.1,1.8-0.2,2.4c5.1-5.2,8.2-12.3,8.2-20.2c0-0.1,0-0.3,0-0.4
				C73.5,29,73,30.1,72.4,30.9z M52.6,33.7c-2.2,4.8-2.9,5.2-3.2,5.2c0.1,0.1-0.3,0.5-6.4-0.1c-7-0.7-6.6-1.1-6.5-1.1
				c-0.1,0-0.7-0.1-1.9-5.8c-1.3-6.4-0.7-7-0.7-7s2.3-1.7,4.8-3.2s6.1-3.2,6.1-3.2s1.4,0,6.1,4.1c4.7,4.1,4,4.4,4,4.4
				S55.4,27.6,52.6,33.7z"/>
		</g>
	</g>
</g>
</svg>
