<?xml version="1.0" encoding="utf-8"?>
<!-- Generator: Adobe Illustrator 20.1.0, SVG Export Plug-In . SVG Version: 6.00 Build 0)  -->
<svg version="1.1" id="Layer_1" xmlns="http://www.w3.org/2000/svg" xmlns:xlink="http://www.w3.org/1999/xlink" x="0px" y="0px"
	 viewBox="0 0 90 87.3" style="enable-background:new 0 0 90 87.3;" xml:space="preserve">
<style type="text/css">
	.st0{fill:#FFFFFF;}
	.st1{clip-path:url(#SVGID_2_);fill:#FFFFFF;}
</style>
<g id="Layer_2">
</g>
<g>
	<g>
		<path class="st0" d="M20.7,70.3h-4.8v3.3h5.6v2h-8.1V63.5h8.1v2h-5.6v2.9h4.8V70.3z"/>
		<path class="st0" d="M32.1,63.5v8c0,1.3-0.4,2.4-1.2,3.1s-2,1.2-3.4,1.2c-1.4,0-2.5-0.4-3.4-1.1c-0.8-0.7-1.3-1.8-1.3-3.1v-8.1
			h2.5v8c0,0.8,0.2,1.4,0.6,1.7c0.4,0.4,0.9,0.5,1.6,0.5c1.4,0,2.1-0.7,2.1-2.2v-8H32.1z"/>
		<path class="st0" d="M38.7,71.1h-2v4.4h-2.5V63.5h4.5c1.4,0,2.5,0.3,3.3,1c0.8,0.6,1.2,1.5,1.2,2.7c0,0.8-0.2,1.5-0.5,2.1
			c-0.4,0.6-0.9,1-1.6,1.3l2.6,4.9v0.1h-2.7L38.7,71.1z M36.7,69.1h2c0.6,0,1.1-0.2,1.5-0.5c0.3-0.3,0.5-0.8,0.5-1.3
			c0-0.6-0.2-1-0.5-1.3c-0.3-0.3-0.8-0.5-1.5-0.5h-2V69.1z"/>
		<path class="st0" d="M55,69.8c0,1.2-0.2,2.2-0.6,3.1s-1,1.6-1.8,2.1c-0.8,0.5-1.7,0.7-2.7,0.7c-1,0-1.9-0.2-2.7-0.7
			c-0.8-0.5-1.4-1.2-1.8-2.1c-0.4-0.9-0.7-1.9-0.7-3.1v-0.6c0-1.2,0.2-2.2,0.6-3.1c0.4-0.9,1-1.6,1.8-2.1c0.8-0.5,1.7-0.7,2.7-0.7
			c1,0,1.9,0.2,2.7,0.7c0.8,0.5,1.4,1.2,1.8,2.1c0.4,0.9,0.6,1.9,0.6,3.1V69.8z M52.4,69.2c0-1.3-0.2-2.2-0.7-2.9s-1.1-1-1.9-1
			c-0.8,0-1.5,0.3-1.9,1c-0.5,0.7-0.7,1.6-0.7,2.9v0.6c0,1.2,0.2,2.2,0.7,2.9c0.5,0.7,1.1,1,2,1c0.8,0,1.5-0.3,1.9-1
			c0.4-0.7,0.7-1.6,0.7-2.9V69.2z"/>
		<path class="st0" d="M59.3,71.3v4.3h-2.5V63.5h4.7c0.9,0,1.7,0.2,2.4,0.5c0.7,0.3,1.2,0.8,1.6,1.4c0.4,0.6,0.6,1.3,0.6,2.1
			c0,1.2-0.4,2.1-1.2,2.8c-0.8,0.7-1.9,1-3.4,1H59.3z M59.3,69.3h2.2c0.7,0,1.2-0.2,1.5-0.5c0.3-0.3,0.5-0.8,0.5-1.3
			c0-0.6-0.2-1.1-0.5-1.4c-0.3-0.4-0.8-0.6-1.4-0.6h-2.3V69.3z"/>
		<path class="st0" d="M73.1,73.1h-4.4l-0.8,2.5h-2.6l4.5-12.1h2.3l4.5,12.1h-2.6L73.1,73.1z M69.4,71h3l-1.5-4.5L69.4,71z"/>
		<path class="st0" d="M25.6,85.8h3.6v1.4h-5.3v-8.3h1.7V85.8z"/>
		<path class="st0" d="M35.2,83.6h-3.3v2.2h3.8v1.4h-5.5v-8.3h5.5v1.4h-3.8v2h3.3V83.6z"/>
		<path class="st0" d="M41.4,85.5h-3l-0.6,1.7H36l3.1-8.3h1.6l3.1,8.3H42L41.4,85.5z M38.9,84.1h2.1l-1-3.1L38.9,84.1z"/>
		<path class="st0" d="M51,86.1c-0.3,0.4-0.7,0.7-1.3,0.9c-0.6,0.2-1.2,0.3-1.9,0.3c-0.7,0-1.3-0.2-1.9-0.5c-0.5-0.3-1-0.8-1.2-1.4
			c-0.3-0.6-0.4-1.3-0.5-2.1v-0.6c0-0.8,0.1-1.5,0.4-2.1c0.3-0.6,0.7-1.1,1.2-1.4c0.5-0.3,1.1-0.5,1.8-0.5c1,0,1.7,0.2,2.3,0.7
			c0.6,0.5,0.9,1.1,1,2h-1.7c-0.1-0.5-0.2-0.8-0.5-1c-0.3-0.2-0.6-0.3-1.1-0.3c-0.6,0-1,0.2-1.3,0.7c-0.3,0.4-0.5,1.1-0.5,1.9v0.5
			c0,0.9,0.2,1.5,0.5,2c0.3,0.4,0.8,0.7,1.4,0.7c0.6,0,1.1-0.1,1.4-0.4v-1.4h-1.5v-1.3H51V86.1z"/>
		<path class="st0" d="M58.6,78.9v5.4c0,0.9-0.3,1.6-0.8,2.1c-0.6,0.5-1.3,0.8-2.3,0.8c-1,0-1.7-0.3-2.3-0.8
			c-0.6-0.5-0.9-1.2-0.9-2.1v-5.5H54v5.4c0,0.5,0.1,0.9,0.4,1.2c0.3,0.2,0.6,0.4,1.1,0.4c1,0,1.4-0.5,1.5-1.5v-5.5H58.6z"/>
		<path class="st0" d="M64.9,83.6h-3.3v2.2h3.8v1.4H60v-8.3h5.5v1.4h-3.8v2h3.3V83.6z"/>
	</g>
	<g>
		<defs>
			<circle id="SVGID_1_" cx="45" cy="28.9" r="28.9"/>
		</defs>
		<clipPath id="SVGID_2_">
			<use xlink:href="#SVGID_1_"  style="overflow:visible;"/>
		</clipPath>
		<path class="st1" d="M72.5,30.9c-1,1.4-2.3,2.2-2.3,2.2s-0.6-1.8-2.2-4.8c-1.2-2.3-2.9-3.7-2.9-3.7s0.4-2.5,0.7-5.5
			c0.3-3.1,0-5.3,0-5.3s1.2,0.1,3.1,1.1c1.1,0.6,1.8,1.2,2.2,1.7C67.7,9.4,61.5,3.9,53.9,1.4c0.3,0.4,0.6,0.9,1,1.5
			c0.7,0.9,1.5,2.8,1.5,2.8S53.6,6.1,51,6.4c-3.3,0.4-5.1,1.3-5.1,1.3S43.1,6,41.3,5.4s-4.5-1-4.5-1s0.5-1.4,1.9-2.6
			c1.2-1.1,2.1-1.4,2.6-1.5c-8.7,1.1-16.2,6.1-20.7,13.2c0.8-1,1.7-1.9,2.6-2.3c1.4-0.7,3.2-0.5,3.2-0.5s-1.3,3.4-1.5,5.3
			c-0.4,3.3-0.2,4.8-0.2,4.8s-1.8,1.4-3.7,4.1c-2,2.7-2.3,4-2.3,4s-0.9-0.7-1.4-2.7c-0.3-0.9-0.3-2.5-0.3-3.6
			c-0.5,2-0.7,4.2-0.7,6.4c0,6.2,2,12,5.3,16.7c-0.1-0.6-0.2-1.5-0.1-2.7c0.1-1.2,0.3-2.2,0.3-2.2s1.4,1.5,3.8,2.7
			c3.3,1.6,4.8,2.1,4.8,2.1s1.3,2.8,2.4,4.2c1,1.3,3.7,3.8,3.7,3.8s-1.1,0.5-2.2,0.7c-1,0.2-1.9,0.2-2.6,0.2c4,2.1,8.6,3.3,13.5,3.3
			c2.9,0,5.6-0.4,8.2-1.2c-0.4-0.2-1.2-0.5-2.3-0.9c-1.2-0.5-2.3-0.9-2.3-0.9s0.2,0,3.1-2.8c2.9-2.8,3.6-4.6,3.6-4.6
			s2.1,0.1,4.7-0.7c3-0.9,5.3-2.1,5.3-2.1s0.4,0.8,0.5,2.1c0,0.7-0.1,1.8-0.2,2.4c5.1-5.2,8.2-12.3,8.2-20.2c0-0.1,0-0.3,0-0.4
			C73.6,29,73,30.1,72.5,30.9z M52.6,33.7c-2.2,4.8-2.9,5.2-3.2,5.2c0.1,0.1-0.3,0.5-6.4-0.1c-7-0.7-6.6-1.1-6.5-1.1
			c-0.1,0-0.7-0.1-1.9-5.8c-1.3-6.4-0.7-7-0.7-7s2.3-1.7,4.8-3.2c2.5-1.5,6.1-3.2,6.1-3.2s1.4,0,6.1,4.1c4.7,4.1,4,4.4,4,4.4
			S55.5,27.6,52.6,33.7z"/>
	</g>
</g>
</svg>
